<svg version="1.1" xmlns="http://www.w3.org/2000/svg" viewBox="0 0 901.9367826829753 388.61565700000006" width="2705.810348048926" height="1165.8469710000002">
  <!-- svg-source:excalidraw -->
  
  <defs>
    <style class="style-fonts">
      @font-face {
        font-family: "Virgil";
        src: url("https://excalidraw.com/Virgil.woff2");
      }
      @font-face {
        font-family: "Cascadia";
        src: url("https://excalidraw.com/Cascadia.woff2");
      }
      @font-face {
        font-family: "Assistant";
        src: url("https://excalidraw.com/Assistant-Regular.woff2");
      }
    </style>
    <clipPath id="yZ8wywk7xicrPbwPjqyS-">
            <rect transform="translate(0 0) rotate(0 450.96839134148763 194.30782850000003)" width="901.9367826829753" height="388.61565700000006">
          </rect>
        </clipPath>
  </defs>
  <rect x="0" y="0" width="901.9367826829753" height="388.61565700000006" fill="#ffffff"></rect><g clip-path="url(#yZ8wywk7xicrPbwPjqyS-)"><g stroke-linecap="round"><g transform="translate(123.96029382278562 1.1613564931037672) rotate(0 0 178.2848838852458)"><path d="M-0.57 -1.16 C-0.87 58.2, -0.67 296.7, -0.63 356.3 M1.33 0.84 C1.33 60.37, 2.18 298.22, 1.75 357.69" stroke="#1e1e1e" stroke-width="1" fill="none"></path></g></g><mask></mask></g><g clip-path="url(#yZ8wywk7xicrPbwPjqyS-)"><g stroke-linecap="round"><g transform="translate(126.5034427892972 90.96023825226484) rotate(0 83.73700907437512 0)"><path d="M0.32 0 C28.48 0.11, 140.56 1.07, 168.23 0.98 M-0.97 -1.04 C27.17 -1.29, 139.41 -0.89, 167.68 -0.62" stroke="#1e1e1e" stroke-width="1" fill="none"></path></g></g><mask></mask></g><g clip-path="url(#yZ8wywk7xicrPbwPjqyS-)"><g stroke-linecap="round"><g transform="translate(296.58680838363534 179.86781783619222) rotate(0 -84.66307055623759 0)"><path d="M0.39 -0.96 C-28.05 -1.27, -141.99 -1.24, -170.39 -1.1 M-0.87 1.16 C-28.97 0.89, -139.86 -0.14, -168.24 -0.14" stroke="#1e1e1e" stroke-width="1" fill="none"></path></g></g><mask></mask></g><g clip-path="url(#yZ8wywk7xicrPbwPjqyS-)"><g stroke-linecap="round"><g transform="translate(293.1543582273921 247.90922613896078) rotate(0 -84.80122396137187 0)"><path d="M-0.94 -0.44 C-29.21 -0.59, -140.79 -1.06, -168.71 -0.8 M0.76 -1.71 C-27.66 -1.73, -140.95 0.14, -169.19 0.32" stroke="#1e1e1e" stroke-width="1" fill="none"></path></g></g><mask></mask></g><g clip-path="url(#yZ8wywk7xicrPbwPjqyS-)"><g transform="translate(189.01353034786825 122.80791954155575) rotate(0 35.18995666503906 12.5)"><text x="0" y="0" font-family="Virgil, Segoe UI Emoji" font-size="20px" fill="#1e1e1e" text-anchor="start" style="white-space: pre;" direction="ltr" dominant-baseline="text-before-edge">copper </text></g></g><g clip-path="url(#yZ8wywk7xicrPbwPjqyS-)"><g transform="translate(189.01353016453663 198.1464126605997) rotate(0 24.64997100830078 12.5)"><text x="0" y="0" font-family="Virgil, Segoe UI Emoji" font-size="20px" fill="#1e1e1e" text-anchor="start" style="white-space: pre;" direction="ltr" dominant-baseline="text-before-edge">steel</text></g></g><g clip-path="url(#yZ8wywk7xicrPbwPjqyS-)"><g transform="translate(125.8177405469728 18.25400439798409) rotate(0 -22.613657732319098 26.962435768480418)" stroke="none"><path fill="#1e1e1e" d="M 1.38,0.86 Q 1.38,0.86 0.09,2.84 -1.18,4.82 -2.53,6.48 -3.87,8.15 -4.86,9.58 -5.84,11.01 -7.57,13.34 -9.29,15.67 -12.09,18.72 -14.89,21.77 -16.79,24.01 -18.69,26.25 -20.00,27.75 -21.31,29.25 -23.91,31.88 -26.50,34.51 -28.85,36.87 -31.21,39.23 -32.71,40.73 -34.21,42.23 -35.58,43.64 -36.94,45.05 -37.97,46.20 -38.99,47.36 -39.54,48.29 -40.10,49.23 -40.64,50.32 -41.18,51.40 -42.16,53.06 -43.13,54.72 -43.32,55.03 -43.50,55.35 -43.77,55.58 -44.04,55.82 -44.38,55.96 -44.71,56.10 -45.07,56.12 -45.43,56.15 -45.78,56.05 -46.13,55.96 -46.44,55.76 -46.74,55.56 -46.96,55.28 -47.18,54.99 -47.30,54.65 -47.42,54.31 -47.43,53.95 -47.43,53.59 -47.32,53.24 -47.21,52.90 -47.00,52.61 -46.78,52.32 -46.48,52.11 -46.19,51.90 -45.84,51.80 -45.49,51.70 -45.13,51.71 -44.77,51.73 -44.43,51.86 -44.09,51.99 -43.82,52.22 -43.54,52.45 -43.35,52.76 -43.16,53.07 -43.07,53.42 -42.99,53.77 -43.03,54.13 -43.06,54.49 -43.21,54.82 -43.35,55.15 -43.60,55.42 -43.85,55.68 -44.16,55.86 -44.48,56.03 -44.84,56.09 -45.19,56.16 -45.55,56.10 -45.91,56.05 -46.23,55.88 -46.55,55.72 -46.81,55.46 -47.06,55.20 -47.21,54.87 -47.37,54.55 -47.41,54.19 -47.46,53.83 -47.38,53.47 -47.31,53.12 -47.31,53.12 -47.31,53.12 -46.20,51.38 -45.09,49.65 -44.05,48.36 -43.02,47.07 -42.15,46.07 -41.28,45.08 -40.13,44.05 -38.97,43.03 -37.57,41.66 -36.16,40.29 -34.68,38.78 -33.19,37.26 -30.87,34.89 -28.55,32.52 -26.03,29.90 -23.51,27.29 -22.20,25.85 -20.89,24.41 -18.98,22.10 -17.07,19.79 -14.43,16.83 -11.78,13.88 -10.12,11.49 -8.45,9.10 -7.35,7.68 -6.25,6.25 -5.03,4.71 -3.81,3.17 -2.59,1.15 -1.38,-0.86 -1.26,-1.01 -1.13,-1.17 -0.98,-1.29 -0.82,-1.41 -0.64,-1.48 -0.46,-1.56 -0.26,-1.60 -0.07,-1.63 0.12,-1.61 0.31,-1.60 0.50,-1.54 0.69,-1.48 0.86,-1.37 1.02,-1.27 1.16,-1.13 1.30,-0.98 1.40,-0.81 1.50,-0.64 1.55,-0.45 1.61,-0.27 1.62,-0.07 1.63,0.12 1.59,0.31 1.55,0.50 1.46,0.68 1.38,0.86 1.38,0.86 L 1.38,0.86 Z"></path></g></g><g clip-path="url(#yZ8wywk7xicrPbwPjqyS-)"><g transform="translate(125.68007492720335 80.87643200726757) rotate(0 -22.613657732319098 26.962435768480418)" stroke="none"><path fill="#1e1e1e" d="M 1.38,0.86 Q 1.38,0.86 0.09,2.84 -1.18,4.82 -2.53,6.48 -3.87,8.15 -4.86,9.58 -5.84,11.01 -7.57,13.34 -9.29,15.67 -12.09,18.72 -14.89,21.77 -16.79,24.01 -18.69,26.25 -20.00,27.75 -21.31,29.25 -23.91,31.88 -26.50,34.51 -28.85,36.87 -31.21,39.23 -32.71,40.73 -34.21,42.23 -35.58,43.64 -36.94,45.05 -37.97,46.20 -38.99,47.36 -39.54,48.29 -40.10,49.23 -40.64,50.32 -41.18,51.40 -42.12,52.92 -43.06,54.43 -43.24,54.74 -43.42,55.05 -43.69,55.28 -43.96,55.51 -44.28,55.65 -44.61,55.79 -44.97,55.81 -45.33,55.84 -45.67,55.74 -46.01,55.65 -46.31,55.46 -46.61,55.26 -46.83,54.98 -47.05,54.70 -47.17,54.36 -47.28,54.03 -47.29,53.67 -47.29,53.31 -47.18,52.97 -47.08,52.64 -46.86,52.35 -46.65,52.06 -46.36,51.86 -46.07,51.65 -45.72,51.56 -45.38,51.46 -45.03,51.47 -44.67,51.48 -44.34,51.61 -44.00,51.74 -43.73,51.97 -43.46,52.19 -43.27,52.50 -43.08,52.80 -43.00,53.15 -42.92,53.49 -42.95,53.85 -42.99,54.20 -43.13,54.53 -43.28,54.85 -43.52,55.12 -43.76,55.38 -44.07,55.55 -44.39,55.72 -44.74,55.78 -45.09,55.84 -45.44,55.79 -45.79,55.74 -46.11,55.58 -46.43,55.41 -46.67,55.16 -46.92,54.90 -47.08,54.58 -47.23,54.26 -47.27,53.90 -47.32,53.55 -47.24,53.20 -47.17,52.85 -47.17,52.85 -47.17,52.85 -46.13,51.25 -45.09,49.65 -44.05,48.36 -43.02,47.07 -42.15,46.07 -41.28,45.08 -40.13,44.05 -38.97,43.03 -37.57,41.66 -36.16,40.29 -34.68,38.78 -33.19,37.26 -30.87,34.89 -28.55,32.52 -26.03,29.90 -23.51,27.29 -22.20,25.85 -20.89,24.41 -18.98,22.10 -17.07,19.79 -14.43,16.83 -11.78,13.88 -10.12,11.49 -8.45,9.10 -7.35,7.68 -6.25,6.25 -5.03,4.71 -3.81,3.17 -2.59,1.15 -1.38,-0.86 -1.26,-1.01 -1.13,-1.17 -0.98,-1.29 -0.82,-1.41 -0.64,-1.48 -0.46,-1.56 -0.26,-1.60 -0.07,-1.63 0.12,-1.61 0.31,-1.60 0.50,-1.54 0.69,-1.48 0.86,-1.37 1.02,-1.27 1.16,-1.13 1.30,-0.98 1.40,-0.81 1.50,-0.64 1.55,-0.45 1.61,-0.27 1.62,-0.07 1.63,0.12 1.59,0.31 1.55,0.50 1.46,0.68 1.38,0.86 1.38,0.86 L 1.38,0.86 Z"></path></g></g><g clip-path="url(#yZ8wywk7xicrPbwPjqyS-)"><g transform="translate(121.76617320162313 170.89617169561257) rotate(0 -22.613657732319098 26.962435768480418)" stroke="none"><path fill="#1e1e1e" d="M 1.38,0.86 Q 1.38,0.86 0.09,2.84 -1.18,4.82 -2.53,6.48 -3.87,8.15 -4.86,9.58 -5.84,11.01 -7.57,13.34 -9.29,15.67 -12.09,18.72 -14.89,21.77 -16.79,24.01 -18.69,26.25 -20.00,27.75 -21.31,29.25 -23.91,31.88 -26.50,34.51 -28.85,36.87 -31.21,39.23 -32.71,40.73 -34.21,42.23 -35.58,43.64 -36.94,45.05 -37.97,46.20 -38.99,47.36 -39.54,48.29 -40.10,49.23 -40.64,50.32 -41.18,51.40 -42.12,52.92 -43.06,54.43 -43.24,54.74 -43.42,55.05 -43.69,55.28 -43.96,55.51 -44.28,55.65 -44.61,55.79 -44.97,55.81 -45.33,55.84 -45.67,55.74 -46.01,55.65 -46.31,55.46 -46.61,55.26 -46.83,54.98 -47.05,54.70 -47.17,54.36 -47.28,54.03 -47.29,53.67 -47.29,53.31 -47.18,52.97 -47.08,52.64 -46.86,52.35 -46.65,52.06 -46.36,51.86 -46.07,51.65 -45.72,51.56 -45.38,51.46 -45.03,51.47 -44.67,51.48 -44.34,51.61 -44.00,51.74 -43.73,51.97 -43.46,52.19 -43.27,52.50 -43.08,52.80 -43.00,53.15 -42.92,53.49 -42.95,53.85 -42.99,54.20 -43.13,54.53 -43.28,54.85 -43.52,55.12 -43.76,55.38 -44.07,55.55 -44.39,55.72 -44.74,55.78 -45.09,55.84 -45.44,55.79 -45.79,55.74 -46.11,55.58 -46.43,55.41 -46.67,55.16 -46.92,54.90 -47.08,54.58 -47.23,54.26 -47.27,53.90 -47.32,53.55 -47.24,53.20 -47.17,52.85 -47.17,52.85 -47.17,52.85 -46.13,51.25 -45.09,49.65 -44.05,48.36 -43.02,47.07 -42.15,46.07 -41.28,45.08 -40.13,44.05 -38.97,43.03 -37.57,41.66 -36.16,40.29 -34.68,38.78 -33.19,37.26 -30.87,34.89 -28.55,32.52 -26.03,29.90 -23.51,27.29 -22.20,25.85 -20.89,24.41 -18.98,22.10 -17.07,19.79 -14.43,16.83 -11.78,13.88 -10.12,11.49 -8.45,9.10 -7.35,7.68 -6.25,6.25 -5.03,4.71 -3.81,3.17 -2.59,1.15 -1.38,-0.86 -1.26,-1.01 -1.13,-1.17 -0.98,-1.29 -0.82,-1.41 -0.64,-1.48 -0.46,-1.56 -0.26,-1.60 -0.07,-1.63 0.12,-1.61 0.31,-1.60 0.50,-1.54 0.69,-1.48 0.86,-1.37 1.02,-1.27 1.16,-1.13 1.30,-0.98 1.40,-0.81 1.50,-0.64 1.55,-0.45 1.61,-0.27 1.62,-0.07 1.63,0.12 1.59,0.31 1.55,0.50 1.46,0.68 1.38,0.86 1.38,0.86 L 1.38,0.86 Z"></path></g></g><g clip-path="url(#yZ8wywk7xicrPbwPjqyS-)"><g transform="translate(122.74464863301819 241.34640275605693) rotate(0 -22.613657732319098 26.962435768480418)" stroke="none"><path fill="#1e1e1e" d="M 1.38,0.86 Q 1.38,0.86 0.09,2.84 -1.18,4.82 -2.53,6.48 -3.87,8.15 -4.86,9.58 -5.84,11.01 -7.57,13.34 -9.29,15.67 -12.09,18.72 -14.89,21.77 -16.79,24.01 -18.69,26.25 -20.00,27.75 -21.31,29.25 -23.91,31.88 -26.50,34.51 -28.85,36.87 -31.21,39.23 -32.71,40.73 -34.21,42.23 -35.58,43.64 -36.94,45.05 -37.97,46.20 -38.99,47.36 -39.54,48.29 -40.10,49.23 -40.64,50.32 -41.18,51.40 -42.12,52.92 -43.06,54.43 -43.24,54.74 -43.42,55.05 -43.69,55.28 -43.96,55.51 -44.28,55.65 -44.61,55.79 -44.97,55.81 -45.33,55.84 -45.67,55.74 -46.01,55.65 -46.31,55.46 -46.61,55.26 -46.83,54.98 -47.05,54.70 -47.17,54.36 -47.28,54.03 -47.29,53.67 -47.29,53.31 -47.18,52.97 -47.08,52.64 -46.86,52.35 -46.65,52.06 -46.36,51.86 -46.07,51.65 -45.72,51.56 -45.38,51.46 -45.03,51.47 -44.67,51.48 -44.34,51.61 -44.00,51.74 -43.73,51.97 -43.46,52.19 -43.27,52.50 -43.08,52.80 -43.00,53.15 -42.92,53.49 -42.95,53.85 -42.99,54.20 -43.13,54.53 -43.28,54.85 -43.52,55.12 -43.76,55.38 -44.07,55.55 -44.39,55.72 -44.74,55.78 -45.09,55.84 -45.44,55.79 -45.79,55.74 -46.11,55.58 -46.43,55.41 -46.67,55.16 -46.92,54.90 -47.08,54.58 -47.23,54.26 -47.27,53.90 -47.32,53.55 -47.24,53.20 -47.17,52.85 -47.17,52.85 -47.17,52.85 -46.13,51.25 -45.09,49.65 -44.05,48.36 -43.02,47.07 -42.15,46.07 -41.28,45.08 -40.13,44.05 -38.97,43.03 -37.57,41.66 -36.16,40.29 -34.68,38.78 -33.19,37.26 -30.87,34.89 -28.55,32.52 -26.03,29.90 -23.51,27.29 -22.20,25.85 -20.89,24.41 -18.98,22.10 -17.07,19.79 -14.43,16.83 -11.78,13.88 -10.12,11.49 -8.45,9.10 -7.35,7.68 -6.25,6.25 -5.03,4.71 -3.81,3.17 -2.59,1.15 -1.38,-0.86 -1.26,-1.01 -1.13,-1.17 -0.98,-1.29 -0.82,-1.41 -0.64,-1.48 -0.46,-1.56 -0.26,-1.60 -0.07,-1.63 0.12,-1.61 0.31,-1.60 0.50,-1.54 0.69,-1.48 0.86,-1.37 1.02,-1.27 1.16,-1.13 1.30,-0.98 1.40,-0.81 1.50,-0.64 1.55,-0.45 1.61,-0.27 1.62,-0.07 1.63,0.12 1.59,0.31 1.55,0.50 1.46,0.68 1.38,0.86 1.38,0.86 L 1.38,0.86 Z"></path></g></g><g clip-path="url(#yZ8wywk7xicrPbwPjqyS-)"><g transform="translate(123.96029318185765 311.7966344048714) rotate(0 -22.613657732319098 26.962435768480418)" stroke="none"><path fill="#1e1e1e" d="M 1.38,0.86 Q 1.38,0.86 0.09,2.84 -1.18,4.82 -2.53,6.48 -3.87,8.15 -4.86,9.58 -5.84,11.01 -7.57,13.34 -9.29,15.67 -12.09,18.72 -14.89,21.77 -16.79,24.01 -18.69,26.25 -20.00,27.75 -21.31,29.25 -23.91,31.88 -26.50,34.51 -28.85,36.87 -31.21,39.23 -32.71,40.73 -34.21,42.23 -35.58,43.64 -36.94,45.05 -37.97,46.20 -38.99,47.36 -39.54,48.29 -40.10,49.23 -40.64,50.32 -41.18,51.40 -42.12,52.92 -43.06,54.43 -43.24,54.74 -43.42,55.05 -43.69,55.28 -43.96,55.51 -44.28,55.65 -44.61,55.79 -44.97,55.81 -45.33,55.84 -45.67,55.74 -46.01,55.65 -46.31,55.46 -46.61,55.26 -46.83,54.98 -47.05,54.70 -47.17,54.36 -47.28,54.03 -47.29,53.67 -47.29,53.31 -47.18,52.97 -47.08,52.64 -46.86,52.35 -46.65,52.06 -46.36,51.86 -46.07,51.65 -45.72,51.56 -45.38,51.46 -45.03,51.47 -44.67,51.48 -44.34,51.61 -44.00,51.74 -43.73,51.97 -43.46,52.19 -43.27,52.50 -43.08,52.80 -43.00,53.15 -42.92,53.49 -42.95,53.85 -42.99,54.20 -43.13,54.53 -43.28,54.85 -43.52,55.12 -43.76,55.38 -44.07,55.55 -44.39,55.72 -44.74,55.78 -45.09,55.84 -45.44,55.79 -45.79,55.74 -46.11,55.58 -46.43,55.41 -46.67,55.16 -46.92,54.90 -47.08,54.58 -47.23,54.26 -47.27,53.90 -47.32,53.55 -47.24,53.20 -47.17,52.85 -47.17,52.85 -47.17,52.85 -46.13,51.25 -45.09,49.65 -44.05,48.36 -43.02,47.07 -42.15,46.07 -41.28,45.08 -40.13,44.05 -38.97,43.03 -37.57,41.66 -36.16,40.29 -34.68,38.78 -33.19,37.26 -30.87,34.89 -28.55,32.52 -26.03,29.90 -23.51,27.29 -22.20,25.85 -20.89,24.41 -18.98,22.10 -17.07,19.79 -14.43,16.83 -11.78,13.88 -10.12,11.49 -8.45,9.10 -7.35,7.68 -6.25,6.25 -5.03,4.71 -3.81,3.17 -2.59,1.15 -1.38,-0.86 -1.26,-1.01 -1.13,-1.17 -0.98,-1.29 -0.82,-1.41 -0.64,-1.48 -0.46,-1.56 -0.26,-1.60 -0.07,-1.63 0.12,-1.61 0.31,-1.60 0.50,-1.54 0.69,-1.48 0.86,-1.37 1.02,-1.27 1.16,-1.13 1.30,-0.98 1.40,-0.81 1.50,-0.64 1.55,-0.45 1.61,-0.27 1.62,-0.07 1.63,0.12 1.59,0.31 1.55,0.50 1.46,0.68 1.38,0.86 1.38,0.86 L 1.38,0.86 Z"></path></g></g><g clip-path="url(#yZ8wywk7xicrPbwPjqyS-)"><g transform="translate(235.60934329527527 267.2003931708098) rotate(0 51.01933288574219 35.35687274430916)"><text x="0" y="0" font-family="Virgil, Segoe UI Emoji" font-size="56.57099639089469px" fill="#1e1e1e" text-anchor="start" style="white-space: pre;" direction="ltr" dominant-baseline="text-before-edge">T ↓</text></g></g><g clip-path="url(#yZ8wywk7xicrPbwPjqyS-)"><g transform="translate(145.9975766312873 7.809409576699636) rotate(0 211.30975341796875 12.5)"><text x="0" y="0" font-family="Virgil, Segoe UI Emoji" font-size="20px" fill="#1e1e1e" text-anchor="start" style="white-space: pre;" direction="ltr" dominant-baseline="text-before-edge">join to each other, temperature decreases</text></g></g><g clip-path="url(#yZ8wywk7xicrPbwPjqyS-)"><g stroke-linecap="round"><g transform="translate(296.58680838363534 91.31351794627699) rotate(0 0 77.84317326115035)"><path d="M0.79 0.83 C0.62 26.61, -0.77 129.82, -0.88 155.53 M-0.25 0.22 C-0.06 26.12, 1.42 131, 1.37 156.98" stroke="#1e1e1e" stroke-width="1" fill="none"></path></g></g><mask></mask></g><g clip-path="url(#yZ8wywk7xicrPbwPjqyS-)"><g stroke-linecap="round"><g transform="translate(208.74140545714522 92.18327082699238) rotate(0 0 44.792439154057206)"><path d="M-0.38 1.17 C-0.42 15.88, -1.28 74.85, -1.11 89.4 M1.63 0.74 C2.02 16.14, 1.25 76.1, 1.01 90.84" stroke="#1e1e1e" stroke-width="1" fill="none"></path></g></g><mask></mask></g><g clip-path="url(#yZ8wywk7xicrPbwPjqyS-)"><g stroke-linecap="round"><g transform="translate(301.8052643892079 134.8013284281442) rotate(0 -41.748275119288905 0)"><path d="M-1.08 -0.15 C-14.84 0.2, -69.8 0.94, -83.44 0.97 M0.55 -1.27 C-13.29 -1.14, -70.37 -1.08, -84.36 -0.64" stroke="#1e1e1e" stroke-width="1" fill="none"></path></g><g transform="translate(301.8052643892079 134.8013284281442) rotate(0 -41.748275119288905 0)"><path d="M-60.99 -9.52 C-66.64 -7.62, -70.09 -4.74, -84.36 -0.64 M-60.99 -9.52 C-68.73 -7.22, -74.7 -3.59, -84.36 -0.64" stroke="#1e1e1e" stroke-width="1" fill="none"></path></g><g transform="translate(301.8052643892079 134.8013284281442) rotate(0 -41.748275119288905 0)"><path d="M-60.75 7.58 C-66.3 5.59, -69.8 4.58, -84.36 -0.64 M-60.75 7.58 C-68.68 4.74, -74.72 3.23, -84.36 -0.64" stroke="#1e1e1e" stroke-width="1" fill="none"></path></g></g><mask></mask></g><g clip-path="url(#yZ8wywk7xicrPbwPjqyS-)"><g stroke-linecap="round"><g transform="translate(259.90043464318865 179.15889127162018) rotate(0 -1.1368683772161603e-13 33.050719046966265)"><path d="M-0.35 0.03 C-0.39 10.86, 0.46 54.69, 0.61 65.75 M1.66 -1 C1.45 9.94, 0.24 55.63, -0.02 67.11" stroke="#1e1e1e" stroke-width="1" fill="none"></path></g></g><mask></mask></g><g clip-path="url(#yZ8wywk7xicrPbwPjqyS-)"><g stroke-linecap="round"><g transform="translate(297.4564714226965 210.47010507626192) rotate(0 -14.350933179526919 0)"><path d="M-0.44 0.46 C-5.09 0.51, -23.74 -0.11, -28.38 -0.2 M0.34 0.22 C-4.32 0.39, -23.85 0.35, -28.65 0.4" stroke="#1e1e1e" stroke-width="1" fill="none"></path></g><g transform="translate(297.4564714226965 210.47010507626192) rotate(0 -14.350933179526919 0)"><path d="M-15.19 -4.56 C-17.49 -3.14, -21.22 -2, -28.65 0.4 M-15.19 -4.56 C-18.78 -2.9, -22.9 -1.85, -28.65 0.4" stroke="#1e1e1e" stroke-width="1" fill="none"></path></g><g transform="translate(297.4564714226965 210.47010507626192) rotate(0 -14.350933179526919 0)"><path d="M-15.15 5.26 C-17.41 4.58, -21.16 3.62, -28.65 0.4 M-15.15 5.26 C-18.79 4.07, -22.92 2.26, -28.65 0.4" stroke="#1e1e1e" stroke-width="1" fill="none"></path></g></g><mask></mask></g><g clip-path="url(#yZ8wywk7xicrPbwPjqyS-)"><g stroke-linecap="round"><g transform="translate(235.60934408643925 37.76975559921971) rotate(0 0 145.24923269187445)"><path d="M0.26 0.24 C0.29 48.55, 0.87 241.41, 0.71 289.87 M-1.07 -0.67 C-1.17 47.78, 0.26 242.81, 0.14 291.08" stroke="#1e1e1e" stroke-width="1" fill="none"></path></g></g><mask></mask></g><g clip-path="url(#yZ8wywk7xicrPbwPjqyS-)"><g stroke-linecap="round"><g transform="translate(215.69942642644287 273.9622853067078) rotate(0 12.176596417672044 0)"><path d="M-0.31 -0.37 C3.72 -0.43, 20.67 -0.23, 24.72 -0.19 M0.53 0.63 C4.48 0.64, 20.38 0.45, 24.48 0.42" stroke="#1e1e1e" stroke-width="1" fill="none"></path></g><g transform="translate(215.69942642644287 273.9622853067078) rotate(0 12.176596417672044 0)"><path d="M13.08 4.7 C17.18 3.44, 21.9 0.96, 24.48 0.42 M13.08 4.7 C16.25 3.4, 19.51 2.34, 24.48 0.42" stroke="#1e1e1e" stroke-width="1" fill="none"></path></g><g transform="translate(215.69942642644287 273.9622853067078) rotate(0 12.176596417672044 0)"><path d="M13 -3.63 C17.14 -1.59, 21.89 -0.77, 24.48 0.42 M13 -3.63 C16.17 -2.61, 19.46 -1.35, 24.48 0.42" stroke="#1e1e1e" stroke-width="1" fill="none"></path></g></g><mask></mask></g><g clip-path="url(#yZ8wywk7xicrPbwPjqyS-)"><g stroke-linecap="round"><g transform="translate(266.14567609991695 273.91459241251914) rotate(0 -13.916101659996457 0)"><path d="M-0.15 -0.43 C-4.75 -0.36, -23.03 -0.2, -27.63 -0.13 M0.78 0.54 C-3.88 0.73, -23.15 0.5, -27.96 0.5" stroke="#1e1e1e" stroke-width="1" fill="none"></path></g><g transform="translate(266.14567609991695 273.91459241251914) rotate(0 -13.916101659996457 0)"><path d="M-14.85 -4.18 C-19.35 -2.54, -22.91 -1.31, -27.96 0.5 M-14.85 -4.18 C-18.75 -2.95, -22.31 -1.36, -27.96 0.5" stroke="#1e1e1e" stroke-width="1" fill="none"></path></g><g transform="translate(266.14567609991695 273.91459241251914) rotate(0 -13.916101659996457 0)"><path d="M-14.91 5.34 C-19.34 4.13, -22.88 2.5, -27.96 0.5 M-14.91 5.34 C-18.8 3.8, -22.34 2.62, -27.96 0.5" stroke="#1e1e1e" stroke-width="1" fill="none"></path></g></g><mask></mask></g><g clip-path="url(#yZ8wywk7xicrPbwPjqyS-)"><g transform="translate(363.29922106497816 79.84558957278955) rotate(0 253.89968872070312 100)"><text x="0" y="0" font-family="Virgil, Segoe UI Emoji" font-size="20px" fill="#1e1e1e" text-anchor="start" style="white-space: pre;" direction="ltr" dominant-baseline="text-before-edge">copper will cotnract more</text><text x="0" y="25" font-family="Virgil, Segoe UI Emoji" font-size="20px" fill="#1e1e1e" text-anchor="start" style="white-space: pre;" direction="ltr" dominant-baseline="text-before-edge">steel contracts less</text><text x="0" y="50" font-family="Virgil, Segoe UI Emoji" font-size="20px" fill="#1e1e1e" text-anchor="start" style="white-space: pre;" direction="ltr" dominant-baseline="text-before-edge">but since they are joined together </text><text x="0" y="75" font-family="Virgil, Segoe UI Emoji" font-size="20px" fill="#1e1e1e" text-anchor="start" style="white-space: pre;" direction="ltr" dominant-baseline="text-before-edge">they will come to the same median point</text><text x="0" y="100" font-family="Virgil, Segoe UI Emoji" font-size="20px" fill="#1e1e1e" text-anchor="start" style="white-space: pre;" direction="ltr" dominant-baseline="text-before-edge">for this copper will have to be stretched</text><text x="0" y="125" font-family="Virgil, Segoe UI Emoji" font-size="20px" fill="#1e1e1e" text-anchor="start" style="white-space: pre;" direction="ltr" dominant-baseline="text-before-edge">to that point so tensile force on copper</text><text x="0" y="150" font-family="Virgil, Segoe UI Emoji" font-size="20px" fill="#1e1e1e" text-anchor="start" style="white-space: pre;" direction="ltr" dominant-baseline="text-before-edge">steel will have to be compressed to that point so </text><text x="0" y="175" font-family="Virgil, Segoe UI Emoji" font-size="20px" fill="#1e1e1e" text-anchor="start" style="white-space: pre;" direction="ltr" dominant-baseline="text-before-edge">compressive force on steel</text></g></g><g clip-path="url(#yZ8wywk7xicrPbwPjqyS-)"><g transform="translate(538.5140259021107 316.3479948936272) rotate(0 93.68989562988281 12.5)"><text x="0" y="0" font-family="Virgil, Segoe UI Emoji" font-size="20px" fill="#1e1e1e" text-anchor="start" style="white-space: pre;" direction="ltr" dominant-baseline="text-before-edge">(check this answer)</text></g></g></svg>