<svg version="1.1" xmlns="http://www.w3.org/2000/svg" viewBox="0 0 710.5906685346779 492.28186480194677" width="2131.7720056040334" height="1476.8455944058403">
  <!-- svg-source:excalidraw -->
  
  <defs>
    <style class="style-fonts">
      @font-face {
        font-family: "Virgil";
        src: url("https://excalidraw.com/Virgil.woff2");
      }
      @font-face {
        font-family: "Cascadia";
        src: url("https://excalidraw.com/Cascadia.woff2");
      }
      @font-face {
        font-family: "Assistant";
        src: url("https://excalidraw.com/Assistant-Regular.woff2");
      }
    </style>
    <clipPath id="qqfSkCcwK90SUfaECBzFS">
            <rect transform="translate(0 0) rotate(0 355.29533426733894 246.14093240097338)" width="710.5906685346779" height="492.28186480194677">
          </rect>
        </clipPath>
  </defs>
  <rect x="0" y="0" width="710.5906685346779" height="492.28186480194677" fill="#ffffff"></rect><g stroke-linecap="round"><g transform="translate(121.25616561485663 -12.337125085830166) rotate(0 0 178.2848838852458)"><path d="M1.19 -0.08 C1.09 59.64, -0.06 297.82, -0.06 357.41 M0.36 -1.17 C0.04 58.3, -1.15 296.27, -1.03 355.73" stroke="#1e1e1e" stroke-width="1" fill="none"></path></g></g><mask></mask><g clip-path="url(#qqfSkCcwK90SUfaECBzFS)"><g stroke-linecap="round"><g transform="translate(125.34823658136861 77.8150266733312) rotate(0 83.87972111581382 0)"><path d="M-0.06 0.84 C27.9 1.01, 141.12 0.84, 168.95 0.9 M-1.54 0.24 C26.26 0.08, 140.15 -0.63, 168.63 -0.76" stroke="#1e1e1e" stroke-width="1" fill="none"></path></g></g><mask></mask></g><g clip-path="url(#qqfSkCcwK90SUfaECBzFS)"><g stroke-linecap="round"><g transform="translate(294.5340745431729 164.0467370149338) rotate(0 -85.28689023997094 0.8697526211622062)"><path d="M-0.84 1.18 C-29.52 1.41, -142.61 2.26, -170.87 2.25 M0.92 0.76 C-28.05 0.55, -143.3 0.17, -171.97 0.4" stroke="#1e1e1e" stroke-width="1" fill="none"></path></g></g><mask></mask></g><g clip-path="url(#qqfSkCcwK90SUfaECBzFS)"><g stroke-linecap="round"><g transform="translate(291.21084053760046 163.05111201493378) rotate(0 0 33.92048659847876)"><path d="M-0.29 0.51 C-0.13 11.52, 0.26 55.93, 0.16 67.24 M1.75 -0.27 C1.85 11.4, -0.66 57.37, -0.71 68.46" stroke="#1e1e1e" stroke-width="1" fill="none"></path></g></g><mask></mask></g><g clip-path="url(#qqfSkCcwK90SUfaECBzFS)"><g stroke-linecap="round"><g transform="translate(290.45023001946333 234.41074456002684) rotate(0 -84.80122396137187 0)"><path d="M0.16 -0.61 C-28.22 -0.61, -142.25 0.29, -170.55 0.48 M-1.22 1.69 C-29.2 1.28, -140.14 -0.86, -168.34 -1.39" stroke="#1e1e1e" stroke-width="1" fill="none"></path></g></g><mask></mask></g><g clip-path="url(#qqfSkCcwK90SUfaECBzFS)"><g transform="translate(186.3094021399395 109.30943796262204) rotate(0 35.18995666503906 12.5)"><text x="0" y="0" font-family="Virgil, Segoe UI Emoji" font-size="20px" fill="#1e1e1e" text-anchor="start" style="white-space: pre;" direction="ltr" dominant-baseline="text-before-edge">copper </text></g></g><g clip-path="url(#qqfSkCcwK90SUfaECBzFS)"><g transform="translate(186.3094019566081 184.647931081666) rotate(0 24.64997100830078 12.5)"><text x="0" y="0" font-family="Virgil, Segoe UI Emoji" font-size="20px" fill="#1e1e1e" text-anchor="start" style="white-space: pre;" direction="ltr" dominant-baseline="text-before-edge">steel</text></g></g><g clip-path="url(#qqfSkCcwK90SUfaECBzFS)"><g stroke-linecap="round"><g transform="translate(290.033155630573 77.74911725833158) rotate(0 0 43.41227825713872)"><path d="M-0.34 0.51 C-0.48 14.86, -0.75 72.39, -0.89 86.69 M1.68 -0.27 C1.92 14.23, 1.45 73.55, 1.36 88.16" stroke="#1e1e1e" stroke-width="1" fill="none"></path></g></g><mask></mask></g><g stroke-linecap="round"><g transform="translate(289.14631026134407 1.7435086368029715) rotate(0 0 178.2848838852458)"><path d="M1.17 -0.46 C1.26 58.98, 1.24 296.1, 1.13 355.46 M0.32 -1.74 C0.3 57.91, 0.83 296.69, 0.78 356.42" stroke="#1e1e1e" stroke-width="1" fill="none"></path></g></g><mask></mask><g clip-path="url(#qqfSkCcwK90SUfaECBzFS)"><g transform="translate(123.22828986030026 42.479479748318) rotate(0 -22.613657732319098 26.962435768480418)" stroke="none"><path fill="#1e1e1e" d="M 1.38,0.86 Q 1.38,0.86 0.09,2.84 -1.18,4.82 -2.53,6.48 -3.87,8.15 -4.86,9.58 -5.84,11.01 -7.57,13.34 -9.29,15.67 -12.09,18.72 -14.89,21.77 -16.79,24.01 -18.69,26.25 -20.00,27.75 -21.31,29.25 -23.91,31.88 -26.50,34.51 -28.85,36.87 -31.21,39.23 -32.71,40.73 -34.21,42.23 -35.58,43.64 -36.94,45.05 -37.97,46.20 -38.99,47.36 -39.54,48.29 -40.10,49.23 -40.64,50.32 -41.18,51.40 -42.12,52.92 -43.06,54.43 -43.24,54.74 -43.42,55.05 -43.69,55.28 -43.96,55.51 -44.28,55.65 -44.61,55.79 -44.97,55.81 -45.33,55.84 -45.67,55.74 -46.01,55.65 -46.31,55.46 -46.61,55.26 -46.83,54.98 -47.05,54.70 -47.17,54.36 -47.28,54.03 -47.29,53.67 -47.29,53.31 -47.18,52.97 -47.08,52.64 -46.86,52.35 -46.65,52.06 -46.36,51.86 -46.07,51.65 -45.72,51.56 -45.38,51.46 -45.03,51.47 -44.67,51.48 -44.34,51.61 -44.00,51.74 -43.73,51.97 -43.46,52.19 -43.27,52.50 -43.08,52.80 -43.00,53.15 -42.92,53.49 -42.95,53.85 -42.99,54.20 -43.13,54.53 -43.28,54.85 -43.52,55.12 -43.76,55.38 -44.07,55.55 -44.39,55.72 -44.74,55.78 -45.09,55.84 -45.44,55.79 -45.79,55.74 -46.11,55.58 -46.43,55.41 -46.67,55.16 -46.92,54.90 -47.08,54.58 -47.23,54.26 -47.27,53.90 -47.32,53.55 -47.24,53.20 -47.17,52.85 -47.17,52.85 -47.17,52.85 -46.13,51.25 -45.09,49.65 -44.05,48.36 -43.02,47.07 -42.15,46.07 -41.28,45.08 -40.13,44.05 -38.97,43.03 -37.57,41.66 -36.16,40.29 -34.68,38.78 -33.19,37.26 -30.87,34.89 -28.55,32.52 -26.03,29.90 -23.51,27.29 -22.20,25.85 -20.89,24.41 -18.98,22.10 -17.07,19.79 -14.43,16.83 -11.78,13.88 -10.12,11.49 -8.45,9.10 -7.35,7.68 -6.25,6.25 -5.03,4.71 -3.81,3.17 -2.59,1.15 -1.38,-0.86 -1.26,-1.01 -1.13,-1.17 -0.98,-1.29 -0.82,-1.41 -0.64,-1.48 -0.46,-1.56 -0.26,-1.60 -0.07,-1.63 0.12,-1.61 0.31,-1.60 0.50,-1.54 0.69,-1.48 0.86,-1.37 1.02,-1.27 1.16,-1.13 1.30,-0.98 1.40,-0.81 1.50,-0.64 1.55,-0.45 1.61,-0.27 1.62,-0.07 1.63,0.12 1.59,0.31 1.55,0.50 1.46,0.68 1.38,0.86 1.38,0.86 L 1.38,0.86 Z"></path></g></g><g clip-path="url(#qqfSkCcwK90SUfaECBzFS)"><g transform="translate(120.89639107657172 99.28379488667565) rotate(0 -22.613657732319098 26.962435768480418)" stroke="none"><path fill="#1e1e1e" d="M 1.38,0.86 Q 1.38,0.86 0.09,2.84 -1.18,4.82 -2.53,6.48 -3.87,8.15 -4.86,9.58 -5.84,11.01 -7.57,13.34 -9.29,15.67 -12.09,18.72 -14.89,21.77 -16.79,24.01 -18.69,26.25 -20.00,27.75 -21.31,29.25 -23.91,31.88 -26.50,34.51 -28.85,36.87 -31.21,39.23 -32.71,40.73 -34.21,42.23 -35.58,43.64 -36.94,45.05 -37.97,46.20 -38.99,47.36 -39.54,48.29 -40.10,49.23 -40.64,50.32 -41.18,51.40 -42.12,52.92 -43.06,54.43 -43.24,54.74 -43.42,55.05 -43.69,55.28 -43.96,55.51 -44.28,55.65 -44.61,55.79 -44.97,55.81 -45.33,55.84 -45.67,55.74 -46.01,55.65 -46.31,55.46 -46.61,55.26 -46.83,54.98 -47.05,54.70 -47.17,54.36 -47.28,54.03 -47.29,53.67 -47.29,53.31 -47.18,52.97 -47.08,52.64 -46.86,52.35 -46.65,52.06 -46.36,51.86 -46.07,51.65 -45.72,51.56 -45.38,51.46 -45.03,51.47 -44.67,51.48 -44.34,51.61 -44.00,51.74 -43.73,51.97 -43.46,52.19 -43.27,52.50 -43.08,52.80 -43.00,53.15 -42.92,53.49 -42.95,53.85 -42.99,54.20 -43.13,54.53 -43.28,54.85 -43.52,55.12 -43.76,55.38 -44.07,55.55 -44.39,55.72 -44.74,55.78 -45.09,55.84 -45.44,55.79 -45.79,55.74 -46.11,55.58 -46.43,55.41 -46.67,55.16 -46.92,54.90 -47.08,54.58 -47.23,54.26 -47.27,53.90 -47.32,53.55 -47.24,53.20 -47.17,52.85 -47.17,52.85 -47.17,52.85 -46.13,51.25 -45.09,49.65 -44.05,48.36 -43.02,47.07 -42.15,46.07 -41.28,45.08 -40.13,44.05 -38.97,43.03 -37.57,41.66 -36.16,40.29 -34.68,38.78 -33.19,37.26 -30.87,34.89 -28.55,32.52 -26.03,29.90 -23.51,27.29 -22.20,25.85 -20.89,24.41 -18.98,22.10 -17.07,19.79 -14.43,16.83 -11.78,13.88 -10.12,11.49 -8.45,9.10 -7.35,7.68 -6.25,6.25 -5.03,4.71 -3.81,3.17 -2.59,1.15 -1.38,-0.86 -1.26,-1.01 -1.13,-1.17 -0.98,-1.29 -0.82,-1.41 -0.64,-1.48 -0.46,-1.56 -0.26,-1.60 -0.07,-1.63 0.12,-1.61 0.31,-1.60 0.50,-1.54 0.69,-1.48 0.86,-1.37 1.02,-1.27 1.16,-1.13 1.30,-0.98 1.40,-0.81 1.50,-0.64 1.55,-0.45 1.61,-0.27 1.62,-0.07 1.63,0.12 1.59,0.31 1.55,0.50 1.46,0.68 1.38,0.86 1.38,0.86 L 1.38,0.86 Z"></path></g></g><g clip-path="url(#qqfSkCcwK90SUfaECBzFS)"><g transform="translate(116.9824893509915 162.88469792735464) rotate(0 -22.613657732319098 26.962435768480418)" stroke="none"><path fill="#1e1e1e" d="M 1.38,0.86 Q 1.38,0.86 0.09,2.84 -1.18,4.82 -2.53,6.48 -3.87,8.15 -4.86,9.58 -5.84,11.01 -7.57,13.34 -9.29,15.67 -12.09,18.72 -14.89,21.77 -16.79,24.01 -18.69,26.25 -20.00,27.75 -21.31,29.25 -23.91,31.88 -26.50,34.51 -28.85,36.87 -31.21,39.23 -32.71,40.73 -34.21,42.23 -35.58,43.64 -36.94,45.05 -37.97,46.20 -38.99,47.36 -39.54,48.29 -40.10,49.23 -40.64,50.32 -41.18,51.40 -42.12,52.92 -43.06,54.43 -43.24,54.74 -43.42,55.05 -43.69,55.28 -43.96,55.51 -44.28,55.65 -44.61,55.79 -44.97,55.81 -45.33,55.84 -45.67,55.74 -46.01,55.65 -46.31,55.46 -46.61,55.26 -46.83,54.98 -47.05,54.70 -47.17,54.36 -47.28,54.03 -47.29,53.67 -47.29,53.31 -47.18,52.97 -47.08,52.64 -46.86,52.35 -46.65,52.06 -46.36,51.86 -46.07,51.65 -45.72,51.56 -45.38,51.46 -45.03,51.47 -44.67,51.48 -44.34,51.61 -44.00,51.74 -43.73,51.97 -43.46,52.19 -43.27,52.50 -43.08,52.80 -43.00,53.15 -42.92,53.49 -42.95,53.85 -42.99,54.20 -43.13,54.53 -43.28,54.85 -43.52,55.12 -43.76,55.38 -44.07,55.55 -44.39,55.72 -44.74,55.78 -45.09,55.84 -45.44,55.79 -45.79,55.74 -46.11,55.58 -46.43,55.41 -46.67,55.16 -46.92,54.90 -47.08,54.58 -47.23,54.26 -47.27,53.90 -47.32,53.55 -47.24,53.20 -47.17,52.85 -47.17,52.85 -47.17,52.85 -46.13,51.25 -45.09,49.65 -44.05,48.36 -43.02,47.07 -42.15,46.07 -41.28,45.08 -40.13,44.05 -38.97,43.03 -37.57,41.66 -36.16,40.29 -34.68,38.78 -33.19,37.26 -30.87,34.89 -28.55,32.52 -26.03,29.90 -23.51,27.29 -22.20,25.85 -20.89,24.41 -18.98,22.10 -17.07,19.79 -14.43,16.83 -11.78,13.88 -10.12,11.49 -8.45,9.10 -7.35,7.68 -6.25,6.25 -5.03,4.71 -3.81,3.17 -2.59,1.15 -1.38,-0.86 -1.26,-1.01 -1.13,-1.17 -0.98,-1.29 -0.82,-1.41 -0.64,-1.48 -0.46,-1.56 -0.26,-1.60 -0.07,-1.63 0.12,-1.61 0.31,-1.60 0.50,-1.54 0.69,-1.48 0.86,-1.37 1.02,-1.27 1.16,-1.13 1.30,-0.98 1.40,-0.81 1.50,-0.64 1.55,-0.45 1.61,-0.27 1.62,-0.07 1.63,0.12 1.59,0.31 1.55,0.50 1.46,0.68 1.38,0.86 1.38,0.86 L 1.38,0.86 Z"></path></g></g><g clip-path="url(#qqfSkCcwK90SUfaECBzFS)"><g transform="translate(117.96096478238655 236.2703552819837) rotate(0 -22.613657732319098 26.962435768480418)" stroke="none"><path fill="#1e1e1e" d="M 1.38,0.86 Q 1.38,0.86 0.09,2.84 -1.18,4.82 -2.53,6.48 -3.87,8.15 -4.86,9.58 -5.84,11.01 -7.57,13.34 -9.29,15.67 -12.09,18.72 -14.89,21.77 -16.79,24.01 -18.69,26.25 -20.00,27.75 -21.31,29.25 -23.91,31.88 -26.50,34.51 -28.85,36.87 -31.21,39.23 -32.71,40.73 -34.21,42.23 -35.58,43.64 -36.94,45.05 -37.97,46.20 -38.99,47.36 -39.54,48.29 -40.10,49.23 -40.64,50.32 -41.18,51.40 -42.12,52.92 -43.06,54.43 -43.24,54.74 -43.42,55.05 -43.69,55.28 -43.96,55.51 -44.28,55.65 -44.61,55.79 -44.97,55.81 -45.33,55.84 -45.67,55.74 -46.01,55.65 -46.31,55.46 -46.61,55.26 -46.83,54.98 -47.05,54.70 -47.17,54.36 -47.28,54.03 -47.29,53.67 -47.29,53.31 -47.18,52.97 -47.08,52.64 -46.86,52.35 -46.65,52.06 -46.36,51.86 -46.07,51.65 -45.72,51.56 -45.38,51.46 -45.03,51.47 -44.67,51.48 -44.34,51.61 -44.00,51.74 -43.73,51.97 -43.46,52.19 -43.27,52.50 -43.08,52.80 -43.00,53.15 -42.92,53.49 -42.95,53.85 -42.99,54.20 -43.13,54.53 -43.28,54.85 -43.52,55.12 -43.76,55.38 -44.07,55.55 -44.39,55.72 -44.74,55.78 -45.09,55.84 -45.44,55.79 -45.79,55.74 -46.11,55.58 -46.43,55.41 -46.67,55.16 -46.92,54.90 -47.08,54.58 -47.23,54.26 -47.27,53.90 -47.32,53.55 -47.24,53.20 -47.17,52.85 -47.17,52.85 -47.17,52.85 -46.13,51.25 -45.09,49.65 -44.05,48.36 -43.02,47.07 -42.15,46.07 -41.28,45.08 -40.13,44.05 -38.97,43.03 -37.57,41.66 -36.16,40.29 -34.68,38.78 -33.19,37.26 -30.87,34.89 -28.55,32.52 -26.03,29.90 -23.51,27.29 -22.20,25.85 -20.89,24.41 -18.98,22.10 -17.07,19.79 -14.43,16.83 -11.78,13.88 -10.12,11.49 -8.45,9.10 -7.35,7.68 -6.25,6.25 -5.03,4.71 -3.81,3.17 -2.59,1.15 -1.38,-0.86 -1.26,-1.01 -1.13,-1.17 -0.98,-1.29 -0.82,-1.41 -0.64,-1.48 -0.46,-1.56 -0.26,-1.60 -0.07,-1.63 0.12,-1.61 0.31,-1.60 0.50,-1.54 0.69,-1.48 0.86,-1.37 1.02,-1.27 1.16,-1.13 1.30,-0.98 1.40,-0.81 1.50,-0.64 1.55,-0.45 1.61,-0.27 1.62,-0.07 1.63,0.12 1.59,0.31 1.55,0.50 1.46,0.68 1.38,0.86 1.38,0.86 L 1.38,0.86 Z"></path></g></g><g clip-path="url(#qqfSkCcwK90SUfaECBzFS)"><g transform="translate(114.04706305680634 319.44076695056333) rotate(0 -22.613657732319098 26.962435768480418)" stroke="none"><path fill="#1e1e1e" d="M 1.38,0.86 Q 1.38,0.86 0.09,2.84 -1.18,4.82 -2.53,6.48 -3.87,8.15 -4.86,9.58 -5.84,11.01 -7.57,13.34 -9.29,15.67 -12.09,18.72 -14.89,21.77 -16.79,24.01 -18.69,26.25 -20.00,27.75 -21.31,29.25 -23.91,31.88 -26.50,34.51 -28.85,36.87 -31.21,39.23 -32.71,40.73 -34.21,42.23 -35.58,43.64 -36.94,45.05 -37.97,46.20 -38.99,47.36 -39.54,48.29 -40.10,49.23 -40.64,50.32 -41.18,51.40 -42.12,52.92 -43.06,54.43 -43.24,54.74 -43.42,55.05 -43.69,55.28 -43.96,55.51 -44.28,55.65 -44.61,55.79 -44.97,55.81 -45.33,55.84 -45.67,55.74 -46.01,55.65 -46.31,55.46 -46.61,55.26 -46.83,54.98 -47.05,54.70 -47.17,54.36 -47.28,54.03 -47.29,53.67 -47.29,53.31 -47.18,52.97 -47.08,52.64 -46.86,52.35 -46.65,52.06 -46.36,51.86 -46.07,51.65 -45.72,51.56 -45.38,51.46 -45.03,51.47 -44.67,51.48 -44.34,51.61 -44.00,51.74 -43.73,51.97 -43.46,52.19 -43.27,52.50 -43.08,52.80 -43.00,53.15 -42.92,53.49 -42.95,53.85 -42.99,54.20 -43.13,54.53 -43.28,54.85 -43.52,55.12 -43.76,55.38 -44.07,55.55 -44.39,55.72 -44.74,55.78 -45.09,55.84 -45.44,55.79 -45.79,55.74 -46.11,55.58 -46.43,55.41 -46.67,55.16 -46.92,54.90 -47.08,54.58 -47.23,54.26 -47.27,53.90 -47.32,53.55 -47.24,53.20 -47.17,52.85 -47.17,52.85 -47.17,52.85 -46.13,51.25 -45.09,49.65 -44.05,48.36 -43.02,47.07 -42.15,46.07 -41.28,45.08 -40.13,44.05 -38.97,43.03 -37.57,41.66 -36.16,40.29 -34.68,38.78 -33.19,37.26 -30.87,34.89 -28.55,32.52 -26.03,29.90 -23.51,27.29 -22.20,25.85 -20.89,24.41 -18.98,22.10 -17.07,19.79 -14.43,16.83 -11.78,13.88 -10.12,11.49 -8.45,9.10 -7.35,7.68 -6.25,6.25 -5.03,4.71 -3.81,3.17 -2.59,1.15 -1.38,-0.86 -1.26,-1.01 -1.13,-1.17 -0.98,-1.29 -0.82,-1.41 -0.64,-1.48 -0.46,-1.56 -0.26,-1.60 -0.07,-1.63 0.12,-1.61 0.31,-1.60 0.50,-1.54 0.69,-1.48 0.86,-1.37 1.02,-1.27 1.16,-1.13 1.30,-0.98 1.40,-0.81 1.50,-0.64 1.55,-0.45 1.61,-0.27 1.62,-0.07 1.63,0.12 1.59,0.31 1.55,0.50 1.46,0.68 1.38,0.86 1.38,0.86 L 1.38,0.86 Z"></path></g></g><g transform="translate(337.6633396892994 -5.096531135385703) rotate(0 -22.613657732319098 26.962435768480418)" stroke="none"><path fill="#1e1e1e" d="M 1.38,0.86 Q 1.38,0.86 0.09,2.84 -1.18,4.82 -2.53,6.48 -3.87,8.15 -4.86,9.58 -5.84,11.01 -7.57,13.34 -9.29,15.67 -12.09,18.72 -14.89,21.77 -16.79,24.01 -18.69,26.25 -20.00,27.75 -21.31,29.25 -23.91,31.88 -26.50,34.51 -28.85,36.87 -31.21,39.23 -32.71,40.73 -34.21,42.23 -35.58,43.64 -36.94,45.05 -37.97,46.20 -38.99,47.36 -39.54,48.29 -40.10,49.23 -40.64,50.32 -41.18,51.40 -42.12,52.92 -43.06,54.43 -43.24,54.74 -43.42,55.05 -43.69,55.28 -43.96,55.51 -44.28,55.65 -44.61,55.79 -44.97,55.81 -45.33,55.84 -45.67,55.74 -46.01,55.65 -46.31,55.46 -46.61,55.26 -46.83,54.98 -47.05,54.70 -47.17,54.36 -47.28,54.03 -47.29,53.67 -47.29,53.31 -47.18,52.97 -47.08,52.64 -46.86,52.35 -46.65,52.06 -46.36,51.86 -46.07,51.65 -45.72,51.56 -45.38,51.46 -45.03,51.47 -44.67,51.48 -44.34,51.61 -44.00,51.74 -43.73,51.97 -43.46,52.19 -43.27,52.50 -43.08,52.80 -43.00,53.15 -42.92,53.49 -42.95,53.85 -42.99,54.20 -43.13,54.53 -43.28,54.85 -43.52,55.12 -43.76,55.38 -44.07,55.55 -44.39,55.72 -44.74,55.78 -45.09,55.84 -45.44,55.79 -45.79,55.74 -46.11,55.58 -46.43,55.41 -46.67,55.16 -46.92,54.90 -47.08,54.58 -47.23,54.26 -47.27,53.90 -47.32,53.55 -47.24,53.20 -47.17,52.85 -47.17,52.85 -47.17,52.85 -46.13,51.25 -45.09,49.65 -44.05,48.36 -43.02,47.07 -42.15,46.07 -41.28,45.08 -40.13,44.05 -38.97,43.03 -37.57,41.66 -36.16,40.29 -34.68,38.78 -33.19,37.26 -30.87,34.89 -28.55,32.52 -26.03,29.90 -23.51,27.29 -22.20,25.85 -20.89,24.41 -18.98,22.10 -17.07,19.79 -14.43,16.83 -11.78,13.88 -10.12,11.49 -8.45,9.10 -7.35,7.68 -6.25,6.25 -5.03,4.71 -3.81,3.17 -2.59,1.15 -1.38,-0.86 -1.26,-1.01 -1.13,-1.17 -0.98,-1.29 -0.82,-1.41 -0.64,-1.48 -0.46,-1.56 -0.26,-1.60 -0.07,-1.63 0.12,-1.61 0.31,-1.60 0.50,-1.54 0.69,-1.48 0.86,-1.37 1.02,-1.27 1.16,-1.13 1.30,-0.98 1.40,-0.81 1.50,-0.64 1.55,-0.45 1.61,-0.27 1.62,-0.07 1.63,0.12 1.59,0.31 1.55,0.50 1.46,0.68 1.38,0.86 1.38,0.86 L 1.38,0.86 Z"></path></g><g clip-path="url(#qqfSkCcwK90SUfaECBzFS)"><g transform="translate(340.05826972883006 77.89584380761403) rotate(0 -22.613657732319098 26.962435768480418)" stroke="none"><path fill="#1e1e1e" d="M 1.38,0.86 Q 1.38,0.86 0.09,2.84 -1.18,4.82 -2.53,6.48 -3.87,8.15 -4.86,9.58 -5.84,11.01 -7.57,13.34 -9.29,15.67 -12.09,18.72 -14.89,21.77 -16.79,24.01 -18.69,26.25 -20.00,27.75 -21.31,29.25 -23.91,31.88 -26.50,34.51 -28.85,36.87 -31.21,39.23 -32.71,40.73 -34.21,42.23 -35.58,43.64 -36.94,45.05 -37.97,46.20 -38.99,47.36 -39.54,48.29 -40.10,49.23 -40.64,50.32 -41.18,51.40 -42.12,52.92 -43.06,54.43 -43.24,54.74 -43.42,55.05 -43.69,55.28 -43.96,55.51 -44.28,55.65 -44.61,55.79 -44.97,55.81 -45.33,55.84 -45.67,55.74 -46.01,55.65 -46.31,55.46 -46.61,55.26 -46.83,54.98 -47.05,54.70 -47.17,54.36 -47.28,54.03 -47.29,53.67 -47.29,53.31 -47.18,52.97 -47.08,52.64 -46.86,52.35 -46.65,52.06 -46.36,51.86 -46.07,51.65 -45.72,51.56 -45.38,51.46 -45.03,51.47 -44.67,51.48 -44.34,51.61 -44.00,51.74 -43.73,51.97 -43.46,52.19 -43.27,52.50 -43.08,52.80 -43.00,53.15 -42.92,53.49 -42.95,53.85 -42.99,54.20 -43.13,54.53 -43.28,54.85 -43.52,55.12 -43.76,55.38 -44.07,55.55 -44.39,55.72 -44.74,55.78 -45.09,55.84 -45.44,55.79 -45.79,55.74 -46.11,55.58 -46.43,55.41 -46.67,55.16 -46.92,54.90 -47.08,54.58 -47.23,54.26 -47.27,53.90 -47.32,53.55 -47.24,53.20 -47.17,52.85 -47.17,52.85 -47.17,52.85 -46.13,51.25 -45.09,49.65 -44.05,48.36 -43.02,47.07 -42.15,46.07 -41.28,45.08 -40.13,44.05 -38.97,43.03 -37.57,41.66 -36.16,40.29 -34.68,38.78 -33.19,37.26 -30.87,34.89 -28.55,32.52 -26.03,29.90 -23.51,27.29 -22.20,25.85 -20.89,24.41 -18.98,22.10 -17.07,19.79 -14.43,16.83 -11.78,13.88 -10.12,11.49 -8.45,9.10 -7.35,7.68 -6.25,6.25 -5.03,4.71 -3.81,3.17 -2.59,1.15 -1.38,-0.86 -1.26,-1.01 -1.13,-1.17 -0.98,-1.29 -0.82,-1.41 -0.64,-1.48 -0.46,-1.56 -0.26,-1.60 -0.07,-1.63 0.12,-1.61 0.31,-1.60 0.50,-1.54 0.69,-1.48 0.86,-1.37 1.02,-1.27 1.16,-1.13 1.30,-0.98 1.40,-0.81 1.50,-0.64 1.55,-0.45 1.61,-0.27 1.62,-0.07 1.63,0.12 1.59,0.31 1.55,0.50 1.46,0.68 1.38,0.86 1.38,0.86 L 1.38,0.86 Z"></path></g></g><g clip-path="url(#qqfSkCcwK90SUfaECBzFS)"><g transform="translate(339.14228472882996 170.18549490758915) rotate(0 -22.613657732319098 26.962435768480418)" stroke="none"><path fill="#1e1e1e" d="M 1.38,0.86 Q 1.38,0.86 0.09,2.84 -1.18,4.82 -2.53,6.48 -3.87,8.15 -4.86,9.58 -5.84,11.01 -7.57,13.34 -9.29,15.67 -12.09,18.72 -14.89,21.77 -16.79,24.01 -18.69,26.25 -20.00,27.75 -21.31,29.25 -23.91,31.88 -26.50,34.51 -28.85,36.87 -31.21,39.23 -32.71,40.73 -34.21,42.23 -35.58,43.64 -36.94,45.05 -37.97,46.20 -38.99,47.36 -39.54,48.29 -40.10,49.23 -40.64,50.32 -41.18,51.40 -42.12,52.92 -43.06,54.43 -43.24,54.74 -43.42,55.05 -43.69,55.28 -43.96,55.51 -44.28,55.65 -44.61,55.79 -44.97,55.81 -45.33,55.84 -45.67,55.74 -46.01,55.65 -46.31,55.46 -46.61,55.26 -46.83,54.98 -47.05,54.70 -47.17,54.36 -47.28,54.03 -47.29,53.67 -47.29,53.31 -47.18,52.97 -47.08,52.64 -46.86,52.35 -46.65,52.06 -46.36,51.86 -46.07,51.65 -45.72,51.56 -45.38,51.46 -45.03,51.47 -44.67,51.48 -44.34,51.61 -44.00,51.74 -43.73,51.97 -43.46,52.19 -43.27,52.50 -43.08,52.80 -43.00,53.15 -42.92,53.49 -42.95,53.85 -42.99,54.20 -43.13,54.53 -43.28,54.85 -43.52,55.12 -43.76,55.38 -44.07,55.55 -44.39,55.72 -44.74,55.78 -45.09,55.84 -45.44,55.79 -45.79,55.74 -46.11,55.58 -46.43,55.41 -46.67,55.16 -46.92,54.90 -47.08,54.58 -47.23,54.26 -47.27,53.90 -47.32,53.55 -47.24,53.20 -47.17,52.85 -47.17,52.85 -47.17,52.85 -46.13,51.25 -45.09,49.65 -44.05,48.36 -43.02,47.07 -42.15,46.07 -41.28,45.08 -40.13,44.05 -38.97,43.03 -37.57,41.66 -36.16,40.29 -34.68,38.78 -33.19,37.26 -30.87,34.89 -28.55,32.52 -26.03,29.90 -23.51,27.29 -22.20,25.85 -20.89,24.41 -18.98,22.10 -17.07,19.79 -14.43,16.83 -11.78,13.88 -10.12,11.49 -8.45,9.10 -7.35,7.68 -6.25,6.25 -5.03,4.71 -3.81,3.17 -2.59,1.15 -1.38,-0.86 -1.26,-1.01 -1.13,-1.17 -0.98,-1.29 -0.82,-1.41 -0.64,-1.48 -0.46,-1.56 -0.26,-1.60 -0.07,-1.63 0.12,-1.61 0.31,-1.60 0.50,-1.54 0.69,-1.48 0.86,-1.37 1.02,-1.27 1.16,-1.13 1.30,-0.98 1.40,-0.81 1.50,-0.64 1.55,-0.45 1.61,-0.27 1.62,-0.07 1.63,0.12 1.59,0.31 1.55,0.50 1.46,0.68 1.38,0.86 1.38,0.86 L 1.38,0.86 Z"></path></g></g><g clip-path="url(#qqfSkCcwK90SUfaECBzFS)"><g transform="translate(337.6633395520896 250.6889740470947) rotate(0 -22.613657732319098 26.962435768480418)" stroke="none"><path fill="#1e1e1e" d="M 1.38,0.86 Q 1.38,0.86 0.09,2.84 -1.18,4.82 -2.53,6.48 -3.87,8.15 -4.86,9.58 -5.84,11.01 -7.57,13.34 -9.29,15.67 -12.09,18.72 -14.89,21.77 -16.79,24.01 -18.69,26.25 -20.00,27.75 -21.31,29.25 -23.91,31.88 -26.50,34.51 -28.85,36.87 -31.21,39.23 -32.71,40.73 -34.21,42.23 -35.58,43.64 -36.94,45.05 -37.97,46.20 -38.99,47.36 -39.54,48.29 -40.10,49.23 -40.64,50.32 -41.18,51.40 -42.12,52.92 -43.06,54.43 -43.24,54.74 -43.42,55.05 -43.69,55.28 -43.96,55.51 -44.28,55.65 -44.61,55.79 -44.97,55.81 -45.33,55.84 -45.67,55.74 -46.01,55.65 -46.31,55.46 -46.61,55.26 -46.83,54.98 -47.05,54.70 -47.17,54.36 -47.28,54.03 -47.29,53.67 -47.29,53.31 -47.18,52.97 -47.08,52.64 -46.86,52.35 -46.65,52.06 -46.36,51.86 -46.07,51.65 -45.72,51.56 -45.38,51.46 -45.03,51.47 -44.67,51.48 -44.34,51.61 -44.00,51.74 -43.73,51.97 -43.46,52.19 -43.27,52.50 -43.08,52.80 -43.00,53.15 -42.92,53.49 -42.95,53.85 -42.99,54.20 -43.13,54.53 -43.28,54.85 -43.52,55.12 -43.76,55.38 -44.07,55.55 -44.39,55.72 -44.74,55.78 -45.09,55.84 -45.44,55.79 -45.79,55.74 -46.11,55.58 -46.43,55.41 -46.67,55.16 -46.92,54.90 -47.08,54.58 -47.23,54.26 -47.27,53.90 -47.32,53.55 -47.24,53.20 -47.17,52.85 -47.17,52.85 -47.17,52.85 -46.13,51.25 -45.09,49.65 -44.05,48.36 -43.02,47.07 -42.15,46.07 -41.28,45.08 -40.13,44.05 -38.97,43.03 -37.57,41.66 -36.16,40.29 -34.68,38.78 -33.19,37.26 -30.87,34.89 -28.55,32.52 -26.03,29.90 -23.51,27.29 -22.20,25.85 -20.89,24.41 -18.98,22.10 -17.07,19.79 -14.43,16.83 -11.78,13.88 -10.12,11.49 -8.45,9.10 -7.35,7.68 -6.25,6.25 -5.03,4.71 -3.81,3.17 -2.59,1.15 -1.38,-0.86 -1.26,-1.01 -1.13,-1.17 -0.98,-1.29 -0.82,-1.41 -0.64,-1.48 -0.46,-1.56 -0.26,-1.60 -0.07,-1.63 0.12,-1.61 0.31,-1.60 0.50,-1.54 0.69,-1.48 0.86,-1.37 1.02,-1.27 1.16,-1.13 1.30,-0.98 1.40,-0.81 1.50,-0.64 1.55,-0.45 1.61,-0.27 1.62,-0.07 1.63,0.12 1.59,0.31 1.55,0.50 1.46,0.68 1.38,0.86 1.38,0.86 L 1.38,0.86 Z"></path></g></g><g clip-path="url(#qqfSkCcwK90SUfaECBzFS)"><g transform="translate(340.0582696278948 304.23600337312996) rotate(0 -22.613657732319098 26.962435768480418)" stroke="none"><path fill="#1e1e1e" d="M 1.38,0.86 Q 1.38,0.86 0.09,2.84 -1.18,4.82 -2.53,6.48 -3.87,8.15 -4.86,9.58 -5.84,11.01 -7.57,13.34 -9.29,15.67 -12.09,18.72 -14.89,21.77 -16.79,24.01 -18.69,26.25 -20.00,27.75 -21.31,29.25 -23.91,31.88 -26.50,34.51 -28.85,36.87 -31.21,39.23 -32.71,40.73 -34.21,42.23 -35.58,43.64 -36.94,45.05 -37.97,46.20 -38.99,47.36 -39.54,48.29 -40.10,49.23 -40.64,50.32 -41.18,51.40 -42.12,52.92 -43.06,54.43 -43.24,54.74 -43.42,55.05 -43.69,55.28 -43.96,55.51 -44.28,55.65 -44.61,55.79 -44.97,55.81 -45.33,55.84 -45.67,55.74 -46.01,55.65 -46.31,55.46 -46.61,55.26 -46.83,54.98 -47.05,54.70 -47.17,54.36 -47.28,54.03 -47.29,53.67 -47.29,53.31 -47.18,52.97 -47.08,52.64 -46.86,52.35 -46.65,52.06 -46.36,51.86 -46.07,51.65 -45.72,51.56 -45.38,51.46 -45.03,51.47 -44.67,51.48 -44.34,51.61 -44.00,51.74 -43.73,51.97 -43.46,52.19 -43.27,52.50 -43.08,52.80 -43.00,53.15 -42.92,53.49 -42.95,53.85 -42.99,54.20 -43.13,54.53 -43.28,54.85 -43.52,55.12 -43.76,55.38 -44.07,55.55 -44.39,55.72 -44.74,55.78 -45.09,55.84 -45.44,55.79 -45.79,55.74 -46.11,55.58 -46.43,55.41 -46.67,55.16 -46.92,54.90 -47.08,54.58 -47.23,54.26 -47.27,53.90 -47.32,53.55 -47.24,53.20 -47.17,52.85 -47.17,52.85 -47.17,52.85 -46.13,51.25 -45.09,49.65 -44.05,48.36 -43.02,47.07 -42.15,46.07 -41.28,45.08 -40.13,44.05 -38.97,43.03 -37.57,41.66 -36.16,40.29 -34.68,38.78 -33.19,37.26 -30.87,34.89 -28.55,32.52 -26.03,29.90 -23.51,27.29 -22.20,25.85 -20.89,24.41 -18.98,22.10 -17.07,19.79 -14.43,16.83 -11.78,13.88 -10.12,11.49 -8.45,9.10 -7.35,7.68 -6.25,6.25 -5.03,4.71 -3.81,3.17 -2.59,1.15 -1.38,-0.86 -1.26,-1.01 -1.13,-1.17 -0.98,-1.29 -0.82,-1.41 -0.64,-1.48 -0.46,-1.56 -0.26,-1.60 -0.07,-1.63 0.12,-1.61 0.31,-1.60 0.50,-1.54 0.69,-1.48 0.86,-1.37 1.02,-1.27 1.16,-1.13 1.30,-0.98 1.40,-0.81 1.50,-0.64 1.55,-0.45 1.61,-0.27 1.62,-0.07 1.63,0.12 1.59,0.31 1.55,0.50 1.46,0.68 1.38,0.86 1.38,0.86 L 1.38,0.86 Z"></path></g></g><g clip-path="url(#qqfSkCcwK90SUfaECBzFS)"><g stroke-linecap="round"><g transform="translate(256.68931528138114 77.05941912974595) rotate(0 0 42.61802774045111)"><path d="M0.15 1.19 C-0.07 15.17, -0.23 70.46, -0.44 84.33 M-1.23 0.77 C-1.72 14.83, -2.03 71.31, -1.62 85.4" stroke="#1e1e1e" stroke-width="1" fill="none"></path></g></g><mask></mask></g><g clip-path="url(#qqfSkCcwK90SUfaECBzFS)"><g stroke-linecap="round"><g transform="translate(265.85893190510274 168.45812778320965) rotate(0 0 33.05074890766684)"><path d="M0.8 1.06 C0.57 11.85, -0.17 55.05, -0.38 65.92 M-0.24 0.57 C-0.75 12.06, -1.32 56.18, -1.53 67.36" stroke="#1e1e1e" stroke-width="1" fill="none"></path></g></g><mask></mask></g><g clip-path="url(#qqfSkCcwK90SUfaECBzFS)"><g stroke-linecap="round"><g transform="translate(267.01504045672846 122.33240855810959) rotate(0 48.27143470835597 0)"><path d="M-1.16 0.68 C15.07 0.8, 79.97 0.03, 96.28 0.03 M0.44 -0.01 C16.57 0.39, 79.27 1.79, 95.2 1.58" stroke="#1e1e1e" stroke-width="1" fill="none"></path></g><g transform="translate(267.01504045672846 122.33240855810959) rotate(0 48.27143470835597 0)"><path d="M71.65 9.96 C77.84 7.98, 81.75 6.91, 95.2 1.58 M71.65 9.96 C79.26 6.46, 88.28 3.47, 95.2 1.58" stroke="#1e1e1e" stroke-width="1" fill="none"></path></g><g transform="translate(267.01504045672846 122.33240855810959) rotate(0 48.27143470835597 0)"><path d="M71.77 -7.14 C77.83 -5.49, 81.73 -2.92, 95.2 1.58 M71.77 -7.14 C79.29 -4.5, 88.26 -1.35, 95.2 1.58" stroke="#1e1e1e" stroke-width="1" fill="none"></path></g></g><mask></mask></g><g clip-path="url(#qqfSkCcwK90SUfaECBzFS)"><g stroke-linecap="round"><g transform="translate(276.58240887161446 204.95923603622578) rotate(0 50.445831191611546 0)"><path d="M-0.19 0.94 C16.64 1.22, 84.67 0.9, 101.33 0.76 M-1.75 0.39 C14.94 0.4, 83.3 -1.14, 100.62 -0.96" stroke="#1e1e1e" stroke-width="1" fill="none"></path></g><g transform="translate(276.58240887161446 204.95923603622578) rotate(0 50.445831191611546 0)"><path d="M77.2 7.78 C86.53 5.68, 93.93 0.27, 100.62 -0.96 M77.2 7.78 C84.63 5.57, 92.65 2.86, 100.62 -0.96" stroke="#1e1e1e" stroke-width="1" fill="none"></path></g><g transform="translate(276.58240887161446 204.95923603622578) rotate(0 50.445831191611546 0)"><path d="M77.06 -9.32 C86.31 -5.8, 93.76 -5.58, 100.62 -0.96 M77.06 -9.32 C84.4 -6.24, 92.47 -3.67, 100.62 -0.96" stroke="#1e1e1e" stroke-width="1" fill="none"></path></g></g><mask></mask></g><g clip-path="url(#qqfSkCcwK90SUfaECBzFS)"><g transform="translate(381.3873171264563 104.85828028043375) rotate(0 8.039993286132812 12.5)"><text x="0" y="0" font-family="Virgil, Segoe UI Emoji" font-size="20px" fill="#1e1e1e" text-anchor="start" style="white-space: pre;" direction="ltr" dominant-baseline="text-before-edge">T</text></g></g><g clip-path="url(#qqfSkCcwK90SUfaECBzFS)"><g transform="translate(399.10922369506125 183.21527120366795) rotate(0 8.039993286132812 12.5)"><text x="0" y="0" font-family="Virgil, Segoe UI Emoji" font-size="20px" fill="#1e1e1e" text-anchor="start" style="white-space: pre;" direction="ltr" dominant-baseline="text-before-edge">T</text></g></g><g clip-path="url(#qqfSkCcwK90SUfaECBzFS)"><g transform="translate(223.96212147534607 373.69182184857254) rotate(0 207.3397674560547 50)"><text x="0" y="0" font-family="Virgil, Segoe UI Emoji" font-size="20px" fill="#1e1e1e" text-anchor="start" style="white-space: pre;" direction="ltr" dominant-baseline="text-before-edge">dono contract hone ki koshish karenge par</text><text x="0" y="25" font-family="Virgil, Segoe UI Emoji" font-size="20px" fill="#1e1e1e" text-anchor="start" style="white-space: pre;" direction="ltr" dominant-baseline="text-before-edge">fixed support hone nai dega aur dono</text><text x="0" y="50" font-family="Virgil, Segoe UI Emoji" font-size="20px" fill="#1e1e1e" text-anchor="start" style="white-space: pre;" direction="ltr" dominant-baseline="text-before-edge">pe tension laga ke original  position </text><text x="0" y="75" font-family="Virgil, Segoe UI Emoji" font-size="20px" fill="#1e1e1e" text-anchor="start" style="white-space: pre;" direction="ltr" dominant-baseline="text-before-edge">pe laa dega</text></g></g><g clip-path="url(#qqfSkCcwK90SUfaECBzFS)"><g transform="translate(158.03375015820916 277.65141017137944) rotate(0 51.01933288574219 35.35687274430916)"><text x="0" y="0" font-family="Virgil, Segoe UI Emoji" font-size="56.57099639089469px" fill="#1e1e1e" text-anchor="start" style="white-space: pre;" direction="ltr" dominant-baseline="text-before-edge">T ↓</text></g></g><g clip-path="url(#qqfSkCcwK90SUfaECBzFS)"><g transform="translate(415.1892104822334 216.8095686005904) rotate(0 103.869873046875 25)"><text x="0" y="0" font-family="Virgil, Segoe UI Emoji" font-size="20px" fill="#1e1e1e" text-anchor="start" style="white-space: pre;" direction="ltr" dominant-baseline="text-before-edge">bars are placed over</text><text x="0" y="25" font-family="Virgil, Segoe UI Emoji" font-size="20px" fill="#1e1e1e" text-anchor="start" style="white-space: pre;" direction="ltr" dominant-baseline="text-before-edge">eachother </text></g></g><g clip-path="url(#qqfSkCcwK90SUfaECBzFS)"><g transform="translate(458.4779284376448 52.89584371688693) rotate(0 93.68989562988281 12.5)"><text x="0" y="0" font-family="Virgil, Segoe UI Emoji" font-size="20px" fill="#1e1e1e" text-anchor="start" style="white-space: pre;" direction="ltr" dominant-baseline="text-before-edge">(check this answer)</text></g></g></svg>