<svg version="1.1" xmlns="http://www.w3.org/2000/svg" viewBox="0 0 725.7260673308474 507.0627196300834" width="725.7260673308474" height="507.0627196300834">
  <!-- svg-source:excalidraw -->
  
  <defs>
    <style class="style-fonts">
      @font-face {
        font-family: "Virgil";
        src: url("https://excalidraw.com/Virgil.woff2");
      }
      @font-face {
        font-family: "Cascadia";
        src: url("https://excalidraw.com/Cascadia.woff2");
      }
      @font-face {
        font-family: "Assistant";
        src: url("https://excalidraw.com/Assistant-Regular.woff2");
      }
    </style>
    <clipPath id="bab4S6hHHZ1i9f0DtxOWY">
            <rect transform="translate(0 0) rotate(0 362.8630336654237 253.5313598150417)" width="725.7260673308474" height="507.0627196300834">
          </rect>
        </clipPath>
  </defs>
  <rect x="0" y="0" width="725.7260673308474" height="507.0627196300834" fill="#ffffff"></rect><g clip-path="url(#bab4S6hHHZ1i9f0DtxOWY)"><g stroke-linecap="round" transform="translate(101.64897272362941 119.37841599413105) rotate(0 53.18832981150331 119.37839129821748)"><path d="M44.9 1.72 C51.16 -2.12, 60.27 0.09, 67.02 3.87 C73.76 7.65, 80.17 15.38, 85.36 24.41 C90.56 33.44, 94.79 45.23, 98.19 58.04 C101.6 70.86, 104.6 86.27, 105.8 101.3 C107.01 116.33, 107.23 133.23, 105.43 148.23 C103.63 163.23, 99.29 179.11, 95 191.31 C90.72 203.52, 85.32 213.86, 79.73 221.46 C74.15 229.06, 67.94 234.67, 61.49 236.89 C55.04 239.11, 47.75 238.34, 41.03 234.76 C34.3 231.19, 26.85 224.34, 21.15 215.44 C15.45 206.54, 10.29 194.53, 6.81 181.36 C3.33 168.19, 1.18 151.63, 0.27 136.45 C-0.64 121.26, -0.42 104.86, 1.36 90.25 C3.14 75.65, 6.92 61.11, 10.94 48.82 C14.96 36.54, 19.03 24.68, 25.49 16.54 C31.95 8.39, 44.88 2.32, 49.69 -0.06 C54.49 -2.43, 54.33 0.22, 54.31 2.28 M47.79 1.85 C53.92 -1.39, 59.99 1.04, 66.41 5.05 C72.83 9.05, 80.78 16.78, 86.31 25.87 C91.85 34.95, 96.43 46.4, 99.61 59.57 C102.79 72.74, 104.43 89.45, 105.41 104.89 C106.39 120.33, 107.18 137.28, 105.5 152.22 C103.82 167.17, 99.52 182.94, 95.33 194.58 C91.15 206.21, 86.15 214.69, 80.39 222.01 C74.63 229.33, 67.8 236.33, 60.78 238.5 C53.76 240.67, 44.78 239.48, 38.25 235.04 C31.72 230.6, 26.89 221.41, 21.61 211.85 C16.32 202.3, 10.3 190.96, 6.56 177.7 C2.82 164.44, -0.05 147.6, -0.82 132.3 C-1.59 116.99, 0.07 100.08, 1.94 85.86 C3.81 71.65, 6.29 58.81, 10.41 47.01 C14.53 35.2, 20.51 22.73, 26.67 15.03 C32.84 7.34, 43.85 2.78, 47.4 0.86 C50.95 -1.06, 48.02 1.51, 47.98 3.52" stroke="#1e1e1e" stroke-width="2" fill="none"></path></g></g><g clip-path="url(#bab4S6hHHZ1i9f0DtxOWY)"><g stroke-linecap="round"><g transform="translate(153.65530672254818 117.01447376078852) rotate(0 176.70365706194036 0)"><path d="M0.22 -0.06 C59.38 -0.4, 295.28 -1.11, 353.99 -0.97 M-1.12 -1.14 C58.02 -0.84, 294.01 0.06, 353.35 0.06" stroke="#1e1e1e" stroke-width="0.5" fill="none"></path></g></g><mask></mask></g><g clip-path="url(#bab4S6hHHZ1i9f0DtxOWY)"><g stroke-linecap="round"><g transform="translate(158.383191189233 361.6811366364932) rotate(0 171.97582198708255 0)"><path d="M1.07 -1.2 C58.3 -1.27, 286.19 -0.1, 343.45 0.22 M0.17 0.79 C57.2 0.28, 284.9 -1.45, 342.24 -1.78" stroke="#1e1e1e" stroke-width="0.5" fill="none"></path></g></g><mask></mask></g><g clip-path="url(#bab4S6hHHZ1i9f0DtxOWY)"><g stroke-linecap="round"><g transform="translate(531.8838908169575 229.30111244671912) rotate(0 52.59740599295151 0)"><path d="M-0.59 -0.03 C16.92 0.01, 87.74 1.05, 105.45 0.86 M1.3 -1.09 C18.65 -1.44, 87.33 -0.91, 104.63 -0.8" stroke="#1e1e1e" stroke-width="0.5" fill="none"></path></g><g transform="translate(531.8838908169575 229.30111244671912) rotate(0 52.59740599295151 0)"><path d="M81.08 7.59 C88.77 5.36, 98.04 2.91, 104.63 -0.8 M81.08 7.59 C86.42 5.49, 91.33 5.32, 104.63 -0.8" stroke="#1e1e1e" stroke-width="0.5" fill="none"></path></g><g transform="translate(531.8838908169575 229.30111244671912) rotate(0 52.59740599295151 0)"><path d="M81.2 -9.51 C88.93 -6.1, 98.17 -2.89, 104.63 -0.8 M81.2 -9.51 C86.35 -8.15, 91.24 -4.86, 104.63 -0.8" stroke="#1e1e1e" stroke-width="0.5" fill="none"></path></g></g><mask></mask></g><g clip-path="url(#bab4S6hHHZ1i9f0DtxOWY)"><g stroke-linecap="round"><g transform="translate(152.4733603017903 235.2109433341618) rotate(0 -51.415459572193754 0)"><path d="M0.69 0.2 C-16.58 0.21, -86.27 -0.46, -103.38 -0.55 M-0.41 -0.75 C-17.9 -0.52, -87.63 0.44, -104.61 0.7" stroke="#1e1e1e" stroke-width="0.5" fill="none"></path></g><g transform="translate(152.4733603017903 235.2109433341618) rotate(0 -51.415459572193754 0)"><path d="M-81.25 -8.19 C-88.38 -6.15, -97.04 -1, -104.61 0.7 M-81.25 -8.19 C-87.38 -6.63, -94.06 -3.45, -104.61 0.7" stroke="#1e1e1e" stroke-width="0.5" fill="none"></path></g><g transform="translate(152.4733603017903 235.2109433341618) rotate(0 -51.415459572193754 0)"><path d="M-81 8.91 C-88.13 5.53, -96.86 5.25, -104.61 0.7 M-81 8.91 C-87.03 5.82, -93.78 4.36, -104.61 0.7" stroke="#1e1e1e" stroke-width="0.5" fill="none"></path></g></g><mask></mask></g><g clip-path="url(#bab4S6hHHZ1i9f0DtxOWY)"><g transform="translate(61.28498384056911 204.61413885387708) rotate(0 5.739997863769531 12.5)"><text x="0" y="0" font-family="Virgil, Segoe UI Emoji" font-size="20px" fill="#1e1e1e" text-anchor="start" style="white-space: pre;" direction="ltr" dominant-baseline="text-before-edge">F</text></g></g><g clip-path="url(#bab4S6hHHZ1i9f0DtxOWY)"><g transform="translate(600.4379686247546 187.93234562644716) rotate(0 5.739997863769531 12.5)"><text x="0" y="0" font-family="Virgil, Segoe UI Emoji" font-size="20px" fill="#1e1e1e" text-anchor="start" style="white-space: pre;" direction="ltr" dominant-baseline="text-before-edge">F</text></g></g><g clip-path="url(#bab4S6hHHZ1i9f0DtxOWY)"><g stroke-linecap="round" transform="translate(460.96611773495306 118.19646957337329) rotate(0 53.18832981150331 119.37839129821748)"><path d="M51.25 -0.69 C57.34 -3.37, 63.92 1.14, 70.08 6.26 C76.24 11.38, 82.98 19.63, 88.21 30.02 C93.43 40.42, 98.43 54.85, 101.42 68.61 C104.42 82.37, 105.79 97.26, 106.17 112.57 C106.54 127.89, 105.87 145.98, 103.7 160.48 C101.53 174.98, 97.88 188.41, 93.16 199.55 C88.44 210.69, 81.64 220.89, 75.36 227.33 C69.09 233.77, 62.29 237.32, 55.5 238.2 C48.71 239.09, 40.86 237.83, 34.62 232.62 C28.39 227.42, 23.02 217.41, 18.09 206.97 C13.16 196.54, 7.91 183.52, 5.03 170.01 C2.14 156.5, 1.19 140.91, 0.78 125.9 C0.37 110.89, 0.32 94.41, 2.56 79.95 C4.8 65.49, 9.61 50.52, 14.23 39.14 C18.84 27.75, 23.41 18.26, 30.25 11.64 C37.09 5.03, 50.55 0.91, 55.27 -0.54 C59.99 -1.99, 58.68 0.95, 58.57 2.93 M57.28 0.85 C63.68 -0.47, 71.14 4.33, 77.03 10.96 C82.92 17.6, 88.4 28.97, 92.63 40.65 C96.87 52.33, 100.14 66.62, 102.44 81.05 C104.74 95.48, 106.62 112.15, 106.45 127.22 C106.28 142.28, 104.27 158.12, 101.43 171.44 C98.58 184.76, 94.73 197.17, 89.38 207.15 C84.03 217.14, 75.66 225.99, 69.33 231.35 C63 236.71, 57.9 240.12, 51.38 239.31 C44.86 238.49, 36.45 233.44, 30.23 226.46 C24.01 219.49, 18.44 208.84, 14.06 197.47 C9.69 186.09, 6.49 172.45, 3.98 158.23 C1.47 144.01, -1.28 127.43, -0.98 112.14 C-0.68 96.85, 2.82 79.98, 5.78 66.51 C8.74 53.05, 11.83 41.16, 16.76 31.36 C21.7 21.55, 28.57 12.66, 35.38 7.69 C42.19 2.72, 54.15 2.26, 57.63 1.55 C61.12 0.84, 56.47 1.53, 56.28 3.42" stroke="#1e1e1e" stroke-width="2" fill="none"></path></g></g></svg>
