<svg version="1.1" xmlns="http://www.w3.org/2000/svg" viewBox="0 0 829.7607954128927 407.11044327178854" width="2489.282386238678" height="1221.3313298153657">
  <!-- svg-source:excalidraw -->
  
  <defs>
    <style class="style-fonts">
      @font-face {
        font-family: "Virgil";
        src: url("https://excalidraw.com/Virgil.woff2");
      }
      @font-face {
        font-family: "Cascadia";
        src: url("https://excalidraw.com/Cascadia.woff2");
      }
      @font-face {
        font-family: "Assistant";
        src: url("https://excalidraw.com/Assistant-Regular.woff2");
      }
    </style>
    
  </defs>
  <rect x="0" y="0" width="829.7607954128927" height="407.11044327178854" fill="#ffffff"></rect><g stroke-linecap="round"><g transform="translate(237.21434930643693 11.124040152501664) rotate(0 104.36032436978132 62.34559757455773)"><path d="M0 0 C-10.73 27.24, -22.87 57.37, -48.64 124.69 M0 0 C-13.11 32.02, -25.55 63.73, -48.64 124.69 M-48.64 124.69 C18.91 125.63, 91.01 124.61, 223.95 124.69 M-48.64 124.69 C23.94 124.87, 96.31 123.73, 223.95 124.69 M223.95 124.69 C234.12 91.61, 241.04 61.18, 257.36 0 M223.95 124.69 C233.73 86.89, 243.99 49.09, 257.36 0 M257.36 0 C169.83 0.29, 82.95 -0.01, 0 0 M257.36 0 C195.28 -0.84, 133.1 -0.92, 0 0" stroke="#1e1e1e" stroke-width="2" fill="none"></path></g></g><mask></mask><g stroke-linecap="round"><g transform="translate(234.00747516379522 9.143183693662309) rotate(0 -55.853259833805794 103.42208562414456)"><path d="M0.4 0.86 C4.22 15.18, 46.22 50.53, 23.7 84.99 C1.18 119.45, -108.18 187.31, -134.73 207.62" stroke="#1e1e1e" stroke-width="1.5" fill="none" stroke-dasharray="8 9"></path></g></g><mask></mask><g stroke-linecap="round"><g transform="translate(189.64555104102453 134.74623137919218) rotate(0 -72.42218297059227 128.54270066623587)"><path d="M-1.13 -0.75 C4.11 5.82, 61.93 -2.67, 32.4 40.17 C2.86 83.02, -143.34 220.02, -178.32 256.32 M0.47 1.48 C5.46 7.63, 60.73 -4.25, 31.34 38.38 C1.95 81, -141.12 220.99, -175.89 257.23" stroke="#1e1e1e" stroke-width="2" fill="none"></path></g></g><mask></mask><g stroke-linecap="round"><g transform="translate(490.02393679867066 13.419043408777952) rotate(0 -13.362048994144857 102.08587430224722)"><path d="M0.66 -0.75 C-14.04 16.24, -99.67 68.96, -89.29 102.94 C-78.91 136.93, 37.65 186.32, 62.95 203.16" stroke="#1e1e1e" stroke-width="1.5" fill="none" stroke-dasharray="8 9"></path></g></g><mask></mask><g stroke-linecap="round"><g transform="translate(459.55846729401435 134.21173400546746) rotate(0 -23.24993845888355 127.74097295559991)"><path d="M0.82 0.5 C-12.82 13.46, -88.48 35.9, -82.68 78.27 C-76.89 120.65, 15.77 225.13, 35.61 254.76 M-0.21 -0.29 C-13.4 12.81, -86.32 36.99, -80.45 79.65 C-74.58 122.32, 16.03 226.68, 35.01 255.7" stroke="#1e1e1e" stroke-width="2" fill="none"></path></g></g><mask></mask><g stroke-linecap="round"><g transform="translate(100.92168444553238 217.05631298949874) rotate(0 55.051550473120756 -39.01711553508326)"><path d="M0.23 0.48 C18.41 -12.72, 91.17 -65.58, 109.52 -78.57 M-1.12 -0.32 C17.43 -13.41, 93.46 -64.11, 111.92 -77.31" stroke="#1e1e1e" stroke-width="1" fill="none"></path></g></g><mask></mask><g stroke-linecap="round"><g transform="translate(554.1616398509185 215.45287591817782) rotate(0 -61.465326283330796 -32.60334889984864)"><path d="M0.45 0.09 C-19.77 -10.8, -101.37 -53.53, -121.99 -64.4 M-0.77 -0.9 C-21.01 -12.22, -101.86 -55.62, -122.44 -66.11" stroke="#1e1e1e" stroke-width="1" fill="none"></path></g></g><mask></mask><g stroke-linecap="round"><g transform="translate(99.68694275601376 217.18094061024652) rotate(0 -44.38160500648701 86.91397118033845)"><path d="M0.72 -0.39 C-14.28 28.53, -74.83 144.74, -89.69 173.92 M-0.37 -1.64 C-15.01 27.45, -72.69 146.43, -87.46 175.51" stroke="#1e1e1e" stroke-width="1" fill="none"></path></g></g><mask></mask><g stroke-linecap="round"><g transform="translate(13.882545349680527 389.5295020629562) rotate(0 241.1399768360078 -1.1095483786519935)"><path d="M0.97 -0.41 C81.52 -0.87, 401.96 -1.41, 482.31 -1.85 M0.01 -1.67 C80.5 -2.58, 400.92 -3.7, 481.38 -3.78" stroke="#1e1e1e" stroke-width="1" fill="none"></path></g></g><mask></mask><g stroke-linecap="round"><g transform="translate(492.46412293783817 391.7485480295537) rotate(0 30.327384799386095 -86.54411325567003)"><path d="M0.98 -0.39 C10.95 -29.32, 50.89 -144.55, 60.67 -173.51 M0.04 -1.64 C9.77 -30.4, 49.4 -143.57, 59.73 -172.19" stroke="#1e1e1e" stroke-width="1" fill="none"></path></g></g><mask></mask><g stroke-linecap="round"><g transform="translate(98.20756184804657 217.18094061024652) rotate(0 228.1953811936187 -0.3698198316385515)"><path d="M0.84 -0.79 C76.8 -0.75, 380.11 -0.67, 455.87 -0.53" stroke="#1e1e1e" stroke-width="1.5" fill="none" stroke-dasharray="8 9"></path></g></g><mask></mask><g stroke-linecap="round" transform="translate(678.8101701136912 23.63516148531471) rotate(0 66.39517431133163 169.36732450270648)"><path d="M0 0 C42.96 -2.2, 85.16 1.02, 132.79 0 M0 0 C39.09 -0.19, 79.29 -1.68, 132.79 0 M132.79 0 C133.49 87.45, 134.29 172.91, 132.79 338.73 M132.79 0 C132.57 84.55, 132.53 168.96, 132.79 338.73 M132.79 338.73 C79.68 340.78, 31.16 338, 0 338.73 M132.79 338.73 C92.58 340.29, 52.81 340.01, 0 338.73 M0 338.73 C1.47 237.34, 2.08 136.15, 0 0 M0 338.73 C0.22 256.88, -0.43 176.43, 0 0" stroke="#1e1e1e" stroke-width="1" fill="none"></path></g><g stroke-linecap="round"><g transform="translate(677.2199273479392 294.7818722069791) rotate(0 68.78059305869488 0)"><path d="M-0.47 -0.1 C22.55 -0.15, 114.71 0.29, 137.8 0.44 M1.49 -1.2 C24.4 -1.68, 114.3 -1.46, 136.98 -1.46" stroke="#1e1e1e" stroke-width="1" fill="none"></path></g></g><mask></mask><g stroke-linecap="round"><g transform="translate(676.635145663202 197.31594079864175) rotate(0 68.78059305869488 0)"><path d="M0.28 0.9 C23.33 0.88, 114.58 -0.31, 137.3 -0.65 M-1.03 0.33 C21.93 0.51, 112.88 0.67, 136.21 0.55" stroke="#1e1e1e" stroke-width="1" fill="none"></path></g></g><mask></mask><g stroke-linecap="round"><g transform="translate(680.8096557704552 243.1365917706063) rotate(0 68.78059305869488 0)"><path d="M0.01 -0.95 C22.8 -0.68, 113.78 0.95, 136.69 0.95 M-1.44 1.17 C21.73 1.18, 115.93 -0.45, 138.95 -0.67" stroke="#1e1e1e" stroke-width="1" fill="none"></path></g></g><mask></mask><g stroke-linecap="round"><g transform="translate(679.2193038072327 147.42020401649296) rotate(0 68.78059305869488 0)"><path d="M-0.15 0.04 C22.9 0.04, 115.13 0.49, 137.94 0.3 M-1.69 -0.98 C21.26 -1.4, 113.71 -1.76, 137.19 -1.66" stroke="#1e1e1e" stroke-width="1" fill="none"></path></g></g><mask></mask><g stroke-linecap="round"><g transform="translate(678.0266490322866 95.33776058428089) rotate(0 68.78059305869488 0)"><path d="M-0.63 1.11 C22.05 1.16, 113.49 1.31, 136.51 1.11 M1.24 0.64 C24.24 0.32, 116.09 -0.51, 138.68 -0.43" stroke="#1e1e1e" stroke-width="1" fill="none"></path></g></g><mask></mask><g stroke-linecap="round"><g transform="translate(679.3187827030368 56.772926648312875) rotate(0 68.78059305869488 0)"><path d="M-0.55 -0.6 C22.4 -0.84, 114.41 -0.51, 137.54 -0.56 M1.36 1.7 C24.17 1.54, 113.83 0.98, 136.59 0.68" stroke="#1e1e1e" stroke-width="1" fill="none"></path></g></g><mask></mask><g stroke-linecap="round"><g transform="translate(677.3310611439507 330.2056864190066) rotate(0 68.78059305869488 0)"><path d="M0.02 -0.87 C22.91 -0.62, 114.03 0.95, 136.78 0.99 M-1.43 1.29 C21.89 1.27, 115.7 -0.46, 139.08 -0.61" stroke="#1e1e1e" stroke-width="1" fill="none"></path></g></g><mask></mask><g transform="translate(741.0307797190345 372.11044327178854) rotate(0 4.4499969482421875 12.5)"><text x="0" y="0" font-family="Virgil, Segoe UI Emoji" font-size="20px" fill="#1e1e1e" text-anchor="start" style="white-space: pre;" direction="ltr" dominant-baseline="text-before-edge">σ</text></g></svg>