<svg version="1.1" xmlns="http://www.w3.org/2000/svg" viewBox="0 0 692.2493229277447 315.3396257499862" width="2076.7479687832342" height="946.0188772499587">
  <!-- svg-source:excalidraw -->
  
  <defs>
    <style class="style-fonts">
      @font-face {
        font-family: "Virgil";
        src: url("https://excalidraw.com/Virgil.woff2");
      }
      @font-face {
        font-family: "Cascadia";
        src: url("https://excalidraw.com/Cascadia.woff2");
      }
      @font-face {
        font-family: "Assistant";
        src: url("https://excalidraw.com/Assistant-Regular.woff2");
      }
    </style>
    
  </defs>
  <rect x="0" y="0" width="692.2493229277447" height="315.3396257499862" fill="#ffffff"></rect><g stroke-linecap="round"><g transform="translate(83.3233779518946 158.0541892570127) rotate(0 252.88888549804688 2.6666717529296875)"><path d="M0.18 0.59 C84.35 1.36, 421.32 4.05, 505.55 4.66 M-1.18 -0.14 C82.76 0.77, 420.17 4.99, 504.49 5.84" stroke="#1e1e1e" stroke-width="1" fill="none"></path></g></g><mask></mask><g stroke-linecap="round"><g transform="translate(245.14218450804537 157.91472603542388) rotate(0 -2.2737367544323206e-13 -29.032721650110943)"><path d="M0.4 -1.2 C0.4 -11.01, 0.63 -48.58, 0.5 -57.92 M-0.85 0.79 C-1.01 -8.88, -0.1 -46.32, -0.19 -56.31" stroke="#1e1e1e" stroke-width="1" fill="none"></path></g></g><mask></mask><g stroke-linecap="round"><g transform="translate(246.90173663403357 100.08323786119036) rotate(0 29.912509102910462 0)"><path d="M0.28 -1.13 C10.28 -1.02, 49.91 -0.44, 60.03 -0.25 M-1.04 0.89 C8.82 1.27, 48.88 1.09, 59.19 1.16" stroke="#1e1e1e" stroke-width="1" fill="none"></path></g></g><mask></mask><g stroke-linecap="round"><g transform="translate(308.48630709183 33.220006871863006) rotate(0 1.7595522519754923 34.75129101045695)"><path d="M-0.34 0.52 C0.36 12.09, 3.47 58.18, 4.1 69.56 M1.68 -0.25 C2.28 11.51, 3.29 59.45, 3.46 71.13" stroke="#1e1e1e" stroke-width="1" fill="none"></path></g><g transform="translate(308.48630709183 33.220006871863006) rotate(0 1.7595522519754923 34.75129101045695)"><path d="M-5.53 47.8 C-2 55.63, -0.13 61.4, 3.46 71.13 M-5.53 47.8 C-2.85 52.54, -0.96 58.54, 3.46 71.13" stroke="#1e1e1e" stroke-width="1" fill="none"></path></g><g transform="translate(308.48630709183 33.220006871863006) rotate(0 1.7595522519754923 34.75129101045695)"><path d="M11.57 47.48 C10.08 55.36, 6.94 61.22, 3.46 71.13 M11.57 47.48 C10.08 52.44, 7.8 58.51, 3.46 71.13" stroke="#1e1e1e" stroke-width="1" fill="none"></path></g></g><mask></mask><g transform="translate(325.4770386040241 28.766108350817376) rotate(0 18.749984741210938 12.5)"><text x="0" y="0" font-family="Virgil, Segoe UI Emoji" font-size="20px" fill="#1e1e1e" text-anchor="start" style="white-space: pre;" direction="ltr" dominant-baseline="text-before-edge">5KN</text></g><g transform="translate(325.47703842253986 93.3404177218672) rotate(0 6.739990234375 12.5)"><text x="0" y="0" font-family="Virgil, Segoe UI Emoji" font-size="20px" fill="#1e1e1e" text-anchor="start" style="white-space: pre;" direction="ltr" dominant-baseline="text-before-edge">E</text></g><g transform="translate(208.3564146624367 68.65800766437405) rotate(0 7.799995422363281 12.5)"><text x="0" y="0" font-family="Virgil, Segoe UI Emoji" font-size="20px" fill="#1e1e1e" text-anchor="start" style="white-space: pre;" direction="ltr" dominant-baseline="text-before-edge">D</text></g><g transform="translate(44.49740889241457 133.43500625915567) rotate(0 6.55999755859375 12.5)"><text x="0" y="0" font-family="Virgil, Segoe UI Emoji" font-size="20px" fill="#1e1e1e" text-anchor="start" style="white-space: pre;" direction="ltr" dominant-baseline="text-before-edge">A</text></g><g transform="translate(617.7287778106734 138.89362283777518) rotate(0 7.269996643066406 12.5)"><text x="0" y="0" font-family="Virgil, Segoe UI Emoji" font-size="20px" fill="#1e1e1e" text-anchor="start" style="white-space: pre;" direction="ltr" dominant-baseline="text-before-edge">B</text></g><g transform="translate(144.46238284208357 238.4285777973646) rotate(0 13.449989318847656 12.5)"><text x="0" y="0" font-family="Virgil, Segoe UI Emoji" font-size="20px" fill="#1e1e1e" text-anchor="start" style="white-space: pre;" direction="ltr" dominant-baseline="text-before-edge">2m</text></g><g transform="translate(267.35833843337787 238.42857776044093) rotate(0 9.039993286132812 12.5)"><text x="0" y="0" font-family="Virgil, Segoe UI Emoji" font-size="20px" fill="#1e1e1e" text-anchor="start" style="white-space: pre;" direction="ltr" dominant-baseline="text-before-edge">1m</text></g><g transform="translate(410.3534713700601 238.42857797609122) rotate(0 9.039993286132812 12.5)"><text x="0" y="0" font-family="Virgil, Segoe UI Emoji" font-size="20px" fill="#1e1e1e" text-anchor="start" style="white-space: pre;" direction="ltr" dominant-baseline="text-before-edge">1m</text></g><g transform="translate(232.79936717547935 170.6855289832556) rotate(0 6.439994812011719 12.5)"><text x="0" y="0" font-family="Virgil, Segoe UI Emoji" font-size="20px" fill="#1e1e1e" text-anchor="start" style="white-space: pre;" direction="ltr" dominant-baseline="text-before-edge">C</text></g><g stroke-linecap="round"><g transform="translate(84.58240708782705 162.98748005917605) rotate(0 4.398910834770504 12.5368551025731)"><path d="M-0.5 -0.23 C-2.08 3.95, -11.55 21.47, -8.72 25.56 C-5.89 29.64, 15.83 28.06, 16.46 24.28 C17.09 20.49, -1.38 6.72, -4.93 2.83 M1.44 -1.4 C-0.39 2.41, -12.17 19.49, -9.86 23.92 C-7.54 28.35, 14.47 29.02, 15.33 25.18 C16.18 21.33, -1.12 4.89, -4.73 0.83" stroke="#1e1e1e" stroke-width="1" fill="none"></path></g></g><mask></mask><g stroke-linecap="round"><g transform="translate(597.236047484831 161.5913397883096) rotate(0 4.398910834770504 12.5368551025731)"><path d="M0.93 -0.5 C-0.62 3.65, -11.37 20.8, -8.82 25.1 C-6.26 29.41, 15.63 29.26, 16.27 25.32 C16.91 21.38, -1.58 5.44, -4.97 1.46 M-0.05 -1.81 C-1.83 1.97, -13.13 18.47, -10 23.23 C-6.88 27.99, 17.83 30.23, 18.7 26.76 C19.57 23.29, -0.82 6.59, -4.8 2.4" stroke="#1e1e1e" stroke-width="1" fill="none"></path></g></g><mask></mask><g stroke-linecap="round" transform="translate(586.6884398612938 190.03881778840696) rotate(0 7.3192209999999704 9.254210999999941)"><path d="M8.39 -0.16 C9.79 0, 11.53 1.54, 12.54 3.08 C13.55 4.62, 14.38 7.07, 14.44 9.09 C14.5 11.12, 13.79 13.74, 12.91 15.23 C12.02 16.72, 10.65 17.72, 9.14 18.01 C7.63 18.31, 5.24 17.82, 3.84 17 C2.44 16.18, 1.39 14.77, 0.73 13.08 C0.07 11.4, -0.58 8.85, -0.13 6.87 C0.31 4.89, 2 2.29, 3.39 1.21 C4.78 0.14, 7.32 0.5, 8.2 0.43 C9.09 0.37, 8.66 0.74, 8.71 0.84 M6.43 0.82 C7.87 0.36, 10.02 0.76, 11.44 1.58 C12.86 2.4, 14.53 4.01, 14.95 5.75 C15.37 7.5, 14.66 10.2, 13.97 12.07 C13.29 13.95, 12.07 15.96, 10.83 16.98 C9.59 18, 7.95 18.53, 6.53 18.17 C5.12 17.81, 3.51 16.18, 2.36 14.8 C1.21 13.42, -0.16 11.9, -0.35 9.88 C-0.55 7.87, 0.18 4.32, 1.19 2.71 C2.2 1.11, 4.97 0.62, 5.72 0.24 C6.48 -0.14, 5.72 0.31, 5.74 0.44" stroke="#1e1e1e" stroke-width="1" fill="none"></path></g><g stroke-linecap="round" transform="translate(603.0903355851033 190.95164148105232) rotate(0 7.3192209999999704 9.254210999999941)"><path d="M6.96 -0.05 C8.39 -0.36, 10.25 0.17, 11.57 1.23 C12.88 2.3, 14.47 4.36, 14.85 6.33 C15.24 8.3, 14.63 11.17, 13.87 13.06 C13.1 14.95, 11.64 16.89, 10.27 17.69 C8.9 18.49, 7.16 18.28, 5.65 17.85 C4.14 17.43, 2.14 16.65, 1.23 15.13 C0.32 13.61, 0.03 10.7, 0.19 8.73 C0.35 6.75, 1.11 4.72, 2.19 3.27 C3.28 1.81, 5.97 0.58, 6.7 0 C7.43 -0.59, 6.5 -0.43, 6.57 -0.26 M5.89 0.83 C7.41 0.28, 9.51 0.14, 10.85 0.86 C12.19 1.58, 13.27 3.38, 13.93 5.14 C14.58 6.9, 15.11 9.46, 14.8 11.41 C14.49 13.36, 13.35 15.64, 12.08 16.85 C10.81 18.05, 8.94 18.82, 7.19 18.63 C5.44 18.43, 2.87 17.17, 1.59 15.67 C0.31 14.18, -0.54 11.68, -0.49 9.65 C-0.44 7.63, 0.94 4.98, 1.88 3.52 C2.83 2.07, 4.63 1.42, 5.17 0.92 C5.71 0.41, 4.99 0.39, 5.12 0.46" stroke="#1e1e1e" stroke-width="1" fill="none"></path></g><g stroke-linecap="round"><g transform="translate(77.10429491451532 196.41909366603704) rotate(0 -12.976743165567086 14.07647087425994)"><path d="M1.17 0.4 C-2.94 5.18, -21.19 23.79, -25.52 28.4 M0.32 -0.44 C-3.83 3.99, -22.03 21.45, -26.24 26.4" stroke="#1e1e1e" stroke-width="1" fill="none"></path></g></g><mask></mask><g stroke-linecap="round"><g transform="translate(85.46219831623057 193.7797501856585) rotate(0 -7.478127275727502 11.877038110497779)"><path d="M0.13 -0.33 C-2.35 3.49, -12.41 19.31, -14.95 23.39 M-0.47 0.69 C-3.02 4.8, -12.86 20.14, -15.37 23.9" stroke="#1e1e1e" stroke-width="1" fill="none"></path></g></g><mask></mask><g stroke-linecap="round"><g transform="translate(95.57965396992176 192.46008599667675) rotate(0 -5.0587278268455975 11.43715004750402)"><path d="M0.22 0.29 C-1.55 3.97, -8.39 18.75, -10.19 22.59 M-0.34 -0.04 C-2.21 3.95, -9.13 19.39, -10.65 23.14" stroke="#1e1e1e" stroke-width="1" fill="none"></path></g></g><mask></mask><g stroke-linecap="round"><g transform="translate(84.58240708782705 217.09390813882874) rotate(0 0.4398956142017596 15.836038228650978)"><path d="M0.4 -0.47 C0.54 4.81, 0.96 25.84, 1.06 31.19 M-0.06 0.48 C0.01 5.85, 0.6 26.35, 0.72 31.64" stroke="#1e1e1e" stroke-width="1" fill="none"></path></g></g><mask></mask><g stroke-linecap="round"><g transform="translate(245.4253740462923 215.60061341182427) rotate(0 0.4398956142017596 15.836038228650978)"><path d="M0.09 0.34 C0.32 5.47, 1.24 26, 1.34 31.18 M-0.52 0.04 C-0.33 5.18, 1.01 26.31, 1.15 31.63" stroke="#1e1e1e" stroke-width="1" fill="none"></path></g></g><mask></mask><g stroke-linecap="round"><g transform="translate(306.0516023356013 220.61791373438336) rotate(0 0.4398956142017596 15.836038228650978)"><path d="M-0.54 0.28 C-0.51 5.55, 0.31 26.42, 0.49 31.63 M0.18 -0.05 C0.35 5.3, 1.27 26.96, 1.53 32.3" stroke="#1e1e1e" stroke-width="1" fill="none"></path></g></g><mask></mask><g stroke-linecap="round"><g transform="translate(592.2232375817439 224.81653000660845) rotate(0 0.4398956142017596 15.836038228650978)"><path d="M-0.21 0.32 C0.05 5.67, 1.14 26.97, 1.33 32.13 M0.69 0 C0.92 5.22, 1.14 26.12, 1.12 31.39" stroke="#1e1e1e" stroke-width="1" fill="none"></path></g></g><mask></mask><g stroke-linecap="round"><g transform="translate(86.14348054463426 225.45212654054467) rotate(0 252.9365952248861 4.838806448972264)"><path d="M0.05 1.11 C84.45 2.78, 422.48 7.66, 506.85 9.13 M-1.39 0.64 C82.91 2.55, 421.91 8.6, 506.41 10.37" stroke="#1e1e1e" stroke-width="1" fill="none"></path></g></g><mask></mask><g stroke-linecap="round"><g transform="translate(82.82285483585156 225.89169960353865) rotate(0 7.698071307224609 -3.9590076693607443)"><path d="M0.02 0.34 C2.72 -1.08, 13.33 -6.71, 15.91 -8.07 M-0.63 0.05 C2.06 -1.06, 13.1 -6.25, 15.74 -7.44" stroke="#1e1e1e" stroke-width="1" fill="none"></path></g></g><mask></mask><g stroke-linecap="round"><g transform="translate(83.26274289884532 225.89169960353865) rotate(0 7.918015338721489 4.618862417475157)"><path d="M-0.52 -0.34 C2.15 1.19, 13.17 7.19, 15.84 8.82 M0.22 0.68 C2.83 2.29, 12.95 8.01, 15.42 9.3" stroke="#1e1e1e" stroke-width="1" fill="none"></path></g></g><mask></mask><g stroke-linecap="round"><g transform="translate(245.14218438205808 227.6512669579297) rotate(0 -10.5573588191005 -2.199447866177252)"><path d="M0.1 0.33 C-3.26 -0.41, -17 -3.69, -20.59 -4.39 M-0.52 0.03 C-3.87 -0.63, -17.45 -2.9, -20.75 -3.69" stroke="#1e1e1e" stroke-width="1" fill="none"></path></g></g><mask></mask><g stroke-linecap="round"><g transform="translate(244.70228121664832 229.41081920990473) rotate(0 -6.158463086745996 5.278686960758478)"><path d="M0.18 -0.45 C-1.92 1.37, -10.25 8.89, -12.32 10.82 M-0.39 0.51 C-2.59 2.18, -10.73 8.35, -12.75 9.98" stroke="#1e1e1e" stroke-width="1" fill="none"></path></g></g><mask></mask><g stroke-linecap="round"><g transform="translate(246.86976088600886 228.51115160353947) rotate(0 4.8387988977642635 -2.419391897674359)"><path d="M0.09 -0.29 C1.81 -1.12, 8.42 -4.25, 9.97 -4.98 M-0.29 0.33 C1.44 -0.46, 8.11 -3.67, 9.85 -4.59" stroke="#1e1e1e" stroke-width="1" fill="none"></path></g></g><mask></mask><g stroke-linecap="round"><g transform="translate(245.14218438205808 227.6512669579297) rotate(0 10.997246882094487 7.698063756016381)"><path d="M0.38 -1.17 C3.8 1.12, 17.6 11.63, 21.33 14.2 M-0.88 0.83 C2.87 3.18, 19.81 12.75, 23.69 15.11" stroke="#1e1e1e" stroke-width="1" fill="none"></path></g></g><mask></mask><g stroke-linecap="round"><g transform="translate(305.51002754845695 230.95804329665043) rotate(0 -10.557358819100727 -6.378399567035103)"><path d="M-0.05 0.41 C-3.51 -1.64, -17.47 -10.59, -20.98 -12.72 M-0.74 0.14 C-4.25 -1.77, -17.89 -9.77, -21.34 -12" stroke="#1e1e1e" stroke-width="1" fill="none"></path></g></g><mask></mask><g stroke-linecap="round"><g transform="translate(305.5100276744447 228.9591611076694) rotate(0 -9.017743047414115 5.938519055248889)"><path d="M0.46 0.42 C-2.66 2.36, -15.37 10.25, -18.53 12.18 M0.03 0.16 C-2.93 2.18, -14.64 9.29, -17.56 11.37" stroke="#1e1e1e" stroke-width="1" fill="none"></path></g></g><mask></mask><g stroke-linecap="round"><g transform="translate(306.54455254845743 231.33897814691045) rotate(0 9.457631110407874 -2.8592799606681183)"><path d="M0.26 -0.16 C3.48 -1.02, 15.71 -4.51, 18.88 -5.43 M-0.27 -0.72 C2.92 -1.72, 15.21 -5.53, 18.44 -6.25" stroke="#1e1e1e" stroke-width="1" fill="none"></path></g></g><mask></mask><g stroke-linecap="round"><g transform="translate(304.85497409164964 229.265224438308) rotate(0 10.99724688209426 7.478119724519729)"><path d="M-0.55 -0.28 C3.16 2.04, 18.09 11.94, 21.82 14.44 M0.17 0.76 C3.83 3.37, 17.76 12.46, 21.3 14.87" stroke="#1e1e1e" stroke-width="1" fill="none"></path></g></g><mask></mask><g stroke-linecap="round"><g transform="translate(580.3531030649883 230.3726374775506) rotate(0 6.59833604732421 3.739063637864092)"><path d="M0.27 -0.03 C2.48 1.2, 11.17 6.04, 13.33 7.34 M-0.25 -0.52 C1.89 0.8, 10.78 6.74, 12.97 7.97" stroke="#1e1e1e" stroke-width="1" fill="none"></path></g></g><mask></mask><g stroke-linecap="round"><g transform="translate(592.7832225770212 235.49868443848845) rotate(0 -14.296399803340819 7.258168141814622)"><path d="M-0.2 -0.09 C-5.01 2.18, -24.39 11.77, -29.05 14.12 M0.7 -0.61 C-3.92 1.95, -23.22 12.13, -28.06 14.62" stroke="#1e1e1e" stroke-width="1" fill="none"></path></g></g><mask></mask><g stroke-linecap="round" transform="translate(10 10) rotate(0 336.12466146387237 147.6698128749931)"><path d="M32 0 C217.47 1.44, 401.84 0.39, 640.25 0 M32 0 C154.54 -0.6, 276.64 -0.53, 640.25 0 M640.25 0 C661.84 0.29, 671.79 11.29, 672.25 32 M640.25 0 C660.43 1.62, 672.42 10.79, 672.25 32 M672.25 32 C673.74 125.29, 673.12 216.16, 672.25 263.34 M672.25 32 C672.07 105.45, 672.86 179.78, 672.25 263.34 M672.25 263.34 C672.11 282.72, 662.83 295.82, 640.25 295.34 M672.25 263.34 C672.14 282.48, 663.32 297.15, 640.25 295.34 M640.25 295.34 C444.35 297.91, 247.85 297.26, 32 295.34 M640.25 295.34 C479.38 294.43, 318.68 294.32, 32 295.34 M32 295.34 C10.97 294.15, 0.36 285.23, 0 263.34 M32 295.34 C9.71 294.13, -1.94 282.56, 0 263.34 M0 263.34 C0.46 201.16, 0.21 140.85, 0 32 M0 263.34 C-1.25 192.81, -0.55 123.2, 0 32 M0 32 C-0.37 10.63, 12.04 -1.85, 32 0 M0 32 C1.14 10.6, 10.34 -0.87, 32 0" stroke="#1e1e1e" stroke-width="1" fill="none"></path></g></svg>
