<svg version="1.1" xmlns="http://www.w3.org/2000/svg" viewBox="0 0 660.4244820181084 521.7610643489415" width="1981.2734460543252" height="1565.2831930468246">
  <!-- svg-source:excalidraw -->
  
  <defs>
    <style class="style-fonts">
      @font-face {
        font-family: "Virgil";
        src: url("https://excalidraw.com/Virgil.woff2");
      }
      @font-face {
        font-family: "Cascadia";
        src: url("https://excalidraw.com/Cascadia.woff2");
      }
      @font-face {
        font-family: "Assistant";
        src: url("https://excalidraw.com/Assistant-Regular.woff2");
      }
    </style>
    <clipPath id="s9m5GpTsYBKp8gz7u8Iuz">
            <rect transform="translate(0 0) rotate(0 330.2122410090542 260.8805321744708)" width="660.4244820181085" height="521.7610643489413">
          </rect>
        </clipPath>
  </defs>
  <rect x="0" y="0" width="660.4244820181084" height="521.7610643489415" fill="#ffffff"></rect><g clip-path="url(#s9m5GpTsYBKp8gz7u8Iuz)"><g stroke-linecap="round"><g transform="translate(193.48371965681054 134.1487260237118) rotate(0 146.40274829862665 0)"><path d="M1 1.17 C49.86 1.22, 245.19 1.26, 293.82 0.97 M0.06 0.73 C48.8 0.41, 244.75 -0.59, 293.41 -0.64" stroke="#9c36b5" stroke-width="1" fill="none"></path></g></g><mask></mask></g><g clip-path="url(#s9m5GpTsYBKp8gz7u8Iuz)"><g stroke-linecap="round"><g transform="translate(193.48371965681054 133.50376058473648) rotate(0 -15.478683401373473 18.70344416888065)"><path d="M-0.3 1.18 C-5.74 7.66, -26.29 31.7, -31.58 37.7 M1.75 0.75 C-3.39 6.95, -23.95 29.46, -29.19 35.74" stroke="#9c36b5" stroke-width="1" fill="none"></path></g></g><mask></mask></g><g clip-path="url(#s9m5GpTsYBKp8gz7u8Iuz)"><g stroke-linecap="round"><g transform="translate(161.8813874150892 168.97579689048507) rotate(0 29.989985071651063 0)"><path d="M1.11 0.51 C10.95 0.48, 49.91 -0.59, 59.76 -0.63 M0.23 -0.26 C9.83 -0.11, 48.81 0.25, 58.69 0.58" stroke="#9c36b5" stroke-width="1" fill="none"></path></g></g><mask></mask></g><g clip-path="url(#s9m5GpTsYBKp8gz7u8Iuz)"><g stroke-linecap="round"><g transform="translate(221.86135755839132 168.97579689048507) rotate(0 -13.866336231302967 -17.091063785127062)"><path d="M0.88 -1.16 C-3.88 -6.94, -23.96 -28.03, -28.69 -33.53 M-0.11 0.85 C-4.5 -4.78, -21.81 -29.7, -26.48 -35.31" stroke="#9c36b5" stroke-width="1" fill="none"></path></g></g><mask></mask></g><g clip-path="url(#s9m5GpTsYBKp8gz7u8Iuz)"><g stroke-linecap="round" transform="translate(467.58566137290654 168.13995068586155) rotate(0 8.70676771669332 10.641597606251253)"><path d="M10.42 -0.21 C12.14 0.04, 13.76 2.03, 14.99 3.93 C16.22 5.83, 17.76 8.87, 17.79 11.17 C17.83 13.48, 16.41 16.01, 15.19 17.75 C13.97 19.49, 12.35 21.3, 10.45 21.61 C8.56 21.93, 5.5 20.79, 3.83 19.62 C2.15 18.45, 0.98 16.74, 0.4 14.58 C-0.18 12.42, -0.27 8.86, 0.34 6.66 C0.96 4.46, 2.45 2.52, 4.09 1.38 C5.73 0.24, 9 -0.09, 10.17 -0.16 C11.34 -0.22, 11.14 0.75, 11.11 0.98 M10.03 0.13 C11.74 0.41, 13.97 2.67, 15.23 4.58 C16.5 6.48, 17.59 9.5, 17.61 11.56 C17.62 13.61, 16.55 15.4, 15.32 16.93 C14.1 18.45, 11.99 20.14, 10.26 20.71 C8.53 21.28, 6.49 21.38, 4.92 20.34 C3.35 19.3, 1.54 16.78, 0.84 14.44 C0.14 12.11, 0.16 8.53, 0.71 6.32 C1.25 4.11, 2.41 2.1, 4.12 1.2 C5.83 0.3, 9.86 1.01, 10.97 0.94 C12.08 0.87, 10.9 0.75, 10.8 0.77" stroke="none" stroke-width="0" fill="#ffffff"></path><path d="M8.5 -0.17 C10.32 -0.5, 12.36 0.38, 13.78 1.67 C15.19 2.96, 16.49 5.23, 16.99 7.58 C17.48 9.93, 17.56 13.7, 16.75 15.75 C15.94 17.8, 13.91 19.09, 12.11 19.89 C10.3 20.7, 7.62 21.13, 5.92 20.58 C4.22 20.03, 2.92 18.39, 1.92 16.58 C0.93 14.77, -0.21 11.95, -0.05 9.71 C0.12 7.46, 1.54 4.66, 2.92 3.12 C4.3 1.59, 7.22 1, 8.21 0.5 C9.2 0, 8.88 0.06, 8.88 0.11 M9.68 0.3 C11.4 0.5, 14.11 1.8, 15.39 3.6 C16.67 5.39, 17.35 8.87, 17.37 11.08 C17.4 13.29, 16.57 15.14, 15.53 16.87 C14.5 18.6, 13.1 20.85, 11.15 21.45 C9.2 22.06, 5.6 21.63, 3.82 20.52 C2.03 19.4, 0.94 16.93, 0.42 14.75 C-0.09 12.57, 0.2 9.6, 0.73 7.41 C1.26 5.23, 2.01 2.94, 3.61 1.65 C5.21 0.36, 9.39 -0.01, 10.34 -0.33 C11.29 -0.64, 9.39 -0.44, 9.3 -0.23" stroke="#9c36b5" stroke-width="1" fill="none"></path></g></g><g clip-path="url(#s9m5GpTsYBKp8gz7u8Iuz)"><g stroke-linecap="round"><g transform="translate(194.73592553475964 136.96976790019835) rotate(0 0 169.45462658282668)"><path d="M-0.14 -0.36 C-0.03 56.12, 0.31 283.23, 0.24 339.89" stroke="#1e1e1e" stroke-width="1.5" fill="none" stroke-dasharray="8 9"></path></g></g><mask></mask></g><g clip-path="url(#s9m5GpTsYBKp8gz7u8Iuz)"><g stroke-linecap="round"><g transform="translate(195.4185716888237 306.349243087202) rotate(0 145.11279527822194 0)"><path d="M-0.68 0 C47.72 -0.12, 242.51 -0.96, 291.01 -0.94 M1.16 -1.05 C49.43 -1.03, 242.4 -0.32, 290.47 0.1" stroke="#f08c00" stroke-width="1" fill="none"></path></g></g><mask></mask></g><g clip-path="url(#s9m5GpTsYBKp8gz7u8Iuz)"><g stroke-linecap="round"><g transform="translate(194.05884453475937 478.21001085640273) rotate(0 147.04762516777964 -0.32248271948719776)"><path d="M0.25 0.24 C49.28 0.2, 246.25 -0.4, 295.19 -0.44 M-1.09 -0.68 C47.8 -1.08, 245.8 -2.24, 294.82 -2.46" stroke="#e03131" stroke-width="1" fill="none"></path></g></g><mask></mask></g><g clip-path="url(#s9m5GpTsYBKp8gz7u8Iuz)"><g stroke-linecap="round"><g transform="translate(283.8465659378271 139.0930574932372) rotate(0 0 168.33085912957904)"><path d="M0.77 -0.64 C0.79 55.67, 1.25 280.93, 0.98 337.11" stroke="#1e1e1e" stroke-width="1.5" fill="none" stroke-dasharray="8 9"></path></g></g><mask></mask></g><g clip-path="url(#s9m5GpTsYBKp8gz7u8Iuz)"><g stroke-linecap="round"><g transform="translate(284.1617226696794 41.64389719251176) rotate(0 0 47.08104332116409)"><path d="M0.67 0.96 C0.62 16.78, 0.08 78.98, -0.19 94.35 M-0.43 0.42 C-0.67 15.91, -1.55 76.74, -1.24 92.33" stroke="#9c36b5" stroke-width="1" fill="none"></path></g><g transform="translate(284.1617226696794 41.64389719251176) rotate(0 0 47.08104332116409)"><path d="M-9.8 68.84 C-5.65 75.77, -4.28 81.82, -1.24 92.33 M-9.8 68.84 C-8.01 74.01, -7.04 79.47, -1.24 92.33" stroke="#9c36b5" stroke-width="1" fill="none"></path></g><g transform="translate(284.1617226696794 41.64389719251176) rotate(0 0 47.08104332116409)"><path d="M7.3 68.84 C6.15 75.86, 2.21 81.92, -1.24 92.33 M7.3 68.84 C5.35 73.86, 2.58 79.32, -1.24 92.33" stroke="#9c36b5" stroke-width="1" fill="none"></path></g></g><mask></mask></g><g clip-path="url(#s9m5GpTsYBKp8gz7u8Iuz)"><g stroke-linecap="round"><g transform="translate(196.70845828186248 304.4143910551884) rotate(0 0 -30.634917296942604)"><path d="M0.64 -1.14 C0.44 -11.11, -0.82 -50.7, -1.12 -60.75 M-0.48 0.87 C-0.34 -9.37, 0.73 -52.42, 1.01 -62.6" stroke="#f08c00" stroke-width="1" fill="none"></path></g></g><mask></mask></g><g clip-path="url(#s9m5GpTsYBKp8gz7u8Iuz)"><g stroke-linecap="round"><g transform="translate(484.9991968062932 365.68424779152974) rotate(0 -41.921469270940634 0)"><path d="M-0.34 -0.42 C-14.49 -0.25, -70.86 0.59, -84.85 0.69 M1.69 -1.69 C-12.11 -1.83, -68.18 -1.62, -82.66 -1.07" stroke="#f08c00" stroke-width="1" fill="none"></path></g></g><mask></mask></g><g clip-path="url(#s9m5GpTsYBKp8gz7u8Iuz)"><g stroke-linecap="round"><g transform="translate(194.12868509578539 244.4344430543424) rotate(0 44.82372517650515 0)"><path d="M-0.89 -0.37 C14 -0.25, 73.41 0.28, 88.66 0.27 M0.85 -1.61 C16.17 -1.84, 75.93 -2.09, 90.86 -1.71" stroke="#f08c00" stroke-width="1" fill="none"></path></g></g><mask></mask></g><g clip-path="url(#s9m5GpTsYBKp8gz7u8Iuz)"><g stroke-linecap="round"><g transform="translate(285.99696263487294 305.36561460460507) rotate(0 57.07771423773738 0)"><path d="M-0.64 0.86 C18.73 1.04, 95.83 0.12, 115.03 0.14 M1.23 0.26 C20.62 0.74, 95.75 1.94, 114.54 1.75" stroke="#f08c00" stroke-width="1" fill="none"></path></g></g><mask></mask></g><g clip-path="url(#s9m5GpTsYBKp8gz7u8Iuz)"><g stroke-linecap="round"><g transform="translate(192.19383306377222 474.6801077523951) rotate(0 47.40352050503748 -29.6675244946191)"><path d="M-0.74 -0.8 C14.93 -10.66, 78.36 -50.26, 94.37 -60.19 M1.07 1.39 C16.51 -8.24, 77.57 -48.94, 93.2 -59.1" stroke="#e03131" stroke-width="1" fill="none"></path></g></g><mask></mask></g><g clip-path="url(#s9m5GpTsYBKp8gz7u8Iuz)"><g stroke-linecap="round"><g transform="translate(284.91460840351283 414.48780951353274) rotate(0 55.697069334119305 0)"><path d="M-0.14 -0.71 C18.77 -0.94, 94.07 -0.56, 112.51 -0.36 M-1.67 1.53 C17.26 2, 93.04 1.51, 112.15 0.99" stroke="#e03131" stroke-width="1" fill="none"></path></g></g><mask></mask></g><g clip-path="url(#s9m5GpTsYBKp8gz7u8Iuz)"><g stroke-linecap="round"><g transform="translate(398.0703242196382 415.8454065853066) rotate(0 44.44642395178926 30.11144566057601)"><path d="M0.45 -0.37 C15.61 9.4, 75.14 49.02, 89.85 59.29 M-0.77 -1.6 C14.41 8.22, 74.63 50.16, 89.4 60.34" stroke="#e03131" stroke-width="1" fill="none"></path></g></g><mask></mask></g><g clip-path="url(#s9m5GpTsYBKp8gz7u8Iuz)"><g transform="translate(278.7722413945189 1.3311940523499288) rotate(0 7.459991455078125 12.5)"><text x="0" y="0" font-family="Virgil, Segoe UI Emoji" font-size="20px" fill="#9c36b5" text-anchor="start" style="white-space: pre;" direction="ltr" dominant-baseline="text-before-edge">W</text></g></g><g clip-path="url(#s9m5GpTsYBKp8gz7u8Iuz)"><g transform="translate(221.31444823780976 106.8892855904196) rotate(0 17.79998016357422 12.5)"><text x="0" y="0" font-family="Virgil, Segoe UI Emoji" font-size="20px" fill="#9c36b5" text-anchor="start" style="white-space: pre;" direction="ltr" dominant-baseline="text-before-edge">L/3</text></g></g><g clip-path="url(#s9m5GpTsYBKp8gz7u8Iuz)"><g transform="translate(532.4177633690974 304.939041693885) rotate(0 19.61998748779297 12.5)"><text x="0" y="0" font-family="Virgil, Segoe UI Emoji" font-size="20px" fill="#f08c00" text-anchor="start" style="white-space: pre;" direction="ltr" dominant-baseline="text-before-edge">SFD</text></g></g><g clip-path="url(#s9m5GpTsYBKp8gz7u8Iuz)"><g transform="translate(526.1977625710388 453.4471446699363) rotate(0 22.72998809814453 12.5)"><text x="0" y="0" font-family="Virgil, Segoe UI Emoji" font-size="20px" fill="#e03131" text-anchor="start" style="white-space: pre;" direction="ltr" dominant-baseline="text-before-edge">BMD</text></g></g><g clip-path="url(#s9m5GpTsYBKp8gz7u8Iuz)"><g stroke-linecap="round"><g transform="translate(488.53860097262304 133.66432603393332) rotate(0 -15.478683401373473 18.70344416888065)"><path d="M-0.55 -1.06 C-5.59 5.17, -25.54 29.95, -30.65 36.49 M1.36 1 C-3.77 7.42, -25.85 31.68, -31.44 37.54" stroke="#9c36b5" stroke-width="1" fill="none"></path></g></g><mask></mask></g><g clip-path="url(#s9m5GpTsYBKp8gz7u8Iuz)"><g stroke-linecap="round"><g transform="translate(456.9362687309017 169.13636233968282) rotate(0 29.989985071651063 0)"><path d="M0.3 -0.92 C10.34 -0.62, 49.84 0.76, 59.69 0.74 M-0.99 1.21 C8.91 1.27, 48.7 -0.75, 58.58 -1" stroke="#9c36b5" stroke-width="1" fill="none"></path></g></g><mask></mask></g><g clip-path="url(#s9m5GpTsYBKp8gz7u8Iuz)"><g stroke-linecap="round"><g transform="translate(516.9162388742038 169.13636233968282) rotate(0 -13.866336231302967 -17.091063785127062)"><path d="M-0.29 0.74 C-5.07 -4.98, -23.66 -29.21, -28.35 -35.22 M1.75 0.08 C-2.65 -5.44, -21.35 -28.44, -25.96 -34.23" stroke="#9c36b5" stroke-width="1" fill="none"></path></g></g><mask></mask></g><g clip-path="url(#s9m5GpTsYBKp8gz7u8Iuz)"><g stroke-linecap="round" transform="translate(487.30450476186934 168.1399502474369) rotate(0 8.70676771669332 10.641597606251253)"><path d="M6.65 0.57 C8.44 -0.09, 11.12 -0.39, 12.72 0.63 C14.31 1.65, 15.45 4.56, 16.2 6.7 C16.94 8.83, 17.63 11.31, 17.19 13.45 C16.75 15.58, 15.08 18.2, 13.56 19.51 C12.03 20.82, 9.97 21.55, 8.04 21.32 C6.12 21.08, 3.32 19.73, 2 18.1 C0.69 16.46, 0.17 13.74, 0.16 11.5 C0.15 9.25, 0.75 6.42, 1.95 4.61 C3.15 2.81, 6.53 1.45, 7.35 0.66 C8.17 -0.12, 6.83 -0.28, 6.86 -0.11 M8.58 0.6 C10.47 0.22, 12.84 0.12, 14.34 1.38 C15.83 2.65, 17.14 5.93, 17.57 8.21 C17.99 10.48, 17.7 12.91, 16.89 15.02 C16.08 17.13, 14.41 19.87, 12.69 20.85 C10.97 21.84, 8.56 21.74, 6.57 20.93 C4.59 20.13, 1.97 17.92, 0.79 16.04 C-0.39 14.16, -0.71 11.78, -0.49 9.63 C-0.26 7.49, 0.63 4.67, 2.15 3.17 C3.67 1.66, 7.55 1.15, 8.64 0.59 C9.73 0.03, 8.78 -0.4, 8.69 -0.2" stroke="none" stroke-width="0" fill="#ffffff"></path><path d="M8.85 -0.11 C10.54 -0.11, 13.25 1.84, 14.63 3.41 C16 4.97, 16.96 7.08, 17.12 9.27 C17.27 11.47, 16.63 14.7, 15.56 16.56 C14.49 18.42, 12.38 19.7, 10.7 20.41 C9.02 21.12, 7.17 21.67, 5.46 20.83 C3.75 19.98, 1.25 17.45, 0.44 15.34 C-0.36 13.23, 0.05 10.42, 0.63 8.17 C1.22 5.92, 2.48 3.22, 3.96 1.83 C5.45 0.45, 8.49 0.11, 9.55 -0.12 C10.62 -0.35, 10.27 0.24, 10.34 0.46 M7.32 0.93 C9.03 0.41, 11.31 0.64, 12.89 1.46 C14.46 2.28, 16.13 3.84, 16.76 5.84 C17.4 7.83, 17.11 11.05, 16.67 13.44 C16.24 15.83, 15.56 18.83, 14.15 20.18 C12.74 21.54, 10.16 21.97, 8.23 21.58 C6.3 21.19, 3.82 19.56, 2.57 17.86 C1.32 16.16, 1.02 13.48, 0.74 11.35 C0.47 9.22, -0.11 7, 0.94 5.06 C1.98 3.13, 6.03 0.58, 7.02 -0.23 C8.02 -1.05, 7.03 -0.09, 6.89 0.18" stroke="#9c36b5" stroke-width="1" fill="none"></path></g></g><g clip-path="url(#s9m5GpTsYBKp8gz7u8Iuz)"><g stroke-linecap="round"><g transform="translate(486.6877913207545 138.44871523737402) rotate(0 0 169.67267481742738)"><path d="M0.91 -0.03 C0.81 56.61, -0.5 282.63, -0.64 339.17" stroke="#1e1e1e" stroke-width="1.5" fill="none" stroke-dasharray="8 9"></path></g></g><mask></mask></g><g clip-path="url(#s9m5GpTsYBKp8gz7u8Iuz)"><g stroke-linecap="round"><g transform="translate(397.54593193456594 137.54566890038495) rotate(0 0 168.33085912957904)"><path d="M-0.85 -0.58 C-0.94 55.64, -0.24 281.44, -0.14 337.63" stroke="#1e1e1e" stroke-width="1.5" fill="none" stroke-dasharray="8 9"></path></g></g><mask></mask></g><g clip-path="url(#s9m5GpTsYBKp8gz7u8Iuz)"><g stroke-linecap="round"><g transform="translate(398.457498885949 37.24813908908436) rotate(0 0 47.08104332116409)"><path d="M-0.2 -0.51 C-0.22 15.05, 0.76 77.55, 0.97 93.47 M-1.77 -1.83 C-1.95 13.87, 0.09 78.82, 0.52 94.64" stroke="#9c36b5" stroke-width="1" fill="none"></path></g><g transform="translate(398.457498885949 37.24813908908436) rotate(0 0 47.08104332116409)"><path d="M-8.7 71.41 C-5.96 82.04, -2.69 91.2, 0.52 94.64 M-8.7 71.41 C-5.35 80.41, -3.01 87.86, 0.52 94.64" stroke="#9c36b5" stroke-width="1" fill="none"></path></g><g transform="translate(398.457498885949 37.24813908908436) rotate(0 0 47.08104332116409)"><path d="M8.39 70.91 C4.5 81.71, 1.15 91.06, 0.52 94.64 M8.39 70.91 C5.44 80.21, 1.49 87.85, 0.52 94.64" stroke="#9c36b5" stroke-width="1" fill="none"></path></g></g><mask></mask></g><g clip-path="url(#s9m5GpTsYBKp8gz7u8Iuz)"><g stroke-linecap="round"><g transform="translate(284.76774493352514 306.3231727136299) rotate(0 0 -30.634917296942604)"><path d="M0.04 -0.32 C0.06 -10.51, -0.77 -50.2, -0.82 -60.29 M-1.4 -1.53 C-0.92 -12.12, 1.43 -51.65, 1.46 -61.9" stroke="#f08c00" stroke-width="1" fill="none"></path></g></g><mask></mask></g><g clip-path="url(#s9m5GpTsYBKp8gz7u8Iuz)"><g stroke-linecap="round"><g transform="translate(398.4574985962454 367.34163040671683) rotate(0 0 -30.634917296942604)"><path d="M-0.75 0.34 C-0.7 -9.93, 0.48 -52.13, 0.6 -62.4 M1.05 -0.53 C0.97 -10.63, 0.27 -51.54, -0.03 -61.46" stroke="#f08c00" stroke-width="1" fill="none"></path></g></g><mask></mask></g><g clip-path="url(#s9m5GpTsYBKp8gz7u8Iuz)"><g stroke-linecap="round"><g transform="translate(486.4285146535608 367.682020706874) rotate(0 0 -30.634917296942604)"><path d="M0.74 -1.06 C0.64 -11.09, 0.18 -50.67, 0.13 -60.56 M-0.33 1 C-0.63 -9.35, -0.79 -51.77, -0.75 -62.32" stroke="#f08c00" stroke-width="1" fill="none"></path></g></g><mask></mask></g><g clip-path="url(#s9m5GpTsYBKp8gz7u8Iuz)"><g transform="translate(389.22005550325093 -3.40760379913263e-7) rotate(0 7.459991455078125 12.5)"><text x="0" y="0" font-family="Virgil, Segoe UI Emoji" font-size="20px" fill="#9c36b5" text-anchor="start" style="white-space: pre;" direction="ltr" dominant-baseline="text-before-edge">W</text></g></g><g clip-path="url(#s9m5GpTsYBKp8gz7u8Iuz)"><g transform="translate(330.21224086357415 107.60511237878927) rotate(0 17.79998016357422 12.5)"><text x="0" y="0" font-family="Virgil, Segoe UI Emoji" font-size="20px" fill="#9c36b5" text-anchor="start" style="white-space: pre;" direction="ltr" dominant-baseline="text-before-edge">L/3</text></g></g><g clip-path="url(#s9m5GpTsYBKp8gz7u8Iuz)"><g transform="translate(430.29072858053723 106.88928544954797) rotate(0 17.79998016357422 12.5)"><text x="0" y="0" font-family="Virgil, Segoe UI Emoji" font-size="20px" fill="#9c36b5" text-anchor="start" style="white-space: pre;" direction="ltr" dominant-baseline="text-before-edge">L/3</text></g></g><g clip-path="url(#s9m5GpTsYBKp8gz7u8Iuz)"><g transform="translate(306.4388974384515 282.32437992816995) rotate(0 34.869964599609375 12.5)"><text x="0" y="0" font-family="Virgil, Segoe UI Emoji" font-size="20px" fill="#f08c00" text-anchor="start" style="white-space: pre;" direction="ltr" dominant-baseline="text-before-edge">SF = 0</text></g></g><g clip-path="url(#s9m5GpTsYBKp8gz7u8Iuz)"><g transform="translate(322.7522486539606 385.51780221928584) rotate(0 25.259971618652344 12.5)"><text x="0" y="0" font-family="Virgil, Segoe UI Emoji" font-size="20px" fill="#e03131" text-anchor="start" style="white-space: pre;" direction="ltr" dominant-baseline="text-before-edge">WL/3</text></g></g></svg>