<svg version="1.1" xmlns="http://www.w3.org/2000/svg" viewBox="0 0 644.9457321893692 448.23727358431506" width="1934.8371965681076" height="1344.7118207529452">
  <!-- svg-source:excalidraw -->
  
  <defs>
    <style class="style-fonts">
      @font-face {
        font-family: "Virgil";
        src: url("https://excalidraw.com/Virgil.woff2");
      }
      @font-face {
        font-family: "Cascadia";
        src: url("https://excalidraw.com/Cascadia.woff2");
      }
      @font-face {
        font-family: "Assistant";
        src: url("https://excalidraw.com/Assistant-Regular.woff2");
      }
    </style>
    <clipPath id="1i9N07io2dT3B70S-lTiF">
            <rect transform="translate(0 0) rotate(0 322.4728660946846 224.11863679215753)" width="644.9457321893692" height="448.23727358431506">
          </rect>
        </clipPath>
  </defs>
  <rect x="0" y="0" width="644.9457321893692" height="448.23727358431506" fill="#ffffff"></rect><g clip-path="url(#1i9N07io2dT3B70S-lTiF)"><g stroke-linecap="round" transform="translate(91.58222857683904 161.88140955754443) rotate(0 54.82040162869225 50.30577641060222)"><path d="M25.15 0 C43.42 0.04, 66.33 -2.24, 84.49 0 M25.15 0 C41.2 0.4, 58.62 0.16, 84.49 0 M84.49 0 C101.98 0.35, 109.27 7.28, 109.64 25.15 M84.49 0 C99.84 -2.23, 110.78 9.15, 109.64 25.15 M109.64 25.15 C111.51 35.82, 111.79 45.09, 109.64 75.46 M109.64 25.15 C109.33 40.31, 108.97 53.23, 109.64 75.46 M109.64 75.46 C109.97 90.44, 100.71 100.98, 84.49 100.61 M109.64 75.46 C108.08 91.76, 102.47 100.58, 84.49 100.61 M84.49 100.61 C60.98 99.07, 39.13 101.45, 25.15 100.61 M84.49 100.61 C63.06 100.02, 41.39 100.58, 25.15 100.61 M25.15 100.61 C6.49 100.14, 1.8 92.73, 0 75.46 M25.15 100.61 C10.58 99.44, 1.52 92.13, 0 75.46 M0 75.46 C0.2 64.37, -1.5 49.87, 0 25.15 M0 75.46 C0.57 61.65, 0.44 48.09, 0 25.15 M0 25.15 C1.54 8.42, 7.29 1.11, 25.15 0 M0 25.15 C1.56 9.93, 9.51 0.11, 25.15 0" stroke="#1971c2" stroke-width="1" fill="none"></path></g></g><g clip-path="url(#1i9N07io2dT3B70S-lTiF)"><g stroke-linecap="round"><g transform="translate(276.27856037889933 161.8814099296983) rotate(0 90.29241579198492 0)"><path d="M-0.53 -0.07 C29.34 0.06, 149.56 0.44, 179.62 0.45 M1.4 -1.15 C31.59 -1.36, 151.67 -1.84, 181.82 -1.44" stroke="#1971c2" stroke-width="1" fill="none"></path></g></g><mask></mask></g><g clip-path="url(#1i9N07io2dT3B70S-lTiF)"><g stroke-linecap="round"><g transform="translate(457.911393832022 160.28938858431502) rotate(0 -32.892218834760115 51.10177582598908)"><path d="M0.2 0.05 C-10.54 17.16, -54.29 85.75, -65.39 102.81 M-1.16 -0.97 C-11.93 15.78, -55.07 83.53, -66.13 101.01" stroke="#1971c2" stroke-width="1" fill="none"></path></g></g><mask></mask></g><g clip-path="url(#1i9N07io2dT3B70S-lTiF)"><g stroke-linecap="round"><g transform="translate(273.6987869919453 163.16348658431525) rotate(0 38.05178744980799 48.69341838121022)"><path d="M-0.03 -1.06 C12.81 15.04, 63.2 80.78, 76.03 97.13 M-1.5 0.99 C11.26 17.23, 62.03 82.33, 75.04 98.53" stroke="#1971c2" stroke-width="1" fill="none"></path></g></g><mask></mask></g><g clip-path="url(#1i9N07io2dT3B70S-lTiF)"><g transform="translate(129.8758782687778 277.8909804988298) rotate(0 30.71996307373047 12.5)"><text x="0" y="0" font-family="Virgil, Segoe UI Emoji" font-size="20px" fill="#1971c2" text-anchor="start" style="white-space: pre;" direction="ltr" dominant-baseline="text-before-edge">before</text></g></g><g clip-path="url(#1i9N07io2dT3B70S-lTiF)"><g transform="translate(329.16413135812854 277.8909802307053) rotate(0 26.949966430664062 12.5)"><text x="0" y="0" font-family="Virgil, Segoe UI Emoji" font-size="20px" fill="#1971c2" text-anchor="start" style="white-space: pre;" direction="ltr" dominant-baseline="text-before-edge">after</text></g></g><g clip-path="url(#1i9N07io2dT3B70S-lTiF)"><g stroke-linecap="round" transform="translate(311.7505739402459 161.8814094642994) rotate(0 54.82040162869225 50.30577641060222)"><path d="M25.15 0 C44.27 -0.53, 67.67 -1.3, 84.49 0 M25.15 0 C44.54 -0.51, 66.28 -0.85, 84.49 0 M84.49 0 C103.2 -1.68, 107.74 10.16, 109.64 25.15 M84.49 0 C100.03 1.6, 109.27 6.31, 109.64 25.15 M109.64 25.15 C109.16 42.08, 111.15 59.82, 109.64 75.46 M109.64 25.15 C108.28 36.11, 108.28 46.63, 109.64 75.46 M109.64 75.46 C109.21 91.09, 101.83 101.36, 84.49 100.61 M109.64 75.46 C111.14 91.71, 99.78 99.64, 84.49 100.61 M84.49 100.61 C69.37 99.47, 50.49 100.98, 25.15 100.61 M84.49 100.61 C61.13 100.68, 39.15 99.56, 25.15 100.61 M25.15 100.61 C8.24 102.17, -1.61 92.83, 0 75.46 M25.15 100.61 C6.09 101.2, -1.32 94.08, 0 75.46 M0 75.46 C1.07 56.67, 0.69 37.79, 0 25.15 M0 75.46 C-0.51 64.11, -0.73 55.33, 0 25.15 M0 25.15 C-0.53 6.63, 7.27 0.32, 25.15 0 M0 25.15 C1.03 10.24, 8.68 -1.82, 25.15 0" stroke="#1971c2" stroke-width="1" fill="none"></path></g></g></svg>