<svg version="1.1" xmlns="http://www.w3.org/2000/svg" viewBox="0 0 672.0737479999998 257.5184184827285" width="2016.2212439999994" height="772.5552554481856">
  <!-- svg-source:excalidraw -->
  
  <defs>
    <style class="style-fonts">
      @font-face {
        font-family: "Virgil";
        src: url("https://excalidraw.com/Virgil.woff2");
      }
      @font-face {
        font-family: "Cascadia";
        src: url("https://excalidraw.com/Cascadia.woff2");
      }
      @font-face {
        font-family: "Assistant";
        src: url("https://excalidraw.com/Assistant-Regular.woff2");
      }
    </style>
    <clipPath id="Acq_FsohC6F4meUEmUsL1">
            <rect transform="translate(0 0) rotate(0 336.0368739999999 128.75920924136426)" width="672.0737479999998" height="257.5184184827285">
          </rect>
        </clipPath>
  </defs>
  <rect x="0" y="0" width="672.0737479999998" height="257.5184184827285" fill="#ffffff"></rect><g clip-path="url(#Acq_FsohC6F4meUEmUsL1)"><g stroke-linecap="round" transform="translate(33.76838398115706 43.92639818877433) rotate(0 90.8727136626128 82.08743222217527)"><path d="M119.96 5.18 C131.7 7.55, 144.89 14.98, 153.9 22.35 C162.91 29.72, 169.48 39.3, 174 49.4 C178.51 59.49, 180.98 71.81, 180.97 82.94 C180.97 94.07, 179.1 106.01, 173.96 116.15 C168.82 126.3, 159.64 136.45, 150.15 143.8 C140.66 151.15, 128.87 156.83, 117.04 160.25 C105.21 163.66, 91.41 165.55, 79.18 164.31 C66.96 163.07, 54.12 158.75, 43.69 152.79 C33.25 146.83, 23.49 137.81, 16.55 128.56 C9.61 119.32, 4.58 108.27, 2.07 97.31 C-0.44 86.35, -1.34 73.51, 1.48 62.8 C4.29 52.09, 11.35 41.97, 18.98 33.04 C26.61 24.11, 36.68 14.75, 47.25 9.22 C57.82 3.7, 68.35 0, 82.38 -0.1 C96.41 -0.2, 121.46 5.82, 131.43 8.62 C141.4 11.41, 142.85 15.38, 142.21 16.66 M95.44 -0.87 C107.21 -1.4, 121.36 3.15, 132.57 8.58 C143.79 14.01, 155.1 23, 162.72 31.7 C170.34 40.4, 175.17 50.31, 178.29 60.76 C181.4 71.21, 183.12 83.07, 181.43 94.4 C179.74 105.73, 175 119.45, 168.14 128.74 C161.29 138.03, 151.02 144.54, 140.32 150.12 C129.61 155.7, 115.93 160.49, 103.89 162.22 C91.85 163.96, 79.76 163.1, 68.1 160.54 C56.44 157.98, 43.94 153.96, 33.95 146.87 C23.96 139.79, 13.71 128.26, 8.16 118.03 C2.61 107.81, 1.03 96.62, 0.67 85.54 C0.31 74.45, 1.36 61.62, 6.01 51.53 C10.66 41.44, 19.76 32.51, 28.56 24.99 C37.36 17.47, 47.48 10.38, 58.78 6.43 C70.09 2.47, 90.05 2.24, 96.39 1.24 C102.72 0.24, 96.8 -0.91, 96.79 0.43" stroke="none" stroke-width="0" fill="#ffffff"></path><path d="M60.12 5.52 C70.69 0.67, 86.26 -0.56, 98.7 0.18 C111.14 0.93, 124.01 4.63, 134.76 10 C145.51 15.36, 155.77 23.58, 163.21 32.4 C170.65 41.22, 176.69 52.01, 179.39 62.94 C182.09 73.86, 181.8 87.02, 179.42 97.95 C177.05 108.88, 172.12 119.58, 165.15 128.51 C158.18 137.43, 147.95 145.65, 137.62 151.49 C127.28 157.33, 115.42 162.15, 103.14 163.54 C90.86 164.92, 75.87 162.84, 63.93 159.81 C51.99 156.77, 40.65 152.46, 31.49 145.3 C22.33 138.15, 14.11 127.14, 8.97 116.87 C3.83 106.61, 1.03 94.76, 0.65 83.71 C0.27 72.66, 1.91 60.89, 6.71 50.59 C11.51 40.29, 18.97 29.94, 29.44 21.91 C39.91 13.88, 61.39 5.55, 69.54 2.41 C77.69 -0.74, 77.87 1.63, 78.37 3.04 M128.82 8.85 C140.29 12.22, 152.58 19.12, 160.54 27.41 C168.5 35.7, 173.31 47.7, 176.57 58.6 C179.83 69.5, 181.58 81.99, 180.11 92.82 C178.63 103.64, 173.9 113.92, 167.71 123.54 C161.53 133.16, 153.07 143.87, 142.97 150.54 C132.87 157.21, 119.47 161.44, 107.12 163.55 C94.77 165.66, 81 165.95, 68.87 163.22 C56.74 160.49, 44.06 154.17, 34.34 147.18 C24.63 140.18, 16.05 131.17, 10.56 121.25 C5.07 111.34, 2.26 98.64, 1.42 87.7 C0.58 76.77, 1.61 65.97, 5.52 55.65 C9.44 45.34, 16.71 33.98, 24.91 25.83 C33.11 17.68, 43.4 11.13, 54.74 6.74 C66.08 2.35, 80.28 -0.79, 92.93 -0.49 C105.59 -0.2, 124.7 6.66, 130.66 8.5 C136.62 10.34, 129.63 9.23, 128.69 10.57" stroke="#1e1e1e" stroke-width="1" fill="none"></path></g></g><g clip-path="url(#Acq_FsohC6F4meUEmUsL1)"><g stroke-linecap="round" transform="translate(53.260747394766895 76.87116629292996) rotate(0 71.38035030261653 49.142664522854375)"><path d="M-0.22 1.59 L142.85 1.46 L143.54 96.48 L0.71 99.55" stroke="none" stroke-width="0" fill="#ffffff"></path><path d="M0 0 C35.54 2.23, 71.85 1.7, 142.76 0 M0 0 C47.73 -1.63, 95.16 -0.25, 142.76 0 M142.76 0 C140.87 35.06, 141.54 71.04, 142.76 98.29 M142.76 0 C143.53 36.27, 143.35 71.54, 142.76 98.29 M142.76 98.29 C107.43 99.19, 74.89 97.41, 0 98.29 M142.76 98.29 C107.39 98.15, 70.46 96.43, 0 98.29 M0 98.29 C-0.23 73.25, 2.52 44.17, 0 0 M0 98.29 C-0.56 73.44, 0.59 50.26, 0 0" stroke="#1e1e1e" stroke-width="1" fill="none"></path></g></g><g clip-path="url(#Acq_FsohC6F4meUEmUsL1)"><g stroke-linecap="round"><g transform="translate(52.71165086203155 171.31289383273088) rotate(0 70.28221382117977 -47.22086417840137)"><path d="M0 0 C36.68 -24.95, 72.03 -47.33, 140.56 -94.44 M0 0 C32.12 -21.23, 65.47 -41.86, 140.56 -94.44" stroke="#1e1e1e" stroke-width="1" fill="none"></path></g></g><mask></mask></g><g clip-path="url(#Acq_FsohC6F4meUEmUsL1)"><g transform="translate(107.39387389115473 99.0920296297536) rotate(0 7.799995422363281 12.5)"><text x="0" y="0" font-family="Virgil, Segoe UI Emoji" font-size="20px" fill="#1e1e1e" text-anchor="start" style="white-space: pre;" direction="ltr" dominant-baseline="text-before-edge">D</text></g></g><g clip-path="url(#Acq_FsohC6F4meUEmUsL1)"><g transform="translate(196.02144833633247 111.5920296297536) rotate(0 4.689994812011719 12.5)"><text x="0" y="0" font-family="Virgil, Segoe UI Emoji" font-size="20px" fill="#1e1e1e" text-anchor="start" style="white-space: pre;" direction="ltr" dominant-baseline="text-before-edge">y</text></g></g><g clip-path="url(#Acq_FsohC6F4meUEmUsL1)"><g transform="translate(122.99386479018403 175.15649559609756) rotate(0 5.6199951171875 12.5)"><text x="0" y="0" font-family="Virgil, Segoe UI Emoji" font-size="20px" fill="#1e1e1e" text-anchor="start" style="white-space: pre;" direction="ltr" dominant-baseline="text-before-edge">x</text></g></g><g clip-path="url(#Acq_FsohC6F4meUEmUsL1)"><g stroke-linecap="round" transform="translate(342.8507529999997 59.84969917984563) rotate(0 95.5399026752275 70.15339809548959)"><path d="M1.35 -1.2 L191.19 -0.46 L190.2 141.77 L-0.1 138.42" stroke="none" stroke-width="0" fill="#ffffff"></path><path d="M0 0 C66.87 1.97, 133.79 2.21, 191.08 0 M0 0 C60.63 -0.49, 119.22 -0.24, 191.08 0 M191.08 0 C192.79 31.39, 190.35 62.01, 191.08 140.31 M191.08 0 C190.8 36.23, 188.91 72.67, 191.08 140.31 M191.08 140.31 C125.06 139.28, 59.29 141.58, 0 140.31 M191.08 140.31 C127.3 139.1, 64.52 140.29, 0 140.31 M0 140.31 C1 104.46, 1.77 66.9, 0 0 M0 140.31 C0.51 107.11, 0.42 75.69, 0 0" stroke="#1e1e1e" stroke-width="1" fill="none"></path></g></g><g clip-path="url(#Acq_FsohC6F4meUEmUsL1)"><g stroke-linecap="round"><g transform="translate(312.4264556839289 125.73927228080629) rotate(0 129.30826812383702 -0.27454829239604805)"><path d="M0 0 C77.27 -1.26, 156.05 -2.18, 258.62 -0.55 M0 0 C92.38 -2.42, 186.38 -2.4, 258.62 -0.55" stroke="#1e1e1e" stroke-width="1" fill="none"></path></g></g><mask></mask></g><g clip-path="url(#Acq_FsohC6F4meUEmUsL1)"><g transform="translate(305.5242666218992 86.59202902496418) rotate(0 16.809982299804688 12.5)"><text x="0" y="0" font-family="Virgil, Segoe UI Emoji" font-size="20px" fill="#1e1e1e" text-anchor="start" style="white-space: pre;" direction="ltr" dominant-baseline="text-before-edge">y/2</text></g></g><g clip-path="url(#Acq_FsohC6F4meUEmUsL1)"><g transform="translate(584.6401955760707 111.59202934418772) rotate(0 4.689994812011719 12.5)"><text x="0" y="0" font-family="Virgil, Segoe UI Emoji" font-size="20px" fill="#1e1e1e" text-anchor="start" style="white-space: pre;" direction="ltr" dominant-baseline="text-before-edge">y</text></g></g><g clip-path="url(#Acq_FsohC6F4meUEmUsL1)"><g transform="translate(427.15066587794854 25.944022261597638) rotate(0 5.6199951171875 12.5)"><text x="0" y="0" font-family="Virgil, Segoe UI Emoji" font-size="20px" fill="#1e1e1e" text-anchor="start" style="white-space: pre;" direction="ltr" dominant-baseline="text-before-edge">x</text></g></g></svg>