<svg version="1.1" xmlns="http://www.w3.org/2000/svg" viewBox="0 0 746.9224743892299 425.6789672135444" width="2240.7674231676897" height="1277.0369016406332">
  <!-- svg-source:excalidraw -->
  
  <defs>
    <style class="style-fonts">
      @font-face {
        font-family: "Virgil";
        src: url("https://excalidraw.com/Virgil.woff2");
      }
      @font-face {
        font-family: "Cascadia";
        src: url("https://excalidraw.com/Cascadia.woff2");
      }
      @font-face {
        font-family: "Assistant";
        src: url("https://excalidraw.com/Assistant-Regular.woff2");
      }
    </style>
    
  </defs>
  <rect x="0" y="0" width="746.9224743892299" height="425.6789672135444" fill="#ffffff"></rect><g stroke-linecap="round"><g transform="translate(12.385418747363076 10) rotate(0 0 178.90914281383903)"><path d="M0 0 C2 84.85, 1.69 171.52, 0 357.82 M0 0 C0.15 91.88, 0.74 183.82, 0 357.82" stroke="#1e1e1e" stroke-width="1" fill="none"></path></g></g><mask></mask><g stroke-linecap="round"><g transform="translate(10 69.63638321289363) rotate(0 146.7054915109776 0)"><path d="M0 0 C83.59 0.55, 167.91 0.24, 293.41 0 M0 0 C87.95 1.45, 175.52 2.14, 293.41 0" stroke="#1e1e1e" stroke-width="1" fill="none"></path></g></g><mask></mask><g stroke-linecap="round"><g transform="translate(301.0255096758568 239.00373501496784) rotate(0 -143.1273087911977 0)"><path d="M-0.44 -0.36 C-48.14 -0.36, -237.76 -0.7, -285.34 -0.75 M1.54 -1.6 C-46.32 -1.39, -237.81 0.08, -285.81 0.4" stroke="#1e1e1e" stroke-width="1" fill="none"></path></g></g><mask></mask><g stroke-linecap="round"><g transform="translate(303.41103762069054 67.12793477344098) rotate(0 0 86.67153395696218)"><path d="M0 0 C0.79 63.79, 0.07 129.07, 0 173.34 M0 0 C-0.78 60.78, 0.01 122.05, 0 173.34" stroke="#1e1e1e" stroke-width="1" fill="none"></path></g></g><mask></mask><g stroke-linecap="round"><g transform="translate(15.566013476337389 161.8739579455609) rotate(0 141.13942343590486 0)"><path d="M-1.02 -0.6 C46.1 -0.77, 236.32 -0.44, 283.39 -0.19 M0.64 1.7 C47.65 1.64, 235.83 1.7, 283.02 1.25" stroke="#1e1e1e" stroke-width="1" fill="none"></path></g></g><mask></mask><g stroke-linecap="round"><g transform="translate(317.72365930233957 68.0460858484065) rotate(0 109.73092764012898 0)"><path d="M-0.41 -0.06 C36.26 -0.08, 183.13 0.87, 219.82 0.85" stroke="#1e1e1e" stroke-width="1.5" fill="none" stroke-dasharray="8 9"></path></g></g><mask></mask><g stroke-linecap="round"><g transform="translate(532.414622489136 68.0460858484065) rotate(0 0 44.52849000184645)"><path d="M0.55 1.01 C0.45 15.91, 0.25 74.38, 0.29 89.13" stroke="#1e1e1e" stroke-width="1.5" fill="none" stroke-dasharray="8 9"></path></g></g><mask></mask><g stroke-linecap="round"><g transform="translate(534.8000958352345 162.66910662780447) rotate(0 -113.70667105134692 0)"><path d="M-1.17 0.33 C-39.02 0.36, -190.37 0.89, -228.24 0.93" stroke="#1e1e1e" stroke-width="1.5" fill="none" stroke-dasharray="8 9"></path></g></g><mask></mask><g stroke-linecap="round"><g transform="translate(379.7454749122801 161.8739579455609) rotate(0 0 38.56486123533577)"><path d="M0.97 -0.19 C0.78 12.71, -0.64 65.36, -0.72 78.13" stroke="#1e1e1e" stroke-width="1.5" fill="none" stroke-dasharray="8 9"></path></g></g><mask></mask><g stroke-linecap="round"><g transform="translate(378.9503535294042 240.59405967882265) rotate(0 -37.37215186165423 0)"><path d="M0.7 -0.03 C-11.81 0.12, -61.39 0.54, -73.91 0.67" stroke="#1e1e1e" stroke-width="1.5" fill="none" stroke-dasharray="8 9"></path></g></g><mask></mask><g stroke-linecap="round"><g transform="translate(606.3637502308333 107.00850777518025) rotate(0 -64.80484964747689 0)"><path d="M1.01 1.05 C-20.97 1.07, -109.15 -0.41, -130.8 -0.65 M0.09 0.55 C-21.65 0.79, -107.15 0.52, -128.71 0.55" stroke="#1e1e1e" stroke-width="1" fill="none"></path></g><g transform="translate(606.3637502308333 107.00850777518025) rotate(0 -64.80484964747689 0)"><path d="M-105.21 -7.98 C-112.74 -6.41, -124.8 0.14, -128.71 0.55 M-105.21 -7.98 C-112.06 -5.01, -116.65 -3.41, -128.71 0.55" stroke="#1e1e1e" stroke-width="1" fill="none"></path></g><g transform="translate(606.3637502308333 107.00850777518025) rotate(0 -64.80484964747689 0)"><path d="M-105.23 9.12 C-112.65 3.97, -124.69 3.81, -128.71 0.55 M-105.23 9.12 C-112.21 7.54, -116.79 4.6, -128.71 0.55" stroke="#1e1e1e" stroke-width="1" fill="none"></path></g></g><mask></mask><g stroke-linecap="round"><g transform="translate(455.28490001846455 66.45576118455165) rotate(0 0 84.68367590103708)"><path d="M-0.32 0.95 C-0.34 29.07, 0.09 141.92, 0.14 169.86 M1.71 0.41 C1.52 28.68, -0.32 139.81, -0.73 168" stroke="#1e1e1e" stroke-width="1" fill="none"></path></g></g><mask></mask><g stroke-linecap="round"><g transform="translate(383.7212456228657 206.40244794740738) rotate(0 29.42061044048313 0)"><path d="M0.96 -0.25 C10.92 -0.37, 49.88 -0.29, 59.55 -0.26 M0.01 -1.42 C9.89 -1.41, 49.26 0.7, 58.97 1.14" stroke="#1e1e1e" stroke-width="1" fill="none"></path></g><g transform="translate(383.7212456228657 206.40244794740738) rotate(0 29.42061044048313 0)"><path d="M35.09 8.53 C41.42 7.42, 48.17 4.36, 58.97 1.14 M35.09 8.53 C42.82 7.35, 49.27 3.78, 58.97 1.14" stroke="#1e1e1e" stroke-width="1" fill="none"></path></g><g transform="translate(383.7212456228657 206.40244794740738) rotate(0 29.42061044048313 0)"><path d="M35.93 -8.55 C42.09 -4.81, 48.6 -3.03, 58.97 1.14 M35.93 -8.55 C43.43 -4.7, 49.63 -3.23, 58.97 1.14" stroke="#1e1e1e" stroke-width="1" fill="none"></path></g></g><mask></mask><g transform="translate(626.2426037837612 95.8763443256671) rotate(0 55.339935302734375 12.5)"><text x="0" y="0" font-family="Virgil, Segoe UI Emoji" font-size="20px" fill="#1e1e1e" text-anchor="start" style="white-space: pre;" direction="ltr" dominant-baseline="text-before-edge">compressive</text></g><g transform="translate(475.66065666179645 194.67398440978883) rotate(0 31.509963989257812 12.5)"><text x="0" y="0" font-family="Virgil, Segoe UI Emoji" font-size="20px" fill="#1e1e1e" text-anchor="start" style="white-space: pre;" direction="ltr" dominant-baseline="text-before-edge">tensile</text></g><g stroke-linecap="round"><g transform="translate(379.7454749122801 239.7988836972114) rotate(0 37.37215186165429 0)"><path d="M0.85 0.61 C13.1 0.33, 61.57 -0.54, 73.87 -0.56" stroke="#1e1e1e" stroke-width="1.5" fill="none" stroke-dasharray="8 9"></path></g></g><mask></mask><g transform="translate(131.26056988297705 316.6302786779403) rotate(0 23.5999755859375 12.5)"><text x="0" y="0" font-family="Virgil, Segoe UI Emoji" font-size="20px" fill="#1e1e1e" text-anchor="start" style="white-space: pre;" direction="ltr" dominant-baseline="text-before-edge">T° C</text></g><g transform="translate(62.082334234741325 239.60003510307308) rotate(0 35.215786422094254 88.03946605523566)"><text x="0" y="0" font-family="Virgil, Segoe UI Emoji" font-size="140.86314568837702px" fill="#1e1e1e" text-anchor="start" style="white-space: pre;" direction="ltr" dominant-baseline="text-before-edge">↑</text></g><g transform="translate(134.73938290442322 103.330928057699) rotate(0 30.189964294433594 12.5)"><text x="0" y="0" font-family="Virgil, Segoe UI Emoji" font-size="20px" fill="#1e1e1e" text-anchor="start" style="white-space: pre;" direction="ltr" dominant-baseline="text-before-edge">copper</text></g><g transform="translate(139.90786298869034 194.6740117091565) rotate(0 24.64997100830078 12.5)"><text x="0" y="0" font-family="Virgil, Segoe UI Emoji" font-size="20px" fill="#1e1e1e" text-anchor="start" style="white-space: pre;" direction="ltr" dominant-baseline="text-before-edge">steel</text></g></svg>