<svg version="1.1" xmlns="http://www.w3.org/2000/svg" viewBox="0 0 349.0378469864952 164.0183957166114" width="1047.1135409594856" height="492.0551871498342">
  <!-- svg-source:excalidraw -->
  
  <defs>
    <style class="style-fonts">
      @font-face {
        font-family: "Virgil";
        src: url("https://excalidraw.com/Virgil.woff2");
      }
      @font-face {
        font-family: "Cascadia";
        src: url("https://excalidraw.com/Cascadia.woff2");
      }
      @font-face {
        font-family: "Assistant";
        src: url("https://excalidraw.com/Assistant-Regular.woff2");
      }
    </style>
    
  </defs>
  <rect x="0" y="0" width="349.0378469864952" height="164.0183957166114" fill="#ffffff"></rect><g stroke-linecap="round"><g transform="translate(11.23374789865693 35.76777730346231) rotate(0 106.15802019678995 0)"><path d="M0.15 -0.88 C35.53 -0.76, 178.01 0.58, 213.28 0.62 M-1.23 1.28 C33.99 1.05, 177.51 -1.02, 212.84 -1.17" stroke="#1e1e1e" stroke-width="2" fill="none"></path></g></g><mask></mask><g stroke-linecap="round"><g transform="translate(62.600526555266924 34.74045724947035) rotate(0 75.16673221003032 57.87324285139135)"><path d="M-0.28 0.5 C12.24 20.02, 50.74 116.72, 75.92 116.56 C101.11 116.41, 138.28 18.95, 150.86 -0.42 M1.78 -0.29 C14.03 18.94, 49.98 114.77, 74.75 114.87 C99.51 114.97, 138.07 19.25, 150.37 0.32" stroke="#1e1e1e" stroke-width="2" fill="none"></path></g></g><mask></mask><g stroke-linecap="round"><g transform="translate(234.1655856091461 33.02822580768526) rotate(0 45.373992124210986 0)"><path d="M0.78 -1.06 C16.11 -1.32, 75.95 -0.52, 90.99 -0.51 M-0.27 1 C15.02 1.41, 75.05 0.97, 90.16 0.77" stroke="#1e1e1e" stroke-width="2" fill="none"></path></g></g><mask></mask><g stroke-linecap="round"><g transform="translate(218.07068530068273 150.48694295225306) rotate(0 60.099140198634586 0.5136717839204152)"><path d="M0.06 -0.42 C20.24 -0.15, 100.84 1.82, 120.97 2.1 M-1.37 -1.68 C18.73 -1.78, 100.13 -0.19, 120.42 0.53" stroke="#1e1e1e" stroke-width="2" fill="none"></path></g></g><mask></mask><g stroke-linecap="round"><g transform="translate(263.6158817579933 94.32591390726014) rotate(0 0 -27.224387044679503)"><path d="M-1.02 -0.63 C-1.21 -9.6, -0.37 -44.58, -0.33 -53.48 M0.64 1.65 C0.19 -7.66, -1.63 -45.46, -1.45 -55.1" stroke="#1e1e1e" stroke-width="2" fill="none"></path></g><g transform="translate(263.6158817579933 94.32591390726014) rotate(0 0 -27.224387044679503)"><path d="M7.56 -31.78 C3.13 -40.99, 2.47 -50.32, -1.45 -55.1 M7.56 -31.78 C3.9 -39.62, 0.87 -46.67, -1.45 -55.1" stroke="#1e1e1e" stroke-width="2" fill="none"></path></g><g transform="translate(263.6158817579933 94.32591390726014) rotate(0 0 -27.224387044679503)"><path d="M-9.54 -31.45 C-7.67 -40.63, -2.03 -50.09, -1.45 -55.1 M-9.54 -31.45 C-7.52 -39.34, -4.88 -46.5, -1.45 -55.1" stroke="#1e1e1e" stroke-width="2" fill="none"></path></g></g><mask></mask><g stroke-linecap="round"><g transform="translate(264.64320181198514 112.81795704530163) rotate(0 0 20.546712638336373)"><path d="M-0.43 -0.09 C-0.39 6.81, 0.45 34.32, 0.53 41.2 M0.34 -0.61 C0.34 6.13, 0.48 33.22, 0.37 40.29" stroke="#1e1e1e" stroke-width="2" fill="none"></path></g><g transform="translate(264.64320181198514 112.81795704530163) rotate(0 0 20.546712638336373)"><path d="M-6.58 20.96 C-4.33 28.73, -1.54 34.62, 0.37 40.29 M-6.58 20.96 C-4.21 26.92, -1.6 33.18, 0.37 40.29" stroke="#1e1e1e" stroke-width="2" fill="none"></path></g><g transform="translate(264.64320181198514 112.81795704530163) rotate(0 0 20.546712638336373)"><path d="M7.47 21.01 C4.79 28.71, 2.66 34.58, 0.37 40.29 M7.47 21.01 C5.4 26.99, 3.57 33.23, 0.37 40.29" stroke="#1e1e1e" stroke-width="2" fill="none"></path></g></g><mask></mask><g transform="translate(273.6324521521299 92.1856246050288) rotate(0 21.069984436035156 12.5)"><text x="0" y="0" font-family="Virgil, Segoe UI Emoji" font-size="20px" fill="#1e1e1e" text-anchor="start" style="white-space: pre;" direction="ltr" dominant-baseline="text-before-edge">l,A,E</text></g><g stroke-linecap="round"><g transform="translate(42.39627548928911 11.79662529540468) rotate(0 18.505534629006775 10.684175399555016)"><path d="M0.29 1.14 C6.55 4.78, 31.93 19.21, 38.12 22.5 M-1.01 0.7 C5.14 3.97, 31.43 17.44, 37.76 20.97" stroke="#1e1e1e" stroke-width="2" fill="none"></path></g></g><mask></mask><g stroke-linecap="round"><g transform="translate(69.21570769676941 11.712525529898699) rotate(0 18.505534629006775 10.684175399555016)"><path d="M-0.93 -0.44 C5.19 2.99, 30.84 17.16, 37.27 20.85 M0.79 -1.71 C6.73 1.86, 30.38 18.57, 36.45 22.11" stroke="#1e1e1e" stroke-width="2" fill="none"></path></g></g><mask></mask><g stroke-linecap="round"><g transform="translate(73.62469542951874 13.895621793867122) rotate(0 18.505534629006775 10.684175399555016)"><path d="M-0.37 -0.84 C5.9 2.47, 31.38 17.33, 37.73 20.87 M1.63 1.34 C7.81 5.32, 31.21 18.83, 37.17 22.14" stroke="#1e1e1e" stroke-width="2" fill="none"></path></g></g><mask></mask><g stroke-linecap="round"><g transform="translate(101.0630996474971 13.125119996448689) rotate(0 18.505534629006775 10.684175399555016)"><path d="M0.74 -0.96 C6.94 2.74, 31.7 18.08, 37.91 21.68 M-0.33 1.15 C5.73 4.51, 31.09 16.32, 37.43 19.72" stroke="#1e1e1e" stroke-width="2" fill="none"></path></g></g><mask></mask><g stroke-linecap="round"><g transform="translate(134.1090865268626 13.125119996448802) rotate(0 18.505534629006775 10.684175399555016)"><path d="M0.95 -0.72 C6.96 2.94, 30.85 18.62, 36.94 22.22 M-0.01 1.52 C5.75 4.82, 29.8 17.14, 35.95 20.55" stroke="#1e1e1e" stroke-width="2" fill="none"></path></g></g><mask></mask><g stroke-linecap="round"><g transform="translate(166.85541291714424 13.895621793867122) rotate(0 18.505534629006775 10.684175399555016)"><path d="M0.44 -0.47 C6.58 2.91, 30.85 17.66, 36.78 21.11 M-0.79 -1.76 C5.18 1.73, 29.18 18.72, 35.72 22.51" stroke="#1e1e1e" stroke-width="2" fill="none"></path></g></g><mask></mask></svg>