<svg version="1.1" xmlns="http://www.w3.org/2000/svg" viewBox="0 0 656.0002562908815 454.03171296903383" width="1968.0007688726444" height="1362.0951389071015">
  <!-- svg-source:excalidraw -->
  
  <defs>
    <style class="style-fonts">
      @font-face {
        font-family: "Virgil";
        src: url("https://excalidraw.com/Virgil.woff2");
      }
      @font-face {
        font-family: "Cascadia";
        src: url("https://excalidraw.com/Cascadia.woff2");
      }
      @font-face {
        font-family: "Assistant";
        src: url("https://excalidraw.com/Assistant-Regular.woff2");
      }
    </style>
    <clipPath id="5V-nNrko2NYYWXIRZvJ75">
            <rect transform="translate(0 0) rotate(0 328.0001281454407 227.01585648451692)" width="656.0002562908816" height="454.03171296903383">
          </rect>
        </clipPath>
  </defs>
  <rect x="0" y="0" width="656.0002562908815" height="454.03171296903383" fill="#ffffff"></rect><g clip-path="url(#5V-nNrko2NYYWXIRZvJ75)"><g stroke-linecap="round"><g transform="translate(64.23102211615719 59.85881445257928) rotate(0 0 178.90914281383903)"><path d="M0 0 C1.36 94.64, -0.62 186.11, 0 357.82 M0 0 C0.94 104.9, 0.93 209.98, 0 357.82" stroke="#1e1e1e" stroke-width="1" fill="none"></path></g></g><mask></mask></g><g clip-path="url(#5V-nNrko2NYYWXIRZvJ75)"><g stroke-linecap="round"><g transform="translate(61.84560336879417 119.49519766547292) rotate(0 146.7054915109776 0)"><path d="M0 0 C61.49 -3.02, 125.53 -1.64, 293.41 0 M0 0 C103.36 0.39, 205.28 0.88, 293.41 0" stroke="#1e1e1e" stroke-width="1" fill="none"></path></g></g><mask></mask></g><g clip-path="url(#5V-nNrko2NYYWXIRZvJ75)"><g stroke-linecap="round"><g transform="translate(352.8711130446511 288.8625494675472) rotate(0 -143.12730879119772 0)"><path d="M-0.91 -0.08 C-48.76 0.2, -238.67 0.64, -286.05 0.6 M0.82 -1.16 C-47.26 -1.14, -239.19 -1.54, -286.9 -1.21" stroke="#1e1e1e" stroke-width="1" fill="none"></path></g></g><mask></mask></g><g clip-path="url(#5V-nNrko2NYYWXIRZvJ75)"><g stroke-linecap="round"><g transform="translate(67.41161684513145 211.73277239814013) rotate(0 141.13942343590486 0)"><path d="M1.05 -0.31 C48.24 -0.46, 236.49 -0.43, 283.31 -0.3 M0.14 -1.52 C47.24 -1.55, 236.08 1.1, 282.91 1.09" stroke="#1e1e1e" stroke-width="1" fill="none"></path></g></g><mask></mask></g><g clip-path="url(#5V-nNrko2NYYWXIRZvJ75)"><g transform="translate(183.10617325177122 366.48909313051956) rotate(0 23.5999755859375 12.5)"><text x="0" y="0" font-family="Virgil, Segoe UI Emoji" font-size="20px" fill="#1e1e1e" text-anchor="start" style="white-space: pre;" direction="ltr" dominant-baseline="text-before-edge">T° C</text></g></g><g transform="translate(119.49400567860789 289.45884955565236) rotate(0 35.2157864220942 88.03946605523566)"><text x="0" y="0" font-family="Virgil, Segoe UI Emoji" font-size="140.86314568837702px" fill="#1e1e1e" text-anchor="start" style="white-space: pre;" direction="ltr" dominant-baseline="text-before-edge">↑</text></g><g clip-path="url(#5V-nNrko2NYYWXIRZvJ75)"><g transform="translate(186.58498627321728 153.18974251027828) rotate(0 30.189964294433594 12.5)"><text x="0" y="0" font-family="Virgil, Segoe UI Emoji" font-size="20px" fill="#1e1e1e" text-anchor="start" style="white-space: pre;" direction="ltr" dominant-baseline="text-before-edge">copper</text></g></g><g clip-path="url(#5V-nNrko2NYYWXIRZvJ75)"><g transform="translate(191.7534663574845 244.53282616173578) rotate(0 24.64997100830078 12.5)"><text x="0" y="0" font-family="Virgil, Segoe UI Emoji" font-size="20px" fill="#1e1e1e" text-anchor="start" style="white-space: pre;" direction="ltr" dominant-baseline="text-before-edge">steel</text></g></g><g clip-path="url(#5V-nNrko2NYYWXIRZvJ75)"><g stroke-linecap="round"><g transform="translate(336.3491756593146 30.21577277241056) rotate(0 0 197.19762392901856)"><path d="M0.23 0.32 C0.14 66.17, -0.43 329.5, -0.66 395.23 M-1.1 -0.55 C-0.79 64.94, 1.32 327.42, 1.7 393.54" stroke="#1e1e1e" stroke-width="1" fill="none"></path></g></g><mask></mask></g><g clip-path="url(#5V-nNrko2NYYWXIRZvJ75)"><g stroke-linecap="round"><g transform="translate(358.6133933608701 117.68251001035162) rotate(0 70.37094502191735 0)"><path d="M-0.83 0.5 C22.63 0.73, 118.22 0.71, 141.72 0.43" stroke="#1e1e1e" stroke-width="1.5" fill="none" stroke-dasharray="8 9"></path></g></g><mask></mask></g><g clip-path="url(#5V-nNrko2NYYWXIRZvJ75)"><g stroke-linecap="round"><g transform="translate(504.1261208994308 112.91153601878716) rotate(0 0 49.69699738548124)"><path d="M-0.65 -1.05 C-0.6 15.5, 0.4 82.34, 0.5 98.91" stroke="#1e1e1e" stroke-width="1.5" fill="none" stroke-dasharray="8 9"></path></g></g><mask></mask></g><g clip-path="url(#5V-nNrko2NYYWXIRZvJ75)"><g stroke-linecap="round"><g transform="translate(357.0230413976476 212.30553078974958) rotate(0 70.37094502191735 0)"><path d="M-0.51 -1 C22.65 -1.04, 116.34 0.71, 140.03 0.82" stroke="#1e1e1e" stroke-width="1.5" fill="none" stroke-dasharray="8 9"></path></g></g><mask></mask></g><g clip-path="url(#5V-nNrko2NYYWXIRZvJ75)"><g stroke-linecap="round"><g transform="translate(397.575815287644 220.25707221092074) rotate(0 0 34.58909052475022)"><path d="M-0.6 0.95 C-0.27 12.39, 0.97 57.48, 1.15 68.67" stroke="#1e1e1e" stroke-width="1.5" fill="none" stroke-dasharray="8 9"></path></g></g><mask></mask></g><g clip-path="url(#5V-nNrko2NYYWXIRZvJ75)"><g stroke-linecap="round"><g transform="translate(399.961234035007 290.23037464329707) rotate(0 -21.07150832787397 0)"><path d="M-0.43 -0.02 C-7.41 0.08, -35.33 0.55, -42.23 0.53" stroke="#1e1e1e" stroke-width="1.5" fill="none" stroke-dasharray="8 9"></path></g></g><mask></mask></g><g clip-path="url(#5V-nNrko2NYYWXIRZvJ75)"><g stroke-linecap="round"><g transform="translate(585.2317778768938 171.7528114984887) rotate(0 -37.372179161021904 0)"><path d="M-0.69 0.48 C-12.83 0.68, -61.43 0.73, -73.79 0.61 M1.14 -0.31 C-10.98 -0.41, -61.44 -1.4, -74.24 -1.19" stroke="#1e1e1e" stroke-width="1" fill="none"></path></g><g transform="translate(585.2317778768938 171.7528114984887) rotate(0 -37.372179161021904 0)"><path d="M-50.71 -9.65 C-55.08 -6.35, -60 -6.28, -74.24 -1.19 M-50.71 -9.65 C-57.99 -8, -62.96 -5.8, -74.24 -1.19" stroke="#1e1e1e" stroke-width="1" fill="none"></path></g><g transform="translate(585.2317778768938 171.7528114984887) rotate(0 -37.372179161021904 0)"><path d="M-50.78 7.45 C-55.05 7.02, -59.95 3.36, -74.24 -1.19 M-50.78 7.45 C-58.17 4.34, -63.12 1.78, -74.24 -1.19" stroke="#1e1e1e" stroke-width="1" fill="none"></path></g></g><mask></mask></g><g clip-path="url(#5V-nNrko2NYYWXIRZvJ75)"><g stroke-linecap="round"><g transform="translate(459.5976854963196 260.0146701193057) rotate(0 -27.035164393752325 0)"><path d="M1.05 -0.02 C-8.12 0.28, -45.36 0.88, -54.57 0.8 M0.14 -1.08 C-9.27 -1.03, -46.59 -1.18, -55.77 -0.91" stroke="#1e1e1e" stroke-width="1" fill="none"></path></g><g transform="translate(459.5976854963196 260.0146701193057) rotate(0 -27.035164393752325 0)"><path d="M-32.37 -9.7 C-40.4 -7.35, -46.95 -3.69, -55.77 -0.91 M-32.37 -9.7 C-38.44 -6.49, -45.41 -6.03, -55.77 -0.91" stroke="#1e1e1e" stroke-width="1" fill="none"></path></g><g transform="translate(459.5976854963196 260.0146701193057) rotate(0 -27.035164393752325 0)"><path d="M-32.2 7.4 C-40.14 3.97, -46.75 1.84, -55.77 -0.91 M-32.2 7.4 C-38.32 6.2, -45.34 2.25, -55.77 -0.91" stroke="#1e1e1e" stroke-width="1" fill="none"></path></g></g><mask></mask></g><g clip-path="url(#5V-nNrko2NYYWXIRZvJ75)"><g transform="translate(569.3286950345516 128.81459156176174) rotate(0 7.7299957275390625 12.5)"><text x="0" y="0" font-family="Virgil, Segoe UI Emoji" font-size="20px" fill="#1e1e1e" text-anchor="start" style="white-space: pre;" direction="ltr" dominant-baseline="text-before-edge">c1</text></g></g><g clip-path="url(#5V-nNrko2NYYWXIRZvJ75)"><g transform="translate(457.2122667489566 229.00370771560011) rotate(0 12.139991760253906 12.499999999999972)"><text x="0" y="0" font-family="Virgil, Segoe UI Emoji" font-size="20px" fill="#1e1e1e" text-anchor="start" style="white-space: pre;" direction="ltr" dominant-baseline="text-before-edge">c2</text></g></g><g clip-path="url(#5V-nNrko2NYYWXIRZvJ75)"><g stroke-linecap="round"><g transform="translate(365.7697588004298 54.86547746974833) rotate(0 -15.903028243606855 21.469089493837714)"><path d="M-0.33 -1.09 C-5.35 6.1, -25.76 35.68, -31.1 43.01 M1.69 0.95 C-3.34 8.36, -25.82 37.38, -31.68 44.58" stroke="#1e1e1e" stroke-width="1" fill="none"></path></g></g><mask></mask></g><g clip-path="url(#5V-nNrko2NYYWXIRZvJ75)"><g stroke-linecap="round"><g transform="translate(365.6551964756004 105.18032633203347) rotate(0 -15.903028243606855 21.469089493837714)"><path d="M-1.07 0.46 C-6.05 7.34, -25.63 35.02, -30.78 42.17 M0.57 -0.35 C-4.41 6.59, -25.63 36.38, -31.18 43.3" stroke="#1e1e1e" stroke-width="1" fill="none"></path></g></g><mask></mask></g><g clip-path="url(#5V-nNrko2NYYWXIRZvJ75)"><g stroke-linecap="round"><g transform="translate(367.046699844685 154.87732371751463) rotate(0 -15.903028243606855 21.469089493837714)"><path d="M0.28 0.97 C-4.91 8.11, -26.59 36.22, -31.79 43.27 M-1.04 0.43 C-6.33 7.16, -27.7 34.54, -32.73 41.33" stroke="#1e1e1e" stroke-width="1" fill="none"></path></g></g><mask></mask></g><g clip-path="url(#5V-nNrko2NYYWXIRZvJ75)"><g stroke-linecap="round"><g transform="translate(368.43820321376893 220.57671904493657) rotate(0 -15.903028243606855 21.469089493837714)"><path d="M-0.77 -0.73 C-6.06 6.1, -26.6 34.69, -31.84 41.93 M1.03 1.5 C-4.41 8.36, -27.1 35.87, -32.81 42.94" stroke="#1e1e1e" stroke-width="1" fill="none"></path></g></g><mask></mask></g><g clip-path="url(#5V-nNrko2NYYWXIRZvJ75)"><g stroke-linecap="round"><g transform="translate(370.62477336699385 264.80704535304653) rotate(0 -15.903028243606855 21.469089493837714)"><path d="M0.41 0.53 C-4.94 7.56, -27.38 34.82, -32.58 42 M-0.84 -0.23 C-5.76 6.93, -25.24 36.08, -30.28 43.05" stroke="#1e1e1e" stroke-width="1" fill="none"></path></g></g><mask></mask></g><g clip-path="url(#5V-nNrko2NYYWXIRZvJ75)"><g stroke-linecap="round"><g transform="translate(365.45634788146253 330.4070709821344) rotate(0 -15.903028243606855 21.469089493837714)"><path d="M0.06 0.99 C-5.2 8.1, -25.79 35.71, -31.01 42.79 M-1.37 0.47 C-6.76 7.76, -26.48 37.43, -31.55 44.26" stroke="#1e1e1e" stroke-width="1" fill="none"></path></g></g><mask></mask></g><g clip-path="url(#5V-nNrko2NYYWXIRZvJ75)"><g stroke-linecap="round"><g transform="translate(368.0405060254925 388.85070387229496) rotate(0 -15.903028243606855 21.469089493837714)"><path d="M0.55 -0.46 C-4.83 6.62, -26.94 35.81, -32.41 43.04 M-0.62 -1.75 C-5.59 5.5, -24.57 36.96, -30.01 44.64" stroke="#1e1e1e" stroke-width="1" fill="none"></path></g></g><mask></mask></g></svg>