<svg version="1.1" xmlns="http://www.w3.org/2000/svg" viewBox="0 0 802.7743389521446 578.5124088903574" width="802.7743389521446" height="578.5124088903574">
  <!-- svg-source:excalidraw -->
  
  <defs>
    <style class="style-fonts">
      @font-face {
        font-family: "Virgil";
        src: url("https://excalidraw.com/Virgil.woff2");
      }
      @font-face {
        font-family: "Cascadia";
        src: url("https://excalidraw.com/Cascadia.woff2");
      }
      @font-face {
        font-family: "Assistant";
        src: url("https://excalidraw.com/Assistant-Regular.woff2");
      }
    </style>
    
  </defs>
  <rect x="0" y="0" width="802.7743389521446" height="578.5124088903574" fill="#ffffff"></rect><g stroke-linecap="round"><g transform="translate(12.326221189867425 117.08060828544683) rotate(0 -1.4210854715202004e-14 183.6175101143974)"><path d="M-0.74 0.45 C-1.04 61.33, -1.06 305.48, -1.04 366.47 M1.07 -0.37 C1.07 61.17, 1.59 306.33, 1.12 367.6" stroke="#1e1e1e" stroke-width="2" fill="none"></path></g></g><mask></mask><g stroke-linecap="round"><g transform="translate(10.239603583840648 484.3156285142416) rotate(0 221.6972133091519 0)"><path d="M0.8 0.49 C74.8 0.41, 369.7 0.09, 443.42 -0.01 M-0.24 -0.3 C73.66 -0.22, 368.75 1.28, 442.48 1.52" stroke="#1e1e1e" stroke-width="2" fill="none"></path></g></g><mask></mask><g stroke-linecap="round"><g transform="translate(10.239603583840648 116.0373430789736) rotate(0 222.21884591238847 0)"><path d="M1.08 0.35 C75.27 0.26, 371.12 0.46, 444.93 0.56 M0.19 -0.51 C74.27 -0.44, 370.46 -1.2, 444.23 -1.27" stroke="#1e1e1e" stroke-width="2" fill="none"></path></g></g><mask></mask><g stroke-linecap="round"><g transform="translate(453.6571001304943 484.0110330990781) rotate(0 0 -184.50847761328885)"><path d="M-0.27 0.95 C-0.2 -60.47, -0.05 -306.66, 0.06 -368.51 M1.78 0.4 C1.74 -61.38, -0.54 -308.73, -0.85 -370.37" stroke="#1e1e1e" stroke-width="2" fill="none"></path></g></g><mask></mask><g stroke-linecap="round"><g transform="translate(13.642639583840648 113.64262530442005) rotate(0 87.87453961867284 -50.734389103755234)"><path d="M0.52 0.22 C29.54 -16.51, 145.65 -83.99, 174.76 -101.1 M-0.67 -0.71 C28.66 -17.75, 147.82 -86.2, 176.95 -103.02" stroke="#1e1e1e" stroke-width="2" fill="none"></path></g></g><mask></mask><g stroke-linecap="round"><g transform="translate(190.59096246330498 10.618705157935608) rotate(0 219.15711910937517 0)"><path d="M0.38 -0.62 C73.6 -0.59, 365.58 -0.68, 438.4 -0.4 M-0.87 1.67 C72.27 1.92, 364.07 1.32, 437.49 0.93" stroke="#1e1e1e" stroke-width="2" fill="none"></path></g></g><mask></mask><g stroke-linecap="round"><g transform="translate(455.44157718875147 113.6426252854468) rotate(0 84.75445657312272 -48.933008317512815)"><path d="M-0.9 -1 C27.13 -17.15, 140.29 -81.2, 168.78 -97.38 M0.82 1.09 C29.2 -15.39, 142.98 -82.92, 171.11 -99.25" stroke="#1e1e1e" stroke-width="2" fill="none"></path></g></g><mask></mask><g stroke-linecap="round"><g transform="translate(452.80255880259085 484.0110333077681) rotate(0 86.4668578626883 -49.92166366300418)"><path d="M0.32 -0.17 C29.07 -16.83, 144.61 -83.04, 173.41 -99.83 M-0.97 -1.3 C27.58 -17.78, 143.8 -81.82, 172.71 -98.28" stroke="#1e1e1e" stroke-width="2" fill="none"></path></g></g><mask></mask><g stroke-linecap="round"><g transform="translate(627.2539610760282 15.478784975178655) rotate(0 -0.5216326032365259 183.09583391462064)"><path d="M-0.43 0.86 C-0.54 61.81, -1.54 304.8, -1.74 365.65 M1.54 0.27 C1.93 61.38, 1.31 305.75, 0.6 366.9" stroke="#1e1e1e" stroke-width="2" fill="none"></path></g></g><mask></mask><g stroke-linecap="round"><g transform="translate(540.5435073662069 228.71172933846) rotate(0 106.4147077287947 -4.173126220703125)"><path d="M0.5 -0.01 C36.05 -1.34, 178.17 -7.02, 213.73 -8.43 M-0.7 -1.06 C34.73 -2.16, 177.54 -5.91, 213.26 -6.93" stroke="#1e1e1e" stroke-width="2" fill="none"></path></g><g transform="translate(540.5435073662069 228.71172933846) rotate(0 106.4147077287947 -4.173126220703125)"><path d="M190.01 2.26 C197.84 0.58, 205.54 -2.3, 213.26 -6.93 M190.01 2.26 C197.16 -0.53, 202.68 -2.63, 213.26 -6.93" stroke="#1e1e1e" stroke-width="2" fill="none"></path></g><g transform="translate(540.5435073662069 228.71172933846) rotate(0 106.4147077287947 -4.173126220703125)"><path d="M189.54 -14.84 C197.47 -10.77, 205.33 -7.9, 213.26 -6.93 M189.54 -14.84 C196.73 -12.67, 202.38 -9.83, 213.26 -6.93" stroke="#1e1e1e" stroke-width="2" fill="none"></path></g></g><mask></mask><g stroke-linecap="round"><g transform="translate(14.412577216653148 496.8349853780806) rotate(0 0 29.211861746651834)"><path d="M1.09 0.44 C0.84 10, -0.4 48.49, -0.75 57.97 M0.2 -0.37 C0.27 9.3, 1.38 49.54, 1.57 59.27" stroke="#1e1e1e" stroke-width="2" fill="none"></path></g></g><mask></mask><g stroke-linecap="round"><g transform="translate(451.8351197036651 496.4609122000138) rotate(0 0 29.211861746651834)"><path d="M0.21 -0.19 C0.08 9.71, -0.2 49.87, -0.31 59.55 M-1.14 -1.33 C-1.5 8.25, -1.37 47.98, -1.42 58.02" stroke="#1e1e1e" stroke-width="2" fill="none"></path></g></g><mask></mask><g stroke-linecap="round"><g transform="translate(634.1215267144213 396.6799996777458) rotate(0 18.779122488839334 11.997746058872792)"><path d="M-0.84 0.14 C5.46 4.31, 30.67 20.86, 36.95 25 M0.92 -0.83 C7.69 3.02, 32.94 19.4, 39.34 23.41" stroke="#1e1e1e" stroke-width="2" fill="none"></path></g></g><mask></mask><g stroke-linecap="round"><g transform="translate(471.00677013713823 501.57418596738967) rotate(0 18.779122488839334 11.997746058872792)"><path d="M0.92 -1.07 C7.21 3.19, 31.86 20.5, 37.83 24.55 M-0.06 0.98 C6.09 4.98, 30.48 18.85, 37.02 22.72" stroke="#1e1e1e" stroke-width="2" fill="none"></path></g></g><mask></mask><g stroke-linecap="round"><g transform="translate(636.208144320448 13.79584876396217) rotate(0 17.21413748604914 -0.5216435023716599)"><path d="M0.52 0.48 C6.39 0.45, 29.15 -0.29, 34.87 -0.55 M0.13 0.25 C6 0.12, 28.9 -1.14, 34.66 -1.26" stroke="#1e1e1e" stroke-width="2" fill="none"></path></g></g><mask></mask><g stroke-linecap="round"><g transform="translate(636.3341174014621 384.18431557109466) rotate(0 17.21413748604914 -0.5216435023716599)"><path d="M-0.17 0.5 C5.54 0.33, 28.63 -0.49, 34.31 -0.66 M0.74 0.28 C6.37 -0.07, 28.12 -1.16, 33.82 -1.43" stroke="#1e1e1e" stroke-width="2" fill="none"></path></g></g><mask></mask><g stroke-linecap="round"><g transform="translate(13.369312010179925 523.9602295187058) rotate(0 217.00247628348222 0)"><path d="M0.53 -0.31 C72.88 -0.36, 361.11 0.44, 433.24 0.37 M-0.65 -1.51 C72.16 -2, 362.8 -1.85, 435.55 -1.56" stroke="#1e1e1e" stroke-width="2" fill="none"></path></g></g><mask></mask><g stroke-linecap="round"><g transform="translate(489.89006116987673 513.3138090564308) rotate(0 83.59182442963831 -52.57885886065948)"><path d="M-0.6 0.36 C27.31 -16.98, 138.68 -87.58, 166.74 -105.16 M1.28 -0.5 C29.06 -17.53, 137.88 -86.4, 165.55 -103.62" stroke="#1e1e1e" stroke-width="2" fill="none"></path></g></g><mask></mask><g stroke-linecap="round"><g transform="translate(653.9439144097338 15.882400975178655) rotate(0 0 181.53093610491078)"><path d="M-0.3 1.01 C-0.19 61.72, 0.27 303.61, 0.23 363.93 M1.75 0.49 C1.75 60.9, -0.05 301.65, -0.59 362.27" stroke="#1e1e1e" stroke-width="2" fill="none"></path></g></g><mask></mask><g transform="translate(169.71097259388537 543.5124088903574) rotate(0 20.879989624023438 12.5)"><text x="0" y="0" font-family="Virgil, Segoe UI Emoji" font-size="20px" fill="#1e1e1e" text-anchor="start" style="white-space: pre;" direction="ltr" dominant-baseline="text-before-edge">200</text></g><g transform="translate(582.3189883157848 476.4525778081763) rotate(315 16.469993591308594 12.5)"><text x="0" y="0" font-family="Virgil, Segoe UI Emoji" font-size="20px" fill="#1e1e1e" text-anchor="start" style="white-space: pre;" direction="ltr" dominant-baseline="text-before-edge">100</text></g><g transform="translate(680.12857981138 174.06442827986638) rotate(0 20.569984436035156 12.5)"><text x="0" y="0" font-family="Virgil, Segoe UI Emoji" font-size="20px" fill="#1e1e1e" text-anchor="start" style="white-space: pre;" direction="ltr" dominant-baseline="text-before-edge">300</text></g><g transform="translate(772.4815271496892 198.09247142272346) rotate(0 10.146405901227695 25.726219511116796)"><text x="0" y="0" font-family="Virgil, Segoe UI Emoji" font-size="41.16195121778687px" fill="#1e1e1e" text-anchor="start" style="white-space: pre;" direction="ltr" dominant-baseline="text-before-edge">p</text></g></svg>
