<svg version="1.1" xmlns="http://www.w3.org/2000/svg" viewBox="0 0 656.9970105374994 525.5975490688522" width="656.9970105374994" height="525.5975490688522">
  <!-- svg-source:excalidraw -->
  
  <defs>
    <style class="style-fonts">
      @font-face {
        font-family: "Virgil";
        src: url("https://excalidraw.com/Virgil.woff2");
      }
      @font-face {
        font-family: "Cascadia";
        src: url("https://excalidraw.com/Cascadia.woff2");
      }
      @font-face {
        font-family: "Assistant";
        src: url("https://excalidraw.com/Assistant-Regular.woff2");
      }
    </style>
    <clipPath id="W38LUU59s_VtmK8JHI0_g">
            <rect transform="translate(0 0) rotate(0 328.4985052687497 262.7987745344261)" width="656.9970105374994" height="525.5975490688522">
          </rect>
        </clipPath>
  </defs>
  <rect x="0" y="0" width="656.9970105374994" height="525.5975490688522" fill="#ffffff"></rect><g clip-path="url(#W38LUU59s_VtmK8JHI0_g)"><g stroke-linecap="round"><g transform="translate(65.69980493575804 155.37086552075624) rotate(0 0.44387297978460083 90.5590476992287)"><path d="M-0.92 -0.12 C-3.6 7.87, -21.8 32.17, -16 48.15 C-10.2 64.12, 26.44 73.59, 33.88 95.75 C41.31 117.9, 39.77 172.07, 28.61 181.06 C17.45 190.04, -30.36 167.17, -33.09 149.66 C-35.82 132.14, 4.37 88.34, 12.23 75.98 M0.8 -1.23 C-2.04 6.43, -22.35 30.3, -16.95 46.6 C-11.55 62.89, 26.07 73.93, 33.19 96.52 C40.31 119.11, 36.47 173.17, 25.77 182.13 C15.07 191.09, -28.91 168.21, -31.03 150.31 C-33.14 132.41, 5.39 86.9, 13.08 74.74" stroke="#1e1e1e" stroke-width="2" fill="none"></path></g></g><mask></mask></g><g clip-path="url(#W38LUU59s_VtmK8JHI0_g)"><g stroke-linecap="round"><g transform="translate(67.4754452577647 154.4830453597529) rotate(0 102.54478682600029 65.25578355310489)"><path d="M-0.84 1.05 C22.89 6.83, 109.29 20.19, 143.28 34.67 C177.26 49.14, 195.03 74.29, 203.07 87.89 C211.11 101.48, 190.99 109.02, 191.52 116.23 C192.05 123.43, 204.47 134.29, 206.25 131.14 C208.03 127.98, 202.86 102.71, 202.22 97.3 M0.93 0.55 C24.37 6.01, 108.5 18.33, 142.04 33.03 C175.58 47.73, 193.84 75.22, 202.18 88.73 C210.52 102.24, 191.56 106.91, 192.1 114.09 C192.63 121.28, 203.48 134.86, 205.39 131.85 C207.29 128.85, 203.91 101.73, 203.53 96.08" stroke="#1e1e1e" stroke-width="2" fill="none"></path></g></g><mask></mask></g><g clip-path="url(#W38LUU59s_VtmK8JHI0_g)"><g stroke-linecap="round"><g transform="translate(105.6523057923805 333.82546333548663) rotate(0 81.6806791359686 -23.083676642898467)"><path d="M0.16 0.15 C27.12 -7.57, 135.07 -37.61, 162.45 -45.37 M-1.22 -0.82 C26.06 -8.96, 137.11 -39.68, 164.68 -47.07" stroke="#1e1e1e" stroke-width="2" fill="none"></path></g></g><mask></mask></g><g clip-path="url(#W38LUU59s_VtmK8JHI0_g)"><g stroke-linecap="round"><g transform="translate(567.3257644489158 198.8747212228261) rotate(0 -93.66643681309893 30.6302778639365)"><path d="M-0.88 1.18 C-32.41 -3.84, -162.62 -28.4, -188.37 -31.11 C-214.13 -33.81, -167.25 -24.63, -155.42 -15.04 C-143.59 -5.45, -120.8 12.44, -117.39 26.42 C-113.99 40.4, -123.94 57.91, -134.98 68.82 C-146.02 79.74, -204.67 90.69, -183.64 91.9 C-162.61 93.11, -39.54 91.28, -8.8 76.06 C21.94 60.83, -0.73 13.21, 0.79 0.54 M0.86 0.75 C-30.38 -3.98, -160.56 -27.18, -186.2 -29.59 C-211.85 -31.99, -164.43 -23.12, -153.01 -13.7 C-141.6 -4.27, -121.01 13.17, -117.72 26.95 C-114.43 40.73, -122.45 58.38, -133.27 68.99 C-144.09 79.6, -202.94 89.17, -182.62 90.63 C-162.29 92.09, -41.78 92.78, -11.31 77.75 C19.15 62.73, -1.51 13.66, 0.18 0.48" stroke="#1e1e1e" stroke-width="2" fill="none"></path></g></g><mask></mask></g><g clip-path="url(#W38LUU59s_VtmK8JHI0_g)"><g stroke-linecap="round"><g transform="translate(569.1014047709223 205.97739381300386) rotate(0 14.649292361574453 27.078941568847597)"><path d="M0.51 0.34 C1.11 -0.97, -0.16 -8.46, 4.81 -8.85 C9.78 -9.24, 30.93 -13.76, 30.34 -2.02 C29.75 9.72, 5.94 51.06, 1.26 61.59 M-0.68 -0.52 C-0.39 -1.62, -1.55 -7.18, 3.59 -7.76 C8.72 -8.35, 30.52 -15.71, 30.12 -4.02 C29.73 7.67, 6.08 51.56, 1.23 62.4" stroke="#1e1e1e" stroke-width="2" fill="none"></path></g></g><mask></mask></g><g clip-path="url(#W38LUU59s_VtmK8JHI0_g)"><g transform="translate(249.2014359064533 397.72903705122894) rotate(0 105.15987396240234 12.5)"><text x="0" y="0" font-family="Virgil, Segoe UI Emoji" font-size="20px" fill="#1e1e1e" text-anchor="start" style="white-space: pre;" direction="ltr" dominant-baseline="text-before-edge">cup and cone failure </text></g></g></svg>
