<svg version="1.1" xmlns="http://www.w3.org/2000/svg" viewBox="0 0 1125.8198495160975 334.8859401831978" width="3377.4595485482923" height="1004.6578205495935">
  <!-- svg-source:excalidraw -->
  
  <defs>
    <style class="style-fonts">
      @font-face {
        font-family: "Virgil";
        src: url("https://excalidraw.com/Virgil.woff2");
      }
      @font-face {
        font-family: "Cascadia";
        src: url("https://excalidraw.com/Cascadia.woff2");
      }
      @font-face {
        font-family: "Assistant";
        src: url("https://excalidraw.com/Assistant-Regular.woff2");
      }
    </style>
    
  </defs>
  <rect x="0" y="0" width="1125.8198495160975" height="334.8859401831978" fill="#ffffff"></rect><g stroke-linecap="round"><g transform="translate(315.08193146514645 33.60814970755382) rotate(0 0 145.50647386461856)"><path d="M-0.14 1.13 C0.16 49.77, 0.71 242.88, 0.64 291.28 M-1.67 0.67 C-1.38 48.99, 0.03 241.16, 0.03 289.29" stroke="#1971c2" stroke-width="1" fill="none"></path></g></g><mask></mask><g stroke-linecap="round"><g transform="translate(797.3745592657099 25.421077264428277) rotate(0 0 142.9015276293087)"><path d="M0.51 -0.16 C0.48 47.59, -0.06 238.36, -0.08 285.86 M-0.68 -1.29 C-0.88 46.73, -1.16 239.6, -1.06 287.43" stroke="#1971c2" stroke-width="1" fill="none"></path></g></g><mask></mask><g stroke-linecap="round"><g transform="translate(312.1048281509809 163.11262937658148) rotate(0 244.86766749020876 0.3721506906608738)"><path d="M-0.01 -1.09 C81.5 -1.15, 407.83 -0.59, 489.47 -0.41 M-1.48 0.96 C79.81 1, 406.62 0.53, 488.39 0.53" stroke="#1971c2" stroke-width="1" fill="none"></path></g></g><mask></mask><g stroke-linecap="round"><g transform="translate(795.8859565030668 38.818118836513804) rotate(0 44.66599661493194 25.78792516925364)"><path d="M-0.66 -0.09 C14.31 8.72, 74.45 44.24, 89.58 52.73 M1.19 -1.18 C16.04 7.34, 74.01 42.39, 88.77 51.22" stroke="#1971c2" stroke-width="1" fill="none"></path></g></g><mask></mask><g stroke-linecap="round"><g transform="translate(795.2258821238499 75.56069774228081) rotate(0 44.66599661493194 25.78792516925364)"><path d="M0.09 0.99 C14.99 9.79, 74.08 43.62, 89.05 52.18 M-1.32 0.46 C13.42 8.96, 72.82 42.05, 87.95 50.37" stroke="#1971c2" stroke-width="1" fill="none"></path></g></g><mask></mask><g stroke-linecap="round"><g transform="translate(797.9480101874358 101.49474478394313) rotate(0 44.66599661493194 25.78792516925364)"><path d="M-1.13 0.94 C13.89 9.53, 74.36 43.98, 89.64 52.27 M0.48 0.38 C15.4 8.57, 73.87 41.99, 88.85 50.51" stroke="#1971c2" stroke-width="1" fill="none"></path></g></g><mask></mask><g stroke-linecap="round"><g transform="translate(797.2879358082189 138.23732368971014) rotate(0 44.66599661493194 25.78792516925364)"><path d="M0.3 0.69 C15.57 8.98, 75.47 42.21, 90.5 50.65 M-1 0.01 C14.32 8.34, 74.95 42.95, 90.17 51.7" stroke="#1971c2" stroke-width="1" fill="none"></path></g></g><mask></mask><g stroke-linecap="round"><g transform="translate(797.7617955968601 164.77908169090324) rotate(0 44.66599661493194 25.78792516925364)"><path d="M-0.94 -0.69 C14.1 7.99, 75.57 43.57, 90.46 52.48 M0.77 1.57 C15.73 9.87, 75.1 42.58, 90.1 50.83" stroke="#1971c2" stroke-width="1" fill="none"></path></g></g><mask></mask><g stroke-linecap="round"><g transform="translate(797.1017212176432 201.52166059667024) rotate(0 44.66599661493194 25.78792516925364)"><path d="M1.13 0.9 C16.02 9.81, 73.52 44.39, 88.4 52.75 M0.26 0.33 C15.6 8.99, 75.63 42.62, 90.62 51.25" stroke="#1971c2" stroke-width="1" fill="none"></path></g></g><mask></mask><g stroke-linecap="round"><g transform="translate(799.8238492812291 227.45570763833302) rotate(0 44.66599661493194 25.78792516925364)"><path d="M-0.93 1.18 C13.95 9.54, 75.23 42.49, 90.41 51.06 M0.78 0.75 C15.5 9.19, 75.18 43.99, 90.03 52.32" stroke="#1971c2" stroke-width="1" fill="none"></path></g></g><mask></mask><g stroke-linecap="round"><g transform="translate(799.1637749020122 264.19828654410003) rotate(0 44.66599661493194 25.78792516925364)"><path d="M1.08 -0.52 C16.27 8.05, 75.43 43.89, 90.19 52.59 M0.19 1.83 C15.37 10.58, 74.88 42.47, 89.69 51" stroke="#1971c2" stroke-width="1" fill="none"></path></g></g><mask></mask><g stroke-linecap="round"><g transform="translate(222.0402664398939 35.07897178514395) rotate(0 44.66599661493194 25.78792516925364)"><path d="M-0.35 0.42 C14.32 8.71, 74.09 42.25, 88.99 50.68 M1.67 -0.41 C16.06 7.93, 73.45 43.02, 87.86 51.75" stroke="#1971c2" stroke-width="1" fill="none"></path></g></g><mask></mask><g stroke-linecap="round"><g transform="translate(221.38019206067702 71.82155069091095) rotate(0 44.66599661493194 25.78792516925364)"><path d="M-0.34 -0.89 C14.56 7.53, 74.13 42.28, 89.05 50.98 M1.68 1.25 C16.43 9.79, 73.51 43.66, 87.96 52.21" stroke="#1971c2" stroke-width="1" fill="none"></path></g></g><mask></mask><g stroke-linecap="round"><g transform="translate(224.10232012426286 97.75559773257373) rotate(0 44.66599661493194 25.78792516925364)"><path d="M-0.28 -0.59 C14.64 8.11, 74.23 42.72, 89.19 51.34 M1.77 1.71 C16.56 10.68, 73.67 44.34, 88.17 52.76" stroke="#1971c2" stroke-width="1" fill="none"></path></g></g><mask></mask><g stroke-linecap="round"><g transform="translate(223.44224574504597 134.49817663834074) rotate(0 44.66599661493194 25.78792516925364)"><path d="M-0.14 -0.23 C14.82 8.38, 74.66 42.64, 89.47 51.11 M-1.67 -1.4 C13.16 7.43, 73.71 43.6, 88.6 52.4" stroke="#1971c2" stroke-width="1" fill="none"></path></g></g><mask></mask><g stroke-linecap="round"><g transform="translate(223.9161055336872 161.03993463953339) rotate(0 44.66599661493194 25.78792516925364)"><path d="M0.14 -0.47 C14.95 8.01, 73.66 41.99, 88.72 50.6 M-1.25 -1.76 C13.97 6.86, 75.85 42.62, 91.1 51.63" stroke="#1971c2" stroke-width="1" fill="none"></path></g></g><mask></mask><g stroke-linecap="round"><g transform="translate(223.2560311544703 197.7825135453004) rotate(0 44.66599661493194 25.78792516925364)"><path d="M-0.62 -0.97 C14.43 7.64, 75.41 42.6, 90.44 51.19 M1.26 1.13 C16.24 9.95, 75.46 44.16, 90.08 52.52" stroke="#1971c2" stroke-width="1" fill="none"></path></g></g><mask></mask><g stroke-linecap="round"><g transform="translate(225.97815921805613 223.71656058696317) rotate(0 44.66599661493194 25.78792516925364)"><path d="M1.11 -0.39 C16.14 8.2, 74.7 41.76, 89.58 50.56 M0.23 -1.63 C15.19 7.15, 73.77 42.87, 88.77 51.56" stroke="#1971c2" stroke-width="1" fill="none"></path></g></g><mask></mask><g stroke-linecap="round"><g transform="translate(225.31808483883924 260.4591394927302) rotate(0 44.66599661493194 25.78792516925364)"><path d="M0.25 -1.02 C15.14 7.78, 75.71 43.55, 90.41 52.39 M-1.07 1.06 C13.65 9.56, 74.7 42.55, 90.03 50.7" stroke="#1971c2" stroke-width="1" fill="none"></path></g></g><mask></mask><g stroke-linecap="round"><g transform="translate(466.914762648757 27.653930302832578) rotate(0 0 68.47362536541596)"><path d="M0.95 0.58 C1.08 23.6, 0.5 114.84, 0.25 137.59 M0 -0.15 C0.04 22.56, -0.3 112.7, -0.57 135.8" stroke="#1971c2" stroke-width="1" fill="none"></path></g><g transform="translate(466.914762648757 27.653930302832578) rotate(0 0 68.47362536541596)"><path d="M-8.95 112.25 C-5.94 118.62, -3.7 123.26, -0.57 135.8 M-8.95 112.25 C-5.41 118.69, -3.1 126.54, -0.57 135.8" stroke="#1971c2" stroke-width="1" fill="none"></path></g><g transform="translate(466.914762648757 27.653930302832578) rotate(0 0 68.47362536541596)"><path d="M8.15 112.37 C6.79 118.84, 4.66 123.45, -0.57 135.8 M8.15 112.37 C6.36 118.67, 3.34 126.47, -0.57 135.8" stroke="#1971c2" stroke-width="1" fill="none"></path></g></g><mask></mask><g stroke-linecap="round"><g transform="translate(643.308772648757 31.546510302832303) rotate(0 0 68.47362536541596)"><path d="M0.75 0.08 C0.74 22.96, -0.21 113.77, -0.19 136.76 M-0.32 -0.92 C-0.49 22.19, -1.38 115.33, -1.23 138.2" stroke="#1971c2" stroke-width="1" fill="none"></path></g><g transform="translate(643.308772648757 31.546510302832303) rotate(0 0 68.47362536541596)"><path d="M-9.72 114.68 C-7.23 121.11, -5.23 129.64, -1.23 138.2 M-9.72 114.68 C-5.98 123.22, -3.27 132.93, -1.23 138.2" stroke="#1971c2" stroke-width="1" fill="none"></path></g><g transform="translate(643.308772648757 31.546510302832303) rotate(0 0 68.47362536541596)"><path d="M7.38 114.73 C4.93 121.25, 1.99 129.76, -1.23 138.2 M7.38 114.73 C4.44 123.17, 0.46 132.87, -1.23 138.2" stroke="#1971c2" stroke-width="1" fill="none"></path></g></g><mask></mask><g stroke-linecap="round"><g transform="translate(463.93765933459144 176.50967094866746) rotate(0 0 33.86469073892499)"><path d="M-0.09 0.59 C-0.05 11.86, 0.19 57.09, 0.36 68.24 M-1.59 -0.14 C-1.7 10.7, -0.78 54.92, -0.4 66.38" stroke="#1971c2" stroke-width="1" fill="none"></path></g></g><mask></mask><g stroke-linecap="round"><g transform="translate(643.056463556813 187.2886384823487) rotate(0 0 27.358767676492107)"><path d="M0.96 1.03 C1.19 10.17, 0.81 46.01, 0.82 55.05 M0 0.53 C0.2 9.28, 0.17 44.32, 0.3 53.1" stroke="#1971c2" stroke-width="1" fill="none"></path></g></g><mask></mask><g stroke-linecap="round"><g transform="translate(315.8262328464682 208.51363378706856) rotate(0 71.07863548267619 0)"><path d="M-0.25 -0.99 C23.23 -1.01, 117.92 0.29, 141.84 0.55 M1.81 1.1 C25.04 0.67, 117.19 -0.85, 140.73 -1.28" stroke="#1971c2" stroke-width="1" fill="none"></path></g><g transform="translate(315.8262328464682 208.51363378706856) rotate(0 71.07863548267619 0)"><path d="M23.33 -9.3 C12.83 -6.75, 6.52 -1.25, -0.25 -0.99 M23.33 -9.3 C14.3 -5.85, 7.41 -4.33, -0.25 -0.99" stroke="#1971c2" stroke-width="1" fill="none"></path></g><g transform="translate(315.8262328464682 208.51363378706856) rotate(0 71.07863548267619 0)"><path d="M23.15 7.8 C12.63 3.91, 6.39 2.97, -0.25 -0.99 M23.15 7.8 C14.11 5.35, 7.28 0.97, -0.25 -0.99" stroke="#1971c2" stroke-width="1" fill="none"></path></g><g transform="translate(315.8262328464682 208.51363378706856) rotate(0 71.07863548267619 0)"><path d="M117.39 7.67 C124.48 3.83, 135.84 2.82, 140.73 -1.28 M117.39 7.67 C124.48 5.55, 133.79 1.11, 140.73 -1.28" stroke="#1971c2" stroke-width="1" fill="none"></path></g><g transform="translate(315.8262328464682 208.51363378706856) rotate(0 71.07863548267619 0)"><path d="M117.09 -9.42 C124.38 -6.83, 135.86 -1.4, 140.73 -1.28 M117.09 -9.42 C124.36 -5.65, 133.78 -4.18, 140.73 -1.28" stroke="#1971c2" stroke-width="1" fill="none"></path></g></g><mask></mask><g stroke-linecap="round"><g transform="translate(464.30022277622766 208.42127661561017) rotate(0 87.6435982332099 0)"><path d="M-0.55 0.26 C28.62 0.33, 146 -0.08, 175.27 0.04 M1.36 -0.65 C30.35 -0.34, 145.51 1.63, 174.31 1.59" stroke="#1971c2" stroke-width="1" fill="none"></path></g><g transform="translate(464.30022277622766 208.42127661561017) rotate(0 87.6435982332099 0)"><path d="M22.92 -8.33 C15.87 -5.74, 8.03 -3.34, -0.55 0.26 M22.92 -8.33 C13.87 -5.83, 5.13 -1.06, -0.55 0.26" stroke="#1971c2" stroke-width="1" fill="none"></path></g><g transform="translate(464.30022277622766 208.42127661561017) rotate(0 87.6435982332099 0)"><path d="M22.95 8.77 C15.94 5.93, 8.09 2.89, -0.55 0.26 M22.95 8.77 C14.03 4.76, 5.29 3.02, -0.55 0.26" stroke="#1971c2" stroke-width="1" fill="none"></path></g><g transform="translate(464.30022277622766 208.42127661561017) rotate(0 87.6435982332099 0)"><path d="M150.74 9.93 C158.69 7.36, 165.81 4.37, 174.31 1.59 M150.74 9.93 C159.74 6.39, 168.91 4.72, 174.31 1.59" stroke="#1971c2" stroke-width="1" fill="none"></path></g><g transform="translate(464.30022277622766 208.42127661561017) rotate(0 87.6435982332099 0)"><path d="M150.9 -7.17 C158.75 -4.31, 165.82 -1.86, 174.31 1.59 M150.9 -7.17 C159.69 -4.2, 168.8 0.64, 174.31 1.59" stroke="#1971c2" stroke-width="1" fill="none"></path></g></g><mask></mask><g stroke-linecap="round"><g transform="translate(644.0798743194566 206.29121084467306) rotate(0 73.31146296830025 0)"><path d="M0.01 0.1 C24.29 0.16, 122.13 0.4, 146.64 0.28 M-1.45 -0.89 C22.6 -1.21, 121.04 -1.91, 145.7 -1.7" stroke="#1971c2" stroke-width="1" fill="none"></path></g><g transform="translate(644.0798743194566 206.29121084467306) rotate(0 73.31146296830025 0)"><path d="M23.51 -8.41 C14.82 -5.17, 6.26 -1.32, 0.01 0.1 M23.51 -8.41 C18.49 -6.15, 11.45 -4.19, 0.01 0.1" stroke="#1971c2" stroke-width="1" fill="none"></path></g><g transform="translate(644.0798743194566 206.29121084467306) rotate(0 73.31146296830025 0)"><path d="M23.48 8.7 C14.81 5.48, 6.26 2.9, 0.01 0.1 M23.48 8.7 C18.52 6.69, 11.49 4.39, 0.01 0.1" stroke="#1971c2" stroke-width="1" fill="none"></path></g><g transform="translate(644.0798743194566 206.29121084467306) rotate(0 73.31146296830025 0)"><path d="M122.21 6.86 C131.23 3.66, 140.38 1.09, 145.7 -1.7 M122.21 6.86 C128.94 4.58, 133.61 2.29, 145.7 -1.7" stroke="#1971c2" stroke-width="1" fill="none"></path></g><g transform="translate(644.0798743194566 206.29121084467306) rotate(0 73.31146296830025 0)"><path d="M122.2 -10.24 C131.22 -7, 140.36 -3.13, 145.7 -1.7 M122.2 -10.24 C128.88 -8.26, 133.55 -6.29, 145.7 -1.7" stroke="#1971c2" stroke-width="1" fill="none"></path></g></g><mask></mask><g transform="translate(366.40480462417577 173.42127687766742) rotate(0 20.216087341308594 17.5)"><text x="0" y="0" font-family="Virgil, Segoe UI Emoji" font-size="28px" fill="#1971c2" text-anchor="start" style="white-space: pre;" direction="ltr" dominant-baseline="text-before-edge">l/3</text></g><g transform="translate(536.3305058822757 175.0143892509741) rotate(0 20.216087341308594 17.5)"><text x="0" y="0" font-family="Virgil, Segoe UI Emoji" font-size="28px" fill="#1971c2" text-anchor="start" style="white-space: pre;" direction="ltr" dominant-baseline="text-before-edge">l/3</text></g><g transform="translate(687.1006621380752 172.4382252461478) rotate(0 20.216087341308594 17.5)"><text x="0" y="0" font-family="Virgil, Segoe UI Emoji" font-size="28px" fill="#1971c2" text-anchor="start" style="white-space: pre;" direction="ltr" dominant-baseline="text-before-edge">l/3</text></g><g stroke-linecap="round"><g transform="translate(314.57273959706527 263.68122366956914) rotate(0 239.168056795918 0)"><path d="M1.01 -0.27 C80.66 -0.3, 399.35 -1.16, 478.93 -0.97 M0.08 -1.46 C79.53 -1.3, 398.67 -0.01, 478.29 0.06" stroke="#1971c2" stroke-width="1" fill="none"></path></g><g transform="translate(314.57273959706527 263.68122366956914) rotate(0 239.168056795918 0)"><path d="M24.49 -8.87 C14.91 -4.37, 4.68 -1.81, 1.01 -0.27 M24.49 -8.87 C15.99 -6.36, 6.28 -2.19, 1.01 -0.27" stroke="#1971c2" stroke-width="1" fill="none"></path></g><g transform="translate(314.57273959706527 263.68122366956914) rotate(0 239.168056795918 0)"><path d="M24.52 8.24 C15.04 6.13, 4.8 2.09, 1.01 -0.27 M24.52 8.24 C16.02 4.42, 6.3 2.28, 1.01 -0.27" stroke="#1971c2" stroke-width="1" fill="none"></path></g><g transform="translate(314.57273959706527 263.68122366956914) rotate(0 239.168056795918 0)"><path d="M454.77 8.55 C463.46 6.06, 471.37 2.02, 478.29 0.06 M454.77 8.55 C463.64 4.65, 471.29 2.51, 478.29 0.06" stroke="#1971c2" stroke-width="1" fill="none"></path></g><g transform="translate(314.57273959706527 263.68122366956914) rotate(0 239.168056795918 0)"><path d="M454.82 -8.56 C463.37 -4.44, 471.27 -1.88, 478.29 0.06 M454.82 -8.56 C463.66 -6.13, 471.29 -1.95, 478.29 0.06" stroke="#1971c2" stroke-width="1" fill="none"></path></g></g><mask></mask><g transform="translate(544.294207997483 232.80643250677394) rotate(0 3.6820144653320312 17.5)"><text x="0" y="0" font-family="Virgil, Segoe UI Emoji" font-size="28px" fill="#1971c2" text-anchor="start" style="white-space: pre;" direction="ltr" dominant-baseline="text-before-edge">l</text></g><g transform="translate(480.31177850834206 13.127750538144937) rotate(0 10.444046020507812 17.5)"><text x="0" y="0" font-family="Virgil, Segoe UI Emoji" font-size="28px" fill="#1971c2" text-anchor="start" style="white-space: pre;" direction="ltr" dominant-baseline="text-before-edge">W</text></g><g transform="translate(653.7045523526949 10) rotate(0 10.444046020507812 17.5)"><text x="0" y="0" font-family="Virgil, Segoe UI Emoji" font-size="28px" fill="#1971c2" text-anchor="start" style="white-space: pre;" direction="ltr" dominant-baseline="text-before-edge">W</text></g><g transform="translate(916.7381366683537 146.59233277631256) rotate(0 10.724044799804688 17.5)"><text x="0" y="0" font-family="Virgil, Segoe UI Emoji" font-size="28px" fill="#1971c2" text-anchor="start" style="white-space: pre;" direction="ltr" dominant-baseline="text-before-edge">M</text></g><g transform="translate(938.1862253156323 176.36537380285836) rotate(0 19.362075805664062 17.5)"><text x="0" y="0" font-family="Virgil, Segoe UI Emoji" font-size="28px" fill="#1971c2" text-anchor="start" style="white-space: pre;" direction="ltr" dominant-baseline="text-before-edge">BA</text></g><g transform="translate(14.022520550549416 147.13253902450242) rotate(0 10.724044799804688 17.5)"><text x="0" y="0" font-family="Virgil, Segoe UI Emoji" font-size="28px" fill="#1971c2" text-anchor="start" style="white-space: pre;" direction="ltr" dominant-baseline="text-before-edge">M</text></g><g transform="translate(35.470609974533545 171.1171235208817) rotate(0 19.362075805664062 17.5)"><text x="0" y="0" font-family="Virgil, Segoe UI Emoji" font-size="28px" fill="#1971c2" text-anchor="start" style="white-space: pre;" direction="ltr" dominant-baseline="text-before-edge">AB</text></g><g stroke-linecap="round"><g transform="translate(917.2035042692598 143.01713090040357) rotate(0 14.14121518950651 0)"><path d="M-0.09 0.5 C4.65 0.41, 24 -0.27, 28.7 -0.37 M-0.79 0.28 C3.88 0.24, 23.74 0.12, 28.49 0.13" stroke="#1971c2" stroke-width="1" fill="none"></path></g></g><mask></mask><g stroke-linecap="round"><g transform="translate(9.871825318268975 144.29564566158206) rotate(0 12.280602276493596 0)"><path d="M0.52 0.3 C4.62 0.22, 20.72 -0.24, 24.8 -0.38 M0.13 -0.02 C4.16 -0.05, 20.37 0.15, 24.5 0.12" stroke="#1971c2" stroke-width="1" fill="none"></path></g></g><mask></mask><g transform="translate(989.9338985814779 139.60649739817927) rotate(0 25.60610961914074 17.5)"><text x="0" y="0" font-family="Virgil, Segoe UI Emoji" font-size="28px" fill="#1971c2" text-anchor="start" style="white-space: pre;" direction="ltr" dominant-baseline="text-before-edge">= 2</text></g><g stroke-linecap="round"><g transform="translate(1015.5400077762276 176.18406159630422) rotate(0 16.001968642810425 0)"><path d="M-0.33 -0.47 C5.01 -0.5, 27.04 -0.38, 32.46 -0.24 M0.5 0.47 C5.77 0.52, 27.02 0.5, 32.27 0.33" stroke="#1971c2" stroke-width="1" fill="none"></path></g></g><mask></mask><g transform="translate(1024.0940396611138 180.07899431854366) rotate(0 8.526039123535156 17.5)"><text x="0" y="0" font-family="Virgil, Segoe UI Emoji" font-size="28px" fill="#1971c2" text-anchor="start" style="white-space: pre;" direction="ltr" dominant-baseline="text-before-edge">9</text></g><g transform="translate(1063.0819753095263 142.40640821477564) rotate(0 10.444046020507812 17.5)"><text x="0" y="0" font-family="Virgil, Segoe UI Emoji" font-size="28px" fill="#1971c2" text-anchor="start" style="white-space: pre;" direction="ltr" dominant-baseline="text-before-edge">W</text></g><g transform="translate(1099.0477853071131 145.07899424856078) rotate(0 8.386032104492188 17.5)"><text x="0" y="0" font-family="Virgil, Segoe UI Emoji" font-size="28px" fill="#1971c2" text-anchor="start" style="white-space: pre;" direction="ltr" dominant-baseline="text-before-edge">L</text></g><g transform="translate(83.53837512864789 139.74824621236257) rotate(0 38.36016082763672 17.5)"><text x="0" y="0" font-family="Virgil, Segoe UI Emoji" font-size="28px" fill="#1971c2" text-anchor="start" style="white-space: pre;" direction="ltr" dominant-baseline="text-before-edge">= - 2</text></g><g stroke-linecap="round"><g transform="translate(123.54239732339738 175.2332714104864) rotate(0 16.001968642810425 0)"><path d="M-0.17 -0.37 C5.04 -0.52, 26.37 -0.51, 31.65 -0.43 M0.74 0.63 C6.1 0.5, 27.4 0.03, 32.7 0.04" stroke="#1971c2" stroke-width="1" fill="none"></path></g></g><mask></mask><g transform="translate(132.096429208284 179.1282041327263) rotate(0 8.526039123535156 17.5)"><text x="0" y="0" font-family="Virgil, Segoe UI Emoji" font-size="28px" fill="#1971c2" text-anchor="start" style="white-space: pre;" direction="ltr" dominant-baseline="text-before-edge">9</text></g><g transform="translate(171.08436485669608 141.45561802895782) rotate(0 10.444046020507812 17.5)"><text x="0" y="0" font-family="Virgil, Segoe UI Emoji" font-size="28px" fill="#1971c2" text-anchor="start" style="white-space: pre;" direction="ltr" dominant-baseline="text-before-edge">W</text></g><g transform="translate(207.0501748542829 144.1282040627434) rotate(0 8.386032104492188 17.5)"><text x="0" y="0" font-family="Virgil, Segoe UI Emoji" font-size="28px" fill="#1971c2" text-anchor="start" style="white-space: pre;" direction="ltr" dominant-baseline="text-before-edge">L</text></g></svg>