<svg version="1.1" xmlns="http://www.w3.org/2000/svg" viewBox="0 0 531.7154839340626 405.2631612656096" width="1595.1464518021878" height="1215.7894837968288">
  <!-- svg-source:excalidraw -->
  
  <defs>
    <style class="style-fonts">
      @font-face {
        font-family: "Virgil";
        src: url("https://excalidraw.com/Virgil.woff2");
      }
      @font-face {
        font-family: "Cascadia";
        src: url("https://excalidraw.com/Cascadia.woff2");
      }
      @font-face {
        font-family: "Assistant";
        src: url("https://excalidraw.com/Assistant-Regular.woff2");
      }
    </style>
    
  </defs>
  <rect x="0" y="0" width="531.7154839340626" height="405.2631612656096" fill="#ffffff"></rect><g stroke-linecap="round"><g transform="translate(51.49347364570781 100.8020087876398) rotate(0 0 131.3651692403812)"><path d="M-0.47 -0.01 C-0.6 43.61, -0.35 219.09, -0.22 262.74 M1.49 -1.06 C1.13 43.29, -0.98 220.31, -1.29 264.28" stroke="#1971c2" stroke-width="1" fill="none"></path></g></g><mask></mask><g stroke-linecap="round"><g transform="translate(52.98207640835085 99.31344435416668) rotate(0 148.11142648812324 0)"><path d="M-0.46 -0.15 C48.96 -0.08, 247.18 0.53, 296.56 0.68 M1.5 -1.27 C50.79 -1.57, 246.89 -1.1, 295.79 -1.09" stroke="#1971c2" stroke-width="1" fill="none"></path></g></g><mask></mask><g stroke-linecap="round"><g transform="translate(189.9292888100124 17.442777416665194) rotate(0 0 41.679615685487306)"><path d="M-0.69 0.67 C-0.57 14.28, -0.25 68.87, 0.03 82.73 M1.15 -0.03 C1.18 14.25, -0.84 70.31, -0.9 83.94" stroke="#1971c2" stroke-width="1" fill="none"></path></g><g transform="translate(189.9292888100124 17.442777416665194) rotate(0 0 41.679615685487306)"><path d="M-8.93 60.26 C-5.66 66.07, -5.89 73.44, -0.9 83.94 M-8.93 60.26 C-6.96 68.52, -4.01 76.95, -0.9 83.94" stroke="#1971c2" stroke-width="1" fill="none"></path></g><g transform="translate(189.9292888100124 17.442777416665194) rotate(0 0 41.679615685487306)"><path d="M8.17 60.64 C7.31 66.26, 2.96 73.54, -0.9 83.94 M8.17 60.64 C4.36 68.71, 1.53 77.01, -0.9 83.94" stroke="#1971c2" stroke-width="1" fill="none"></path></g></g><mask></mask><g stroke-linecap="round"><g transform="translate(347.7164288330748 100.05770740631806) rotate(0 -11.908489915002974 23.444778033784814)"><path d="M0.23 -0.84 C-3.71 6.64, -20.64 38.06, -24.81 45.95 M-1.11 1.34 C-4.59 9.45, -19.07 39.28, -22.62 47" stroke="#1971c2" stroke-width="1" fill="none"></path></g></g><mask></mask><g stroke-linecap="round"><g transform="translate(323.1551987273076 146.94726341769046) rotate(0 23.072627343124168 0)"><path d="M0.23 0.22 C7.91 0.24, 38.05 -0.26, 45.63 -0.34 M-0.31 -0.14 C7.56 -0.01, 38.74 0.13, 46.6 0.19" stroke="#1971c2" stroke-width="1" fill="none"></path></g></g><mask></mask><g stroke-linecap="round"><g transform="translate(369.30045341355594 144.71443598826363) rotate(0 -9.4979839520945 -22.675098139161946)"><path d="M0.92 -0.07 C-2.26 -7.95, -15.02 -38.92, -18.28 -46.36 M-0.06 -1.16 C-3.4 -8.99, -15.67 -37.76, -18.86 -45.36" stroke="#1971c2" stroke-width="1" fill="none"></path></g></g><mask></mask><g stroke-linecap="round"><g transform="translate(90.81313763066237 352.01768165526573) rotate(269.9999999999999 -11.908489915002974 23.444778033784814)"><path d="M0.72 0.82 C-3.42 8.27, -20.43 38.1, -24.39 45.74 M-0.36 0.21 C-4.75 8.28, -21.8 38.73, -25.64 46.67" stroke="#1971c2" stroke-width="1" fill="none"></path></g></g><mask></mask><g stroke-linecap="round"><g transform="translate(78.69690591690892 364.4300750092707) rotate(269.9999999999999 23.072627343124168 0)"><path d="M-0.26 -0.53 C7.43 -0.61, 38.74 -0.27, 46.5 -0.11 M0.6 0.39 C8.23 0.36, 38.68 0.66, 46.25 0.53" stroke="#1971c2" stroke-width="1" fill="none"></path></g></g><mask></mask><g stroke-linecap="round"><g transform="translate(85.81131237863224 373.90780289029135) rotate(269.9999999999999 -9.4979839520945 -22.675098139161946)"><path d="M0.77 -0.25 C-2.25 -7.45, -15.48 -36.87, -18.71 -44.39 M-0.28 -1.42 C-3.39 -8.85, -16.35 -38.9, -19.51 -46.01" stroke="#1971c2" stroke-width="1" fill="none"></path></g></g><mask></mask><g stroke-linecap="round"><g transform="translate(332.0864572981359 148.25369448354058) rotate(0 -9.67561771201349 9.675617712013718)"><path d="M-0.62 0.47 C-3.99 3.81, -16.39 16.78, -19.66 19.74 M1.26 -0.33 C-2.35 2.66, -17.59 14.61, -20.77 17.83" stroke="#1971c2" stroke-width="1" fill="none"></path></g></g><mask></mask><g stroke-linecap="round"><g transform="translate(350.2542768560502 148.64511697400758) rotate(0 -9.67561771201349 9.675617712013718)"><path d="M-0.08 0.94 C-3.41 4.05, -16.13 16.62, -19.42 19.75 M-1.58 0.39 C-5.13 3.64, -17.2 14.97, -20.41 17.84" stroke="#1971c2" stroke-width="1" fill="none"></path></g></g><mask></mask><g stroke-linecap="round"><g transform="translate(344.1213141596688 147.1778238179145) rotate(0 -9.67561771201349 9.675617712013718)"><path d="M1.18 1.11 C-2.03 4.45, -16.94 16.79, -20.17 19.78 M0.34 0.65 C-2.41 3.64, -14.77 14.61, -17.89 17.88" stroke="#1971c2" stroke-width="1" fill="none"></path></g></g><mask></mask><g stroke-linecap="round"><g transform="translate(362.2891337175831 147.56924630838193) rotate(0 -9.67561771201349 9.675617712013718)"><path d="M-0.82 0.42 C-4.06 3.41, -15.01 15.74, -18.24 19.05 M0.95 -0.4 C-2.45 3.28, -15.48 17.29, -18.6 20.43" stroke="#1971c2" stroke-width="1" fill="none"></path></g></g><mask></mask><g stroke-linecap="round"><g transform="translate(145.7010762714758 373.29555755518004) rotate(239.99999999999994 -9.67561771201349 9.675617712013718)"><path d="M0.94 0.84 C-2.66 4.22, -16.94 16.27, -20.47 19.38 M-0.02 0.23 C-3.37 3.91, -15.38 17.49, -18.34 20.94" stroke="#1971c2" stroke-width="1" fill="none"></path></g></g><mask></mask><g stroke-linecap="round"><g transform="translate(146.9922852667571 357.4775923925299) rotate(239.99999999999994 -9.67561771201349 9.675617712013718)"><path d="M-1.12 0.03 C-4.64 3.15, -17.34 16.15, -20.21 19.51 M0.5 -1 C-2.73 2.26, -14.77 17.91, -17.95 21.14" stroke="#1971c2" stroke-width="1" fill="none"></path></g></g><mask></mask><g stroke-linecap="round"><g transform="translate(145.65531891913565 364.56063627248386) rotate(239.99999999999994 -9.67561771201349 9.675617712013718)"><path d="M-0.86 0.16 C-3.73 3.53, -15.09 17.18, -18.34 20.24 M0.89 -0.8 C-1.95 2.24, -15.61 15.22, -18.75 18.58" stroke="#1971c2" stroke-width="1" fill="none"></path></g></g><mask></mask><g stroke-linecap="round"><g transform="translate(145.65531896377615 347.43719118983745) rotate(239.99999999999994 -9.67561771201349 9.675617712013718)"><path d="M1.01 0.88 C-2.23 3.94, -16.9 15.43, -20.34 18.47 M0.09 0.3 C-2.72 3.47, -14.71 16.21, -18.15 19.55" stroke="#1971c2" stroke-width="1" fill="none"></path></g></g><mask></mask><g stroke-linecap="round"><g transform="translate(346.5329171281421 301.01302484951975) rotate(0 0 -59.54232181111411)"><path d="M-0.62 0.44 C-0.58 -19.18, 0.26 -98.35, 0.17 -118.11 M1.25 -0.38 C1.16 -20.28, -0.67 -99.79, -0.69 -119.72" stroke="#1971c2" stroke-width="1" fill="none"></path></g><g transform="translate(346.5329171281421 301.01302484951975) rotate(0 0 -59.54232181111411)"><path d="M8.18 -96.34 C6.41 -102.89, 4.74 -111.9, -0.69 -119.72 M8.18 -96.34 C5.52 -104.91, 2.21 -114.03, -0.69 -119.72" stroke="#1971c2" stroke-width="1" fill="none"></path></g><g transform="translate(346.5329171281421 301.01302484951975) rotate(0 0 -59.54232181111411)"><path d="M-8.92 -96.11 C-5.73 -102.64, -2.44 -111.72, -0.69 -119.72 M-8.92 -96.11 C-5.09 -104.75, -1.91 -113.95, -0.69 -119.72" stroke="#1971c2" stroke-width="1" fill="none"></path></g></g><mask></mask><g stroke-linecap="round"><g transform="translate(272.5442379642511 205.0010336279188) rotate(0 48.00598258677189 0)"><path d="M-0.32 -0.88 C15.81 -0.68, 80.01 0.14, 96.06 0.25 M1.71 1.27 C17.76 1.17, 79.55 -1.7, 95.14 -1.74" stroke="#1971c2" stroke-width="1" fill="none"></path></g><g transform="translate(272.5442379642511 205.0010336279188) rotate(0 48.00598258677189 0)"><path d="M71.89 7.44 C76.05 5.39, 83.48 3.12, 95.14 -1.74 M71.89 7.44 C77.75 4.4, 85.42 2.99, 95.14 -1.74" stroke="#1971c2" stroke-width="1" fill="none"></path></g><g transform="translate(272.5442379642511 205.0010336279188) rotate(0 48.00598258677189 0)"><path d="M71.43 -9.65 C75.56 -7.62, 83.11 -5.81, 95.14 -1.74 M71.43 -9.65 C77.39 -7.85, 85.19 -4.41, 95.14 -1.74" stroke="#1971c2" stroke-width="1" fill="none"></path></g></g><mask></mask><g stroke-linecap="round"><g transform="translate(267.33428161168104 365.9155094176904) rotate(0 -58.053744601251196 0)"><path d="M-0.57 -0.57 C-19.69 -0.52, -96.27 -0.47, -115.39 -0.52 M1.34 1.75 C-17.82 2.02, -96.47 1.04, -115.95 0.75" stroke="#1971c2" stroke-width="1" fill="none"></path></g><g transform="translate(267.33428161168104 365.9155094176904) rotate(0 -58.053744601251196 0)"><path d="M-92.35 -7.49 C-99.14 -4.38, -104.84 -2.16, -115.95 0.75 M-92.35 -7.49 C-97.87 -5.58, -103.43 -3.69, -115.95 0.75" stroke="#1971c2" stroke-width="1" fill="none"></path></g><g transform="translate(267.33428161168104 365.9155094176904) rotate(0 -58.053744601251196 0)"><path d="M-92.57 9.61 C-99.2 8.53, -104.84 6.56, -115.95 0.75 M-92.57 9.61 C-97.97 7.6, -103.49 5.57, -115.95 0.75" stroke="#1971c2" stroke-width="1" fill="none"></path></g></g><mask></mask><g transform="translate(201.0349646259533 10) rotate(0 9.254035949707031 17.5)"><text x="0" y="0" font-family="Virgil, Segoe UI Emoji" font-size="28px" fill="#1971c2" text-anchor="start" style="white-space: pre;" direction="ltr" dominant-baseline="text-before-edge">P</text></g><g transform="translate(77.6564810089128 45.00000047224876) rotate(0 25.354103088378906 17.5)"><text x="0" y="0" font-family="Virgil, Segoe UI Emoji" font-size="28px" fill="#1971c2" text-anchor="start" style="white-space: pre;" direction="ltr" dominant-baseline="text-before-edge">L/2</text></g><g transform="translate(229.50255580228713 41.898270242994386) rotate(0 25.354103088378906 17.5)"><text x="0" y="0" font-family="Virgil, Segoe UI Emoji" font-size="28px" fill="#1971c2" text-anchor="start" style="white-space: pre;" direction="ltr" dominant-baseline="text-before-edge">L/2</text></g><g transform="translate(354.21836033710883 59.39827073454717) rotate(0 9.016036987304688 17.5)"><text x="0" y="0" font-family="Virgil, Segoe UI Emoji" font-size="28px" fill="#1971c2" text-anchor="start" style="white-space: pre;" direction="ltr" dominant-baseline="text-before-edge">C</text></g><g stroke-linecap="round"><g transform="translate(354.2183601918546 98.62952041768995) rotate(0 72.56716173613052 1.1164138564327004)"><path d="M-0.71 0.35 C23.6 0.95, 121.26 2.5, 145.66 2.88 M1.12 -0.51 C25.33 -0.2, 120.97 0.92, 144.98 1.09" stroke="#1971c2" stroke-width="1" fill="none"></path></g></g><mask></mask><g transform="translate(499.8753960434376 59.39827088899301) rotate(0 10.9200439453125 17.5)"><text x="0" y="0" font-family="Virgil, Segoe UI Emoji" font-size="28px" fill="#1971c2" text-anchor="start" style="white-space: pre;" direction="ltr" dominant-baseline="text-before-edge">D</text></g><g transform="translate(401.33820510876376 51.7632092357544) rotate(0 25.354103088378906 17.5)"><text x="0" y="0" font-family="Virgil, Segoe UI Emoji" font-size="28px" fill="#1971c2" text-anchor="start" style="white-space: pre;" direction="ltr" dominant-baseline="text-before-edge">L/2</text></g><g transform="translate(10 223.87317572370557) rotate(0 8.386032104492188 17.5)"><text x="0" y="0" font-family="Virgil, Segoe UI Emoji" font-size="28px" fill="#1971c2" text-anchor="start" style="white-space: pre;" direction="ltr" dominant-baseline="text-before-edge">L</text></g><g transform="translate(250.72663155555665 206.37317494223953) rotate(0 14.7420654296875 17.5)"><text x="0" y="0" font-family="Virgil, Segoe UI Emoji" font-size="28px" fill="#1971c2" text-anchor="start" style="white-space: pre;" direction="ltr" dominant-baseline="text-before-edge">Hc</text></g><g transform="translate(368.6068221243331 266.4507575206694) rotate(0 14.266059875488281 17.5)"><text x="0" y="0" font-family="Virgil, Segoe UI Emoji" font-size="28px" fill="#1971c2" text-anchor="start" style="white-space: pre;" direction="ltr" dominant-baseline="text-before-edge">Vc</text></g><g transform="translate(285.7112194670078 342.69196114494935) rotate(0 7.7140350341796875 17.5)"><text x="0" y="0" font-family="Virgil, Segoe UI Emoji" font-size="28px" fill="#1971c2" text-anchor="start" style="white-space: pre;" direction="ltr" dominant-baseline="text-before-edge">H</text></g><g transform="translate(301.13928883104063 368.0632531767924) rotate(0 5.090531974295118 9.699908305871759)"><text x="0" y="0" font-family="Virgil, Segoe UI Emoji" font-size="15.519853289394634px" fill="#1971c2" text-anchor="start" style="white-space: pre;" direction="ltr" dominant-baseline="text-before-edge">A</text></g><g stroke-linecap="round"><g transform="translate(190.67364129689486 110.47769676979942) rotate(0 0 96.38411586420466)"><path d="M-0.37 0.56 C-0.46 32.62, 0.31 161.57, 0.47 193.49" stroke="#1971c2" stroke-width="1.5" fill="none" stroke-dasharray="1.5 7"></path></g></g><mask></mask><g stroke-linecap="round" transform="translate(103.0105841918546 347.5775154176904) rotate(0 7.387986999999953 8.75)"><path d="M7.62 0.39 C9.04 0.28, 10.83 0.89, 11.98 2 C13.13 3.12, 14.17 5.27, 14.51 7.08 C14.86 8.88, 14.83 11.24, 14.06 12.86 C13.29 14.49, 11.4 16.14, 9.87 16.82 C8.35 17.5, 6.31 17.47, 4.92 16.94 C3.52 16.41, 2.38 15.16, 1.5 13.62 C0.61 12.08, -0.56 9.7, -0.38 7.73 C-0.19 5.75, 1.23 3.11, 2.61 1.79 C3.99 0.46, 6.9 0.04, 7.9 -0.23 C8.91 -0.51, 8.75 -0.07, 8.65 0.13 M7.63 -0.42 C9.03 -0.43, 10.83 0.5, 12.07 1.73 C13.31 2.97, 14.88 5.07, 15.06 7.01 C15.24 8.96, 14.17 11.61, 13.13 13.38 C12.1 15.16, 10.27 16.97, 8.87 17.66 C7.46 18.35, 6.08 18.3, 4.69 17.51 C3.31 16.72, 1.28 14.7, 0.57 12.92 C-0.14 11.14, 0.12 8.65, 0.41 6.82 C0.7 4.99, 1.13 3.05, 2.32 1.94 C3.51 0.83, 6.69 0.48, 7.53 0.15 C8.36 -0.18, 7.25 -0.16, 7.35 -0.05" stroke="#1971c2" stroke-width="1" fill="none"></path></g><g stroke-linecap="round" transform="translate(102.23885398678044 368.0632531739084) rotate(0 7.387986999999953 8.75)"><path d="M8.41 0.23 C9.85 0.54, 11.67 2.01, 12.73 3.49 C13.78 4.97, 14.75 7.22, 14.74 9.11 C14.72 11, 13.73 13.45, 12.64 14.83 C11.54 16.21, 9.74 17.17, 8.18 17.4 C6.61 17.63, 4.62 17.22, 3.27 16.23 C1.92 15.25, 0.46 13.31, 0.06 11.49 C-0.33 9.67, 0.3 7.02, 0.89 5.3 C1.47 3.59, 2.2 2.01, 3.59 1.19 C4.97 0.37, 8.2 0.44, 9.2 0.4 C10.2 0.36, 9.47 0.73, 9.57 0.95 M7.94 0.09 C9.48 -0.03, 10.88 0.41, 11.9 1.73 C12.91 3.04, 13.81 6.06, 14.01 7.97 C14.22 9.87, 13.85 11.75, 13.14 13.18 C12.42 14.6, 11.11 15.83, 9.73 16.5 C8.35 17.17, 6.23 17.87, 4.87 17.2 C3.51 16.53, 2.4 14.26, 1.57 12.5 C0.74 10.73, -0.32 8.29, -0.12 6.61 C0.09 4.93, 1.48 3.48, 2.78 2.41 C4.08 1.34, 6.89 0.49, 7.68 0.17 C8.48 -0.15, 7.58 0.28, 7.55 0.5" stroke="#1971c2" stroke-width="1" fill="none"></path></g><g transform="translate(14.843969386632352 360.2631612656096) rotate(0 9.184036254882812 17.5)"><text x="0" y="0" font-family="Virgil, Segoe UI Emoji" font-size="28px" fill="#1971c2" text-anchor="start" style="white-space: pre;" direction="ltr" dominant-baseline="text-before-edge">A</text></g></svg>