<svg version="1.1" xmlns="http://www.w3.org/2000/svg" viewBox="0 0 476.1279304416214 336.77157442173666" width="1428.3837913248642" height="1010.31472326521">
  <!-- svg-source:excalidraw -->
  
  <defs>
    <style class="style-fonts">
      @font-face {
        font-family: "Virgil";
        src: url("https://excalidraw.com/Virgil.woff2");
      }
      @font-face {
        font-family: "Cascadia";
        src: url("https://excalidraw.com/Cascadia.woff2");
      }
      @font-face {
        font-family: "Assistant";
        src: url("https://excalidraw.com/Assistant-Regular.woff2");
      }
    </style>
    
  </defs>
  <rect x="0" y="0" width="476.1279304416214" height="336.77157442173666" fill="#ffffff"></rect><g stroke-linecap="round" transform="translate(356.1913982863555 144.7677893718992) rotate(0 32.872109203058926 36.6895139298922)"><path d="M34.16 0.34 C40.47 0.14, 49.38 3.99, 54.32 8.51 C59.27 13.04, 62.29 20.51, 63.84 27.49 C65.38 34.46, 65.85 43.8, 63.59 50.38 C61.34 56.96, 55.52 63.03, 50.3 66.98 C45.09 70.94, 38.75 74.41, 32.3 74.13 C25.84 73.85, 16.81 69.9, 11.6 65.33 C6.38 60.76, 2.73 53.78, 1.02 46.72 C-0.68 39.66, -1.08 29.82, 1.35 22.96 C3.77 16.1, 8.8 9.09, 15.58 5.56 C22.37 2.03, 36.72 2.06, 42.04 1.78 C47.37 1.5, 47.77 3.24, 47.51 3.88 M21.22 0.94 C26.43 -1.95, 33.86 0.16, 40.08 2.1 C46.29 4.03, 54.43 7.2, 58.5 12.57 C62.57 17.93, 64.2 26.85, 64.47 34.3 C64.75 41.75, 63.64 51.07, 60.15 57.26 C56.67 63.45, 49.52 68.82, 43.54 71.42 C37.56 74.02, 30.2 74.81, 24.27 72.86 C18.34 70.91, 11.88 65.49, 7.96 59.75 C4.05 54.01, 1.18 45.8, 0.79 38.43 C0.4 31.06, 2 21.3, 5.63 15.53 C9.26 9.75, 19.8 5.92, 22.57 3.75 C25.34 1.58, 22.21 2.2, 22.26 2.5" stroke="#1e1e1e" stroke-width="1" fill="none"></path></g><g stroke-linecap="round" transform="translate(48.254093286355555 144.76778937189874) rotate(0 32.872109203058926 36.6895139298922)"><path d="M27.89 0.42 C34.1 -1.28, 42.72 0.18, 48.24 3.49 C53.76 6.8, 58.19 13.75, 61.04 20.28 C63.88 26.8, 66 35.59, 65.31 42.62 C64.62 49.66, 61.44 57.4, 56.9 62.5 C52.37 67.6, 44.36 71.91, 38.08 73.2 C31.81 74.49, 25.03 73.63, 19.26 70.25 C13.49 66.86, 6.59 59.34, 3.45 52.89 C0.3 46.43, -0.62 38.44, 0.38 31.53 C1.38 24.62, 4.53 16.54, 9.45 11.42 C14.36 6.3, 25.74 2.5, 29.85 0.81 C33.95 -0.88, 33.84 0.65, 34.1 1.29 M24.07 2.81 C30.2 0.2, 38.49 -0.15, 44.61 1.84 C50.73 3.82, 57.42 8.72, 60.77 14.74 C64.13 20.75, 65.17 30.47, 64.75 37.93 C64.32 45.39, 61.65 53.66, 58.23 59.5 C54.82 65.34, 50.11 70.71, 44.27 72.95 C38.43 75.18, 29.71 75.28, 23.19 72.91 C16.67 70.53, 8.84 64.86, 5.16 58.68 C1.47 52.51, 1.09 42.98, 1.08 35.84 C1.08 28.7, 1.36 21.4, 5.15 15.83 C8.93 10.27, 20.74 4.61, 23.8 2.46 C26.85 0.3, 23.31 2.42, 23.48 2.91" stroke="#1e1e1e" stroke-width="1" fill="none"></path></g><g stroke-linecap="round" transform="translate(205.19185628635546 50.60512737189856) rotate(0 32.872109203058926 36.6895139298922)"><path d="M28.16 0.32 C34.02 -1.08, 42.06 0.99, 47.84 4.25 C53.62 7.51, 60.11 13.34, 62.84 19.88 C65.57 26.41, 65.58 36.29, 64.22 43.48 C62.86 50.66, 59.24 58.18, 54.69 62.99 C50.14 67.79, 43.02 71.25, 36.91 72.31 C30.81 73.37, 23.71 72.66, 18.07 69.35 C12.43 66.04, 6.14 58.86, 3.08 52.45 C0.01 46.04, -1.53 38.03, -0.34 30.88 C0.85 23.72, 4.84 14.6, 10.21 9.51 C15.58 4.41, 27.86 1.86, 31.88 0.31 C35.9 -1.24, 34.48 -0.28, 34.33 0.2 M43.96 2.17 C50.01 3.54, 57 8.85, 60.5 14.67 C64.01 20.5, 65.21 29.95, 64.98 37.1 C64.76 44.25, 63.01 51.96, 59.14 57.57 C55.27 63.18, 48.05 68.37, 41.76 70.77 C35.46 73.17, 27.26 73.95, 21.38 71.98 C15.51 70.01, 9.87 64.64, 6.49 58.95 C3.12 53.26, 1.03 45.13, 1.14 37.82 C1.25 30.51, 3.7 20.82, 7.13 15.06 C10.57 9.3, 15.73 5.29, 21.73 3.26 C27.73 1.23, 39.61 2.98, 43.11 2.87 C46.61 2.75, 43.02 2.25, 42.74 2.56" stroke="#1e1e1e" stroke-width="1" fill="none"></path></g><g stroke-linecap="round" transform="translate(205.19185628635546 230.87147337189845) rotate(0 32.872109203058926 36.6895139298922)"><path d="M24.01 0.78 C29.44 -1.6, 36.82 -0.07, 42.77 2.24 C48.72 4.56, 56.05 8.94, 59.73 14.68 C63.41 20.42, 64.87 29.24, 64.86 36.68 C64.84 44.13, 63.28 53.57, 59.64 59.38 C55.99 65.19, 49.37 69.66, 43 71.55 C36.63 73.43, 27.67 72.79, 21.44 70.67 C15.21 68.54, 9.11 64.5, 5.63 58.79 C2.15 53.08, 0.46 43.8, 0.55 36.39 C0.64 28.99, 1.89 20.43, 6.16 14.36 C10.43 8.3, 22.51 2.27, 26.17 -0.01 C29.84 -2.29, 28.08 0.06, 28.15 0.7 M27.85 0.32 C33.73 -1.57, 40.52 -0.31, 46.21 3.1 C51.91 6.52, 58.9 14.52, 62.04 20.81 C65.17 27.11, 65.99 33.93, 65.02 40.88 C64.05 47.83, 60.48 57.4, 56.23 62.5 C51.98 67.6, 46.04 70.43, 39.52 71.49 C33.01 72.55, 22.89 71.94, 17.14 68.85 C11.39 65.76, 7.92 58.98, 5.03 52.94 C2.14 46.9, -0.94 39.51, -0.2 32.59 C0.54 25.67, 5.13 16.66, 9.49 11.42 C13.84 6.19, 23.02 3.1, 25.94 1.2 C28.86 -0.7, 26.85 -0.45, 27.01 0.04" stroke="#1e1e1e" stroke-width="1" fill="none"></path></g><g stroke-linecap="round"><g transform="translate(101.69775953896146 147.31273071053556) rotate(0 44.88795241373009 -25.916071409438473)"><path d="M-0.78 -0.31 C14.02 -8.97, 74.93 -43.08, 89.96 -51.67 M1.02 -1.52 C15.57 -9.99, 74.53 -41.88, 89.11 -50.04" stroke="#1e1e1e" stroke-width="1" fill="none"></path></g><g transform="translate(101.69775953896146 147.31273071053556) rotate(0 44.88795241373009 -25.916071409438473)"><path d="M72.64 -31.23 C78.65 -38.33, 86.02 -46.72, 89.11 -50.04 M72.64 -31.23 C77.99 -37.2, 82.8 -43.32, 89.11 -50.04" stroke="#1e1e1e" stroke-width="1" fill="none"></path></g><g transform="translate(101.69775953896146 147.31273071053556) rotate(0 44.88795241373009 -25.916071409438473)"><path d="M64.4 -46.22 C73.74 -47.28, 84.4 -49.68, 89.11 -50.04 M64.4 -46.22 C72.37 -47.72, 79.67 -49.31, 89.11 -50.04" stroke="#1e1e1e" stroke-width="1" fill="none"></path></g></g><mask></mask><g stroke-linecap="round"><g transform="translate(281.11578170012876 95.1415279230655) rotate(0 32.97814781874217 32.978147818741945)"><path d="M-0.75 -1.01 C10.43 9.85, 55.07 55.1, 66.17 66.11 M1.06 1.07 C12.17 12.07, 54.67 56.92, 65.33 67.73" stroke="#1e1e1e" stroke-width="1" fill="none"></path></g><g transform="translate(281.11578170012876 95.1415279230655) rotate(0 32.97814781874217 32.978147818741945)"><path d="M42.87 56.76 C46.34 59.73, 53.37 61.68, 65.33 67.73 M42.87 56.76 C47.22 59.25, 53.68 62.5, 65.33 67.73" stroke="#1e1e1e" stroke-width="1" fill="none"></path></g><g transform="translate(281.11578170012876 95.1415279230655) rotate(0 32.97814781874217 32.978147818741945)"><path d="M55.17 44.89 C55.96 50.47, 60.2 55.1, 65.33 67.73 M55.17 44.89 C56.78 50.18, 60.45 56.11, 65.33 67.73" stroke="#1e1e1e" stroke-width="1" fill="none"></path></g></g><mask></mask><g stroke-linecap="round"><g transform="translate(115.27076059536603 203.30132366259568) rotate(0 43.313607006780785 25.00712266493815)"><path d="M0.63 -0.29 C15.08 7.94, 73.34 40.69, 87.74 49.23 M-0.49 -1.48 C13.8 6.9, 72.88 41.92, 87.38 50.35" stroke="#1e1e1e" stroke-width="1" fill="none"></path></g><g transform="translate(115.27076059536603 203.30132366259568) rotate(0 43.313607006780785 25.00712266493815)"><path d="M62.79 45.82 C71.83 49.3, 80.51 49.88, 87.38 50.35 M62.79 45.82 C72.73 48.23, 80.56 49.17, 87.38 50.35" stroke="#1e1e1e" stroke-width="1" fill="none"></path></g><g transform="translate(115.27076059536603 203.30132366259568) rotate(0 43.313607006780785 25.00712266493815)"><path d="M71.46 31.07 C77.12 40.31, 82.44 46.6, 87.38 50.35 M71.46 31.07 C78.27 39.09, 82.83 45.59, 87.38 50.35" stroke="#1e1e1e" stroke-width="1" fill="none"></path></g></g><mask></mask><g stroke-linecap="round"><g transform="translate(276.02592814734203 246.9893935086916) rotate(0 37.23995428143587 -21.500497628996527)"><path d="M-0.56 -0.3 C11.91 -7.36, 62.08 -35.36, 74.48 -42.5 M1.35 -1.51 C13.69 -8.91, 61.63 -37.63, 73.54 -44.36" stroke="#1e1e1e" stroke-width="1" fill="none"></path></g><g transform="translate(276.02592814734203 246.9893935086916) rotate(0 37.23995428143587 -21.500497628996527)"><path d="M57.58 -25.12 C61.43 -30.27, 67.11 -36.49, 73.54 -44.36 M57.58 -25.12 C62.81 -30.76, 66.37 -35.45, 73.54 -44.36" stroke="#1e1e1e" stroke-width="1" fill="none"></path></g><g transform="translate(276.02592814734203 246.9893935086916) rotate(0 37.23995428143587 -21.500497628996527)"><path d="M48.94 -39.88 C55.13 -40.98, 63.15 -43.18, 73.54 -44.36 M48.94 -39.88 C56.61 -41.21, 62.65 -41.66, 73.54 -44.36" stroke="#1e1e1e" stroke-width="1" fill="none"></path></g></g><mask></mask><g stroke-linecap="round"><g transform="translate(126.72300390035275 179.9727408388635) rotate(0 106.46316332635797 0)"><path d="M-0.03 -0.55 C35.75 -0.53, 178.03 -0.75, 213.55 -0.62 M-1.5 1.77 C34.26 2.01, 177.28 0.61, 212.93 0.6" stroke="#1e1e1e" stroke-width="1" fill="none"></path></g><g transform="translate(126.72300390035275 179.9727408388635) rotate(0 106.46316332635797 0)"><path d="M189.48 9.28 C193.51 8.51, 198.31 5.92, 212.93 0.6 M189.48 9.28 C196.35 6.49, 205.21 4.35, 212.93 0.6" stroke="#1e1e1e" stroke-width="1" fill="none"></path></g><g transform="translate(126.72300390035275 179.9727408388635) rotate(0 106.46316332635797 0)"><path d="M189.39 -7.82 C193.33 -5.02, 198.14 -4.04, 212.93 0.6 M189.39 -7.82 C196.22 -5.15, 205.12 -1.82, 212.93 0.6" stroke="#1e1e1e" stroke-width="1" fill="none"></path></g></g><mask></mask><g transform="translate(50.85740318480612 63.41759573350055) rotate(329.99999999999994 73.86990356445312 25)"><text x="0" y="0" font-family="Virgil, Segoe UI Emoji" font-size="20px" fill="#1e1e1e" text-anchor="start" style="white-space: pre;" direction="ltr" dominant-baseline="text-before-edge">A = 4 days </text><text x="0" y="25" font-family="Virgil, Segoe UI Emoji" font-size="20px" fill="#1e1e1e" text-anchor="start" style="white-space: pre;" direction="ltr" dominant-baseline="text-before-edge">Res = 6 units </text></g><g transform="translate(261.87612469553983 69.10008507649673) rotate(44.99999999999995 73.64990234375 25)"><text x="0" y="0" font-family="Virgil, Segoe UI Emoji" font-size="20px" fill="#1e1e1e" text-anchor="start" style="white-space: pre;" direction="ltr" dominant-baseline="text-before-edge">B = 6 days </text><text x="0" y="25" font-family="Virgil, Segoe UI Emoji" font-size="20px" fill="#1e1e1e" text-anchor="start" style="white-space: pre;" direction="ltr" dominant-baseline="text-before-edge">Res = 5 units </text></g><g transform="translate(146.28995541346967 131.4573036517154) rotate(0 73.86990356445312 25)"><text x="0" y="0" font-family="Virgil, Segoe UI Emoji" font-size="20px" fill="#1e1e1e" text-anchor="start" style="white-space: pre;" direction="ltr" dominant-baseline="text-before-edge">C = 10 days </text><text x="0" y="25" font-family="Virgil, Segoe UI Emoji" font-size="20px" fill="#1e1e1e" text-anchor="start" style="white-space: pre;" direction="ltr" dominant-baseline="text-before-edge">Res = 4 units </text></g><g transform="translate(80.07092520883862 242.56098754489904) rotate(29.999999999999964 75.11990356445312 25)"><text x="0" y="0" font-family="Virgil, Segoe UI Emoji" font-size="20px" fill="#1e1e1e" text-anchor="start" style="white-space: pre;" direction="ltr" dominant-baseline="text-before-edge">D = 5 days </text><text x="0" y="25" font-family="Virgil, Segoe UI Emoji" font-size="20px" fill="#1e1e1e" text-anchor="start" style="white-space: pre;" direction="ltr" dominant-baseline="text-before-edge">Res = 8 units </text></g><g transform="translate(271.5366100521301 226.9166705034877) rotate(329.99999999999994 74.58990478515625 25)"><text x="0" y="0" font-family="Virgil, Segoe UI Emoji" font-size="20px" fill="#1e1e1e" text-anchor="start" style="white-space: pre;" direction="ltr" dominant-baseline="text-before-edge">E = 6 days </text><text x="0" y="25" font-family="Virgil, Segoe UI Emoji" font-size="20px" fill="#1e1e1e" text-anchor="start" style="white-space: pre;" direction="ltr" dominant-baseline="text-before-edge">Res = 2 units </text></g><g stroke-linecap="round" transform="translate(10 10) rotate(0 228.0639652208107 158.38578716114353)"><path d="M32 0 C169.67 2.39, 309.26 1.28, 424.13 0 M32 0 C141.16 0.79, 249.79 -0.05, 424.13 0 M424.13 0 C446.12 0.37, 455.56 12.2, 456.13 32 M424.13 0 C444.99 -2.04, 454.59 11.39, 456.13 32 M456.13 32 C455.83 85.04, 456.57 138.28, 456.13 284.77 M456.13 32 C457.54 100.42, 457.19 168.23, 456.13 284.77 M456.13 284.77 C456.53 304.91, 443.82 317.51, 424.13 316.77 M456.13 284.77 C454.06 305.73, 443.92 317.7, 424.13 316.77 M424.13 316.77 C286.14 318.95, 148.52 317, 32 316.77 M424.13 316.77 C345.94 317.64, 266.73 316.69, 32 316.77 M32 316.77 C9.22 315.57, -1.25 306.79, 0 284.77 M32 316.77 C9.04 316.63, -1.38 308.11, 0 284.77 M0 284.77 C2.36 190.56, 0.52 97.27, 0 32 M0 284.77 C-0.53 216.5, 0.07 147.66, 0 32 M0 32 C0.45 11.86, 10.19 -0.68, 32 0 M0 32 C-1.35 8.71, 8.38 0.85, 32 0" stroke="#1e1e1e" stroke-width="1" fill="none"></path></g></svg>