<svg version="1.1" xmlns="http://www.w3.org/2000/svg" viewBox="0 0 913.2307316706734 732.3076453575725" width="913.2307316706734" height="732.3076453575725">
  <!-- svg-source:excalidraw -->
  
  <defs>
    <style class="style-fonts">
      @font-face {
        font-family: "Virgil";
        src: url("https://excalidraw.com/Virgil.woff2");
      }
      @font-face {
        font-family: "Cascadia";
        src: url("https://excalidraw.com/Cascadia.woff2");
      }
      @font-face {
        font-family: "Assistant";
        src: url("https://excalidraw.com/Assistant-Regular.woff2");
      }
    </style>
    <clipPath id="VygyhGAlRlCdyyI2TRAmk">
            <rect transform="translate(0 0) rotate(0 456.6153658353367 366.15382267878624)" width="913.2307316706734" height="732.3076453575725">
          </rect>
        </clipPath>
  </defs>
  <rect x="0" y="0" width="913.2307316706734" height="732.3076453575725" fill="#FFF"></rect><g clip-path="url(#VygyhGAlRlCdyyI2TRAmk)"><g stroke-linecap="round"><g transform="translate(120.0317427746395 68.92310584074517) rotate(0 0 311.3846056207934)"><path d="M-0.97 -0.22 C-0.97 103.37, 0.52 517.96, 0.75 621.8 M0.73 -1.39 C0.57 102.31, 0.34 518.57, 0.2 622.82" stroke="#1e1e1e" stroke-width="0.5" fill="none"></path></g></g><mask></mask></g><g clip-path="url(#VygyhGAlRlCdyyI2TRAmk)"><g stroke-linecap="round"><g transform="translate(118.41961037920669 267.0769329176685) rotate(0 340.92306283804106 0)"><path d="M-0.8 -1 C112.69 -0.78, 567.69 0.89, 681.54 0.93 M0.98 1.08 C114.23 1.02, 566.97 -0.55, 680.43 -0.7" stroke="#1e1e1e" stroke-width="0.5" fill="none"></path></g></g><mask></mask></g><g clip-path="url(#VygyhGAlRlCdyyI2TRAmk)"><g transform="translate(394.7896326370193 191.99998167067338) rotate(0 8.61534705528851 89.84619140625)" stroke="none"><path fill="#1e1e1e" d="M -0.35,-0.71 Q -0.35,-0.71 0.33,-1.10 1.02,-1.48 2.44,-1.98 3.85,-2.47 5.88,-3.03 7.91,-3.59 9.88,-3.83 11.85,-4.06 13.39,-4.16 14.93,-4.25 18.79,-4.29 22.64,-4.32 25.07,-3.61 27.51,-2.90 31.72,-1.18 35.92,0.53 38.82,2.35 41.71,4.17 45.11,8.19 48.51,12.20 51.73,18.18 54.95,24.16 57.03,29.90 59.11,35.65 60.70,40.56 62.28,45.47 62.97,53.29 63.66,61.11 63.94,69.37 64.23,77.63 62.22,88.99 60.22,100.35 57.58,108.03 54.95,115.70 49.20,125.03 43.46,134.35 34.62,143.30 25.77,152.24 18.45,157.47 11.13,162.70 4.12,166.69 -2.89,170.69 -15.47,174.53 -28.06,178.37 -37.32,181.19 -46.57,184.01 -46.68,184.02 -46.78,184.04 -46.89,184.02 -46.99,184.00 -47.08,183.94 -47.18,183.89 -47.25,183.81 -47.32,183.73 -47.36,183.63 -47.40,183.54 -47.41,183.43 -47.42,183.32 -47.39,183.22 -47.37,183.12 -47.31,183.03 -47.25,182.94 -47.17,182.87 -47.09,182.81 -46.99,182.77 -46.89,182.73 -46.78,182.73 -46.67,182.73 -46.57,182.76 -46.47,182.79 -46.38,182.85 -46.30,182.92 -46.24,183.00 -46.18,183.09 -46.14,183.19 -46.11,183.29 -46.12,183.40 -46.12,183.51 -46.16,183.60 -46.19,183.70 -46.26,183.79 -46.33,183.87 -46.42,183.93 -46.51,183.98 -46.61,184.01 -46.71,184.03 -46.82,184.03 -46.92,184.02 -47.02,183.97 -47.12,183.93 -47.20,183.86 -47.28,183.79 -47.33,183.70 -47.38,183.60 -47.40,183.50 -47.42,183.40 -47.41,183.29 -47.39,183.19 -47.34,183.09 -47.30,183.00 -47.22,182.92 -47.15,182.85 -47.05,182.80 -46.96,182.75 -46.96,182.75 -46.96,182.75 -37.70,179.93 -28.44,177.11 -15.99,173.33 -3.53,169.54 3.42,165.59 10.37,161.63 17.61,156.47 24.84,151.32 33.59,142.48 42.35,133.65 48.03,124.46 53.71,115.27 56.31,107.69 58.92,100.11 60.92,88.89 62.91,77.67 62.63,69.45 62.34,61.22 61.68,53.55 61.02,45.87 59.44,40.99 57.86,36.10 55.82,30.44 53.78,24.78 50.63,18.92 47.48,13.05 44.23,9.18 40.97,5.30 38.19,3.55 35.41,1.79 31.26,0.10 27.12,-1.58 24.88,-2.25 22.64,-2.92 18.83,-2.87 15.03,-2.82 13.53,-2.71 12.03,-2.60 10.18,-2.35 8.33,-2.11 6.37,-1.53 4.42,-0.95 3.11,-0.44 1.80,0.06 1.08,0.39 0.35,0.71 0.26,0.74 0.17,0.78 0.08,0.79 -0.01,0.80 -0.11,0.78 -0.20,0.77 -0.29,0.73 -0.38,0.70 -0.46,0.64 -0.54,0.58 -0.60,0.51 -0.66,0.44 -0.71,0.35 -0.75,0.26 -0.77,0.17 -0.79,0.08 -0.79,-0.01 -0.79,-0.11 -0.76,-0.20 -0.74,-0.29 -0.69,-0.38 -0.65,-0.46 -0.58,-0.53 -0.51,-0.60 -0.43,-0.66 -0.35,-0.71 -0.35,-0.71 L -0.35,-0.71 Z"></path></g></g><g clip-path="url(#VygyhGAlRlCdyyI2TRAmk)"><g transform="translate(362.789557516827 349.538480769231) rotate(0 -1.2307504507211888 22.15383676382214)" stroke="none"><path fill="#1e1e1e" d="M 0.80,0 Q 0.80,0 0.84,0.71 0.88,1.43 0.48,2.56 0.07,3.70 -0.46,4.86 -1.00,6.02 -1.59,7.21 -2.17,8.40 -2.78,9.61 -3.39,10.83 -4.01,12.05 -4.62,13.27 -5.27,14.18 -5.91,15.10 -6.88,16.53 -7.85,17.95 -8.63,18.93 -9.41,19.91 -10.46,21.05 -11.51,22.18 -12.28,23.33 -13.05,24.47 -13.79,25.09 -14.53,25.70 -15.13,26.26 -15.72,26.82 -15.90,27.35 -16.08,27.88 -16.69,28.35 -17.30,28.81 -17.86,28.91 -18.42,29.02 -18.82,29.45 -19.22,29.89 -19.31,30.00 -19.39,30.12 -19.51,30.21 -19.62,30.30 -19.75,30.36 -19.88,30.42 -20.02,30.44 -20.16,30.47 -20.31,30.47 -20.45,30.46 -20.59,30.42 -20.72,30.38 -20.85,30.30 -20.97,30.23 -21.08,30.13 -21.18,30.03 -21.25,29.91 -21.33,29.78 -21.37,29.65 -21.42,29.51 -21.43,29.37 -21.44,29.22 -21.41,29.08 -21.39,28.94 -21.33,28.81 -21.27,28.68 -20.38,28.51 -19.48,28.34 -18.56,28.40 -17.64,28.45 -16.46,28.51 -15.27,28.58 -13.62,28.98 -11.96,29.39 -10.64,29.56 -9.32,29.74 -6.55,30.54 -3.79,31.35 -1.57,32.05 0.63,32.74 3.02,33.76 5.41,34.79 7.50,35.94 9.59,37.09 10.85,37.95 12.10,38.81 14.08,40.61 16.05,42.42 17.48,43.73 18.91,45.04 18.98,45.12 19.05,45.21 19.08,45.31 19.12,45.41 19.12,45.52 19.12,45.63 19.09,45.73 19.06,45.84 18.99,45.93 18.93,46.01 18.84,46.08 18.75,46.14 18.65,46.17 18.54,46.20 18.43,46.20 18.32,46.19 18.22,46.15 18.12,46.12 18.04,46.05 17.95,45.98 17.89,45.89 17.84,45.79 17.81,45.69 17.79,45.58 17.80,45.47 17.81,45.37 17.85,45.27 17.89,45.17 17.97,45.09 18.04,45.01 18.14,44.95 18.23,44.90 18.34,44.88 18.44,44.86 18.55,44.88 18.66,44.89 18.76,44.94 18.85,44.99 18.93,45.07 19.01,45.15 19.05,45.24 19.10,45.34 19.12,45.45 19.13,45.56 19.11,45.66 19.09,45.77 19.03,45.87 18.98,45.96 18.90,46.03 18.81,46.10 18.71,46.15 18.61,46.19 18.50,46.20 18.40,46.20 18.29,46.18 18.19,46.15 18.09,46.09 18.00,46.03 18.00,46.03 18.00,46.03 16.57,44.72 15.13,43.42 13.23,41.68 11.33,39.94 10.12,39.13 8.92,38.32 6.88,37.21 4.85,36.10 2.52,35.13 0.20,34.15 -2.00,33.49 -4.21,32.82 -6.85,32.08 -9.50,31.34 -10.93,31.21 -12.35,31.07 -13.83,30.76 -15.30,30.45 -16.50,30.49 -17.69,30.53 -19.03,30.52 -20.37,30.51 -19.80,30.20 -19.22,29.89 -19.31,30.00 -19.39,30.12 -19.51,30.21 -19.62,30.30 -19.75,30.36 -19.88,30.42 -20.02,30.44 -20.16,30.47 -20.31,30.47 -20.45,30.46 -20.59,30.42 -20.72,30.38 -20.85,30.30 -20.97,30.23 -21.08,30.13 -21.18,30.03 -21.25,29.91 -21.33,29.78 -21.37,29.65 -21.42,29.51 -21.43,29.37 -21.44,29.22 -21.41,29.08 -21.39,28.94 -21.33,28.81 -21.28,28.68 -20.73,28.47 -20.19,28.26 -19.75,27.76 -19.31,27.27 -18.43,27.12 -17.56,26.96 -17.19,26.31 -16.82,25.65 -16.11,25.07 -15.41,24.50 -14.77,24.10 -14.14,23.71 -13.32,22.49 -12.50,21.27 -11.48,20.17 -10.47,19.07 -9.72,18.13 -8.98,17.19 -8.01,15.75 -7.04,14.31 -6.46,13.47 -5.88,12.64 -5.28,11.42 -4.69,10.19 -4.10,8.97 -3.52,7.76 -2.97,6.57 -2.43,5.38 -1.95,4.27 -1.48,3.15 -1.18,2.27 -0.88,1.39 -0.84,0.69 -0.80,0 -0.79,-0.09 -0.78,-0.19 -0.74,-0.28 -0.71,-0.37 -0.65,-0.45 -0.60,-0.53 -0.52,-0.59 -0.45,-0.66 -0.37,-0.70 -0.28,-0.75 -0.19,-0.77 -0.09,-0.79 0.00,-0.79 0.09,-0.79 0.19,-0.77 0.28,-0.75 0.37,-0.70 0.45,-0.66 0.52,-0.59 0.60,-0.53 0.65,-0.45 0.71,-0.37 0.74,-0.28 0.78,-0.19 0.79,-0.09 0.80,0.00 0.80,0.00 L 0.80,0 Z"></path></g></g><g clip-path="url(#VygyhGAlRlCdyyI2TRAmk)"><g stroke-linecap="round"><g transform="translate(790.1113015492791 23.384587214543444) rotate(0 0 122.38836065114185)"><path d="M-0.56 1.03 C-0.93 41.58, -1.11 203.59, -1.11 244.24 M1.35 0.53 C1.24 41.15, 1.51 204.53, 1.02 245.5" stroke="#1e1e1e" stroke-width="0.5" fill="none"></path></g><g transform="translate(790.1113015492791 23.384587214543444) rotate(0 0 122.38836065114185)"><path d="M-9.12 217.27 C-3.18 226.6, -1.79 238.66, 1.02 245.5 M-9.12 217.27 C-5.95 227.08, -1.83 234.78, 1.02 245.5" stroke="#1e1e1e" stroke-width="0.5" fill="none"></path></g><g transform="translate(790.1113015492791 23.384587214543444) rotate(0 0 122.38836065114185)"><path d="M11.4 217.35 C9.25 226.55, 2.55 238.58, 1.02 245.5 M11.4 217.35 C8.12 227.08, 5.8 234.75, 1.02 245.5" stroke="#1e1e1e" stroke-width="0.5" fill="none"></path></g></g><mask></mask></g><g clip-path="url(#VygyhGAlRlCdyyI2TRAmk)"><g stroke-linecap="round"><g transform="translate(458.7895944831732 398.7692025991589) rotate(0 0 83.69229830228369)"><path d="M0.49 -0.68 C0.55 27.24, 0.72 138.52, 0.76 166.64 M-0.72 1.58 C-0.78 29.71, 0.03 140.37, 0.21 167.78" stroke="#1e1e1e" stroke-width="0.5" fill="none"></path></g></g><mask></mask></g><g clip-path="url(#VygyhGAlRlCdyyI2TRAmk)"><g stroke-linecap="round"><g transform="translate(120.13795162102588 476.373955302284) rotate(0 169.84616800799677 0)"><path d="M0.89 -1.15 C57.24 -0.95, 282.06 1.15, 338.5 1.19 M-0.11 0.86 C56.56 0.76, 284.12 -0.15, 340.58 -0.31" stroke="#1e1e1e" stroke-width="0.5" fill="none"></path></g></g><mask></mask></g><g clip-path="url(#VygyhGAlRlCdyyI2TRAmk)"><g stroke-linecap="round"><g transform="translate(460.71701866522517 477.5599049301038) rotate(0 169.84616800799677 0)"><path d="M0.04 -1.11 C56.61 -1.22, 282.8 -0.14, 339.48 -0.01 M-1.4 0.93 C54.98 0.95, 281.6 1.54, 338.41 1.52" stroke="#1e1e1e" stroke-width="0.5" fill="none"></path></g></g><mask></mask></g><g clip-path="url(#VygyhGAlRlCdyyI2TRAmk)"><g stroke-linecap="round"><g transform="translate(459.55073113841036 264.61538456541143) rotate(0 0 83.69229830228369)"><path d="M-0.41 0.06 C-0.46 27.96, 0.04 138.35, 0.29 166.41" stroke="#1e1e1e" stroke-width="1" fill="none" stroke-dasharray="1.5 6.5"></path></g></g><mask></mask></g><g clip-path="url(#VygyhGAlRlCdyyI2TRAmk)"><g stroke-linecap="round"><g transform="translate(792.432319772937 402.23778287380264) rotate(0 0 83.69229830228369)"><path d="M0.34 -0.6 C0.35 27.42, 0.4 140.1, 0.35 168.19 M-0.95 1.69 C-1.09 29.37, -0.46 139.12, -0.41 166.48" stroke="#1e1e1e" stroke-width="0.5" fill="none"></path></g></g><mask></mask></g><g clip-path="url(#VygyhGAlRlCdyyI2TRAmk)"><g stroke-linecap="round"><g transform="translate(793.1934564281742 268.08396484005516) rotate(0 0 83.69229830228369)"><path d="M0.35 0.8 C0.31 28.89, 0.04 140.01, 0.07 167.93" stroke="#1e1e1e" stroke-width="1" fill="none" stroke-dasharray="1.5 6.5"></path></g></g><mask></mask></g><g clip-path="url(#VygyhGAlRlCdyyI2TRAmk)"><g transform="translate(261.47053116466356 486.0281072253608) rotate(0 28.90384967510522 24.49481320000018)"><text x="0" y="0" font-family="Virgil, Segoe UI Emoji" font-size="39.1917011200003px" fill="#1e1e1e" text-anchor="start" style="white-space: pre;" direction="ltr" dominant-baseline="text-before-edge">l/2</text></g></g><g clip-path="url(#VygyhGAlRlCdyyI2TRAmk)"><g transform="translate(600.8510787756161 486.02810724531287) rotate(0 28.903849675105214 24.49481320000018)"><text x="0" y="0" font-family="Virgil, Segoe UI Emoji" font-size="39.1917011200003px" fill="#1e1e1e" text-anchor="start" style="white-space: pre;" direction="ltr" dominant-baseline="text-before-edge">l/2</text></g></g><g clip-path="url(#VygyhGAlRlCdyyI2TRAmk)"><g stroke-linecap="round" transform="translate(319.27823062102595 281.8461733355407) rotate(0 30.986432500000006 33.003221499999995)"><path d="M24.33 1.18 C30.05 -0.3, 39.11 1.03, 44.65 3.72 C50.19 6.4, 54.7 11.79, 57.57 17.26 C60.44 22.74, 62.41 30.1, 61.88 36.57 C61.34 43.04, 58.65 51.33, 54.35 56.1 C50.05 60.86, 42.31 64.03, 36.1 65.17 C29.89 66.31, 22.52 65.79, 17.09 62.95 C11.67 60.11, 6.25 53.82, 3.53 48.13 C0.81 42.44, -0.15 35.05, 0.76 28.82 C1.68 22.6, 3.71 15.56, 9.02 10.8 C14.32 6.03, 27.19 1.8, 32.6 0.24 C38.02 -1.33, 41.43 0.8, 41.49 1.39 M20.44 3.01 C25.84 0.72, 34.46 0.54, 40.05 2.1 C45.63 3.65, 50.4 7.51, 53.95 12.31 C57.49 17.11, 60.61 24.69, 61.31 30.88 C62.01 37.06, 61.41 44.17, 58.13 49.43 C54.86 54.69, 47.67 60.07, 41.64 62.44 C35.61 64.82, 27.51 65.13, 21.95 63.68 C16.39 62.24, 11.84 58.73, 8.27 53.78 C4.7 48.83, 1.01 40.25, 0.53 33.99 C0.04 27.74, 2.03 21.58, 5.35 16.24 C8.67 10.9, 18.04 4.39, 20.43 1.97 C22.83 -0.45, 19.93 1.22, 19.75 1.73" stroke="#1e1e1e" stroke-width="0.5" fill="none"></path></g></g><g clip-path="url(#VygyhGAlRlCdyyI2TRAmk)"><g transform="translate(347.64394749102405 302.51259311188915) rotate(0 2.7099990844726562 12.5)"><text x="2.7099990844726562" y="0" font-family="Virgil, Segoe UI Emoji" font-size="20px" fill="#1e1e1e" text-anchor="middle" style="white-space: pre;" direction="ltr" dominant-baseline="text-before-edge">1</text></g></g><g clip-path="url(#VygyhGAlRlCdyyI2TRAmk)"><g stroke-linecap="round" transform="translate(830.8597400276444 155.30446148377405) rotate(0 30.986432500000006 33.003221499999995)"><path d="M25.91 -0.68 C31.6 -1.9, 40.66 1.29, 46.14 4.52 C51.61 7.74, 56.17 12.79, 58.77 18.65 C61.36 24.51, 62.8 33.4, 61.73 39.66 C60.66 45.92, 56.72 52, 52.35 56.21 C47.97 60.41, 41.55 64.08, 35.48 64.89 C29.4 65.7, 21.22 64.15, 15.9 61.09 C10.58 58.03, 6.12 52.21, 3.56 46.52 C1.01 40.82, -0.33 33.31, 0.59 26.92 C1.51 20.54, 3.64 12.77, 9.08 8.2 C14.52 3.62, 28.21 0.55, 33.21 -0.52 C38.21 -1.58, 39.11 1.16, 39.1 1.81 M42.6 2.18 C47.85 3.92, 52.52 9.01, 55.9 14.05 C59.28 19.09, 63.05 25.82, 62.86 32.42 C62.68 39.01, 58.6 48.28, 54.77 53.61 C50.94 58.95, 45.37 62.44, 39.89 64.43 C34.41 66.42, 27.39 67.65, 21.91 65.55 C16.44 63.46, 10.93 57.29, 7.04 51.87 C3.15 46.46, -1.42 39.47, -1.41 33.06 C-1.4 26.65, 3.04 18.83, 7.1 13.41 C11.16 7.99, 17.2 2.4, 22.95 0.57 C28.69 -1.27, 38.44 2.29, 41.59 2.39 C44.73 2.49, 41.85 0.88, 41.81 1.15" stroke="#1e1e1e" stroke-width="0.5" fill="none"></path></g></g><g clip-path="url(#VygyhGAlRlCdyyI2TRAmk)"><g transform="translate(854.8154608649277 175.9708812601225) rotate(0 7.1199951171875 12.5)"><text x="7.1199951171875" y="0" font-family="Virgil, Segoe UI Emoji" font-size="20px" fill="#1e1e1e" text-anchor="middle" style="white-space: pre;" direction="ltr" dominant-baseline="text-before-edge">2</text></g></g><g stroke-linecap="round"><g transform="translate(113.23077862079333 108.49608676923094) rotate(0 -74.31853016449202 128.7234701887404)"><path d="M-0.24 0.33 C-25.1 43.41, -123.97 214.68, -148.81 257.66 M-1.82 -0.54 C-26.88 42.22, -125.09 212.84, -149.86 255.65" stroke="#1e1e1e" stroke-width="0.5" fill="none"></path></g></g><mask></mask><g stroke-linecap="round"><g transform="translate(117.62174365746148 186.03453914830106) rotate(0 -74.31853016449202 128.7234701887404)"><path d="M-1.05 1.03 C-25.75 44.21, -123.52 215.97, -148.01 258.52 M0.6 0.52 C-24.22 43.44, -123.8 214.2, -148.63 256.96" stroke="#1e1e1e" stroke-width="0.5" fill="none"></path></g></g><mask></mask><g stroke-linecap="round"><g transform="translate(117.62174334976908 300.0323221483011) rotate(0 -74.31853016449202 128.7234701887404)"><path d="M0.68 -0.14 C-23.94 42.84, -123 214.01, -147.98 256.75 M-0.42 -1.25 C-25.12 41.96, -123.6 214.88, -148.59 257.93" stroke="#1e1e1e" stroke-width="0.5" fill="none"></path></g></g><mask></mask><g stroke-linecap="round"><g transform="translate(112.32571891164002 377.52788017005673) rotate(0 -74.31853016449202 128.7234701887404)"><path d="M0.68 0.58 C-23.91 43.48, -122.85 215.48, -147.73 258.39 M-0.42 -0.16 C-25.08 42.94, -123.38 214.07, -148.2 256.76" stroke="#1e1e1e" stroke-width="0.5" fill="none"></path></g></g><mask></mask><g stroke-linecap="round"><g transform="translate(116.71668394830817 455.0663325491271) rotate(0 -74.31853016449202 128.7234701887404)"><path d="M0.91 0.94 C-23.98 43.85, -123.65 215.14, -148.63 258.01 M-0.08 0.39 C-25.18 42.89, -124.6 213.55, -149.57 256.18" stroke="#1e1e1e" stroke-width="0.5" fill="none"></path></g></g><mask></mask><g stroke-linecap="round"><g transform="translate(116.71668364061588 569.0641155491269) rotate(0 -74.31853016449202 128.7234701887404)"><path d="M0.01 0.56 C-24.97 43.42, -124.36 215.17, -148.96 258.11 M-1.44 -0.19 C-26.69 42.24, -125.69 213.6, -150.07 256.34" stroke="#1e1e1e" stroke-width="0.5" fill="none"></path></g></g><mask></mask></svg>
