<svg version="1.1" xmlns="http://www.w3.org/2000/svg" viewBox="0 0 1047.227730285066 627.0378352268781" width="3141.6831908551976" height="1881.1135056806343">
  <!-- svg-source:excalidraw -->
  
  <defs>
    <style class="style-fonts">
      @font-face {
        font-family: "Virgil";
        src: url("https://excalidraw.com/Virgil.woff2");
      }
      @font-face {
        font-family: "Cascadia";
        src: url("https://excalidraw.com/Cascadia.woff2");
      }
      @font-face {
        font-family: "Assistant";
        src: url("https://excalidraw.com/Assistant-Regular.woff2");
      }
    </style>
    
  </defs>
  <rect x="0" y="0" width="1047.227730285066" height="627.0378352268781" fill="#ffffff"></rect><g stroke-linecap="round"><g transform="translate(142.3970867675671 91.87595893674097) rotate(0 247.3015672751012 0.5620565596814231)"><path d="M1.07 0.25 C83.83 0.45, 413.05 1.41, 495.44 1.55 M0.17 -0.67 C82.94 -0.86, 412.45 -0.85, 494.93 -0.35" stroke="#1e1e1e" stroke-width="1" fill="none"></path></g></g><mask></mask><g stroke-linecap="round"><g transform="translate(637.5058601493411 89.60059129086085) rotate(0 0 231.00215860141384)"><path d="M-0.73 -0.25 C-0.85 76.74, -0.94 384.64, -0.82 461.75 M1.09 -1.42 C1.36 75.77, 1.77 386.21, 1.46 463.15" stroke="#1e1e1e" stroke-width="1" fill="none"></path></g></g><mask></mask><g stroke-linecap="round"><g transform="translate(636.3817277335552 545.9844007861425) rotate(0 -241.98255563550754 0.26890565106555187)"><path d="M-0.15 0.5 C-80.74 0.75, -402.82 1.56, -483.36 1.72 M-1.69 -0.29 C-82.39 -0.35, -403.63 0.23, -483.99 0.22" stroke="#1e1e1e" stroke-width="1" fill="none"></path></g></g><mask></mask><g stroke-linecap="round"><g transform="translate(638.7703385651268 545.6427859101686) rotate(0 165.80451425845297 0)"><path d="M1.15 0.01 C56.53 0.01, 276.71 0.35, 331.72 0.41 M0.3 -1.03 C55.57 -1.43, 275.84 -1.37, 330.83 -1.5" stroke="#1e1e1e" stroke-width="1" fill="none"></path></g></g><mask></mask><g stroke-linecap="round"><g transform="translate(970.493084082033 549.374981861853) rotate(0 -165.80451425845285 -229.32515802223747)"><path d="M0.63 0.54 C-54.4 -75.97, -276.03 -382.68, -331.22 -459.2 M-0.5 -0.22 C-55.56 -76.57, -276.92 -381.78, -331.96 -457.95" stroke="#1e1e1e" stroke-width="1" fill="none"></path></g></g><mask></mask><g stroke-linecap="round"><g transform="translate(98.56642106279742 53.62947317824319) rotate(0 -1.1240938229399262 50.584414996529404)"><path d="M0.47 0.04 C-0.04 16.72, -2.01 83.38, -2.48 100.18 M-0.74 -0.99 C-1.48 15.81, -3.14 84.03, -3.54 101.21" stroke="#1e1e1e" stroke-width="1" fill="none"></path></g></g><mask></mask><g stroke-linecap="round"><g transform="translate(100.8146858943694 54.75354770476042) rotate(0 21.357859821551756 19.109681823883193)"><path d="M-0.75 -0.7 C6.48 5.51, 35.55 30.77, 42.82 37.45 M1.06 1.55 C8.18 7.88, 35.07 32.57, 41.92 38.58" stroke="#1e1e1e" stroke-width="1" fill="none"></path></g></g><mask></mask><g stroke-linecap="round"><g transform="translate(92.94599054094351 150.30188928669622) rotate(0 25.854235113311688 -28.664488967084708)"><path d="M0.22 -0.47 C8.83 -10.08, 43.5 -48.72, 52.25 -58.15 M-1.12 -1.77 C7.33 -11.2, 42.65 -48.07, 51.59 -57.04" stroke="#1e1e1e" stroke-width="1" fill="none"></path></g></g><mask></mask><g stroke-linecap="round"><g transform="translate(108.01948470280513 504.29415455246954) rotate(0 -1.1240938229399262 50.584414996529404)"><path d="M-0.95 0.21 C-1.12 17.26, -1.61 84.94, -1.75 101.64 M0.75 -0.73 C0.53 16.02, -1.93 82.76, -2.44 99.76" stroke="#1e1e1e" stroke-width="1" fill="none"></path></g></g><mask></mask><g stroke-linecap="round"><g transform="translate(110.26774953437734 505.4182290789863) rotate(0 21.357859821551756 19.109681823883193)"><path d="M0.5 0.47 C7.85 6.67, 36.24 30.93, 43.17 37.42 M-0.7 -0.33 C6.62 5.98, 35.51 32.2, 42.47 38.53" stroke="#1e1e1e" stroke-width="1" fill="none"></path></g></g><mask></mask><g stroke-linecap="round"><g transform="translate(102.39905418095168 600.9665706609226) rotate(0 25.854235113311688 -28.664488967084708)"><path d="M0.46 -0.8 C8.89 -10.24, 42.72 -46.93, 51.1 -56.17 M-0.76 1.39 C8.03 -8.39, 44.51 -47.78, 53.49 -57.68" stroke="#1e1e1e" stroke-width="1" fill="none"></path></g></g><mask></mask><g stroke-linecap="round"><g transform="translate(41.06209002893502 110.83751743213224) rotate(89.74420820560155 58.453110349955296 0)"><path d="M-0.41 1.13 C18.71 1.21, 96.35 0.39, 115.83 0.3 M1.58 0.68 C20.95 0.4, 99 -1.3, 117.98 -1.66" stroke="#1e1e1e" stroke-width="1" fill="none"></path></g></g><mask></mask><g stroke-linecap="round"><g transform="translate(95.3128571284451 11.504169341467787) rotate(89.74420820560155 -28.945522071031178 28.945522071031064)"><path d="M-1.08 0.3 C-10.73 9.86, -48.92 48.8, -58.34 58.47 M0.56 -0.58 C-9.26 9.13, -49.73 47.18, -59.52 56.65" stroke="#1e1e1e" stroke-width="1" fill="none"></path></g></g><mask></mask><g stroke-linecap="round"><g transform="translate(90.99005041258829 55.20088388706699) rotate(89.74420820560155 -40.18651818969988 40.18651818969988)"><path d="M-0.45 0.58 C-13.61 14, -66.89 67.59, -80.06 80.81 M1.52 -0.17 C-11.68 12.86, -67.3 65.39, -80.85 78.92" stroke="#1e1e1e" stroke-width="1" fill="none"></path></g></g><mask></mask><g stroke-linecap="round"><g transform="translate(99.72661308141255 29.568519346539688) rotate(89.74420820560155 -37.93833054382003 37.93833054382003)"><path d="M0.91 -0.46 C-11.85 12.09, -63.54 63.07, -76.23 75.7 M-0.07 -1.74 C-13.05 10.95, -64.77 64.13, -77.36 77.15" stroke="#1e1e1e" stroke-width="1" fill="none"></path></g></g><mask></mask><g stroke-linecap="round"><g transform="translate(104.9903581727433 489.1022705594273) rotate(0 -1.1240938229399262 50.584414996529404)"><path d="M0.41 -0.37 C-0.2 16.52, -2.76 84.04, -3.01 100.79 M-0.84 -1.61 C-1.11 15.51, -0.63 85.04, -0.69 102.12" stroke="#1e1e1e" stroke-width="1" fill="none"></path></g></g><mask></mask><g stroke-linecap="round"><g transform="translate(47.4860271388809 546.3103148133164) rotate(89.74420820560155 58.453110349955296 0)"><path d="M-0.76 -0.38 C18.85 -0.49, 98.28 -1.12, 118.08 -1.04 M1.04 -1.63 C20.56 -1.59, 98.27 -0.56, 117.74 -0.05" stroke="#1e1e1e" stroke-width="1" fill="none"></path></g></g><mask></mask><g stroke-linecap="round"><g transform="translate(101.73679423839098 446.97696672265147) rotate(89.74420820560155 -28.945522071031178 28.945522071031064)"><path d="M1.17 -1.04 C-8.16 8.69, -46.99 47.97, -56.75 57.99 M0.33 1.03 C-9 11.01, -47.4 50.19, -57.09 59.57" stroke="#1e1e1e" stroke-width="1" fill="none"></path></g></g><mask></mask><g stroke-linecap="round"><g transform="translate(108.58677652253436 507.51947126825144) rotate(89.74420820560155 -40.18651818969988 40.18651818969988)"><path d="M1.15 0.1 C-12.36 13.86, -66.43 68.01, -79.85 81.55 M0.29 -0.9 C-13.43 12.65, -67.21 66.65, -80.52 80.05" stroke="#1e1e1e" stroke-width="1" fill="none"></path></g></g><mask></mask><g stroke-linecap="round"><g transform="translate(106.15055019135866 465.04131672772337) rotate(89.74420820560155 -37.93833054382003 37.93833054382003)"><path d="M1.02 0.97 C-11.55 13.23, -61.91 62.29, -74.89 74.76 M0.09 0.43 C-12.59 13.3, -62.89 62.94, -75.32 75.71" stroke="#1e1e1e" stroke-width="1" fill="none"></path></g></g><mask></mask><g stroke-linecap="round"><g transform="translate(373.3015978189526 93.03149063990077) rotate(0 0 227.7669547509729)"><path d="M0.99 -1.1 C1 75.09, -0.84 380.3, -1.03 456.6 M0.06 0.93 C0.52 76.87, 1.32 379.36, 1.14 455.04" stroke="#1e1e1e" stroke-width="1" fill="none"></path></g></g><mask></mask><g stroke-linecap="round"><g transform="translate(370.22364279290696 549.59133818502) rotate(0 -114.90942862770919 -230.84486574685434)"><path d="M0.95 -0.48 C-37.65 -77.08, -192.26 -383.89, -230.58 -460.72 M0 -1.78 C-38.31 -78.6, -190.05 -385.96, -228.27 -462.34" stroke="#1e1e1e" stroke-width="1" fill="none"></path></g></g><mask></mask><g stroke-linecap="round"><g transform="translate(151.6905267019722 541.3835520465818) rotate(0 110.29256653690322 -223.66303526365527)"><path d="M0.07 -0.61 C36.68 -75.14, 183.89 -372.08, 220.67 -446.7 M-1.35 1.68 C35.02 -73.23, 182.86 -373.62, 219.77 -448.49" stroke="#1e1e1e" stroke-width="1" fill="none"></path></g></g><mask></mask><g stroke-linecap="round"><g transform="translate(374.32753586212607 94.05748151927128) rotate(0 131.32510657697912 227.25395931128764)"><path d="M-1.18 0.62 C42.83 76.23, 219.63 378.17, 263.41 453.72 M0.4 -0.1 C44.38 75.63, 218.97 379.01, 262.87 454.84" stroke="#1e1e1e" stroke-width="1" fill="none"></path></g></g><mask></mask><g stroke-linecap="round"><g transform="translate(373.3015978189526 548.5654001418466) rotate(0 130.2991333096743 -227.7669547509729)"><path d="M-0.2 0.64 C43.32 -74.93, 217.51 -378.62, 261.15 -454.46 M-1.76 -0.06 C41.65 -75.87, 216.63 -380, 260.5 -456.01" stroke="#1e1e1e" stroke-width="1" fill="none"></path></g></g><mask></mask><g transform="translate(159.53498714802754 33.87778168698151) rotate(0 9.968040466308594 17.5)"><text x="0" y="0" font-family="Virgil, Segoe UI Emoji" font-size="28px" fill="#f08c00" text-anchor="start" style="white-space: pre;" direction="ltr" dominant-baseline="text-before-edge">2</text></g><g transform="translate(151.94695837656877 582.0378352268781) rotate(0 3.7940139770507812 17.5)"><text x="0" y="0" font-family="Virgil, Segoe UI Emoji" font-size="28px" fill="#f08c00" text-anchor="start" style="white-space: pre;" direction="ltr" dominant-baseline="text-before-edge">1</text></g><g transform="translate(352.11010864531795 40.446134119490125) rotate(0 9.534042358398438 17.5)"><text x="0" y="0" font-family="Virgil, Segoe UI Emoji" font-size="28px" fill="#f08c00" text-anchor="start" style="white-space: pre;" direction="ltr" dominant-baseline="text-before-edge">3</text></g><g transform="translate(631.2905006153253 49.77129637923872) rotate(0 8.960037231445312 17.5)"><text x="0" y="0" font-family="Virgil, Segoe UI Emoji" font-size="28px" fill="#f08c00" text-anchor="start" style="white-space: pre;" direction="ltr" dominant-baseline="text-before-edge">4</text></g><g transform="translate(1019.9236531366284 546.0506749929177) rotate(0 8.65203857421875 17.5)"><text x="0" y="0" font-family="Virgil, Segoe UI Emoji" font-size="28px" fill="#f08c00" text-anchor="start" style="white-space: pre;" direction="ltr" dominant-baseline="text-before-edge">5</text></g><g transform="translate(627.2705045181533 563.5506748567527) rotate(0 8.960037231445312 17.5)"><text x="0" y="0" font-family="Virgil, Segoe UI Emoji" font-size="28px" fill="#f08c00" text-anchor="start" style="white-space: pre;" direction="ltr" dominant-baseline="text-before-edge">6</text></g><g transform="translate(548.5868951504256 300.47541707510936) rotate(0 7.5320281982421875 17.5)"><text x="0" y="0" font-family="Virgil, Segoe UI Emoji" font-size="28px" fill="#f08c00" text-anchor="start" style="white-space: pre;" direction="ltr" dominant-baseline="text-before-edge">7</text></g><g transform="translate(361.56173898065504 582.0378348819486) rotate(0 10.710044860839844 17.5)"><text x="0" y="0" font-family="Virgil, Segoe UI Emoji" font-size="28px" fill="#f08c00" text-anchor="start" style="white-space: pre;" direction="ltr" dominant-baseline="text-before-edge">8</text></g><g transform="translate(284.0415358750736 317.97541676017227) rotate(0 8.526039123535156 17.5)"><text x="0" y="0" font-family="Virgil, Segoe UI Emoji" font-size="28px" fill="#f08c00" text-anchor="start" style="white-space: pre;" direction="ltr" dominant-baseline="text-before-edge">9</text></g><g stroke-linecap="round" transform="translate(134.94705081245706 84.77129621984932) rotate(0 8.720790384156203 10.052566851834854)"><path d="M7.49 0.33 C9.15 -0.17, 10.91 0.72, 12.49 1.74 C14.07 2.76, 16.2 4.43, 17 6.44 C17.8 8.45, 17.94 11.77, 17.28 13.81 C16.62 15.86, 14.77 17.68, 13.05 18.69 C11.33 19.7, 8.76 20.27, 6.96 19.87 C5.16 19.48, 3.43 17.88, 2.27 16.32 C1.11 14.76, 0 12.61, -0.01 10.5 C-0.01 8.38, 1.01 5.33, 2.27 3.63 C3.52 1.93, 6.59 0.86, 7.55 0.32 C8.5 -0.22, 7.93 0.24, 7.98 0.38 M10.83 -0.39 C12.63 -0.07, 14.59 2.51, 15.63 4.18 C16.68 5.84, 17.06 7.6, 17.11 9.57 C17.16 11.54, 17.18 14.35, 15.92 16.01 C14.67 17.68, 11.57 19.11, 9.59 19.56 C7.62 20.01, 5.56 19.83, 4.08 18.73 C2.6 17.63, 1.24 15.06, 0.73 12.95 C0.23 10.84, 0.44 8, 1.03 6.05 C1.63 4.1, 2.68 2.19, 4.3 1.27 C5.91 0.35, 9.85 0.61, 10.71 0.5 C11.58 0.39, 9.71 0.53, 9.49 0.62" stroke="none" stroke-width="0" fill="#f08c00"></path><path d="M7.47 0.06 C9.23 -0.31, 11.65 0.63, 13.27 1.81 C14.89 2.99, 16.56 5.11, 17.19 7.13 C17.82 9.14, 17.74 11.98, 17.05 13.91 C16.35 15.84, 14.67 17.66, 13.01 18.72 C11.34 19.77, 8.95 20.61, 7.04 20.25 C5.12 19.9, 2.62 18.4, 1.5 16.59 C0.39 14.77, 0.19 11.62, 0.34 9.36 C0.5 7.11, 1.19 4.7, 2.43 3.08 C3.68 1.46, 6.86 0.16, 7.83 -0.36 C8.81 -0.89, 8.3 -0.32, 8.29 -0.07 M9.75 -0.34 C11.51 -0.2, 14.34 2.02, 15.74 3.78 C17.14 5.55, 18.28 8.24, 18.14 10.26 C18 12.28, 16.26 14.43, 14.91 15.92 C13.55 17.41, 11.82 18.64, 10.02 19.2 C8.21 19.77, 5.62 20.31, 4.1 19.29 C2.59 18.27, 1.59 15.26, 0.91 13.08 C0.24 10.9, -0.41 8.04, 0.03 6.2 C0.48 4.36, 1.88 3.16, 3.58 2.05 C5.27 0.93, 9.27 -0.14, 10.22 -0.51 C11.17 -0.88, 9.34 -0.33, 9.27 -0.18" stroke="#1e1e1e" stroke-width="1" fill="none"></path></g><g stroke-linecap="round" transform="translate(361.1053054705176 82.49944318247435) rotate(0 8.720790384156203 10.052566851834854)"><path d="M9.83 0.54 C11.68 0.78, 13.94 2.12, 15.27 3.67 C16.61 5.22, 17.75 7.78, 17.82 9.84 C17.88 11.91, 16.9 14.43, 15.68 16.07 C14.45 17.72, 12.37 19.24, 10.46 19.72 C8.56 20.2, 5.84 19.98, 4.25 18.96 C2.65 17.93, 1.56 15.6, 0.89 13.57 C0.22 11.54, -0.23 8.86, 0.25 6.79 C0.72 4.73, 2.08 2.28, 3.74 1.19 C5.41 0.1, 9.07 0.46, 10.24 0.26 C11.42 0.07, 10.73 -0.17, 10.8 0.02 M10.88 -0.2 C12.61 0.09, 14.36 2.53, 15.49 4.34 C16.63 6.16, 17.8 8.62, 17.68 10.69 C17.56 12.76, 16.01 15.35, 14.75 16.78 C13.49 18.22, 11.94 18.98, 10.14 19.3 C8.33 19.63, 5.49 19.75, 3.91 18.75 C2.32 17.74, 1.17 15.3, 0.63 13.27 C0.09 11.23, -0.13 8.54, 0.67 6.53 C1.47 4.51, 3.62 2.08, 5.43 1.16 C7.25 0.25, 10.57 1.03, 11.56 1.01 C12.55 0.99, 11.5 0.99, 11.38 1.03" stroke="none" stroke-width="0" fill="#f08c00"></path><path d="M6.34 0.64 C8.01 -0.05, 10.55 0.06, 12.26 0.9 C13.96 1.75, 15.73 3.68, 16.57 5.71 C17.42 7.74, 17.82 10.91, 17.34 13.07 C16.87 15.23, 15.36 17.44, 13.72 18.65 C12.09 19.86, 9.5 20.53, 7.54 20.31 C5.59 20.09, 3.28 18.92, 1.98 17.34 C0.67 15.77, -0.17 13.06, -0.27 10.85 C-0.37 8.64, 0.21 5.89, 1.37 4.09 C2.53 2.3, 5.7 0.61, 6.69 0.06 C7.69 -0.5, 7.22 0.53, 7.36 0.75 M9.46 -0.51 C11.2 -0.45, 13.89 1.56, 15.1 3.14 C16.3 4.72, 16.62 6.99, 16.69 8.99 C16.76 10.99, 16.35 13.42, 15.51 15.16 C14.66 16.9, 13.35 18.64, 11.62 19.42 C9.9 20.19, 6.88 20.58, 5.15 19.81 C3.42 19.04, 2.13 16.7, 1.26 14.79 C0.38 12.88, -0.55 10.46, -0.12 8.34 C0.32 6.23, 2.21 3.39, 3.87 2.11 C5.52 0.82, 8.9 0.85, 9.82 0.62 C10.75 0.4, 9.66 0.65, 9.43 0.74" stroke="#1e1e1e" stroke-width="1" fill="none"></path></g><g stroke-linecap="round" transform="translate(631.2905011231899 83.27995663538377) rotate(0 8.720790384156203 10.052566851834854)"><path d="M9.87 -0.26 C11.68 -0.13, 14.13 1.69, 15.33 3.27 C16.54 4.85, 17.06 7.17, 17.1 9.23 C17.14 11.3, 16.62 13.86, 15.56 15.67 C14.5 17.48, 12.59 19.54, 10.75 20.08 C8.91 20.62, 6.17 19.85, 4.52 18.91 C2.87 17.97, 1.59 16.32, 0.85 14.43 C0.12 12.55, -0.34 9.68, 0.09 7.61 C0.53 5.55, 1.86 3.4, 3.47 2.06 C5.09 0.72, 8.62 -0.09, 9.76 -0.4 C10.9 -0.71, 10.25 -0.1, 10.32 0.18 M7.18 -0.6 C8.84 -0.75, 11.56 0.94, 13.32 2.26 C15.09 3.58, 17.21 5.23, 17.77 7.32 C18.33 9.41, 17.54 12.89, 16.67 14.82 C15.8 16.75, 14.2 17.98, 12.56 18.9 C10.91 19.81, 8.59 20.76, 6.78 20.31 C4.97 19.85, 2.93 17.91, 1.69 16.16 C0.45 14.42, -0.71 11.98, -0.67 9.83 C-0.63 7.67, 0.64 4.76, 1.94 3.24 C3.24 1.73, 6.26 1.14, 7.14 0.72 C8.02 0.31, 6.99 0.59, 7.23 0.77" stroke="none" stroke-width="0" fill="#f08c00"></path><path d="M9.44 0.2 C11.29 0.2, 13.65 1.04, 15.05 2.45 C16.44 3.86, 17.69 6.54, 17.81 8.66 C17.93 10.78, 16.82 13.32, 15.78 15.17 C14.73 17.03, 13.26 19.11, 11.53 19.79 C9.8 20.46, 7.17 20, 5.39 19.23 C3.61 18.45, 1.79 17, 0.84 15.13 C-0.11 13.27, -0.77 10.16, -0.31 8.03 C0.15 5.89, 1.96 3.68, 3.6 2.34 C5.25 0.99, 8.53 0.24, 9.57 -0.05 C10.62 -0.34, 9.91 0.32, 9.87 0.58 M10.96 0.21 C12.6 0.55, 14.54 2.86, 15.6 4.51 C16.66 6.16, 17.52 8.03, 17.32 10.1 C17.11 12.16, 15.56 15.12, 14.36 16.9 C13.16 18.68, 11.91 20.5, 10.12 20.78 C8.33 21.07, 5.24 19.97, 3.64 18.62 C2.03 17.27, 0.92 14.71, 0.51 12.7 C0.1 10.69, 0.48 8.42, 1.16 6.55 C1.83 4.67, 3.1 2.51, 4.58 1.44 C6.05 0.37, 8.88 0.4, 10 0.11 C11.12 -0.17, 11.21 -0.41, 11.29 -0.25" stroke="#1e1e1e" stroke-width="1" fill="none"></path></g><g stroke-linecap="round" transform="translate(953.6809607182752 529.8103053204463) rotate(0 8.720790384156203 10.052566851834854)"><path d="M7.73 -0.09 C9.46 -0.5, 11.55 0.56, 13.13 1.67 C14.7 2.78, 16.56 4.55, 17.2 6.57 C17.84 8.6, 17.7 11.72, 16.95 13.83 C16.2 15.95, 14.26 18.27, 12.7 19.28 C11.14 20.28, 9.35 20.27, 7.6 19.87 C5.86 19.47, 3.54 18.49, 2.24 16.88 C0.94 15.27, -0.24 12.42, -0.21 10.2 C-0.19 7.98, 1.07 5.25, 2.39 3.58 C3.72 1.91, 6.74 0.69, 7.75 0.17 C8.76 -0.36, 8.44 0.33, 8.46 0.42 M9.46 -0.44 C11.19 -0.48, 13.91 1.09, 15.31 2.66 C16.71 4.24, 17.84 6.82, 17.88 9.01 C17.91 11.19, 16.64 13.91, 15.5 15.77 C14.36 17.64, 12.95 19.7, 11.03 20.2 C9.12 20.7, 5.84 19.94, 4.03 18.76 C2.21 17.59, 0.66 15.23, 0.14 13.15 C-0.37 11.07, 0.2 8.15, 0.92 6.27 C1.64 4.39, 2.96 2.79, 4.44 1.85 C5.93 0.91, 8.94 0.96, 9.84 0.62 C10.73 0.29, 9.89 -0.32, 9.81 -0.15" stroke="none" stroke-width="0" fill="#f08c00"></path><path d="M8.7 -0.46 C10.53 -0.51, 12.79 0.86, 14.28 2.37 C15.76 3.89, 17.32 6.48, 17.61 8.63 C17.91 10.79, 17.11 13.51, 16.05 15.32 C14.98 17.14, 13.01 18.76, 11.23 19.52 C9.46 20.29, 6.97 20.71, 5.37 19.92 C3.78 19.13, 2.48 16.77, 1.67 14.8 C0.86 12.82, 0.31 10.14, 0.52 8.07 C0.74 5.99, 1.45 3.6, 2.97 2.33 C4.48 1.07, 8.45 0.83, 9.64 0.48 C10.83 0.13, 10.07 0.18, 10.11 0.22 M8.56 -0.03 C10.43 0.01, 13.79 1.37, 15.16 2.92 C16.53 4.47, 16.71 7.23, 16.77 9.27 C16.84 11.31, 16.53 13.47, 15.54 15.17 C14.54 16.86, 12.57 18.68, 10.79 19.43 C9.01 20.19, 6.56 20.6, 4.86 19.72 C3.15 18.83, 1.37 16.1, 0.56 14.14 C-0.26 12.18, -0.52 9.85, -0.04 7.96 C0.44 6.07, 1.84 4.06, 3.45 2.77 C5.05 1.48, 8.69 0.58, 9.58 0.21 C10.47 -0.17, 8.97 0.4, 8.79 0.52" stroke="#1e1e1e" stroke-width="1" fill="none"></path></g><g stroke-linecap="round" transform="translate(631.2905017638711 537.7931061842814) rotate(0 8.720790384156203 10.052566851834854)"><path d="M9.75 0.24 C11.52 0.26, 13.42 1.25, 14.62 2.78 C15.83 4.3, 16.83 7.21, 16.97 9.41 C17.12 11.61, 16.54 14.29, 15.5 15.98 C14.47 17.68, 12.47 19.08, 10.77 19.58 C9.08 20.09, 6.94 19.83, 5.33 19.02 C3.72 18.21, 1.9 16.62, 1.11 14.73 C0.32 12.84, 0.22 9.74, 0.6 7.67 C0.98 5.61, 1.86 3.57, 3.4 2.32 C4.94 1.07, 8.77 0.59, 9.86 0.18 C10.95 -0.23, 10.02 -0.29, 9.94 -0.16 M9.15 0.71 C10.98 0.57, 13.3 1.28, 14.57 2.54 C15.84 3.81, 16.59 6.21, 16.77 8.29 C16.95 10.37, 16.57 13.03, 15.66 15.01 C14.75 16.99, 13.04 19.45, 11.3 20.16 C9.56 20.88, 6.94 20.12, 5.22 19.29 C3.49 18.46, 1.85 17.05, 0.93 15.18 C0.02 13.32, -0.56 10.13, -0.27 8.09 C0.02 6.04, 1.14 4.35, 2.68 2.92 C4.22 1.5, 8.09 -0.05, 8.98 -0.48 C9.87 -0.91, 7.99 0.15, 8.03 0.35" stroke="none" stroke-width="0" fill="#f08c00"></path><path d="M7.06 0.2 C8.77 -0.33, 11.04 0.31, 12.71 1.35 C14.38 2.4, 16.38 4.47, 17.08 6.46 C17.77 8.45, 17.48 11.29, 16.87 13.27 C16.27 15.25, 15.05 17.28, 13.43 18.34 C11.81 19.4, 9.03 19.91, 7.16 19.61 C5.29 19.3, 3.46 18.06, 2.2 16.53 C0.93 14.99, -0.49 12.55, -0.44 10.39 C-0.39 8.23, 1.11 5.29, 2.5 3.57 C3.9 1.85, 6.97 0.61, 7.93 0.08 C8.9 -0.46, 8.41 0.19, 8.32 0.35 M9.82 -0.42 C11.67 -0.47, 13.95 0.49, 15.14 2.03 C16.33 3.58, 16.91 6.65, 16.96 8.86 C17.02 11.07, 16.43 13.46, 15.46 15.3 C14.5 17.14, 12.97 19.26, 11.18 19.93 C9.4 20.6, 6.55 20.29, 4.75 19.33 C2.96 18.37, 1.16 16, 0.4 14.18 C-0.37 12.36, -0.28 10.55, 0.17 8.39 C0.61 6.23, 1.52 2.62, 3.05 1.23 C4.59 -0.15, 8.46 0.16, 9.38 0.1 C10.29 0.04, 8.68 0.81, 8.56 0.87" stroke="#1e1e1e" stroke-width="1" fill="none"></path></g><g stroke-linecap="round" transform="translate(494.27614504700955 311.3739861842814) rotate(0 8.720790384156203 10.052566851834854)"><path d="M9.62 0.46 C11.35 0.49, 13.26 1.38, 14.53 2.81 C15.79 4.25, 17.05 6.86, 17.22 9.07 C17.39 11.28, 16.52 14.3, 15.55 16.06 C14.59 17.83, 13.21 19.13, 11.44 19.65 C9.68 20.18, 6.74 20.07, 4.97 19.23 C3.19 18.39, 1.57 16.5, 0.81 14.62 C0.05 12.75, -0.03 10.12, 0.42 7.98 C0.87 5.85, 1.97 3.07, 3.52 1.82 C5.08 0.57, 8.73 0.74, 9.75 0.49 C10.76 0.25, 9.62 0.19, 9.6 0.35 M10.52 -0.06 C12.51 0.18, 14.9 2.29, 16.1 3.88 C17.29 5.48, 17.88 7.43, 17.69 9.5 C17.5 11.58, 16.17 14.52, 14.96 16.35 C13.75 18.18, 12.15 20.19, 10.43 20.51 C8.72 20.82, 6.21 19.41, 4.66 18.23 C3.1 17.05, 1.8 15.45, 1.08 13.41 C0.35 11.38, -0.15 8.15, 0.32 6.01 C0.79 3.88, 2.32 1.68, 3.89 0.62 C5.45 -0.44, 8.55 -0.19, 9.7 -0.35 C10.85 -0.51, 10.61 -0.49, 10.78 -0.34" stroke="none" stroke-width="0" fill="#f08c00"></path><path d="M8.73 0.19 C10.62 0.01, 13.36 1.06, 14.8 2.46 C16.24 3.86, 17.1 6.47, 17.37 8.61 C17.64 10.75, 17.35 13.53, 16.44 15.29 C15.53 17.05, 13.68 18.48, 11.92 19.16 C10.16 19.84, 7.69 19.97, 5.86 19.38 C4.03 18.78, 1.82 17.49, 0.94 15.59 C0.06 13.69, 0.16 10.19, 0.58 7.99 C0.99 5.79, 2.02 3.76, 3.45 2.38 C4.89 1, 8.18 0, 9.18 -0.28 C10.17 -0.56, 9.35 0.57, 9.42 0.72 M10.96 0.65 C12.7 0.93, 14.41 2.47, 15.42 4.14 C16.43 5.82, 16.94 8.68, 17.02 10.7 C17.11 12.72, 17.21 14.61, 15.95 16.26 C14.69 17.91, 11.29 20.15, 9.46 20.62 C7.64 21.09, 6.41 20.38, 5.02 19.1 C3.63 17.83, 1.77 15.01, 1.12 12.97 C0.48 10.93, 0.5 8.88, 1.14 6.86 C1.78 4.83, 3.39 1.96, 4.97 0.82 C6.56 -0.33, 9.81 0.06, 10.66 0 C11.51 -0.06, 10.13 0.19, 10.07 0.44" stroke="#1e1e1e" stroke-width="1" fill="none"></path></g><g stroke-linecap="round" transform="translate(365.74750959889707 533.8999550810981) rotate(0 8.720790384156203 10.052566851834854)"><path d="M10.2 0.67 C11.99 0.92, 14.35 2.33, 15.6 4.05 C16.86 5.76, 17.84 8.73, 17.74 10.94 C17.65 13.14, 16.31 15.72, 15.02 17.26 C13.74 18.79, 11.78 19.96, 10.03 20.15 C8.27 20.33, 6.05 19.55, 4.47 18.37 C2.9 17.19, 1.12 15.06, 0.55 13.07 C-0.01 11.09, 0.48 8.53, 1.1 6.47 C1.72 4.4, 2.5 1.68, 4.27 0.69 C6.04 -0.31, 10.44 0.41, 11.7 0.5 C12.96 0.59, 11.98 1.03, 11.84 1.22 M10.65 -0.42 C12.39 -0.16, 14.3 1.39, 15.36 3.19 C16.42 4.98, 17.12 8.2, 17.02 10.33 C16.92 12.45, 15.86 14.2, 14.76 15.93 C13.65 17.65, 12.27 20.31, 10.41 20.68 C8.56 21.05, 5.16 19.48, 3.62 18.16 C2.08 16.85, 1.65 14.7, 1.2 12.79 C0.75 10.87, 0.42 8.69, 0.93 6.69 C1.44 4.69, 2.69 1.91, 4.27 0.8 C5.86 -0.31, 9.38 0.08, 10.44 0.03 C11.5 -0.02, 10.55 0.4, 10.62 0.49" stroke="none" stroke-width="0" fill="#f08c00"></path><path d="M6.31 0.24 C7.96 -0.4, 10.65 0.25, 12.37 1.17 C14.09 2.1, 15.8 3.84, 16.62 5.8 C17.43 7.76, 17.79 10.77, 17.25 12.95 C16.7 15.13, 14.98 17.74, 13.36 18.86 C11.73 19.99, 9.33 20.05, 7.49 19.71 C5.65 19.37, 3.59 18.26, 2.29 16.81 C1 15.36, -0.12 13.14, -0.28 11.01 C-0.43 8.88, 0.22 5.86, 1.37 4.04 C2.52 2.21, 5.7 0.77, 6.63 0.07 C7.57 -0.62, 6.86 -0.32, 6.97 -0.12 M9.39 -0.32 C11.01 -0.03, 13.11 2.05, 14.4 3.64 C15.69 5.22, 16.8 7.13, 17.12 9.19 C17.43 11.25, 17.38 14.16, 16.29 15.98 C15.19 17.8, 12.57 19.56, 10.53 20.1 C8.49 20.64, 5.63 20.22, 4.03 19.23 C2.43 18.25, 1.67 16.33, 0.95 14.18 C0.24 12.03, -0.81 8.4, -0.28 6.35 C0.26 4.3, 2.45 2.88, 4.16 1.87 C5.88 0.87, 9.13 0.59, 10 0.31 C10.86 0.02, 9.44 0.04, 9.36 0.16" stroke="#1e1e1e" stroke-width="1" fill="none"></path></g><g stroke-linecap="round" transform="translate(246.68789543812682 315.3702835268127) rotate(0 8.720790384156203 10.052566851834854)"><path d="M6.33 0.27 C7.98 -0.26, 10.75 0.33, 12.43 1.26 C14.1 2.19, 15.65 3.81, 16.4 5.83 C17.15 7.86, 17.42 11.23, 16.94 13.42 C16.45 15.6, 15.01 17.78, 13.49 18.96 C11.98 20.13, 9.63 20.75, 7.84 20.47 C6.04 20.19, 4.02 18.96, 2.72 17.26 C1.43 15.57, 0.31 12.58, 0.08 10.29 C-0.15 7.99, 0.19 5.15, 1.32 3.48 C2.46 1.82, 5.86 0.88, 6.89 0.3 C7.92 -0.27, 7.32 -0.1, 7.5 0.04 M7.91 -0.04 C9.51 -0.51, 11.39 0.45, 12.86 1.63 C14.33 2.81, 16.14 4.94, 16.76 7.06 C17.38 9.19, 17.33 12.4, 16.59 14.37 C15.85 16.34, 13.94 17.97, 12.32 18.9 C10.71 19.83, 8.56 20.33, 6.9 19.94 C5.25 19.55, 3.51 18.22, 2.39 16.54 C1.28 14.86, 0.1 12.11, 0.22 9.86 C0.34 7.6, 1.94 4.6, 3.14 3.03 C4.33 1.47, 6.58 1.02, 7.39 0.47 C8.21 -0.08, 7.97 -0.43, 8.02 -0.25" stroke="none" stroke-width="0" fill="#f08c00"></path><path d="M7.28 -0.02 C9.1 -0.45, 11.63 0.54, 13.15 1.66 C14.67 2.78, 15.81 4.69, 16.39 6.69 C16.96 8.68, 17.15 11.61, 16.6 13.63 C16.04 15.65, 14.61 17.77, 13.04 18.78 C11.47 19.78, 8.97 20.08, 7.16 19.67 C5.35 19.26, 3.32 17.84, 2.19 16.3 C1.06 14.76, 0.36 12.49, 0.37 10.42 C0.38 8.35, 1.1 5.59, 2.25 3.86 C3.4 2.12, 6.29 0.67, 7.27 0.02 C8.24 -0.63, 8.05 -0.29, 8.1 -0.05 M6.72 0.73 C8.52 0.38, 11.13 0.83, 12.89 1.9 C14.65 2.97, 16.67 5.23, 17.26 7.13 C17.86 9.03, 17.13 11.36, 16.45 13.28 C15.78 15.2, 14.71 17.41, 13.23 18.64 C11.75 19.87, 9.46 21.06, 7.55 20.67 C5.65 20.28, 3.14 18.01, 1.78 16.31 C0.43 14.61, -0.7 12.53, -0.56 10.46 C-0.41 8.4, 1.35 5.64, 2.63 3.93 C3.91 2.22, 6.3 0.73, 7.12 0.2 C7.94 -0.34, 7.45 0.51, 7.54 0.71" stroke="#1e1e1e" stroke-width="1" fill="none"></path></g><g transform="translate(935.6652775871391 260.0092475100164) rotate(0 41.7481689453125 17.5)"><text x="0" y="0" font-family="Virgil, Segoe UI Emoji" font-size="28px" fill="#1e1e1e" text-anchor="start" style="white-space: pre;" direction="ltr" dominant-baseline="text-before-edge">Joints</text></g><g stroke-linecap="round" transform="translate(240.85945168016815 62.8238629235193) rotate(0 23.270024070750537 32)"><path d="M28.53 1.31 C33.38 2.53, 39.85 8.52, 42.81 13.98 C45.77 19.45, 46.94 27.33, 46.29 34.09 C45.64 40.86, 42.34 49.64, 38.93 54.58 C35.51 59.53, 30.52 63.24, 25.79 63.75 C21.05 64.26, 14.63 61.58, 10.52 57.65 C6.41 53.72, 2.62 46.79, 1.12 40.17 C-0.38 33.55, -0.37 24.23, 1.53 17.92 C3.43 11.6, 7.3 4.81, 12.52 2.28 C17.75 -0.26, 29.05 2.01, 32.87 2.7 C36.7 3.39, 35.69 5.73, 35.48 6.42 M34.88 3.52 C39.04 6.05, 41.92 12.59, 43.64 18.94 C45.36 25.28, 46.59 35.12, 45.2 41.58 C43.81 48.04, 39.52 54.08, 35.31 57.72 C31.1 61.36, 24.61 63.92, 19.93 63.42 C15.24 62.92, 10.33 59.76, 7.22 54.72 C4.12 49.69, 1.64 39.96, 1.29 33.2 C0.94 26.44, 2.12 19.75, 5.14 14.17 C8.15 8.58, 14.51 1.65, 19.38 -0.32 C24.26 -2.29, 31.93 1.5, 34.4 2.35 C36.87 3.2, 34.32 4.08, 34.19 4.77" stroke="#1971c2" stroke-width="1" fill="none"></path></g><g transform="translate(260.3810699550661 77.1964459255496) rotate(0 3.7940139770507812 17.5)"><text x="3.7940139770507812" y="0" font-family="Virgil, Segoe UI Emoji" font-size="28px" fill="#1971c2" text-anchor="middle" style="white-space: pre;" direction="ltr" dominant-baseline="text-before-edge">1</text></g><g stroke-linecap="round" transform="translate(502.0468463845407 67.27129634809353) rotate(0 23.270024070750537 32)"><path d="M15.73 1.17 C20.32 -1.31, 27.95 -0.94, 32.53 1.91 C37.11 4.76, 41 12.06, 43.22 18.27 C45.44 24.49, 46.83 32.61, 45.87 39.2 C44.91 45.79, 41.37 53.82, 37.46 57.79 C33.55 61.75, 27.53 63.52, 22.38 62.98 C17.24 62.44, 10.26 59.14, 6.59 54.53 C2.91 49.93, 0.93 42.01, 0.34 35.34 C-0.25 28.68, 0.3 20.15, 3.05 14.55 C5.81 8.96, 14.31 3.83, 16.88 1.77 C19.44 -0.28, 18.12 1.94, 18.43 2.22 M14.82 0.67 C19.14 -2.14, 26.01 -1.68, 30.64 0.78 C35.27 3.24, 40.09 9.59, 42.61 15.44 C45.13 21.28, 46.4 28.84, 45.77 35.84 C45.13 42.85, 42.57 52.81, 38.79 57.48 C35.01 62.16, 28.13 63.81, 23.1 63.89 C18.06 63.98, 12.47 62.5, 8.57 57.98 C4.67 53.46, 0.67 43.61, -0.32 36.79 C-1.31 29.97, -0.08 23, 2.63 17.08 C5.34 11.15, 14.1 3.47, 15.94 1.25 C17.78 -0.98, 13.7 2.99, 13.66 3.72" stroke="#1971c2" stroke-width="1" fill="none"></path></g><g transform="translate(515.3944381701808 81.64387935012383) rotate(0 9.968040466308594 17.5)"><text x="9.968040466308594" y="0" font-family="Virgil, Segoe UI Emoji" font-size="28px" fill="#1971c2" text-anchor="middle" style="white-space: pre;" direction="ltr" dominant-baseline="text-before-edge">2</text></g><g stroke-linecap="round" transform="translate(794.0677828100045 311.37398588791166) rotate(0 23.270024070750537 32)"><path d="M32.2 3.72 C36.36 6.11, 41.24 12.57, 43.62 18.67 C46 24.77, 47.83 33.67, 46.5 40.31 C45.17 46.95, 39.92 54.47, 35.67 58.53 C31.42 62.58, 25.7 65.35, 21 64.63 C16.3 63.91, 10.99 59.09, 7.47 54.19 C3.94 49.3, 0.49 42.08, -0.14 35.24 C-0.77 28.41, 0.7 18.82, 3.67 13.17 C6.64 7.51, 12.66 2.86, 17.68 1.3 C22.7 -0.25, 31.09 3.16, 33.79 3.84 C36.5 4.52, 34.19 4.88, 33.89 5.37 M24.8 0.08 C29.43 -0.07, 33.7 3.7, 37.21 8.35 C40.72 13, 44.73 21.31, 45.87 27.98 C47 34.66, 46.23 42.68, 44.02 48.42 C41.82 54.16, 37.44 60.18, 32.62 62.41 C27.79 64.64, 20.17 64.41, 15.07 61.8 C9.97 59.19, 4.49 52.76, 2.02 46.75 C-0.45 40.73, -0.82 32.42, 0.24 25.73 C1.29 19.03, 4.45 10.72, 8.37 6.58 C12.29 2.44, 21.05 1.82, 23.77 0.89 C26.49 -0.04, 24.68 0.37, 24.69 1" stroke="#1971c2" stroke-width="1" fill="none"></path></g><g transform="translate(807.8493727035548 325.74656888994195) rotate(0 9.534042358398438 17.5)"><text x="9.534042358398438" y="0" font-family="Virgil, Segoe UI Emoji" font-size="28px" fill="#1971c2" text-anchor="middle" style="white-space: pre;" direction="ltr" dominant-baseline="text-before-edge">3</text></g><g stroke-linecap="round" transform="translate(770.7977582315752 513.0964583753785) rotate(0 23.270024070750537 32)"><path d="M13.56 3.84 C17.99 0.83, 24.93 0.18, 29.66 1.71 C34.39 3.24, 39.17 7.54, 41.96 13 C44.76 18.45, 46.88 27.58, 46.42 34.46 C45.96 41.33, 42.65 49.42, 39.21 54.27 C35.77 59.13, 30.72 62.99, 25.77 63.59 C20.81 64.18, 13.67 61.46, 9.47 57.83 C5.28 54.21, 2.02 48.2, 0.61 41.82 C-0.8 35.44, -1.5 26.3, 1.01 19.54 C3.52 12.78, 12.4 4.26, 15.67 1.28 C18.94 -1.7, 20.5 1.09, 20.62 1.68 M19.5 0.94 C24.28 -0.56, 30.61 0.36, 35.03 3.65 C39.46 6.93, 44.34 14.04, 46.04 20.65 C47.75 27.26, 46.95 36.89, 45.27 43.33 C43.59 49.78, 40.48 55.98, 35.96 59.32 C31.45 62.65, 23.19 64.56, 18.19 63.34 C13.19 62.11, 8.79 57.45, 5.96 51.95 C3.13 46.46, 1 37.35, 1.21 30.37 C1.41 23.4, 4.09 14.91, 7.19 10.08 C10.28 5.25, 17.54 2.65, 19.77 1.38 C21.99 0.1, 20.71 2.16, 20.54 2.4" stroke="#1971c2" stroke-width="1" fill="none"></path></g><g transform="translate(785.1533532520787 527.4690413774088) rotate(0 8.960037231445312 17.5)"><text x="8.960037231445312" y="0" font-family="Virgil, Segoe UI Emoji" font-size="28px" fill="#1971c2" text-anchor="middle" style="white-space: pre;" direction="ltr" dominant-baseline="text-before-edge">4</text></g><g stroke-linecap="round" transform="translate(616.9805136145349 300.47541698678924) rotate(0 23.270024070750537 32)"><path d="M33.83 3.97 C38.3 6.57, 43.35 12.94, 45.27 19.03 C47.19 25.12, 46.86 33.85, 45.35 40.51 C43.84 47.17, 40.22 55.02, 36.2 58.98 C32.18 62.95, 26.07 65.06, 21.22 64.29 C16.37 63.52, 10.54 59.19, 7.09 54.35 C3.63 49.51, 0.83 41.95, 0.47 35.26 C0.11 28.56, 2.08 19.74, 4.94 14.17 C7.79 8.6, 12.35 3.42, 17.6 1.83 C22.84 0.25, 33.23 3.82, 36.41 4.67 C39.6 5.51, 36.92 6.47, 36.73 6.91 M22.64 0.31 C27.66 -0.09, 33.99 3.71, 37.89 7.82 C41.78 11.92, 44.81 18.67, 46.02 24.93 C47.22 31.19, 47.53 39.5, 45.12 45.38 C42.72 51.27, 36.43 57.34, 31.57 60.24 C26.72 63.13, 20.57 64.67, 15.97 62.74 C11.37 60.81, 6.59 54.35, 3.98 48.66 C1.36 42.98, -0.26 35.53, 0.27 28.63 C0.8 21.73, 3.5 12.1, 7.15 7.28 C10.81 2.45, 19.55 0.85, 22.21 -0.31 C24.88 -1.46, 23.25 -0.38, 23.14 0.35" stroke="#1971c2" stroke-width="1" fill="none"></path></g><g transform="translate(631.6441072922648 314.84799998881954) rotate(0 8.65203857421875 17.5)"><text x="8.65203857421875" y="0" font-family="Virgil, Segoe UI Emoji" font-size="28px" fill="#1971c2" text-anchor="middle" style="white-space: pre;" direction="ltr" dominant-baseline="text-before-edge">5</text></g><g stroke-linecap="round" transform="translate(488.44770193957766 515.8456726079148) rotate(0 23.270024070750537 32)"><path d="M25.59 0.13 C30.35 0, 36 3.34, 39.46 8.01 C42.92 12.68, 45.74 21.23, 46.34 28.13 C46.94 35.03, 45.69 43.8, 43.06 49.41 C40.42 55.02, 35.39 59.86, 30.52 61.77 C25.65 63.67, 18.52 63.31, 13.86 60.82 C9.19 58.32, 4.87 52.88, 2.52 46.78 C0.18 40.68, -1.32 30.89, -0.23 24.23 C0.86 17.57, 4.32 10.63, 9.05 6.81 C13.79 2.99, 24.26 2.1, 28.18 1.3 C32.11 0.5, 32.72 1.51, 32.6 2.02 M32.91 3.85 C37.35 6.47, 43.22 13.1, 45.56 19.03 C47.9 24.96, 48.53 32.98, 46.96 39.4 C45.38 45.83, 40.48 53.76, 36.13 57.59 C31.78 61.42, 25.76 63.14, 20.86 62.36 C15.96 61.59, 10.23 57.41, 6.71 52.94 C3.2 48.47, 0.29 42.08, -0.23 35.56 C-0.76 29.04, 0.56 19.63, 3.55 13.8 C6.55 7.97, 12.8 2.38, 17.74 0.58 C22.69 -1.21, 30.71 2.62, 33.2 3.01 C35.68 3.4, 32.94 2.45, 32.64 2.92" stroke="#1971c2" stroke-width="1" fill="none"></path></g><g transform="translate(502.80329696008107 530.2182556099451) rotate(0 8.960037231445312 17.5)"><text x="8.960037231445312" y="0" font-family="Virgil, Segoe UI Emoji" font-size="28px" fill="#1971c2" text-anchor="middle" style="white-space: pre;" direction="ltr" dominant-baseline="text-before-edge">6</text></g><g stroke-linecap="round" transform="translate(239.22064133145 518.0378354131853) rotate(0 23.270024070750537 32)"><path d="M21.56 0.49 C26.14 -0.41, 32.08 2.43, 35.97 6.23 C39.86 10.04, 43.66 16.81, 44.91 23.31 C46.15 29.81, 45.45 38.91, 43.45 45.22 C41.45 51.53, 37.38 58.09, 32.9 61.17 C28.41 64.26, 21.49 65.74, 16.53 63.74 C11.57 61.74, 5.95 55.01, 3.14 49.17 C0.32 43.33, -0.89 35.45, -0.36 28.69 C0.16 21.94, 2.19 13.31, 6.29 8.62 C10.4 3.94, 20.86 1.8, 24.27 0.6 C27.69 -0.6, 26.95 0.85, 26.78 1.44 M25.31 -0.1 C30.18 -0.25, 36.84 2.67, 40.28 7.66 C43.72 12.65, 45.79 22.76, 45.92 29.84 C46.06 36.93, 43.9 44.5, 41.09 50.18 C38.28 55.86, 33.39 62.01, 29.08 63.93 C24.78 65.84, 19.67 64.46, 15.24 61.66 C10.81 58.87, 4.82 53.24, 2.5 47.15 C0.19 41.06, -0.02 31.8, 1.34 25.11 C2.71 18.42, 6.75 11.13, 10.68 6.99 C14.61 2.85, 22.41 1.56, 24.91 0.29 C27.42 -0.97, 25.53 -1.11, 25.7 -0.6" stroke="#1971c2" stroke-width="1" fill="none"></path></g><g transform="translate(255.00424538515654 532.4104184152156) rotate(0 7.5320281982421875 17.5)"><text x="7.5320281982421875" y="0" font-family="Virgil, Segoe UI Emoji" font-size="28px" fill="#1971c2" text-anchor="middle" style="white-space: pre;" direction="ltr" dominant-baseline="text-before-edge">7</text></g><g stroke-linecap="round" transform="translate(352.11010919463774 303.4754166569837) rotate(0 23.270024070750537 32)"><path d="M34.12 2.53 C38.4 5.21, 42.78 13.05, 44.79 19.56 C46.79 26.07, 47.58 35.19, 46.15 41.59 C44.73 47.99, 40.63 54.4, 36.23 57.95 C31.82 61.5, 24.75 63.48, 19.71 62.89 C14.66 62.29, 9.29 59.17, 5.95 54.38 C2.61 49.59, 0.01 41.14, -0.35 34.14 C-0.72 27.14, 0.67 18.01, 3.77 12.39 C6.88 6.76, 12.81 1.5, 18.28 0.4 C23.75 -0.7, 32.85 3.96, 36.58 5.76 C40.3 7.56, 40.89 10.58, 40.61 11.2 M14.01 0.92 C18.19 -2.07, 25.8 -1.55, 30.85 0.78 C35.9 3.11, 41.71 8.56, 44.32 14.91 C46.92 21.27, 47.45 31.92, 46.46 38.91 C45.47 45.91, 42.25 52.66, 38.38 56.9 C34.51 61.15, 28.15 64.29, 23.24 64.37 C18.33 64.45, 12.77 61.89, 8.92 57.39 C5.07 52.89, 1.2 44.35, 0.16 37.36 C-0.89 30.37, -0.12 21.25, 2.66 15.43 C5.43 9.62, 14.76 4.72, 16.79 2.46 C18.83 0.2, 14.71 1.47, 14.85 1.88" stroke="#1971c2" stroke-width="1" fill="none"></path></g><g transform="translate(364.7156965857466 317.847999659014) rotate(0 10.710044860839844 17.5)"><text x="10.710044860839844" y="0" font-family="Virgil, Segoe UI Emoji" font-size="28px" fill="#1971c2" text-anchor="middle" style="white-space: pre;" direction="ltr" dominant-baseline="text-before-edge">8</text></g><g stroke-linecap="round" transform="translate(422.1019386934304 181.32777645909982) rotate(0 23.270024070750537 32)"><path d="M29.29 0.9 C33.81 2.2, 38.68 7.87, 41.62 13.37 C44.57 18.88, 47.28 27.1, 46.95 33.93 C46.62 40.77, 43.31 49.37, 39.63 54.38 C35.96 59.39, 29.93 63.25, 24.9 64 C19.88 64.75, 13.55 62.73, 9.48 58.88 C5.42 55.02, 1.72 47.46, 0.5 40.85 C-0.73 34.24, -0.07 25.4, 2.14 19.23 C4.35 13.06, 8.35 6.46, 13.77 3.82 C19.19 1.17, 30.71 2.77, 34.66 3.37 C38.61 3.97, 37.78 6.92, 37.47 7.41 M25.18 1.58 C30.01 1.8, 36.11 4.12, 39.77 8.65 C43.43 13.19, 46.76 22.11, 47.12 28.79 C47.48 35.48, 45.01 43.29, 41.93 48.77 C38.85 54.25, 33.47 59.85, 28.63 61.68 C23.79 63.51, 17.13 62.34, 12.89 59.74 C8.65 57.15, 5.38 52.3, 3.19 46.12 C1.01 39.94, -1.11 29.57, -0.21 22.66 C0.68 15.75, 4.5 8.24, 8.58 4.64 C12.65 1.05, 21.49 1.95, 24.22 1.09 C26.96 0.23, 24.75 -0.69, 24.97 -0.53" stroke="#1971c2" stroke-width="1" fill="none"></path></g><g transform="translate(436.89153182184396 195.70035946113012) rotate(0 8.526039123535156 17.5)"><text x="8.526039123535156" y="0" font-family="Virgil, Segoe UI Emoji" font-size="28px" fill="#1971c2" text-anchor="middle" style="white-space: pre;" direction="ltr" dominant-baseline="text-before-edge">9</text></g><g stroke-linecap="round" transform="translate(548.5868952573803 159.17382584206052) rotate(0 28.892943282144415 37.77801854072936)"><path d="M17.36 3.93 C22.09 0.63, 28.67 -0.19, 34.3 1.26 C39.93 2.7, 47.13 6.94, 51.12 12.59 C55.11 18.23, 57.77 27.81, 58.23 35.13 C58.7 42.45, 57.05 50.22, 53.9 56.49 C50.75 62.76, 44.61 69.71, 39.32 72.74 C34.04 75.77, 27.62 76.31, 22.16 74.69 C16.7 73.07, 10.15 68.54, 6.58 63.04 C3.02 57.53, 1.08 49.04, 0.78 41.66 C0.48 34.29, 1.49 25.5, 4.77 18.78 C8.05 12.06, 17.31 4.1, 20.45 1.35 C23.58 -1.4, 23.59 1.68, 23.6 2.28 M26.48 -0.75 C31.82 -2.09, 39.23 2.58, 43.88 6.2 C48.52 9.82, 51.89 14.56, 54.34 20.97 C56.78 27.39, 59.64 37.08, 58.54 44.69 C57.44 52.3, 52.08 61.3, 47.73 66.62 C43.38 71.94, 37.79 75.85, 32.43 76.6 C27.06 77.36, 20.38 74.76, 15.57 71.16 C10.75 67.55, 6.3 61.61, 3.55 54.98 C0.81 48.36, -1.96 39.07, -0.91 31.4 C0.13 23.73, 5.43 14.01, 9.82 8.96 C14.21 3.92, 22.6 2.35, 25.44 1.14 C28.29 -0.07, 26.63 1.01, 26.91 1.69" stroke="#1971c2" stroke-width="1" fill="none"></path></g><g transform="translate(564.123386508079 179.23875129284897) rotate(0 13.426055908203125 17.5)"><text x="13.426055908203125" y="0" font-family="Virgil, Segoe UI Emoji" font-size="28px" fill="#1971c2" text-anchor="middle" style="white-space: pre;" direction="ltr" dominant-baseline="text-before-edge">10</text></g><g stroke-linecap="round" transform="translate(548.5868950795434 408.58475575994635) rotate(0 23.270024070750537 32)"><path d="M13.41 4.28 C17.47 0.73, 22.66 -1.43, 27.45 0.04 C32.24 1.5, 39.15 7.54, 42.16 13.07 C45.17 18.59, 45.84 26.53, 45.53 33.21 C45.22 39.88, 43.56 48.17, 40.3 53.12 C37.05 58.08, 30.97 62, 26 62.94 C21.02 63.87, 14.51 62.42, 10.46 58.71 C6.4 55.01, 3.19 47.1, 1.69 40.71 C0.19 34.32, -0.93 27.1, 1.44 20.4 C3.81 13.69, 12.56 3.68, 15.92 0.5 C19.28 -2.69, 21.34 0.56, 21.61 1.27 M26.06 0.52 C30.62 1, 35.69 6.09, 39 11.2 C42.31 16.3, 45.58 24.61, 45.9 31.16 C46.21 37.71, 43.7 44.91, 40.89 50.49 C38.07 56.06, 33.61 63.13, 29.01 64.6 C24.4 66.07, 17.96 62.61, 13.27 59.32 C8.58 56.03, 3.11 50.8, 0.85 44.86 C-1.41 38.92, -1.86 30.09, -0.28 23.67 C1.31 17.25, 6.04 10.42, 10.35 6.36 C14.67 2.3, 23.22 0.03, 25.61 -0.7 C28 -1.43, 24.43 1.42, 24.69 1.99" stroke="#1971c2" stroke-width="1" fill="none"></path></g><g transform="translate(564.3144993773906 422.95733876197664) rotate(0 7.5880279541015625 17.5)"><text x="7.5880279541015625" y="0" font-family="Virgil, Segoe UI Emoji" font-size="28px" fill="#1971c2" text-anchor="middle" style="white-space: pre;" direction="ltr" dominant-baseline="text-before-edge">11</text></g><g stroke-linecap="round" transform="translate(413.95275376824065 400.77267276718703) rotate(0 27.344616584217647 32)"><path d="M33.76 0.98 C39.22 2.32, 45.79 8.46, 49.4 14.17 C53 19.88, 55.67 28.57, 55.39 35.24 C55.1 41.92, 52.04 49.53, 47.7 54.21 C43.35 58.9, 35.35 62.78, 29.31 63.35 C23.27 63.91, 16.2 61.37, 11.47 57.61 C6.74 53.85, 2.35 47.32, 0.93 40.78 C-0.5 34.25, 0.46 24.56, 2.94 18.42 C5.41 12.28, 10.09 6.83, 15.76 3.95 C21.44 1.07, 32.89 1.12, 36.96 1.13 C41.04 1.14, 40.52 3.22, 40.22 3.98 M40.18 4.54 C45.35 7.49, 49.65 14.27, 52.03 20.24 C54.41 26.21, 55.91 34.08, 54.43 40.34 C52.96 46.61, 48.31 53.72, 43.16 57.83 C38.01 61.93, 29.38 65.85, 23.53 64.98 C17.68 64.11, 11.89 57.86, 8.06 52.62 C4.22 47.39, 1.12 40.37, 0.51 33.58 C-0.09 26.78, 0.91 17.34, 4.41 11.87 C7.92 6.41, 15.4 1.99, 21.51 0.76 C27.63 -0.46, 38.09 3.85, 41.1 4.52 C44.11 5.19, 40.17 4.21, 39.57 4.77" stroke="#1971c2" stroke-width="1" fill="none"></path></g><g transform="translate(427.6997520934524 415.14525576921733) rotate(0 13.762054443359375 17.5)"><text x="13.762054443359375" y="0" font-family="Virgil, Segoe UI Emoji" font-size="28px" fill="#1971c2" text-anchor="middle" style="white-space: pre;" direction="ltr" dominant-baseline="text-before-edge">12</text></g><g stroke-linecap="round" transform="translate(284.0415355027876 392.60999412199226) rotate(0 26.991403213457602 32)"><path d="M24.11 0.2 C29.51 -0.85, 36.42 2.33, 41.24 6.11 C46.05 9.88, 51.28 16.33, 52.98 22.84 C54.67 29.35, 53.69 38.71, 51.42 45.17 C49.15 51.63, 44.43 58.58, 39.35 61.6 C34.27 64.61, 26.52 64.95, 20.95 63.24 C15.39 61.53, 9.36 56.9, 5.96 51.35 C2.57 45.8, 0.4 36.96, 0.58 29.92 C0.76 22.88, 2.98 14.01, 7.04 9.12 C11.1 4.24, 21.57 1.92, 24.93 0.62 C28.29 -0.68, 27.15 0.85, 27.2 1.33 M26.8 1.43 C32.42 1.12, 40.74 2.38, 45.43 6.51 C50.13 10.63, 54.37 19.43, 54.97 26.2 C55.57 32.98, 52.04 41.34, 49.03 47.14 C46.03 52.93, 41.94 58.57, 36.93 60.99 C31.93 63.41, 24.39 64.04, 18.99 61.65 C13.6 59.26, 7.38 52.34, 4.54 46.67 C1.7 41, 1.09 34.17, 1.94 27.61 C2.8 21.06, 5.38 11.83, 9.66 7.35 C13.93 2.88, 24.7 1.83, 27.62 0.75 C30.53 -0.33, 27.26 0.59, 27.12 0.9" stroke="#1971c2" stroke-width="1" fill="none"></path></g><g transform="translate(297.6190781348198 406.98257712402255) rotate(0 13.328056335449219 17.5)"><text x="13.328056335449219" y="0" font-family="Virgil, Segoe UI Emoji" font-size="28px" fill="#1971c2" text-anchor="middle" style="white-space: pre;" direction="ltr" dominant-baseline="text-before-edge">13</text></g><g stroke-linecap="round" transform="translate(179.47106775269322 392.60999421369434) rotate(0 26.991403213457602 32)"><path d="M30.91 0.75 C36.33 1.48, 43.53 6.13, 47.41 11.33 C51.29 16.54, 54.06 25.24, 54.18 31.97 C54.3 38.7, 51.93 46.36, 48.11 51.73 C44.28 57.09, 37.01 62.98, 31.22 64.14 C25.43 65.3, 18.44 62.36, 13.38 58.68 C8.32 55.01, 2.69 48.46, 0.85 42.07 C-0.99 35.68, 0.06 26.66, 2.34 20.35 C4.62 14.03, 8.47 7, 14.53 4.19 C20.58 1.37, 33.68 2.73, 38.67 3.45 C43.66 4.18, 44.82 8.25, 44.48 8.54 M27.3 1.51 C32.98 1.29, 40.41 3.04, 44.93 7.21 C49.46 11.38, 53.81 19.58, 54.45 26.51 C55.09 33.44, 52.24 42.75, 48.78 48.77 C45.33 54.8, 39.11 60.64, 33.71 62.65 C28.31 64.67, 21.42 63.61, 16.39 60.86 C11.36 58.11, 5.96 52.1, 3.53 46.17 C1.09 40.24, 0.67 32.03, 1.78 25.28 C2.88 18.53, 5.96 9.89, 10.15 5.67 C14.34 1.45, 24.08 0.55, 26.91 -0.04 C29.73 -0.63, 27 1.54, 27.09 2.13" stroke="#1971c2" stroke-width="1" fill="none"></path></g><g transform="translate(193.62261551167853 406.98257721572463) rotate(0 12.754051208496094 17.5)"><text x="12.754051208496094" y="0" font-family="Virgil, Segoe UI Emoji" font-size="28px" fill="#1971c2" text-anchor="middle" style="white-space: pre;" direction="ltr" dominant-baseline="text-before-edge">14</text></g><g stroke-linecap="round" transform="translate(186.87664553309173 196.9518441099258) rotate(0 26.991403213457602 32)"><path d="M39.56 3.66 C44.54 6.06, 49.12 11.83, 51.48 17.92 C53.84 24.01, 55.27 33.38, 53.73 40.19 C52.19 47.01, 47.16 54.98, 42.23 58.81 C37.3 62.64, 29.92 63.87, 24.14 63.16 C18.37 62.45, 11.65 59.35, 7.58 54.53 C3.52 49.7, 0.12 41.23, -0.24 34.2 C-0.61 27.16, 1.83 17.94, 5.39 12.32 C8.94 6.69, 15.21 1.62, 21.1 0.45 C27 -0.73, 37.08 4.38, 40.74 5.26 C44.4 6.15, 43.37 5.3, 43.07 5.78 M21.38 -0.43 C26.36 -2.38, 33.15 -0.8, 38.13 2.49 C43.12 5.78, 48.79 12.62, 51.27 19.33 C53.74 26.03, 54.37 35.9, 52.99 42.72 C51.61 49.53, 47.82 56.47, 42.99 60.22 C38.16 63.97, 30.04 66.11, 24.01 65.2 C17.99 64.3, 11.05 59.99, 6.84 54.78 C2.64 49.56, -0.82 40.82, -1.22 33.92 C-1.63 27.03, 0.96 19.16, 4.41 13.42 C7.87 7.69, 16.68 1.37, 19.5 -0.47 C22.33 -2.32, 20.88 1.57, 21.34 2.37" stroke="#1971c2" stroke-width="1" fill="none"></path></g><g transform="translate(201.3361919493036 211.32442711195608) rotate(0 12.446052551269531 17.5)"><text x="12.446052551269531" y="0" font-family="Virgil, Segoe UI Emoji" font-size="28px" fill="#1971c2" text-anchor="middle" style="white-space: pre;" direction="ltr" dominant-baseline="text-before-edge">15</text></g><g stroke-linecap="round" transform="translate(284.04153496914137 196.009247512191) rotate(0 26.991403213457602 32)"><path d="M13.72 3.45 C18.38 0.14, 27.04 0.06, 32.77 1.64 C38.49 3.23, 44.46 7.84, 48.09 12.97 C51.71 18.11, 54.77 25.69, 54.52 32.45 C54.27 39.22, 50.71 48.35, 46.58 53.55 C42.45 58.76, 35.34 62.68, 29.74 63.67 C24.14 64.66, 17.72 63.08, 12.96 59.52 C8.2 55.95, 3.11 48.94, 1.19 42.27 C-0.73 35.61, -1.51 26.21, 1.46 19.53 C4.43 12.84, 15.26 5.12, 19.02 2.17 C22.77 -0.78, 23.92 1.28, 23.98 1.8 M25.42 0.05 C31.26 -0.43, 39.48 3.51, 44.32 7.63 C49.16 11.75, 53.57 18.45, 54.47 24.76 C55.37 31.07, 52.62 39.25, 49.72 45.48 C46.83 51.71, 42.11 59.51, 37.08 62.14 C32.05 64.77, 25.13 63.64, 19.54 61.25 C13.95 58.86, 6.91 53.42, 3.53 47.8 C0.15 42.17, -1.81 34.3, -0.74 27.52 C0.33 20.74, 5.43 11.93, 9.94 7.11 C14.45 2.29, 23.92 -0.25, 26.33 -1.4 C28.74 -2.55, 24.62 -0.46, 24.41 0.23" stroke="#1971c2" stroke-width="1" fill="none"></path></g><g transform="translate(298.1930827281267 210.3818305142213) rotate(0 12.754051208496094 17.5)"><text x="12.754051208496094" y="0" font-family="Virgil, Segoe UI Emoji" font-size="28px" fill="#1971c2" text-anchor="middle" style="white-space: pre;" direction="ltr" dominant-baseline="text-before-edge">16</text></g></svg>