<svg version="1.1" xmlns="http://www.w3.org/2000/svg" viewBox="0 0 646.8806506487485 395.3517907381938" width="1940.6419519462456" height="1186.0553722145814">
  <!-- svg-source:excalidraw -->
  
  <defs>
    <style class="style-fonts">
      @font-face {
        font-family: "Virgil";
        src: url("https://excalidraw.com/Virgil.woff2");
      }
      @font-face {
        font-family: "Cascadia";
        src: url("https://excalidraw.com/Cascadia.woff2");
      }
      @font-face {
        font-family: "Assistant";
        src: url("https://excalidraw.com/Assistant-Regular.woff2");
      }
    </style>
    <clipPath id="--Tc9XamVMpO11aY07_o-">
            <rect transform="translate(0 0) rotate(0 323.44032532437427 197.6758953690969)" width="646.8806506487485" height="395.3517907381938">
          </rect>
        </clipPath>
  </defs>
  <rect x="0" y="0" width="646.8806506487485" height="395.3517907381938" fill="#ffffff"></rect><g clip-path="url(#--Tc9XamVMpO11aY07_o-)"><g stroke-linecap="round"><g transform="translate(133.5037937984198 80.61822205928547) rotate(0 0 111.5756110044872)"><path d="M0.58 -0.62 C0.83 36.66, 1.19 186.25, 1.08 223.56 M-0.58 1.67 C-0.36 38.58, 0.75 184.5, 0.7 221.66" stroke="#1971c2" stroke-width="1" fill="none"></path></g></g><mask></mask></g><g clip-path="url(#--Tc9XamVMpO11aY07_o-)"><g stroke-linecap="round"><g transform="translate(132.92864276640648 304.1830574752212) rotate(0 73.20136307808548 -0.6449432965196138)"><path d="M0 0.23 C24.32 0.12, 122.56 0.16, 146.96 -0.09 M-1.46 -0.7 C22.66 -1.15, 121.79 -1.7, 146.3 -1.59" stroke="#1971c2" stroke-width="1" fill="none"></path></g></g><mask></mask></g><g clip-path="url(#--Tc9XamVMpO11aY07_o-)"><g stroke-linecap="round"><g transform="translate(96.09694974556942 187.67920784568196) rotate(0 190.25898103175905 0)"><path d="M0.76 1 C64.16 1.26, 317.45 0.86, 380.89 0.86 M-0.31 0.47 C62.93 0.47, 316.57 -0.6, 380.13 -0.81" stroke="#1971c2" stroke-width="1" fill="none"></path></g></g><mask></mask></g><g clip-path="url(#--Tc9XamVMpO11aY07_o-)"><g stroke-linecap="round"><g transform="translate(286.3869145476292 79.89575250546204) rotate(0 97.38676991124157 0)"><path d="M-0.75 -0.77 C31.78 -0.99, 162.09 -0.05, 194.72 -0.12 M1.06 1.44 C33.46 1.92, 161.52 1.67, 193.75 1.35" stroke="#1971c2" stroke-width="1" fill="none"></path></g></g><mask></mask></g><g clip-path="url(#--Tc9XamVMpO11aY07_o-)"><g stroke-linecap="round"><g transform="translate(385.03260942406405 78.03842673075269) rotate(0 0 112.22056537223443)"><path d="M0.3 0.52 C0.24 38.03, -0.92 188.08, -1.14 225.56 M-1 -0.25 C-0.64 36.91, 0.59 186.72, 0.97 224.03" stroke="#1971c2" stroke-width="1" fill="none"></path></g></g><mask></mask></g><g clip-path="url(#--Tc9XamVMpO11aY07_o-)"><g stroke-linecap="round"><g transform="translate(385.67757486303844 79.32833546624715) rotate(0 25.797842573048 0)"><path d="M0.67 0.33 C9.62 0.48, 44.28 0.54, 52.6 0.56 M-0.44 -0.54 C8.53 -0.72, 43.28 -1.09, 52.17 -1.27" stroke="#1971c2" stroke-width="1" fill="none"></path></g></g><mask></mask></g><g clip-path="url(#--Tc9XamVMpO11aY07_o-)"><g stroke-linecap="round"><g transform="translate(434.69348682305736 77.3934945054616) rotate(0 -24.507955980009456 54.8203850218506)"><path d="M0.6 -0.38 C-7.57 17.85, -41.82 91.12, -50.14 109.56 M-0.55 -1.62 C-8.26 16.79, -39.74 92.74, -48.02 111.06" stroke="#1971c2" stroke-width="1" fill="none"></path></g></g><mask></mask></g><g clip-path="url(#--Tc9XamVMpO11aY07_o-)"><g transform="translate(75.1361925050378 161.87232200812832) rotate(0 6.439994812011719 12.5)"><text x="0" y="0" font-family="Virgil, Segoe UI Emoji" font-size="20px" fill="#1971c2" text-anchor="start" style="white-space: pre;" direction="ltr" dominant-baseline="text-before-edge">N</text></g></g><g clip-path="url(#--Tc9XamVMpO11aY07_o-)"><g transform="translate(488.900722309339 161.87232205534565) rotate(0 6.55999755859375 12.5)"><text x="0" y="0" font-family="Virgil, Segoe UI Emoji" font-size="20px" fill="#1971c2" text-anchor="start" style="white-space: pre;" direction="ltr" dominant-baseline="text-before-edge">A</text></g></g><g clip-path="url(#--Tc9XamVMpO11aY07_o-)"><g transform="translate(401.87753790798797 46.181714804074545) rotate(0 9.879989624023438 12.5)"><text x="0" y="0" font-family="Virgil, Segoe UI Emoji" font-size="20px" fill="#1971c2" text-anchor="start" style="white-space: pre;" direction="ltr" dominant-baseline="text-before-edge">fc</text></g></g><g clip-path="url(#--Tc9XamVMpO11aY07_o-)"><g transform="translate(195.51770714407667 306.83940825431546) rotate(0 5.079994201660156 12.5)"><text x="0" y="0" font-family="Virgil, Segoe UI Emoji" font-size="20px" fill="#1971c2" text-anchor="start" style="white-space: pre;" direction="ltr" dominant-baseline="text-before-edge">b</text></g></g><g clip-path="url(#--Tc9XamVMpO11aY07_o-)"><g stroke-linecap="round"><g transform="translate(279.8880007016933 306.83940806546616) rotate(0 0 18.703444168880196)"><path d="M-0.02 -0.5 C0.02 5.66, 0.51 30.68, 0.47 37.02 M-0.69 0.44 C-0.7 6.65, 0.28 31.5, 0.29 37.52" stroke="#1971c2" stroke-width="1" fill="none"></path></g></g><mask></mask></g><g clip-path="url(#--Tc9XamVMpO11aY07_o-)"><g stroke-linecap="round"><g transform="translate(183.16462691250263 321.8279449406209) rotate(0 -22.250643370964326 0)"><path d="M-0.14 0.54 C-7.49 0.48, -37.26 -0.09, -44.61 -0.16 M0.79 0.33 C-6.6 0.34, -37.55 0.38, -45.1 0.46" stroke="#1971c2" stroke-width="1" fill="none"></path></g><g transform="translate(183.16462691250263 321.8279449406209) rotate(0 -22.250643370964326 0)"><path d="M-24.23 -7.26 C-27.6 -5.88, -33.23 -3.64, -45.1 0.46 M-24.23 -7.26 C-30.75 -4.88, -38.16 -1.85, -45.1 0.46" stroke="#1971c2" stroke-width="1" fill="none"></path></g><g transform="translate(183.16462691250263 321.8279449406209) rotate(0 -22.250643370964326 0)"><path d="M-24.15 7.96 C-27.57 6.16, -33.21 5.22, -45.1 0.46 M-24.15 7.96 C-30.66 5.41, -38.1 3.51, -45.1 0.46" stroke="#1971c2" stroke-width="1" fill="none"></path></g></g><mask></mask></g><g clip-path="url(#--Tc9XamVMpO11aY07_o-)"><g stroke-linecap="round"><g transform="translate(218.63661893333983 321.183023786557) rotate(0 25.797842573048 0.6449211540639226)"><path d="M0.81 0 C9.57 0.29, 43.74 1.62, 52.35 1.81 M-0.22 -1.04 C8.46 -1.12, 43.07 -0.61, 51.8 -0.04" stroke="#1971c2" stroke-width="1" fill="none"></path></g><g transform="translate(218.63661893333983 321.183023786557) rotate(0 25.797842573048 0.6449211540639226)"><path d="M28.02 7.67 C34.78 6.57, 42.39 4.53, 51.8 -0.04 M28.02 7.67 C34.52 5.93, 42.15 2.24, 51.8 -0.04" stroke="#1971c2" stroke-width="1" fill="none"></path></g><g transform="translate(218.63661893333983 321.183023786557) rotate(0 25.797842573048 0.6449211540639226)"><path d="M28.62 -9.42 C35.22 -5.66, 42.66 -2.84, 51.8 -0.04 M28.62 -9.42 C34.97 -6.28, 42.43 -5.1, 51.8 -0.04" stroke="#1971c2" stroke-width="1" fill="none"></path></g></g><mask></mask></g><g clip-path="url(#--Tc9XamVMpO11aY07_o-)"><g transform="translate(348.51257070734846 316.99083700304345) rotate(0 10.509986877441406 12.5)"><text x="0" y="0" font-family="Virgil, Segoe UI Emoji" font-size="20px" fill="#1971c2" text-anchor="start" style="white-space: pre;" direction="ltr" dominant-baseline="text-before-edge">ft</text></g></g><g clip-path="url(#--Tc9XamVMpO11aY07_o-)"><g stroke-linecap="round"><g transform="translate(126.40943967916292 80.61822205928547) rotate(0 -19.993352904374433 0)"><path d="M0.36 0.54 C-6.38 0.56, -33.76 0.39, -40.42 0.37 M-0.11 0.34 C-6.69 0.19, -32.81 -0.28, -39.41 -0.41" stroke="#1971c2" stroke-width="1" fill="none"></path></g></g><mask></mask></g><g clip-path="url(#--Tc9XamVMpO11aY07_o-)"><g transform="translate(106.38047815933078 206.38262974167537) rotate(0 4.939994812011719 12.5)"><text x="0" y="0" font-family="Virgil, Segoe UI Emoji" font-size="20px" fill="#1971c2" text-anchor="start" style="white-space: pre;" direction="ltr" dominant-baseline="text-before-edge">h</text></g></g><g clip-path="url(#--Tc9XamVMpO11aY07_o-)"><g stroke-linecap="round"><g transform="translate(114.80037177199438 181.22975273803422) rotate(0 0 -48.04844165910163)"><path d="M0.57 0.47 C0.74 -15.66, -0.17 -79.88, -0.14 -96.06 M-0.59 -0.33 C-0.49 -16.32, -1.33 -78.63, -1.16 -94.5" stroke="#1971c2" stroke-width="1" fill="none"></path></g><g transform="translate(114.80037177199438 181.22975273803422) rotate(0 0 -48.04844165910163)"><path d="M7.46 -71.03 C6.35 -75.98, 3.88 -79.2, -1.16 -94.5 M7.46 -71.03 C4.24 -76.47, 3.71 -83.47, -1.16 -94.5" stroke="#1971c2" stroke-width="1" fill="none"></path></g><g transform="translate(114.80037177199438 181.22975273803422) rotate(0 0 -48.04844165910163)"><path d="M-9.64 -70.98 C-7.29 -76.02, -6.28 -79.25, -1.16 -94.5 M-9.64 -70.98 C-8.47 -76.5, -4.6 -83.51, -1.16 -94.5" stroke="#1971c2" stroke-width="1" fill="none"></path></g></g><mask></mask></g><g clip-path="url(#--Tc9XamVMpO11aY07_o-)"><g stroke-linecap="round"><g transform="translate(111.57558886203196 236.69514194815565) rotate(0 1.9348520320131684 34.50457707605847)"><path d="M-0.59 0.43 C0.01 12.17, 2.61 58.57, 3.46 69.91 M1.31 -0.39 C1.73 11.07, 1.83 56.62, 2.3 68.26" stroke="#1971c2" stroke-width="1" fill="none"></path></g><g transform="translate(111.57558886203196 236.69514194815565) rotate(0 1.9348520320131684 34.50457707605847)"><path d="M-6.7 44.93 C-3.49 51.02, -0.11 59.53, 2.3 68.26 M-6.7 44.93 C-3.59 50.18, -2.48 55.82, 2.3 68.26" stroke="#1971c2" stroke-width="1" fill="none"></path></g><g transform="translate(111.57558886203196 236.69514194815565) rotate(0 1.9348520320131684 34.50457707605847)"><path d="M10.4 44.61 C8.67 50.71, 7.12 59.31, 2.3 68.26 M10.4 44.61 C9.18 50.05, 5.97 55.78, 2.3 68.26" stroke="#1971c2" stroke-width="1" fill="none"></path></g></g><mask></mask></g><g clip-path="url(#--Tc9XamVMpO11aY07_o-)"><g stroke-linecap="round"><g transform="translate(298.6098530418344 122.617113763612) rotate(0 0 -22.4133782577278)"><path d="M-0.36 0.16 C-0.32 -7.29, 0.22 -37.27, 0.31 -44.83 M0.45 -0.23 C0.44 -7.57, 0.12 -36.71, 0.04 -44.14" stroke="#1971c2" stroke-width="1" fill="none"></path></g><g transform="translate(298.6098530418344 122.617113763612) rotate(0 0 -22.4133782577278)"><path d="M7.94 -23.16 C5.81 -29.14, 3.05 -35.88, 0.04 -44.14 M7.94 -23.16 C6.46 -28.19, 4.44 -32.36, 0.04 -44.14" stroke="#1971c2" stroke-width="1" fill="none"></path></g><g transform="translate(298.6098530418344 122.617113763612) rotate(0 0 -22.4133782577278)"><path d="M-7.39 -22.99 C-4.77 -28.97, -2.77 -35.76, 0.04 -44.14 M-7.39 -22.99 C-5.36 -28.06, -3.87 -32.27, 0.04 -44.14" stroke="#1971c2" stroke-width="1" fill="none"></path></g></g><mask></mask></g><g clip-path="url(#--Tc9XamVMpO11aY07_o-)"><g transform="translate(285.21367228914414 123.617113763612) rotate(0 37.919952392578125 12.5)"><text x="0" y="0" font-family="Virgil, Segoe UI Emoji" font-size="20px" fill="#1971c2" text-anchor="start" style="white-space: pre;" direction="ltr" dominant-baseline="text-before-edge">y = h/2</text></g></g><g clip-path="url(#--Tc9XamVMpO11aY07_o-)"><g stroke-linecap="round"><g transform="translate(296.03012451002814 156.07689774641585) rotate(0 0 14.188796808335155)"><path d="M0.5 0.26 C0.46 4.87, -0.43 23.46, -0.43 28.07 M0.09 -0.09 C0.25 4.56, 0.52 23.89, 0.58 28.62" stroke="#1971c2" stroke-width="1" fill="none"></path></g><g transform="translate(296.03012451002814 156.07689774641585) rotate(0 0 14.188796808335155)"><path d="M-4.45 15.35 C-2.79 18.15, -2.23 22.74, 0.58 28.62 M-4.45 15.35 C-3.27 17.93, -2.2 20.93, 0.58 28.62" stroke="#1971c2" stroke-width="1" fill="none"></path></g><g transform="translate(296.03012451002814 156.07689774641585) rotate(0 0 14.188796808335155)"><path d="M5.25 15.22 C4.43 18.1, 2.52 22.72, 0.58 28.62 M5.25 15.22 C4.35 17.86, 3.35 20.89, 0.58 28.62" stroke="#1971c2" stroke-width="1" fill="none"></path></g></g><mask></mask></g><g clip-path="url(#--Tc9XamVMpO11aY07_o-)"><g stroke-linecap="round"><g transform="translate(294.0953167629259 234.76024563123246) rotate(0 0 -19.348365322944574)"><path d="M-0.12 0.29 C-0.16 -6.1, 0.03 -32.1, -0.01 -38.66 M0.82 -0.04 C0.69 -6.3, -0.43 -31.51, -0.45 -37.95" stroke="#1971c2" stroke-width="1" fill="none"></path></g><g transform="translate(294.0953167629259 234.76024563123246) rotate(0 0 -19.348365322944574)"><path d="M6.64 -19.95 C4.81 -26.06, 1.97 -32.82, -0.45 -37.95 M6.64 -19.95 C4.88 -23.91, 3.47 -28.16, -0.45 -37.95" stroke="#1971c2" stroke-width="1" fill="none"></path></g><g transform="translate(294.0953167629259 234.76024563123246) rotate(0 0 -19.348365322944574)"><path d="M-6.59 -19.6 C-3.95 -25.81, -2.32 -32.69, -0.45 -37.95 M-6.59 -19.6 C-5.32 -23.64, -3.7 -27.97, -0.45 -37.95" stroke="#1971c2" stroke-width="1" fill="none"></path></g></g><mask></mask></g><g clip-path="url(#--Tc9XamVMpO11aY07_o-)"><g stroke-linecap="round"><g transform="translate(296.6063650966489 263.7828268293324) rotate(0 0 19.348365322944574)"><path d="M0.19 0.33 C0.1 6.71, -0.22 31.9, -0.31 38.21 M-0.37 0.02 C-0.3 6.46, 0.57 32.24, 0.77 38.65" stroke="#1971c2" stroke-width="1" fill="none"></path></g><g transform="translate(296.6063650966489 263.7828268293324) rotate(0 0 19.348365322944574)"><path d="M-6.43 20.69 C-3.41 26.26, -2.4 32.33, 0.77 38.65 M-6.43 20.69 C-5.39 24.2, -3.56 28.2, 0.77 38.65" stroke="#1971c2" stroke-width="1" fill="none"></path></g><g transform="translate(296.6063650966489 263.7828268293324) rotate(0 0 19.348365322944574)"><path d="M6.8 20.27 C5.3 26.01, 1.81 32.21, 0.77 38.65 M6.8 20.27 C5.17 23.88, 4.34 27.97, 0.77 38.65" stroke="#1971c2" stroke-width="1" fill="none"></path></g></g><mask></mask></g><g clip-path="url(#--Tc9XamVMpO11aY07_o-)"><g stroke-linecap="round"><g transform="translate(279.1985768549134 81.25976044120398) rotate(0 0 111.5756110044872)"><path d="M-0.74 0.21 C-0.5 37.22, 0.56 185.85, 0.77 222.97 M1.07 -0.72 C1.28 36.39, 0.39 186.94, 0.22 224.41" stroke="#1971c2" stroke-width="1" fill="none"></path></g></g><mask></mask></g><g clip-path="url(#--Tc9XamVMpO11aY07_o-)"><g stroke-linecap="round"><g transform="translate(134.60489622644718 79.99943836234615) rotate(0 73.20136307808548 -0.6449432965196138)"><path d="M-0.34 1.12 C24.06 0.77, 122.64 -0.83, 147.17 -1.33 M1.68 0.67 C25.92 0.45, 122.52 0.44, 146.62 0.18" stroke="#1971c2" stroke-width="1" fill="none"></path></g></g><mask></mask></g><g clip-path="url(#--Tc9XamVMpO11aY07_o-)"><g stroke-linecap="round"><g transform="translate(286.33669515931524 305.6707656090193) rotate(0 97.38676991124157 0)"><path d="M0.22 -0.11 C32.51 0.11, 161.84 0.97, 194.19 1.17 M-1.12 -1.21 C31.52 -1.29, 164.19 -0.42, 196.6 -0.34" stroke="#1971c2" stroke-width="1" fill="none"></path></g></g><mask></mask></g><g clip-path="url(#--Tc9XamVMpO11aY07_o-)"><g stroke-linecap="round"><g transform="translate(334.4077396609946 302.57837931642007) rotate(180 25.797842573048 0)"><path d="M0.09 0.2 C8.55 0.38, 42.92 0.12, 51.38 0.03 M-1.33 -0.74 C6.9 -0.27, 41.2 1.33, 50.32 1.58" stroke="#1971c2" stroke-width="1" fill="none"></path></g></g><mask></mask></g><g clip-path="url(#--Tc9XamVMpO11aY07_o-)"><g stroke-linecap="round"><g transform="translate(384.0711587755677 191.63600188680175) rotate(180 -24.507955980009456 54.8203850218506)"><path d="M-0.21 0.03 C-8.52 18.21, -41.42 90.84, -49.74 109.29 M-1.78 -1 C-9.71 17.34, -39.74 92.32, -47.4 110.65" stroke="#1971c2" stroke-width="1" fill="none"></path></g></g><mask></mask></g><g clip-path="url(#--Tc9XamVMpO11aY07_o-)"><g stroke-linecap="round"><g transform="translate(134.60489642120456 304.455451301661) rotate(0 0 16.446131559835067)"><path d="M-0.06 0.39 C-0.19 5.81, -0.49 27.35, -0.43 32.68 M-0.75 0.11 C-0.74 5.6, 0.44 27.84, 0.59 33.27" stroke="#1971c2" stroke-width="1" fill="none"></path></g></g><mask></mask></g><g clip-path="url(#--Tc9XamVMpO11aY07_o-)"><g stroke-linecap="round"><g transform="translate(125.9749940824995 301.83916475990554) rotate(0 -19.993352904374433 0)"><path d="M-0.47 0.5 C-7.11 0.47, -33.49 -0.35, -40.06 -0.38 M0.3 0.28 C-6.41 0.32, -33.78 0.26, -40.52 0.12" stroke="#1971c2" stroke-width="1" fill="none"></path></g></g><mask></mask></g><g clip-path="url(#--Tc9XamVMpO11aY07_o-)"><g transform="translate(279.1985774564232 240.377840881657) rotate(0 37.919952392578125 12.5)"><text x="0" y="0" font-family="Virgil, Segoe UI Emoji" font-size="20px" fill="#1971c2" text-anchor="start" style="white-space: pre;" direction="ltr" dominant-baseline="text-before-edge">y = h/2</text></g></g></svg>