<svg version="1.1" xmlns="http://www.w3.org/2000/svg" viewBox="0 0 570.9896137032056 469.2111178861801" width="570.9896137032056" height="469.2111178861801">
  <!-- svg-source:excalidraw -->
  
  <defs>
    <style class="style-fonts">
      @font-face {
        font-family: "Virgil";
        src: url("https://excalidraw.com/Virgil.woff2");
      }
      @font-face {
        font-family: "Cascadia";
        src: url("https://excalidraw.com/Cascadia.woff2");
      }
      @font-face {
        font-family: "Assistant";
        src: url("https://excalidraw.com/Assistant-Regular.woff2");
      }
    </style>
    
  </defs>
  <rect x="0" y="0" width="570.9896137032056" height="469.2111178861801" fill="#ffffff"></rect><g stroke-linecap="round"><g transform="translate(71.03513820090834 34.97797252387545) rotate(0 -1.4210854715202004e-14 205.5386600776367)"><path d="M0.93 1.12 C0.98 69.71, -0.59 342.58, -0.88 410.94 M-0.04 0.66 C0.49 69.49, 1.08 343.74, 1.37 412.41" stroke="#1e1e1e" stroke-width="2" fill="none"></path></g></g><mask></mask><g stroke-linecap="round"><g transform="translate(10.76936709739266 408.61253947211765) rotate(0 274.53289470703123 0)"><path d="M0.45 0.62 C92.01 0.38, 458.82 -1.23, 550.22 -1.2 M-0.77 -0.1 C90.66 -0.26, 458.42 -0.13, 549.88 -0.29" stroke="#1e1e1e" stroke-width="2" fill="none"></path></g></g><mask></mask><g stroke-linecap="round"><g transform="translate(164.63514430442393 408.57799388618014) rotate(0 185.40000915527344 -185.4000091552734)"><path d="M-0.66 0.03 C61.26 -61.95, 308.47 -309.76, 370.34 -371.72 M1.19 -0.99 C63.02 -62.87, 307.74 -309.01, 369.15 -370.67" stroke="#1e1e1e" stroke-width="2" fill="none"></path></g></g><mask></mask><g transform="translate(150.23511989036143 434.17796947211764) rotate(0 13.999992370605469 12.5)"><text x="0" y="0" font-family="Virgil, Segoe UI Emoji" font-size="20px" fill="#1e1e1e" text-anchor="start" style="white-space: pre;" direction="ltr" dominant-baseline="text-before-edge">20</text></g><g transform="translate(266.23512030442396 434.2111178861801) rotate(0 12.989982604980469 12.5)"><text x="0" y="0" font-family="Virgil, Segoe UI Emoji" font-size="20px" fill="#1e1e1e" text-anchor="start" style="white-space: pre;" direction="ltr" dominant-baseline="text-before-edge">35</text></g><g transform="translate(380.21510089036144 434.21111767914886) rotate(0 13.059989929199219 12.5)"><text x="0" y="0" font-family="Virgil, Segoe UI Emoji" font-size="20px" fill="#1e1e1e" text-anchor="start" style="white-space: pre;" direction="ltr" dominant-baseline="text-before-edge">50</text></g><g stroke-linecap="round"><g transform="translate(279.2251028903614 408.6125388861801) rotate(0 1.4210854715202004e-14 -183.20001220703125)"><path d="M-0.97 -0.71 C-0.78 -62.09, 0.86 -306.51, 1.16 -367.48" stroke="#1e1e1e" stroke-width="2.5" fill="none" stroke-dasharray="8 10"></path></g></g><mask></mask><g transform="translate(178.23510489036144 224.7339104721176) rotate(0 12.42999267578125 12.5)"><text x="0" y="0" font-family="Virgil, Segoe UI Emoji" font-size="20px" fill="#1e1e1e" text-anchor="start" style="white-space: pre;" direction="ltr" dominant-baseline="text-before-edge">CL</text></g><g transform="translate(310.87514989036146 128.57799347211764) rotate(0 11.889991760253906 12.5)"><text x="0" y="0" font-family="Virgil, Segoe UI Emoji" font-size="20px" fill="#1e1e1e" text-anchor="start" style="white-space: pre;" direction="ltr" dominant-baseline="text-before-edge">CI</text></g><g stroke-linecap="round"><g transform="translate(393.2750908903614 409.23315888618015) rotate(0 0 -185.12759318115235)"><path d="M-0.92 -0.23 C-0.67 -61.73, 0.38 -307.7, 0.56 -369.41" stroke="#1e1e1e" stroke-width="2.5" fill="none" stroke-dasharray="8 10"></path></g></g><mask></mask><g transform="translate(420.63508289036145 65.85528047211764) rotate(0 11.949989318847656 12.5)"><text x="0" y="0" font-family="Virgil, Segoe UI Emoji" font-size="20px" fill="#1e1e1e" text-anchor="start" style="white-space: pre;" direction="ltr" dominant-baseline="text-before-edge">CH</text></g><g transform="translate(233.96936389036142 350.17796947211764) rotate(0 13.649993896484375 12.5)"><text x="0" y="0" font-family="Virgil, Segoe UI Emoji" font-size="20px" fill="#1e1e1e" text-anchor="start" style="white-space: pre;" direction="ltr" dominant-baseline="text-before-edge">ML</text></g><g transform="translate(214.2893868903614 362.67796947211764) rotate(0 9.839988708496094 12.5)"><text x="0" y="0" font-family="Virgil, Segoe UI Emoji" font-size="20px" fill="#1e1e1e" text-anchor="start" style="white-space: pre;" direction="ltr" dominant-baseline="text-before-edge">or</text></g><g transform="translate(234.76936689036148 378.79650847211764) rotate(0 13.249992370605469 12.5)"><text x="0" y="0" font-family="Virgil, Segoe UI Emoji" font-size="20px" fill="#1e1e1e" text-anchor="start" style="white-space: pre;" direction="ltr" dominant-baseline="text-before-edge">OL</text></g><g transform="translate(314.9751561818653 309.07796347211763) rotate(0 9.839988708496094 12.5)"><text x="0" y="0" font-family="Virgil, Segoe UI Emoji" font-size="20px" fill="#1e1e1e" text-anchor="start" style="white-space: pre;" direction="ltr" dominant-baseline="text-before-edge">or</text></g><g transform="translate(334.6551338903614 284.07796347211763) rotate(0 13.109992980957031 12.5)"><text x="0" y="0" font-family="Virgil, Segoe UI Emoji" font-size="20px" fill="#1e1e1e" text-anchor="start" style="white-space: pre;" direction="ltr" dominant-baseline="text-before-edge">MI</text></g><g transform="translate(335.4551368903614 325.17796947211764) rotate(0 12.709991455078125 12.5)"><text x="0" y="0" font-family="Virgil, Segoe UI Emoji" font-size="20px" fill="#1e1e1e" text-anchor="start" style="white-space: pre;" direction="ltr" dominant-baseline="text-before-edge">OI</text></g><g transform="translate(431.3650708903614 229.01410247211766) rotate(0 13.169990539550781 12.5)"><text x="0" y="0" font-family="Virgil, Segoe UI Emoji" font-size="20px" fill="#1e1e1e" text-anchor="start" style="white-space: pre;" direction="ltr" dominant-baseline="text-before-edge">MH</text></g><g transform="translate(420.6350831818653 249.73391047211766) rotate(0 9.839988708496094 12.5)"><text x="0" y="0" font-family="Virgil, Segoe UI Emoji" font-size="20px" fill="#1e1e1e" text-anchor="start" style="white-space: pre;" direction="ltr" dominant-baseline="text-before-edge">or</text></g><g transform="translate(440.31506089036145 271.57796347211763) rotate(0 12.769989013671875 12.5)"><text x="0" y="0" font-family="Virgil, Segoe UI Emoji" font-size="20px" fill="#1e1e1e" text-anchor="start" style="white-space: pre;" direction="ltr" dominant-baseline="text-before-edge">OH</text></g><g transform="translate(369.93795349836637 72.87043908481581) rotate(315 94.0898971557617 12.5)"><text x="0" y="0" font-family="Virgil, Segoe UI Emoji" font-size="20px" fill="#1e1e1e" text-anchor="start" style="white-space: pre;" direction="ltr" dominant-baseline="text-before-edge">Ip = 0.73(Wl - 20)</text></g></svg>
