<svg version="1.1" xmlns="http://www.w3.org/2000/svg" viewBox="0 0 643.0436120154664 635.6870250043166" width="1929.130836046399" height="1907.06107501295">
  <!-- svg-source:excalidraw -->
  
  <defs>
    <style class="style-fonts">
      @font-face {
        font-family: "Virgil";
        src: url("https://excalidraw.com/Virgil.woff2");
      }
      @font-face {
        font-family: "Cascadia";
        src: url("https://excalidraw.com/Cascadia.woff2");
      }
      @font-face {
        font-family: "Assistant";
        src: url("https://excalidraw.com/Assistant-Regular.woff2");
      }
    </style>
    
  </defs>
  <rect x="0" y="0" width="643.0436120154664" height="635.6870250043166" fill="#ffffff"></rect><g stroke-linecap="round"><g transform="translate(91.38515645687721 486.16834116715245) rotate(0 0 -235.49857248601984)"><path d="M0.13 -1.15 C0.2 -79.72, 0.72 -392.18, 0.83 -470.47 M-1.26 0.86 C-1.31 -78.15, 0.03 -393.91, 0.32 -472.31" stroke="#1e1e1e" stroke-width="1" fill="none"></path></g></g><mask></mask><g stroke-linecap="round"><g transform="translate(84.6405935192372 12.923008549233145) rotate(0 240.55700433746108 0)"><path d="M-0.67 -0.23 C79.82 -0.17, 401.84 0.26, 482.31 0.33 M1.18 -1.4 C81.68 -1.72, 401.86 -2.12, 481.99 -1.62" stroke="#1e1e1e" stroke-width="1" fill="none"></path></g></g><mask></mask><g stroke-linecap="round"><g transform="translate(565.7546021941594 11.798914726292878) rotate(0 0 241.68112710503556)"><path d="M0.33 -0.49 C0.15 79.88, -0.57 402.04, -0.63 482.57 M-0.95 -1.8 C-0.77 78.68, 1.73 402.78, 1.75 483.69" stroke="#1e1e1e" stroke-width="1" fill="none"></path></g></g><mask></mask><g stroke-linecap="round"><g transform="translate(50.91762445965355 479.42370104382053) rotate(0 58.453110349955296 0)"><path d="M-0.31 0.19 C19.07 0.18, 96.3 -0.83, 115.79 -0.95 M1.73 -0.76 C21.5 -0.56, 98.92 -0.12, 117.92 0.09" stroke="#1e1e1e" stroke-width="1" fill="none"></path></g></g><mask></mask><g stroke-linecap="round"><g transform="translate(68.90320281238542 483.92015352127237) rotate(0 -28.945522071031178 28.945522071031064)"><path d="M-0.44 0.59 C-10.12 10.29, -48.4 49.32, -57.93 58.91 M1.52 -0.15 C-8.33 9.18, -48.93 47.36, -58.9 57.32" stroke="#1e1e1e" stroke-width="1" fill="none"></path></g></g><mask></mask><g stroke-linecap="round"><g transform="translate(134.1009532856724 487.29239639724665) rotate(0 -40.18651818969988 40.18651818969988)"><path d="M0.32 -0.94 C-13.17 12.42, -68.17 66.78, -81.43 80.5 M-0.97 1.18 C-14.06 14.72, -66.2 69.04, -79.28 82.11" stroke="#1e1e1e" stroke-width="1" fill="none"></path></g></g><mask></mask><g stroke-linecap="round"><g transform="translate(167.82384515956414 495.161168936364) rotate(0 -31.755737331958244 31.755737331958244)"><path d="M-0.16 0.04 C-10.61 10.47, -52.41 52.05, -62.8 62.47 M-1.7 -0.99 C-12.23 9.57, -53.21 52.73, -63.37 63.47" stroke="#1e1e1e" stroke-width="1" fill="none"></path></g></g><mask></mask><g stroke-linecap="round"><g transform="translate(104.45536951923737 479.6119154596063) rotate(0 -37.93833054382003 37.93833054382003)"><path d="M-0.94 1.03 C-13.4 13.93, -62.65 63.81, -75.25 76.24 M0.77 0.52 C-11.76 13.16, -62.8 61.6, -75.87 74.3" stroke="#1e1e1e" stroke-width="1" fill="none"></path></g></g><mask></mask><g stroke-linecap="round"><g transform="translate(515.2914663798517 478.2953247120113) rotate(0 58.453110349955296 0)"><path d="M-0.61 0.69 C18.64 0.4, 96.73 -0.97, 116.34 -1.11 M1.27 0 C20.23 -0.23, 95.91 -0.34, 115.1 -0.16" stroke="#1e1e1e" stroke-width="1" fill="none"></path></g></g><mask></mask><g stroke-linecap="round"><g transform="translate(533.2770447325836 482.79177718946266) rotate(0 -28.945522071031178 28.945522071031064)"><path d="M-0.56 -1.11 C-10.08 8.39, -48.01 47.89, -57.71 57.74 M1.34 0.91 C-8.26 10.55, -48.95 49.46, -58.56 59.19" stroke="#1e1e1e" stroke-width="1" fill="none"></path></g></g><mask></mask><g stroke-linecap="round"><g transform="translate(598.4747952058704 486.1640200654374) rotate(0 -40.18651818969988 40.18651818969988)"><path d="M0.18 -0.16 C-13.27 13.43, -67.9 67.02, -81.26 80.42 M-1.18 -1.28 C-14.21 12.61, -65.78 68.18, -79.02 81.98" stroke="#1e1e1e" stroke-width="1" fill="none"></path></g></g><mask></mask><g stroke-linecap="round"><g transform="translate(632.1976870797623 494.03279260455474) rotate(0 -31.755737331958244 31.755737331958244)"><path d="M-0.89 0.04 C-11.44 10.63, -52.55 52.99, -63.15 63.38 M0.85 -0.98 C-9.85 9.82, -53.42 54.17, -63.91 64.84" stroke="#1e1e1e" stroke-width="1" fill="none"></path></g></g><mask></mask><g stroke-linecap="round"><g transform="translate(568.8292114394351 478.4835391277975) rotate(0 -37.93833054382003 37.93833054382003)"><path d="M0.36 -0.14 C-12.3 12.31, -63.99 61.96, -76.85 74.73 M-0.91 -1.25 C-13.12 11.29, -62.41 63.04, -74.65 75.66" stroke="#1e1e1e" stroke-width="1" fill="none"></path></g></g><mask></mask><g transform="translate(95.68668438269765 573.1870250043162) rotate(0 9.534042358398438 17.5)"><text x="0" y="0" font-family="Virgil, Segoe UI Emoji" font-size="28px" fill="#1e1e1e" text-anchor="start" style="white-space: pre;" direction="ltr" dominant-baseline="text-before-edge">3</text></g><g transform="translate(547.0838843826978 590.6870250043166) rotate(0 9.534042358398438 17.5)"><text x="0" y="0" font-family="Virgil, Segoe UI Emoji" font-size="28px" fill="#1e1e1e" text-anchor="start" style="white-space: pre;" direction="ltr" dominant-baseline="text-before-edge">3</text></g></svg>