<svg version="1.1" xmlns="http://www.w3.org/2000/svg" viewBox="0 0 357.8515441327186 272.1984396072512" width="1073.5546323981557" height="816.5953188217536">
  <!-- svg-source:excalidraw -->
  
  <defs>
    <style class="style-fonts">
      @font-face {
        font-family: "Virgil";
        src: url("https://excalidraw.com/Virgil.woff2");
      }
      @font-face {
        font-family: "Cascadia";
        src: url("https://excalidraw.com/Cascadia.woff2");
      }
      @font-face {
        font-family: "Assistant";
        src: url("https://excalidraw.com/Assistant-Regular.woff2");
      }
    </style>
    
  </defs>
  <rect x="0" y="0" width="357.8515441327186" height="272.1984396072512" fill="#ffffff"></rect><g stroke-linecap="round"><g transform="translate(50.430428077911415 37.9865208714109) rotate(0 90.25654048629985 0)"><path d="M-0.18 -0.01 C30.14 0.02, 151.6 0.37, 181.63 0.33 M-1.73 -1.06 C28.55 -1.41, 151.16 -1.95, 181.27 -1.61" stroke="#1971c2" stroke-width="1" fill="none"></path></g></g><mask></mask><g stroke-linecap="round"><g transform="translate(74.21903484039365 12.098997072367638) rotate(0 7.871208995081361 7.87120899508227)"><path d="M1.12 0.33 C3.69 2.92, 12.71 13.06, 15.24 15.49 M0.25 -0.54 C2.63 2.23, 11.44 14.18, 14.03 16.89" stroke="#1971c2" stroke-width="1" fill="none"></path></g></g><mask></mask><g stroke-linecap="round"><g transform="translate(95.92319014875363 17.844681214344746) rotate(0 7.871208995081361 7.87120899508227)"><path d="M-0.5 -0.26 C2.03 2.16, 13.43 12.2, 16.29 14.86 M1.44 -1.44 C3.76 1.08, 13.14 12.87, 15.63 15.93" stroke="#1971c2" stroke-width="1" fill="none"></path></g></g><mask></mask><g stroke-linecap="round"><g transform="translate(101.17066281214181 17.844681214344746) rotate(0 7.871208995081361 7.87120899508227)"><path d="M0.55 -0.88 C3.41 1.77, 13.99 12.88, 16.66 15.67 M-0.62 1.27 C2.2 4.14, 13.38 14.51, 16.2 17.17" stroke="#1971c2" stroke-width="1" fill="none"></path></g></g><mask></mask><g stroke-linecap="round"><g transform="translate(111.66560813892181 16.970102437109745) rotate(0 7.871208995081361 7.87120899508227)"><path d="M0.92 -0.07 C3.59 2.72, 14.14 13.29, 16.59 15.85 M-0.06 -1.16 C2.48 1.92, 13.61 14.53, 16.08 17.44" stroke="#1971c2" stroke-width="1" fill="none"></path></g></g><mask></mask><g stroke-linecap="round"><g transform="translate(122.16055346569817 14.346366105419293) rotate(0 7.871208995081361 7.87120899508227)"><path d="M0.84 0.11 C3.29 2.66, 13.16 12.54, 15.6 15.25 M-0.17 -0.88 C2.02 1.84, 12.12 14, 14.58 16.53" stroke="#1971c2" stroke-width="1" fill="none"></path></g></g><mask></mask><g stroke-linecap="round"><g transform="translate(131.78092001524317 15.220944882654294) rotate(0 7.871208995081361 7.87120899508227)"><path d="M-0.14 -0.49 C2.3 2.21, 12.8 13.71, 15.49 16.34 M-1.67 -1.8 C0.51 0.55, 11.57 11.51, 14.41 14.53" stroke="#1971c2" stroke-width="1" fill="none"></path></g></g><mask></mask><g stroke-linecap="round"><g transform="translate(142.27586534202317 16.970102437109745) rotate(0 7.871208995081361 7.87120899508227)"><path d="M-0.25 0.6 C2.43 3.22, 13.39 12.54, 15.98 15.25 M1.81 -0.14 C4.38 2.69, 13.08 13.98, 15.15 16.53" stroke="#1971c2" stroke-width="1" fill="none"></path></g></g><mask></mask><g stroke-linecap="round"><g transform="translate(160.6420196638818 19.59383876881475) rotate(0 7.871208995081361 7.87120899508227)"><path d="M0.24 -0.49 C2.83 2.22, 12.75 14.08, 15.29 16.89 M-1.1 -1.79 C1.31 0.56, 11.5 12.67, 14.1 15.36" stroke="#1971c2" stroke-width="1" fill="none"></path></g></g><mask></mask><g stroke-linecap="round"><g transform="translate(186.87938298082997 19.59383876881475) rotate(0 7.871208995081361 7.87120899508227)"><path d="M-0.46 1.14 C2.08 3.95, 12.76 13.8, 15.44 16.36 M1.5 0.7 C3.83 3.2, 12.12 12.26, 14.33 14.57" stroke="#1971c2" stroke-width="1" fill="none"></path></g></g><mask></mask><g stroke-linecap="round"><g transform="translate(77.01764425776935 37.2868685256326) rotate(0 0 108.09793553131021)"><path d="M-0.3 0.62 C-0.25 36.59, -0.07 180.91, -0.15 216.97 M1.74 -0.1 C1.66 36.05, -1.17 179.39, -1.17 215.25" stroke="#1971c2" stroke-width="1" fill="none"></path></g></g><mask></mask><g stroke-linecap="round"><g transform="translate(75.61833956622002 255.5817233156049) rotate(0 55.97304174281544 0)"><path d="M-0.15 0.77 C18.43 0.8, 92.49 1.03, 111.18 0.8 M-1.68 0.13 C17.31 -0.23, 94.67 -0.94, 113.48 -0.9" stroke="#1971c2" stroke-width="1" fill="none"></path></g></g><mask></mask><g stroke-linecap="round"><g transform="translate(185.17810430769794 40.97898925298068) rotate(0 0 106.69861749474876)"><path d="M-0.77 0.8 C-0.74 36.13, -0.22 177.32, 0.03 212.76 M1.03 0.17 C0.91 35.59, -0.8 178.19, -0.9 213.97" stroke="#1971c2" stroke-width="1" fill="none"></path></g></g><mask></mask><g stroke-linecap="round"><g transform="translate(261.72863900107484 33.088887644480565) rotate(0 42.67943380485758 0)"><path d="M0.03 -0.64 C14.51 -0.76, 72.04 -0.06, 86.12 0.06 M-1.41 1.64 C13.05 1.66, 70.84 1.66, 85.58 1.62" stroke="#1971c2" stroke-width="1" fill="none"></path></g></g><mask></mask><g stroke-linecap="round"><g transform="translate(291.5689109929343 33.32759094868379) rotate(0 0 109.67722425016345)"><path d="M0.76 0.06 C0.62 36.73, -0.69 182.79, -0.83 219.42 M-0.29 -0.96 C-0.06 35.98, 1.54 184.54, 1.45 220.99" stroke="#1971c2" stroke-width="1" fill="none"></path></g></g><mask></mask><g stroke-linecap="round"><g transform="translate(332.9702267020465 37.65385719460755) rotate(0 -19.97432967664571 108.2404331589309)"><path d="M-0.83 0.07 C-7.62 36.21, -33.62 180.93, -39.99 216.95 M0.94 -0.95 C-6.08 34.83, -34.25 178.69, -40.96 215.07" stroke="#1971c2" stroke-width="1" fill="none"></path></g></g><mask></mask><g stroke-linecap="round"><g transform="translate(199.00294007017771 252.9702742424779) rotate(0 12.943755227015572 0)"><path d="M-0.02 0.21 C4.43 0.18, 21.94 -0.03, 26.31 -0.14 M-0.69 -0.15 C3.75 -0.1, 21.65 0.47, 26.09 0.48" stroke="#1971c2" stroke-width="1" fill="none"></path></g></g><mask></mask><g transform="translate(199.00294023542563 134.23506572104816) rotate(0 5.989997863769531 12.5)"><text x="0" y="0" font-family="Virgil, Segoe UI Emoji" font-size="20px" fill="#1971c2" text-anchor="start" style="white-space: pre;" direction="ltr" dominant-baseline="text-before-edge">L</text></g><g stroke-linecap="round"><g transform="translate(74.91863384039323 141.53665610262397) rotate(0 55.27338939704077 0)"><path d="M0.62 -1.03 C18.73 -0.86, 91.2 0.62, 109.57 0.69 M-0.51 1.05 C17.89 0.9, 93.31 -0.95, 111.76 -1.07" stroke="#1971c2" stroke-width="1" fill="none"></path></g></g><mask></mask><g stroke-linecap="round"><g transform="translate(74.63132475402824 159.23506517513306) rotate(0 55.27338939704077 0)"><path d="M-0.98 0.69 C17.39 0.76, 92.41 -0.38, 110.83 -0.62 M0.7 0.01 C18.88 0.32, 91.5 0.57, 110.04 0.59" stroke="#1971c2" stroke-width="1" fill="none"></path></g></g><mask></mask><g stroke-linecap="round"><g transform="translate(63.72398278778826 138.0383409936985) rotate(0 -25.53765759111775 2.798649418138666)"><path d="M0.29 -0.62 C-8.23 0.07, -43.49 3.72, -52.08 4.82 M-1.02 1.66 C-9.09 2.43, -41.38 5.59, -49.89 5.95" stroke="#1971c2" stroke-width="1" fill="none"></path></g></g><mask></mask><g stroke-linecap="round"><g transform="translate(58.12676402159093 159.72788399302954) rotate(0 -23.788553416707146 1.0495052086880605)"><path d="M-0.46 -0.36 C-8.42 0.07, -39.72 1.89, -47.66 2.26 M0.31 0.65 C-7.75 0.93, -40.24 1.09, -48.13 1.37" stroke="#1971c2" stroke-width="1" fill="none"></path></g></g><mask></mask><g transform="translate(34.18636382340344 141.8417594799903) rotate(0 11.309989929199219 12.5)"><text x="0" y="0" font-family="Virgil, Segoe UI Emoji" font-size="20px" fill="#1971c2" text-anchor="start" style="white-space: pre;" direction="ltr" dominant-baseline="text-before-edge">dx</text></g><g transform="translate(39.876359243161346 200.3083337906428) rotate(0 5.6199951171875 12.5)"><text x="0" y="0" font-family="Virgil, Segoe UI Emoji" font-size="20px" fill="#1971c2" text-anchor="start" style="white-space: pre;" direction="ltr" dominant-baseline="text-before-edge">x</text></g><g stroke-linecap="round"><g transform="translate(34.18636429433434 256.4572837089945) rotate(0 12.943755227015572 0)"><path d="M0.49 0.09 C4.8 0.08, 21.18 -0.26, 25.38 -0.32 M0.07 -0.34 C4.59 -0.26, 22.16 0.13, 26.35 0.21" stroke="#1971c2" stroke-width="1" fill="none"></path></g></g><mask></mask><g stroke-linecap="round"><g transform="translate(203.6565871448264 121.94609683064482) rotate(0 0 -38.13164002529811)"><path d="M-1.11 -0.71 C-1.36 -13.56, -0.46 -64.31, -0.46 -76.93 M0.51 1.54 C-0.03 -11.19, -1.77 -62.95, -1.65 -75.74" stroke="#1971c2" stroke-width="1" fill="none"></path></g><g transform="translate(203.6565871448264 121.94609683064482) rotate(0 0 -38.13164002529811)"><path d="M7.27 -52.39 C2.59 -62.31, -0.81 -72.44, -1.65 -75.74 M7.27 -52.39 C5.77 -58.5, 1.67 -65.57, -1.65 -75.74" stroke="#1971c2" stroke-width="1" fill="none"></path></g><g transform="translate(203.6565871448264 121.94609683064482) rotate(0 0 -38.13164002529811)"><path d="M-9.83 -52.12 C-7.87 -61.99, -4.62 -72.22, -1.65 -75.74 M-9.83 -52.12 C-6.46 -58.34, -5.7 -65.48, -1.65 -75.74" stroke="#1971c2" stroke-width="1" fill="none"></path></g></g><mask></mask><g stroke-linecap="round"><g transform="translate(201.55768348755453 166.72451421088044) rotate(0 0 40.930289443440415)"><path d="M-0.46 -0.67 C-0.45 13.06, -0.99 67.89, -1.09 81.67 M1.5 1.6 C1.96 15.58, 1.08 69.47, 1.05 83.11" stroke="#1971c2" stroke-width="1" fill="none"></path></g><g transform="translate(201.55768348755453 166.72451421088044) rotate(0 0 40.930289443440415)"><path d="M-7.28 59.54 C-6.8 62.65, -4.27 67.62, 1.05 83.11 M-7.28 59.54 C-5.18 67.05, -2 74.21, 1.05 83.11" stroke="#1971c2" stroke-width="1" fill="none"></path></g><g transform="translate(201.55768348755453 166.72451421088044) rotate(0 0 40.930289443440415)"><path d="M9.82 59.7 C6.75 62.72, 5.73 67.65, 1.05 83.11 M9.82 59.7 C6.51 67.25, 4.27 74.36, 1.05 83.11" stroke="#1971c2" stroke-width="1" fill="none"></path></g></g><mask></mask><g stroke-linecap="round"><g transform="translate(44.83310255160984 199.60868157279037) rotate(0 0 -13.293594744915026)"><path d="M-0.5 -0.09 C-0.54 -4.45, -0.64 -22.13, -0.48 -26.5 M0.25 -0.61 C0.38 -5.12, 0.49 -22.98, 0.51 -27.41" stroke="#1971c2" stroke-width="1" fill="none"></path></g><g transform="translate(44.83310255160984 199.60868157279037) rotate(0 0 -13.293594744915026)"><path d="M4.98 -14.9 C3.74 -18.78, 2.78 -20.92, 0.51 -27.41 M4.98 -14.9 C3.39 -19.36, 2.11 -23.45, 0.51 -27.41" stroke="#1971c2" stroke-width="1" fill="none"></path></g><g transform="translate(44.83310255160984 199.60868157279037) rotate(0 0 -13.293594744915026)"><path d="M-4.11 -14.95 C-2.97 -18.77, -1.55 -20.9, 0.51 -27.41 M-4.11 -14.95 C-2.51 -19.4, -0.6 -23.47, 0.51 -27.41" stroke="#1971c2" stroke-width="1" fill="none"></path></g></g><mask></mask><g stroke-linecap="round"><g transform="translate(46.23240724315917 226.89555009842297) rotate(0 0 14.692926126492239)"><path d="M-0.48 0.09 C-0.32 5.05, 0.45 24.78, 0.46 29.67 M0.27 -0.34 C0.44 4.47, 0.19 23.78, 0.27 28.85" stroke="#1971c2" stroke-width="1" fill="none"></path></g><g transform="translate(46.23240724315917 226.89555009842297) rotate(0 0 14.692926126492239)"><path d="M-4.76 15.04 C-3.59 18.56, -2.29 20.3, 0.27 28.85 M-4.76 15.04 C-2.97 19.57, -1.92 23.86, 0.27 28.85" stroke="#1971c2" stroke-width="1" fill="none"></path></g><g transform="translate(46.23240724315917 226.89555009842297) rotate(0 0 14.692926126492239)"><path d="M5.3 15.04 C4.35 18.52, 3.56 20.26, 0.27 28.85 M5.3 15.04 C3.97 19.56, 1.91 23.85, 0.27 28.85" stroke="#1971c2" stroke-width="1" fill="none"></path></g></g><mask></mask><g transform="translate(261.3565983392954 237.1984396072512) rotate(0 6.879997253417969 12.5)"><text x="0" y="0" font-family="Virgil, Segoe UI Emoji" font-size="20px" fill="#1971c2" text-anchor="start" style="white-space: pre;" direction="ltr" dominant-baseline="text-before-edge">0</text></g><g transform="translate(302.30911592058044 10) rotate(0 18.619979858398438 12.5)"><text x="0" y="0" font-family="Virgil, Segoe UI Emoji" font-size="20px" fill="#1971c2" text-anchor="start" style="white-space: pre;" direction="ltr" dominant-baseline="text-before-edge">max</text></g><g transform="translate(221.3566215648815 136.36413291015924) rotate(0 23.439987182617188 25)"><text x="0" y="0" font-family="Virgil, Segoe UI Emoji" font-size="20px" fill="#1971c2" text-anchor="start" style="white-space: pre;" direction="ltr" dominant-baseline="text-before-edge">A,E,ɣ</text><text x="0" y="25" font-family="Virgil, Segoe UI Emoji" font-size="20px" fill="#1971c2" text-anchor="start" style="white-space: pre;" direction="ltr" dominant-baseline="text-before-edge"></text></g></svg>