<svg version="1.1" xmlns="http://www.w3.org/2000/svg" viewBox="0 0 600.4445118748067 477.25983296315144" width="1801.3335356244202" height="1431.7794988894543">
  <!-- svg-source:excalidraw -->
  
  <defs>
    <style class="style-fonts">
      @font-face {
        font-family: "Virgil";
        src: url("https://excalidraw.com/Virgil.woff2");
      }
      @font-face {
        font-family: "Cascadia";
        src: url("https://excalidraw.com/Cascadia.woff2");
      }
      @font-face {
        font-family: "Assistant";
        src: url("https://excalidraw.com/Assistant-Regular.woff2");
      }
    </style>
    <clipPath id="_6ShAAHAkkvgicJXD-qk1">
            <rect transform="translate(0 0) rotate(0 300.22225593740336 238.62991648157572)" width="600.4445118748066" height="477.2598329631513">
          </rect>
        </clipPath>
  </defs>
  <rect x="0" y="0" width="600.4445118748067" height="477.25983296315144" fill="#ffffff"></rect><g clip-path="url(#_6ShAAHAkkvgicJXD-qk1)"><g stroke-linecap="round"><g transform="translate(79.97321264352763 85.1328029924648) rotate(0 148.01505118378645 0)"><path d="M0.43 -0.89 C49.89 -1.04, 247.72 -0.69, 297.11 -0.46 M-0.8 1.26 C48.56 1.24, 247.2 1.31, 296.73 0.84" stroke="#1971c2" stroke-width="1" fill="none"></path></g></g><mask></mask></g><g clip-path="url(#_6ShAAHAkkvgicJXD-qk1)"><g stroke-linecap="round"><g transform="translate(81.05628821627852 209.7609609435831) rotate(0 148.01505118378645 0)"><path d="M0.02 -0.51 C49.57 -0.5, 246.8 0.13, 296.25 0.11 M-1.43 -1.83 C48.07 -1.61, 245.79 1.35, 295.42 1.7" stroke="#1971c2" stroke-width="1" fill="none"></path></g></g><mask></mask></g><g clip-path="url(#_6ShAAHAkkvgicJXD-qk1)"><g stroke-linecap="round"><g transform="translate(83.84282782960463 11.609001479802828) rotate(0 0 150.91730708935074)"><path d="M-1.18 -0.58 C-1.11 49.64, -0.6 251.49, -0.24 301.91 M0.41 1.72 C0.35 52.11, -1.37 253.23, -1.32 303.49" stroke="#1971c2" stroke-width="1" fill="none"></path></g></g><mask></mask></g><g clip-path="url(#_6ShAAHAkkvgicJXD-qk1)"><g stroke-linecap="round"><g transform="translate(377.0863897452325 25.58601161572551) rotate(0 0 150.91730708935074)"><path d="M-1.18 -0.78 C-1.19 49.59, 0.71 252.4, 0.83 302.72 M0.4 1.43 C0.23 51.43, 0.62 250.95, 0.32 301.06" stroke="#1971c2" stroke-width="1" fill="none"></path></g></g><mask></mask></g><g clip-path="url(#_6ShAAHAkkvgicJXD-qk1)"><g stroke-linecap="round"><g transform="translate(83.19790667554071 41.276481689511) rotate(0 -32.56976932895577 56.755231518250184)"><path d="M0.77 -0.06 C-9.9 18.54, -53.52 93.32, -64.7 112.38 M-0.28 -1.13 C-11.02 17.49, -54.8 94.4, -65.42 113.32" stroke="#1971c2" stroke-width="1" fill="none"></path></g></g><mask></mask></g><g clip-path="url(#_6ShAAHAkkvgicJXD-qk1)"><g stroke-linecap="round"><g transform="translate(78.43674730073917 116.51043573809602) rotate(0 -32.56976932895577 56.755231518250184)"><path d="M0.17 -1.19 C-10.5 17.87, -53.68 94.85, -64.61 113.81 M-1.2 0.8 C-11.94 19.52, -54.43 93.08, -65.28 111.85" stroke="#1971c2" stroke-width="1" fill="none"></path></g></g><mask></mask></g><g clip-path="url(#_6ShAAHAkkvgicJXD-qk1)"><g stroke-linecap="round"><g transform="translate(75.53449139517488 204.30367688141996) rotate(0 -32.56976932895577 56.755231518250184)"><path d="M-0.28 -0.92 C-11.36 18.07, -55.15 95.19, -65.92 114.21 M1.77 1.21 C-8.97 19.83, -52.39 93.6, -63.61 112.45" stroke="#1971c2" stroke-width="1" fill="none"></path></g></g><mask></mask></g><g clip-path="url(#_6ShAAHAkkvgicJXD-qk1)"><g stroke-linecap="round"><g transform="translate(444.88814366155657 11.02578876003463) rotate(0 -32.56976932895577 56.755231518250184)"><path d="M0.22 -0.34 C-10.32 18.27, -53.09 93.38, -64.07 112.33 M-1.12 -1.56 C-11.66 17.09, -53.53 93.88, -64.46 113.25" stroke="#1971c2" stroke-width="1" fill="none"></path></g></g><mask></mask></g><g clip-path="url(#_6ShAAHAkkvgicJXD-qk1)"><g stroke-linecap="round"><g transform="translate(444.8720470629073 115.3222548173494) rotate(0 -32.56976932895577 56.755231518250184)"><path d="M-0.51 -0.12 C-11.59 19.19, -54.7 95.71, -65.43 114.68 M1.43 -1.23 C-9.93 17.88, -55.37 93.78, -66.54 113.17" stroke="#1971c2" stroke-width="1" fill="none"></path></g></g><mask></mask></g><g clip-path="url(#_6ShAAHAkkvgicJXD-qk1)"><g stroke-linecap="round"><g transform="translate(452.2795492517787 221.71718993706463) rotate(0 -32.56976932895577 56.755231518250184)"><path d="M0.21 0.19 C-10.46 19.07, -53.45 95.62, -64.29 114.47 M-1.15 -0.76 C-11.87 18.31, -54.07 93.64, -64.79 112.85" stroke="#1971c2" stroke-width="1" fill="none"></path></g></g><mask></mask></g><g clip-path="url(#_6ShAAHAkkvgicJXD-qk1)"><g stroke-linecap="round"><g transform="translate(217.4951391426339 86.3944944314394) rotate(0 0 61.26983459388521)"><path d="M0.7 0.32 C0.9 20.62, 0.48 101.93, 0.42 122.2 M-0.4 -0.56 C-0.24 19.89, -0.34 102.97, -0.31 123.56" stroke="#1971c2" stroke-width="1" fill="none"></path></g></g><mask></mask></g><g clip-path="url(#_6ShAAHAkkvgicJXD-qk1)"><g stroke-linecap="round"><g transform="translate(239.02665398936324 87.1580919479361) rotate(0 0 61.26983459388521)"><path d="M0.84 -0.48 C1.04 20.04, 0.7 101.65, 0.45 122.23 M-0.18 -1.77 C-0.03 18.99, -0.6 103.15, -0.27 123.6" stroke="#1971c2" stroke-width="1" fill="none"></path></g></g><mask></mask></g><g clip-path="url(#_6ShAAHAkkvgicJXD-qk1)"><g stroke-linecap="round"><g transform="translate(236.05002151199415 92.87214469315177) rotate(0 -10.641603141864948 10.641603141865062)"><path d="M-0.11 -0.46 C-3.54 3.06, -17.35 16.58, -21.04 20.35 M-1.63 -1.75 C-5.16 1.97, -18.81 17.73, -21.86 21.4" stroke="#1971c2" stroke-width="1" fill="none"></path></g></g><mask></mask></g><g clip-path="url(#_6ShAAHAkkvgicJXD-qk1)"><g stroke-linecap="round"><g transform="translate(238.55514570716196 97.3696077513282) rotate(0 -10.641603141864948 10.641603141865062)"><path d="M-0.86 1.07 C-4.14 4.64, -16.94 18.61, -20.52 22.04 M0.89 0.58 C-2.4 3.76, -17.59 17.16, -21.06 20.32" stroke="#1971c2" stroke-width="1" fill="none"></path></g></g><mask></mask></g><g clip-path="url(#_6ShAAHAkkvgicJXD-qk1)"><g stroke-linecap="round"><g transform="translate(239.21755554189963 147.54371799584442) rotate(0 -10.641603141864948 10.641603141865062)"><path d="M-0.42 -0.03 C-3.82 3.45, -17.16 17.92, -20.63 21.44 M1.57 -1.09 C-1.93 2.56, -17.31 19.16, -21.23 23.06" stroke="#1971c2" stroke-width="1" fill="none"></path></g></g><mask></mask></g><g clip-path="url(#_6ShAAHAkkvgicJXD-qk1)"><g stroke-linecap="round"><g transform="translate(241.27781047107328 155.27167552366654) rotate(0 -10.641603141864948 10.641603141865062)"><path d="M0.07 -0.21 C-3.62 3.35, -17.88 17.83, -21.43 21.53 M-1.36 -1.37 C-5.27 1.79, -19.02 15.98, -22.46 19.54" stroke="#1971c2" stroke-width="1" fill="none"></path></g></g><mask></mask></g><g clip-path="url(#_6ShAAHAkkvgicJXD-qk1)"><g stroke-linecap="round"><g transform="translate(237.48730317139848 124.52266203624276) rotate(0 -10.641603141864948 10.641603141865062)"><path d="M-0.43 1.13 C-4.02 4.77, -18.68 19.07, -22.33 22.48 M1.54 0.67 C-1.62 3.96, -16.58 17.26, -20.16 20.99" stroke="#1971c2" stroke-width="1" fill="none"></path></g></g><mask></mask></g><g clip-path="url(#_6ShAAHAkkvgicJXD-qk1)"><g stroke-linecap="round"><g transform="translate(239.9924273665663 129.0201250944192) rotate(0 -10.641603141864948 10.641603141865062)"><path d="M-1.04 1.2 C-4.69 4.6, -18.8 18.16, -22.32 21.57 M0.61 0.78 C-2.64 4.32, -16.77 16.47, -20.15 19.6" stroke="#1971c2" stroke-width="1" fill="none"></path></g></g><mask></mask></g><g clip-path="url(#_6ShAAHAkkvgicJXD-qk1)"><g stroke-linecap="round"><g transform="translate(240.65483720130374 179.19423533893496) rotate(0 -10.641603141864948 10.641603141865062)"><path d="M-1.04 0.29 C-4.55 3.7, -18.69 18, -22.14 21.68 M0.62 -0.61 C-2.43 2.94, -15.99 16.23, -19.87 19.77" stroke="#1971c2" stroke-width="1" fill="none"></path></g></g><mask></mask></g><g clip-path="url(#_6ShAAHAkkvgicJXD-qk1)"><g stroke-linecap="round"><g transform="translate(242.71509213047716 186.92219286675754) rotate(0 -10.641603141864948 10.641603141865062)"><path d="M-0.85 0.4 C-4.3 4.09, -18.46 19.01, -21.7 22.41 M0.9 -0.44 C-2.65 2.92, -19.3 17.16, -22.86 20.89" stroke="#1971c2" stroke-width="1" fill="none"></path></g></g><mask></mask></g><g clip-path="url(#_6ShAAHAkkvgicJXD-qk1)"><g stroke-linecap="round"><g transform="translate(216.0567128925304 214.76689272685826) rotate(0 -0.6449211540639226 15.156222824341285)"><path d="M0.14 0.41 C-0.07 5.36, -0.61 25.34, -0.88 30.27 M-0.45 0.15 C-0.74 5.42, -0.85 25.89, -1.09 30.95" stroke="#1971c2" stroke-width="1" fill="none"></path></g></g><mask></mask></g><g clip-path="url(#_6ShAAHAkkvgicJXD-qk1)"><g stroke-linecap="round"><g transform="translate(82.52105516176607 230.3239816172504) rotate(0 65.1554595528562 0)"><path d="M-0.69 0.31 C20.82 0.28, 107.87 -0.22, 129.87 -0.42 M1.15 -0.58 C22.4 -0.41, 107.04 0.81, 128.69 0.9" stroke="#1971c2" stroke-width="1" fill="none"></path></g></g><mask></mask></g><g clip-path="url(#_6ShAAHAkkvgicJXD-qk1)"><g transform="translate(147.11321878403555 235.94773084652888) rotate(0 5.6199951171875 12.5)"><text x="0" y="0" font-family="Virgil, Segoe UI Emoji" font-size="20px" fill="#1971c2" text-anchor="start" style="white-space: pre;" direction="ltr" dominant-baseline="text-before-edge">x</text></g></g><g clip-path="url(#_6ShAAHAkkvgicJXD-qk1)"><g mask="url(#mask-g8APVKQ1EovovnG71TU57)" stroke-linecap="round"><g transform="translate(84.39221367554069 278.57292966968043) rotate(0 145.75773857474132 0)"><path d="M-0.9 -0.99 C47.88 -0.92, 243.89 -0.15, 292.64 -0.09 M0.83 1.1 C49.55 1.42, 243.94 1.52, 292.28 1.4" stroke="#1971c2" stroke-width="1" fill="none"></path></g></g><mask id="mask-g8APVKQ1EovovnG71TU57"><rect x="0" y="0" fill="#fff" width="475.90769082502334" height="378.57292966968043"></rect><rect x="224.15995438651248" y="266.07292966968043" fill="#000" width="11.979995727539062" height="25" opacity="1"></rect></mask></g><g clip-path="url(#_6ShAAHAkkvgicJXD-qk1)"><g transform="translate(224.15995438651248 266.07292966968043) rotate(0 6.099916009604954 12.728452752400699)"><text x="5.989997863769531" y="0" font-family="Virgil, Segoe UI Emoji" font-size="20px" fill="#1971c2" text-anchor="middle" style="white-space: pre;" direction="ltr" dominant-baseline="text-before-edge">L</text></g></g><g clip-path="url(#_6ShAAHAkkvgicJXD-qk1)"><g stroke-linecap="round"><g transform="translate(239.92894916905902 214.9125593082881) rotate(0 0 18.70341095519757)"><path d="M-0.17 0.3 C-0.07 6.37, 0.14 30.69, 0.08 36.86 M0.74 -0.02 C0.82 6.33, -0.27 30.96, -0.31 37.28" stroke="#1971c2" stroke-width="1" fill="none"></path></g></g><mask></mask></g><g clip-path="url(#_6ShAAHAkkvgicJXD-qk1)"><g mask="url(#mask-j6ZxxXmikLtDCGIJ1Waok)" stroke-linecap="round"><g transform="translate(215.4117474535558 230.89054156720613) rotate(0 11.931506341745035 0.32249379071504336)"><path d="M0.52 0.01 C4.44 0.2, 19.68 1, 23.63 1.05 M0.12 -0.46 C3.95 -0.42, 19.1 0.09, 23.09 0.29" stroke="#1971c2" stroke-width="1" fill="none"></path></g></g><mask id="mask-j6ZxxXmikLtDCGIJ1Waok"><rect x="0" y="0" fill="#fff" width="339.27476013704586" height="331.5355291486362"></rect><rect x="216.0332638661016" y="218.7130353579214" fill="#000" width="22.619979858398438" height="25" opacity="1"></rect></mask></g><g clip-path="url(#_6ShAAHAkkvgicJXD-qk1)"><g transform="translate(216.0332638661016 218.7130353579214) rotate(0 11.253887299977919 12.474984859722781)"><text x="11.309989929199219" y="0" font-family="Virgil, Segoe UI Emoji" font-size="20px" fill="#1971c2" text-anchor="middle" style="white-space: pre;" direction="ltr" dominant-baseline="text-before-edge">dx</text></g></g><g clip-path="url(#_6ShAAHAkkvgicJXD-qk1)"><g stroke-linecap="round"><g transform="translate(83.84282782960463 307.6391038473753) rotate(0 144.46785198170278 0)"><path d="M0.19 -1.17 C48.53 -1.26, 240.66 0.05, 288.98 0.16 M-1.17 0.84 C47.12 0.9, 239.53 1.82, 288.05 1.78" stroke="#1971c2" stroke-width="1" fill="none"></path></g></g><mask></mask></g><g clip-path="url(#_6ShAAHAkkvgicJXD-qk1)"><g stroke-linecap="round"><g transform="translate(81.83463742264348 318.5099651875162) rotate(0 0 59.6574874238147)"><path d="M-0.78 -0.26 C-1.11 19.62, -0.93 98.44, -0.86 118.26 M1.01 -1.45 C0.97 18.65, 1.79 99.06, 1.4 119.24" stroke="#1971c2" stroke-width="1" fill="none"></path></g></g><mask></mask></g><g clip-path="url(#_6ShAAHAkkvgicJXD-qk1)"><g stroke-linecap="round"><g transform="translate(377.27592598499245 317.06194737132273) rotate(0 0.3224605770319613 64.17209049944972)"><path d="M-0.83 -0.16 C-0.59 21.28, 1.03 106.84, 1.41 128.15 M0.93 -1.28 C1.09 20.37, 0.84 107.92, 0.86 129.59" stroke="#1971c2" stroke-width="1" fill="none"></path></g></g><mask></mask></g><g clip-path="url(#_6ShAAHAkkvgicJXD-qk1)"><g stroke-linecap="round"><g transform="translate(83.84282782960463 312.153729065466) rotate(0 147.6925906067545 60.94735187439778)"><path d="M-0.22 0.72 C28.67 7.22, 123.39 19.78, 172.86 40.1 C222.32 60.43, 276.33 108.88, 296.57 122.68 M-1.79 0.06 C26.98 7.16, 122.22 20.91, 171.92 41.03 C221.62 61.14, 276.09 107.45, 296.43 120.75" stroke="#1971c2" stroke-width="1" fill="none"></path></g></g><mask></mask></g><g clip-path="url(#_6ShAAHAkkvgicJXD-qk1)"><g stroke-linecap="round"><g transform="translate(216.0567128925304 306.9941384084009) rotate(0 0.6449432965192727 17.41353543338664)"><path d="M0.31 0.4 C0.57 6.35, 0.97 29.5, 1.11 35.16 M-0.19 0.13 C0.02 5.97, 0.43 28.6, 0.59 34.36" stroke="#1971c2" stroke-width="1" fill="none"></path></g></g><mask></mask></g><g clip-path="url(#_6ShAAHAkkvgicJXD-qk1)"><g transform="translate(227.68295010782685 313.4328238097746) rotate(0 13.659988403320312 12.5)"><text x="0" y="0" font-family="Virgil, Segoe UI Emoji" font-size="20px" fill="#1971c2" text-anchor="start" style="white-space: pre;" direction="ltr" dominant-baseline="text-before-edge">Tx</text></g></g><g clip-path="url(#_6ShAAHAkkvgicJXD-qk1)"><g transform="translate(408.8954892528218 356.6549715224837) rotate(0 82.71990203857422 12.5)"><text x="0" y="0" font-family="Virgil, Segoe UI Emoji" font-size="20px" fill="#1971c2" text-anchor="start" style="white-space: pre;" direction="ltr" dominant-baseline="text-before-edge">T degree Celsius</text></g></g><g clip-path="url(#_6ShAAHAkkvgicJXD-qk1)"><g transform="translate(69.00908772475054 179.29490070602105) rotate(0 6.55999755859375 12.5)"><text x="0" y="0" font-family="Virgil, Segoe UI Emoji" font-size="20px" fill="#1971c2" text-anchor="start" style="white-space: pre;" direction="ltr" dominant-baseline="text-before-edge">A</text></g></g><g clip-path="url(#_6ShAAHAkkvgicJXD-qk1)"><g transform="translate(387.49370585144834 195.43136575802464) rotate(0 7.269996643066406 12.5)"><text x="0" y="0" font-family="Virgil, Segoe UI Emoji" font-size="20px" fill="#1971c2" text-anchor="start" style="white-space: pre;" direction="ltr" dominant-baseline="text-before-edge">B</text></g></g><g clip-path="url(#_6ShAAHAkkvgicJXD-qk1)"><g transform="translate(54.24403485518337 304.56194803345215) rotate(0 6.879997253417969 12.5)"><text x="0" y="0" font-family="Virgil, Segoe UI Emoji" font-size="20px" fill="#1971c2" text-anchor="start" style="white-space: pre;" direction="ltr" dominant-baseline="text-before-edge">0</text></g></g><g clip-path="url(#_6ShAAHAkkvgicJXD-qk1)"><g transform="translate(38.146060451015956 266.07292926958644) rotate(0 17.439987182617188 12.5)"><text x="0" y="0" font-family="Virgil, Segoe UI Emoji" font-size="20px" fill="#1971c2" text-anchor="start" style="white-space: pre;" direction="ltr" dominant-baseline="text-before-edge">0°C</text></g></g></svg>