<svg version="1.1" xmlns="http://www.w3.org/2000/svg" viewBox="0 0 617.2131040116742 490.1587929989719" width="1851.6393120350226" height="1470.4763789969156">
  <!-- svg-source:excalidraw -->
  
  <defs>
    <style class="style-fonts">
      @font-face {
        font-family: "Virgil";
        src: url("https://excalidraw.com/Virgil.woff2");
      }
      @font-face {
        font-family: "Cascadia";
        src: url("https://excalidraw.com/Cascadia.woff2");
      }
      @font-face {
        font-family: "Assistant";
        src: url("https://excalidraw.com/Assistant-Regular.woff2");
      }
    </style>
    <clipPath id="oAnhMWRMEVJXVyx0_2dbt">
            <rect transform="translate(0 0) rotate(0 308.6065520058371 245.07939649948594)" width="617.2131040116742" height="490.1587929989719">
          </rect>
        </clipPath>
  </defs>
  <rect x="0" y="0" width="617.2131040116742" height="490.1587929989719" fill="#ffffff"></rect><g clip-path="url(#oAnhMWRMEVJXVyx0_2dbt)"><g stroke-linecap="round"><g transform="translate(58.289919062296576 96.22926644754352) rotate(0 109.31595168890874 0)"><path d="M-0.69 0.41 C36 0.55, 182.58 0.82, 219.05 0.89 M1.16 -0.42 C37.81 -0.61, 182.33 -0.65, 218.32 -0.76" stroke="#1971c2" stroke-width="1" fill="none"></path></g></g><mask></mask></g><g clip-path="url(#oAnhMWRMEVJXVyx0_2dbt)"><g stroke-linecap="round"><g transform="translate(104.50899833993549 101.42243013687448) rotate(0 0 121.77954721769606)"><path d="M-0.23 0.1 C-0.55 40.5, -0.87 202.3, -0.87 242.94 M-1.81 -0.9 C-1.85 39.6, 1.27 203.7, 1.38 244.15" stroke="#1971c2" stroke-width="1" fill="none"></path></g></g><mask></mask></g><g clip-path="url(#oAnhMWRMEVJXVyx0_2dbt)"><g stroke-linecap="round"><g transform="translate(80.10120120869988 348.6167026047565) rotate(0 75.30075314759893 0)"><path d="M-1.11 -0.6 C23.92 -0.7, 125.4 -0.31, 150.6 -0.22 M0.51 1.71 C25.34 1.75, 124.9 1.28, 149.65 1.2" stroke="#1971c2" stroke-width="1" fill="none"></path></g></g><mask></mask></g><g clip-path="url(#oAnhMWRMEVJXVyx0_2dbt)"><g stroke-linecap="round"><g transform="translate(104.92989386376416 244.33749523408005) rotate(0 28.09226448088043 0)"><path d="M-0.63 -0.84 C8.78 -1.08, 46.82 -1.31, 56.18 -1.04 M1.24 1.33 C10.52 1.18, 46.37 0.36, 55.24 -0.06" stroke="#1971c2" stroke-width="1" fill="none"></path></g></g><mask></mask></g><g clip-path="url(#oAnhMWRMEVJXVyx0_2dbt)"><g stroke-linecap="round"><g transform="translate(110.74079833299038 64.5510107329178) rotate(0 -8.131368610195864 14.083943567929737)"><path d="M-0.35 -0.95 C-3.09 3.74, -14.65 23.93, -17.32 28.85 M1.67 1.17 C-0.64 5.44, -12.02 22.87, -15.16 27.09" stroke="#1971c2" stroke-width="1" fill="none"></path></g></g><mask></mask></g><g clip-path="url(#oAnhMWRMEVJXVyx0_2dbt)"><g stroke-linecap="round"><g transform="translate(123.10961223368827 68.31914168035928) rotate(0 -8.131368610195864 14.083943567929737)"><path d="M-0.77 0.9 C-3.52 5.58, -14.77 24.27, -17.19 28.83 M1.03 0.32 C-1.3 4.59, -12.2 22.18, -14.96 27.06" stroke="#1971c2" stroke-width="1" fill="none"></path></g></g><mask></mask></g><g clip-path="url(#oAnhMWRMEVJXVyx0_2dbt)"><g stroke-linecap="round"><g transform="translate(154.658039524679 64.81376087025001) rotate(0 -8.131368610195864 14.083943567929737)"><path d="M1 0.08 C-1.4 4.47, -12.53 22.11, -15.29 26.97 M0.06 -0.92 C-2.32 3.5, -13.05 23.15, -15.73 27.88" stroke="#1971c2" stroke-width="1" fill="none"></path></g></g><mask></mask></g><g clip-path="url(#oAnhMWRMEVJXVyx0_2dbt)"><g stroke-linecap="round"><g transform="translate(192.63299830087112 64.81376087025001) rotate(0 -8.131368610195864 14.083943567929737)"><path d="M0.66 1.07 C-2.2 5.79, -13.33 22.79, -16.16 27.18 M-0.45 0.58 C-3.54 5.53, -14.28 23.57, -17.06 28.2" stroke="#1971c2" stroke-width="1" fill="none"></path></g></g><mask></mask></g><g clip-path="url(#oAnhMWRMEVJXVyx0_2dbt)"><g stroke-linecap="round"><g transform="translate(239.37140910233825 66.56645127530373) rotate(0 -8.131368610195864 14.083943567929737)"><path d="M-0.08 -0.73 C-3 3.98, -14.85 22.29, -17.45 27.25 M-1.58 1.5 C-4.17 6.42, -12.93 24.03, -15.36 28.3" stroke="#1971c2" stroke-width="1" fill="none"></path></g></g><mask></mask></g><g clip-path="url(#oAnhMWRMEVJXVyx0_2dbt)"><g stroke-linecap="round"><g transform="translate(97.40348629288087 347.58114621912773) rotate(0 -8.131368610195864 14.083943567929737)"><path d="M0.56 0.85 C-2.03 5.76, -13.87 23.76, -16.74 28.49 M-0.6 0.26 C-3.29 4.86, -15.11 22, -17.94 26.54" stroke="#1971c2" stroke-width="1" fill="none"></path></g></g><mask></mask></g><g clip-path="url(#oAnhMWRMEVJXVyx0_2dbt)"><g stroke-linecap="round"><g transform="translate(114.93039034343133 344.07576540901664) rotate(0 -8.131368610195864 14.083943567929737)"><path d="M-0.36 1.09 C-3 5.79, -13.53 23.83, -16.33 28.54 M1.66 0.61 C-1.11 4.91, -14.58 22.11, -17.32 26.61" stroke="#1971c2" stroke-width="1" fill="none"></path></g></g><mask></mask></g><g clip-path="url(#oAnhMWRMEVJXVyx0_2dbt)"><g stroke-linecap="round"><g transform="translate(127.78345331383503 344.07576540901664) rotate(0 -8.131368610195864 14.083943567929737)"><path d="M-0.91 1.17 C-3.58 5.87, -13.66 23.89, -16.07 28.57 M0.81 0.74 C-1.99 5.04, -14.18 22.21, -16.92 26.65" stroke="#1971c2" stroke-width="1" fill="none"></path></g></g><mask></mask></g><g clip-path="url(#oAnhMWRMEVJXVyx0_2dbt)"><g transform="translate(14.667390428067847 98.3065301403467) rotate(0 5.019996643066406 12.5)"><text x="0" y="0" font-family="Virgil, Segoe UI Emoji" font-size="20px" fill="#1971c2" text-anchor="start" style="white-space: pre;" direction="ltr" dominant-baseline="text-before-edge">c</text></g></g><g clip-path="url(#oAnhMWRMEVJXVyx0_2dbt)"><g transform="translate(31.28549997049572 341.8655710878729) rotate(0 6.55999755859375 12.5)"><text x="0" y="0" font-family="Virgil, Segoe UI Emoji" font-size="20px" fill="#1971c2" text-anchor="start" style="white-space: pre;" direction="ltr" dominant-baseline="text-before-edge">A</text></g></g><g clip-path="url(#oAnhMWRMEVJXVyx0_2dbt)"><g transform="translate(76.98528338288361 236.96381254648531) rotate(0 7.269996643066406 12.5)"><text x="0" y="0" font-family="Virgil, Segoe UI Emoji" font-size="20px" fill="#1971c2" text-anchor="start" style="white-space: pre;" direction="ltr" dominant-baseline="text-before-edge">B</text></g></g><g clip-path="url(#oAnhMWRMEVJXVyx0_2dbt)"><g transform="translate(124.76232157343065 175.16525111549845) rotate(0 10.699989318847656 12.5)"><text x="0" y="0" font-family="Virgil, Segoe UI Emoji" font-size="20px" fill="#1971c2" text-anchor="start" style="white-space: pre;" direction="ltr" dominant-baseline="text-before-edge">cu</text></g></g><g clip-path="url(#oAnhMWRMEVJXVyx0_2dbt)"><g stroke-linecap="round"><g transform="translate(201.03338503818486 153.33464123859312) rotate(0 -1.2983109802827357 -25.965782788076922)"><path d="M-0.37 0.51 C-0.57 -7.82, -1.18 -42.54, -1.61 -51.12 M1.64 -0.27 C1.4 -8.84, -1.11 -44.06, -2.04 -52.81" stroke="#1971c2" stroke-width="1" fill="none"></path></g><g transform="translate(201.03338503818486 153.33464123859312) rotate(0 -1.2983109802827357 -25.965782788076922)"><path d="M8.47 -30.13 C6.71 -34.61, 4.4 -42.96, -2.04 -52.81 M8.47 -30.13 C3.82 -38.17, 0.34 -47.46, -2.04 -52.81" stroke="#1971c2" stroke-width="1" fill="none"></path></g><g transform="translate(201.03338503818486 153.33464123859312) rotate(0 -1.2983109802827357 -25.965782788076922)"><path d="M-8.57 -28.68 C-5.74 -33.49, -3.48 -42.23, -2.04 -52.81 M-8.57 -28.68 C-6.73 -37.17, -3.72 -47.01, -2.04 -52.81" stroke="#1971c2" stroke-width="1" fill="none"></path></g></g><mask></mask></g><g clip-path="url(#oAnhMWRMEVJXVyx0_2dbt)"><g stroke-linecap="round"><g transform="translate(201.6210336339377 186.43271466487158) rotate(0 -0.2596479326255121 29.860653326413967)"><path d="M0.57 -0.2 C0.74 9.81, 0.66 50.17, 0.67 60.08 M-0.59 -1.36 C-0.44 8.28, 0.17 47.86, 0.34 58.15" stroke="#1971c2" stroke-width="1" fill="none"></path></g><g transform="translate(201.6210336339377 186.43271466487158) rotate(0 -0.2596479326255121 29.860653326413967)"><path d="M-8.58 34.8 C-6.51 43.05, -3.15 49.27, 0.34 58.15 M-8.58 34.8 C-7.02 40.52, -4.47 47.85, 0.34 58.15" stroke="#1971c2" stroke-width="1" fill="none"></path></g><g transform="translate(201.6210336339377 186.43271466487158) rotate(0 -0.2596479326255121 29.860653326413967)"><path d="M8.52 34.53 C5.97 42.93, 4.71 49.23, 0.34 58.15 M8.52 34.53 C5.56 40.32, 3.6 47.72, 0.34 58.15" stroke="#1971c2" stroke-width="1" fill="none"></path></g></g><mask></mask></g><g clip-path="url(#oAnhMWRMEVJXVyx0_2dbt)"><g transform="translate(187.48665026697063 160.07468642443155) rotate(0 21.559974670410156 12.5)"><text x="0" y="0" font-family="Virgil, Segoe UI Emoji" font-size="20px" fill="#1971c2" text-anchor="start" style="white-space: pre;" direction="ltr" dominant-baseline="text-before-edge">2l/3</text></g></g><g clip-path="url(#oAnhMWRMEVJXVyx0_2dbt)"><g stroke-linecap="round"><g transform="translate(206.78675956261304 278.02077681773335) rotate(0 -1.2722737786481275 -14.383406288076685)"><path d="M0.19 -0.23 C-0.27 -4.97, -2.26 -23.67, -2.64 -28.5 M-0.38 -0.83 C-0.93 -5.72, -2.82 -24.67, -3.12 -29.32" stroke="#1971c2" stroke-width="1" fill="none"></path></g><g transform="translate(206.78675956261304 278.02077681773335) rotate(0 -1.2722737786481275 -14.383406288076685)"><path d="M2.95 -16.22 C0.7 -20.55, -0.59 -24.02, -3.12 -29.32 M2.95 -16.22 C1.95 -19.46, 0.43 -22, -3.12 -29.32" stroke="#1971c2" stroke-width="1" fill="none"></path></g><g transform="translate(206.78675956261304 278.02077681773335) rotate(0 -1.2722737786481275 -14.383406288076685)"><path d="M-6.89 -15.39 C-5.97 -20, -4.1 -23.74, -3.12 -29.32 M-6.89 -15.39 C-5.66 -18.78, -4.95 -21.51, -3.12 -29.32" stroke="#1971c2" stroke-width="1" fill="none"></path></g></g><mask></mask></g><g clip-path="url(#oAnhMWRMEVJXVyx0_2dbt)"><g stroke-linecap="round"><g transform="translate(207.71596205874948 313.0002133995963) rotate(0 -0.6159654192683774 19.625842800869577)"><path d="M-0.09 0.27 C-0.25 6.78, -0.51 32.41, -0.75 38.85 M-0.8 -0.07 C-1.01 6.52, -1 32.77, -0.94 39.34" stroke="#1971c2" stroke-width="1" fill="none"></path></g><g transform="translate(207.71596205874948 313.0002133995963) rotate(0 -0.6159654192683774 19.625842800869577)"><path d="M-7.72 20.91 C-5.02 27.93, -3.95 32.61, -0.94 39.34 M-7.72 20.91 C-5.76 25.6, -4.06 29.59, -0.94 39.34" stroke="#1971c2" stroke-width="1" fill="none"></path></g><g transform="translate(207.71596205874948 313.0002133995963) rotate(0 -0.6159654192683774 19.625842800869577)"><path d="M5.71 20.87 C3.93 27.88, 0.51 32.58, -0.94 39.34 M5.71 20.87 C4.45 25.52, 2.93 29.52, -0.94 39.34" stroke="#1971c2" stroke-width="1" fill="none"></path></g></g><mask></mask></g><g clip-path="url(#oAnhMWRMEVJXVyx0_2dbt)"><g transform="translate(198.98963819466803 284.76082200357087) rotate(0 14.439979553222656 12.5)"><text x="0" y="0" font-family="Virgil, Segoe UI Emoji" font-size="20px" fill="#1971c2" text-anchor="start" style="white-space: pre;" direction="ltr" dominant-baseline="text-before-edge">l/3</text></g></g><g clip-path="url(#oAnhMWRMEVJXVyx0_2dbt)"><g stroke-linecap="round"><g transform="translate(133.07137634464448 98.82584383488665) rotate(0 0 -37.91004122138315)"><path d="M-0.32 0.66 C-0.3 -11.98, 0.53 -62.09, 0.68 -74.96 M1.71 -0.04 C1.58 -13.08, 0.35 -64.04, 0.09 -76.63" stroke="#1971c2" stroke-width="1" fill="none"></path></g><g transform="translate(133.07137634464448 98.82584383488665) rotate(0 0 -37.91004122138315)"><path d="M9.17 -53.34 C6.96 -60.28, 4.16 -68.45, 0.09 -76.63 M9.17 -53.34 C6.94 -58.95, 4.65 -64.92, 0.09 -76.63" stroke="#1971c2" stroke-width="1" fill="none"></path></g><g transform="translate(133.07137634464448 98.82584383488665) rotate(0 0 -37.91004122138315)"><path d="M-7.93 -52.95 C-4.22 -59.98, -1.12 -68.29, 0.09 -76.63 M-7.93 -52.95 C-6.04 -58.55, -4.21 -64.61, 0.09 -76.63" stroke="#1971c2" stroke-width="1" fill="none"></path></g></g><mask></mask></g><g clip-path="url(#oAnhMWRMEVJXVyx0_2dbt)"><g transform="translate(147.28985161062928 38.892384717791174) rotate(0 17.47998046875 12.5)"><text x="0" y="0" font-family="Virgil, Segoe UI Emoji" font-size="20px" fill="#1971c2" text-anchor="start" style="white-space: pre;" direction="ltr" dominant-baseline="text-before-edge">Rcu</text></g></g><g clip-path="url(#oAnhMWRMEVJXVyx0_2dbt)"><g stroke-linecap="round"><g transform="translate(146.0542721960053 410.41526403574335) rotate(0 0 -30.3799670209537)"><path d="M-1.04 0.23 C-1.05 -9.9, -1.28 -49.89, -0.94 -59.98 M0.62 -0.7 C1.06 -11.23, 1.26 -51.41, 1.29 -61.69" stroke="#1971c2" stroke-width="1" fill="none"></path></g><g transform="translate(146.0542721960053 410.41526403574335) rotate(0 0 -30.3799670209537)"><path d="M9.73 -38.16 C8.03 -45.13, 7.05 -47.23, 1.29 -61.69 M9.73 -38.16 C6.23 -45.78, 4.15 -55.1, 1.29 -61.69" stroke="#1971c2" stroke-width="1" fill="none"></path></g><g transform="translate(146.0542721960053 410.41526403574335) rotate(0 0 -30.3799670209537)"><path d="M-7.37 -38.24 C-5.18 -45.04, -2.29 -47.13, 1.29 -61.69 M-7.37 -38.24 C-5.06 -45.7, -1.33 -54.99, 1.29 -61.69" stroke="#1971c2" stroke-width="1" fill="none"></path></g></g><mask></mask></g><g clip-path="url(#oAnhMWRMEVJXVyx0_2dbt)"><g transform="translate(166.82689129475125 391.7199353737342) rotate(0 12.209983825683594 12.5)"><text x="0" y="0" font-family="Virgil, Segoe UI Emoji" font-size="20px" fill="#1971c2" text-anchor="start" style="white-space: pre;" direction="ltr" dominant-baseline="text-before-edge">Rs</text></g></g><g clip-path="url(#oAnhMWRMEVJXVyx0_2dbt)"><g stroke-linecap="round"><g transform="translate(163.1917132622616 240.59904406684154) rotate(0 0 -70.88660011597744)"><path d="M-0.13 0.41 C0.05 -23.09, 0.09 -116.87, 0.09 -140.62 M-1.66 -0.43 C-1.55 -24.26, -0.93 -118.72, -0.81 -142.14" stroke="#1971c2" stroke-width="1" fill="none"></path></g></g><mask></mask></g><g clip-path="url(#oAnhMWRMEVJXVyx0_2dbt)"><g stroke-linecap="round"><g transform="translate(161.11442282552503 243.71492623407994) rotate(0 0 51.15259503434436)"><path d="M-0.58 0.79 C-0.31 17.73, 0.9 85.49, 1.18 102.26 M1.31 0.16 C1.56 17.24, 0.93 86.75, 0.85 103.77" stroke="#1971c2" stroke-width="1" fill="none"></path></g></g><mask></mask></g><g clip-path="url(#oAnhMWRMEVJXVyx0_2dbt)"><g transform="translate(128.1378695025835 292.01127811916695) rotate(0 11.079986572265625 12.5)"><text x="0" y="0" font-family="Virgil, Segoe UI Emoji" font-size="20px" fill="#1971c2" text-anchor="start" style="white-space: pre;" direction="ltr" dominant-baseline="text-before-edge">st</text></g></g><g clip-path="url(#oAnhMWRMEVJXVyx0_2dbt)"><g stroke-linecap="round"><g transform="translate(416.0984034890191 107.65421227769866) rotate(0 0 59.46164534823606)"><path d="M0.83 -0.48 C0.84 19.37, 0.1 98.32, -0.12 118.4 M-0.19 -1.78 C-0.33 18.29, -0.91 99.67, -1.14 119.66" stroke="#1971c2" stroke-width="1" fill="none"></path></g></g><mask></mask></g><g clip-path="url(#oAnhMWRMEVJXVyx0_2dbt)"><g stroke-linecap="round"><g transform="translate(415.5790721592232 227.0968166916523) rotate(0 25.706125940807055 -0.25965684726998006)"><path d="M-0.92 -0.7 C7.7 -0.5, 42.33 0.57, 51.07 0.44 M0.8 1.55 C9.28 1.49, 41.61 -0.81, 49.94 -1.18" stroke="#1971c2" stroke-width="1" fill="none"></path></g></g><mask></mask></g><g clip-path="url(#oAnhMWRMEVJXVyx0_2dbt)"><g stroke-linecap="round"><g transform="translate(466.64842948901924 225.91222927769832) rotate(0 0 -61.27924773644736)"><path d="M-1.16 -0.39 C-1.23 -20.53, 0.73 -101.55, 0.76 -121.98 M0.43 -1.64 C0.17 -22.04, 0.05 -103.75, 0.21 -123.8" stroke="#1971c2" stroke-width="1" fill="none"></path></g></g><mask></mask></g><g clip-path="url(#oAnhMWRMEVJXVyx0_2dbt)"><g stroke-linecap="round"><g transform="translate(467.51065556466597 104.01900752421761) rotate(0 -26.744753329886635 0)"><path d="M-0.8 0.61 C-9.63 0.58, -43.93 0.62, -52.62 0.62 M0.98 -0.11 C-7.96 -0.57, -44.04 -0.96, -53.11 -1.18" stroke="#1971c2" stroke-width="1" fill="none"></path></g></g><mask></mask></g><g clip-path="url(#oAnhMWRMEVJXVyx0_2dbt)"><g stroke-linecap="round"><g transform="translate(441.4463904890192 102.11688027769833) rotate(0 0 -27.004414634478735)"><path d="M0.72 -0.91 C0.37 -9.85, -0.72 -46.06, -0.92 -54.81 M-0.35 1.23 C-0.44 -7.47, 1.5 -44.25, 1.31 -53.69" stroke="#1971c2" stroke-width="1" fill="none"></path></g><g transform="translate(441.4463904890192 102.11688027769833) rotate(0 0 -27.004414634478735)"><path d="M9.38 -30.03 C4.87 -40.97, 1.83 -49.71, 1.31 -53.69 M9.38 -30.03 C6.11 -37.59, 4.72 -46.23, 1.31 -53.69" stroke="#1971c2" stroke-width="1" fill="none"></path></g><g transform="translate(441.4463904890192 102.11688027769833) rotate(0 0 -27.004414634478735)"><path d="M-7.71 -30.38 C-5.4 -41.28, -1.61 -49.88, 1.31 -53.69 M-7.71 -30.38 C-4.99 -37.8, -0.39 -46.31, 1.31 -53.69" stroke="#1971c2" stroke-width="1" fill="none"></path></g></g><mask></mask></g><g clip-path="url(#oAnhMWRMEVJXVyx0_2dbt)"><g stroke-linecap="round"><g transform="translate(438.4290173532836 228.6547756045602) rotate(0 0 30.379967020953927)"><path d="M-1 0.27 C-1.17 10.24, -1.19 50.8, -1.02 60.72 M0.68 -0.63 C0.86 9.45, 1.4 52.03, 1.16 62.24" stroke="#1971c2" stroke-width="1" fill="none"></path></g><g transform="translate(438.4290173532836 228.6547756045602) rotate(0 0 30.379967020953927)"><path d="M-7.34 38.73 C-4.13 44.2, -2.09 53.01, 1.16 62.24 M-7.34 38.73 C-5.2 43.17, -3.41 49.46, 1.16 62.24" stroke="#1971c2" stroke-width="1" fill="none"></path></g><g transform="translate(438.4290173532836 228.6547756045602) rotate(0 0 30.379967020953927)"><path d="M9.76 38.77 C7.81 44.08, 4.69 52.88, 1.16 62.24 M9.76 38.77 C8.12 43.21, 6.14 49.49, 1.16 62.24" stroke="#1971c2" stroke-width="1" fill="none"></path></g></g><mask></mask></g><g clip-path="url(#oAnhMWRMEVJXVyx0_2dbt)"><g transform="translate(468.4876184024056 270.68008474802946) rotate(0 6.609992980957031 12.5)"><text x="0" y="0" font-family="Virgil, Segoe UI Emoji" font-size="20px" fill="#1971c2" text-anchor="start" style="white-space: pre;" direction="ltr" dominant-baseline="text-before-edge">P</text></g></g><g clip-path="url(#oAnhMWRMEVJXVyx0_2dbt)"><g transform="translate(463.2976235836529 35.84056368883648) rotate(0 11.79998779296875 12.5)"><text x="0" y="0" font-family="Virgil, Segoe UI Emoji" font-size="20px" fill="#1971c2" text-anchor="start" style="white-space: pre;" direction="ltr" dominant-baseline="text-before-edge">Rc</text></g></g><g clip-path="url(#oAnhMWRMEVJXVyx0_2dbt)"><g stroke-linecap="round"><g transform="translate(488.5024284074548 150.4939478094975) rotate(0 -1.2273522550252665 -21.872266788077013)"><path d="M0.55 0.01 C0.17 -7.27, -2.21 -36.8, -2.68 -44.15 M0.16 -0.47 C-0.27 -7.64, -2.78 -36.46, -3.22 -43.65" stroke="#1971c2" stroke-width="1" fill="none"></path></g><g transform="translate(488.5024284074548 150.4939478094975) rotate(0 -1.2273522550252665 -21.872266788077013)"><path d="M5.8 -23.69 C3.89 -28.5, 1.14 -32.15, -3.22 -43.65 M5.8 -23.69 C3.92 -28.28, 0.99 -32.84, -3.22 -43.65" stroke="#1971c2" stroke-width="1" fill="none"></path></g><g transform="translate(488.5024284074548 150.4939478094975) rotate(0 -1.2273522550252665 -21.872266788077013)"><path d="M-9.14 -22.56 C-7.72 -27.69, -7.14 -31.6, -3.22 -43.65 M-9.14 -22.56 C-7.45 -27.4, -6.81 -32.23, -3.22 -43.65" stroke="#1971c2" stroke-width="1" fill="none"></path></g></g><mask></mask></g><g clip-path="url(#oAnhMWRMEVJXVyx0_2dbt)"><g stroke-linecap="round"><g transform="translate(487.3901507351095 183.23399299533503) rotate(0 1.5713134429257707 20.73093935718748)"><path d="M-0.22 -0.4 C0.25 6.45, 2.75 34.18, 3.36 41.13 M0.66 0.58 C1.03 7.5, 2.61 34.78, 3.04 41.65" stroke="#1971c2" stroke-width="1" fill="none"></path></g><g transform="translate(487.3901507351095 183.23399299533503) rotate(0 1.5713134429257707 20.73093935718748)"><path d="M-5.22 22.57 C-2.65 30.6, 0.77 38.33, 3.04 41.65 M-5.22 22.57 C-3.39 28.09, -0.99 32.52, 3.04 41.65" stroke="#1971c2" stroke-width="1" fill="none"></path></g><g transform="translate(487.3901507351095 183.23399299533503) rotate(0 1.5713134429257707 20.73093935718748)"><path d="M8.98 21.73 C5.87 30.07, 3.62 38.13, 3.04 41.65 M8.98 21.73 C6.99 27.5, 5.58 32.16, 3.04 41.65" stroke="#1971c2" stroke-width="1" fill="none"></path></g></g><mask></mask></g><g clip-path="url(#oAnhMWRMEVJXVyx0_2dbt)"><g transform="translate(475.0976110867555 157.23399299533503) rotate(0 21.559974670410156 12.5)"><text x="0" y="0" font-family="Virgil, Segoe UI Emoji" font-size="20px" fill="#1971c2" text-anchor="start" style="white-space: pre;" direction="ltr" dominant-baseline="text-before-edge">2l/3</text></g></g><g clip-path="url(#oAnhMWRMEVJXVyx0_2dbt)"><g stroke-linecap="round"><g transform="translate(474.7810829468003 227.0968166916523) rotate(0 31.158928648119172 0)"><path d="M0.87 -0.75 C11.26 -0.74, 52.1 0.02, 62.27 0.1 M-0.14 1.47 C10.1 1.69, 51.12 1.79, 61.3 1.69" stroke="#1971c2" stroke-width="1" fill="none"></path></g></g><mask></mask></g><g clip-path="url(#oAnhMWRMEVJXVyx0_2dbt)"><g stroke-linecap="round"><g transform="translate(475.30041447062877 104.53833013340181) rotate(0 25.96579170272139 0)"><path d="M-0.05 -1.08 C8.46 -1.34, 43.47 -0.72, 51.99 -0.49 M-1.54 0.96 C6.74 1.38, 41.9 0.66, 51.07 0.79" stroke="#1971c2" stroke-width="1" fill="none"></path></g></g><mask></mask></g><g clip-path="url(#oAnhMWRMEVJXVyx0_2dbt)"><g transform="translate(354.9490068124346 153.8428926043689) rotate(0 20.889984130859375 12.5)"><text x="0" y="0" font-family="Virgil, Segoe UI Emoji" font-size="20px" fill="#1971c2" text-anchor="start" style="white-space: pre;" direction="ltr" dominant-baseline="text-before-edge">A,Ec</text></g></g><g clip-path="url(#oAnhMWRMEVJXVyx0_2dbt)"><g transform="translate(426.3507059085614 150.16525142246883) rotate(0 12.119987487792969 12.5)"><text x="0" y="0" font-family="Virgil, Segoe UI Emoji" font-size="20px" fill="#1971c2" text-anchor="start" style="white-space: pre;" direction="ltr" dominant-baseline="text-before-edge">Cu</text></g></g><g clip-path="url(#oAnhMWRMEVJXVyx0_2dbt)"><g stroke-linecap="round"><g transform="translate(424.4074941128433 341.8655710878729) rotate(0 18.95499442392361 0)"><path d="M-0.16 0.1 C6.13 0.17, 31.6 0.49, 37.93 0.41 M0.76 -0.33 C6.96 -0.4, 31.39 -0.4, 37.5 -0.34" stroke="#1971c2" stroke-width="1" fill="none"></path></g></g><mask></mask></g><g clip-path="url(#oAnhMWRMEVJXVyx0_2dbt)"><g stroke-linecap="round"><g transform="translate(462.33476496069056 338.5390222776987) rotate(0 0 40.61196195916909)"><path d="M-0.92 -1 C-0.76 12.52, -0.23 67.16, -0.02 80.78 M0.79 1.08 C0.88 14.8, -0.81 68.64, -0.98 82.09" stroke="#1971c2" stroke-width="1" fill="none"></path></g></g><mask></mask></g><g clip-path="url(#oAnhMWRMEVJXVyx0_2dbt)"><g stroke-linecap="round"><g transform="translate(461.3532685507755 420.6299645920617) rotate(0 -20.290511893788448 0)"><path d="M-0.19 -0.47 C-6.94 -0.43, -33.63 -0.4, -40.4 -0.29 M0.71 0.48 C-6.11 0.63, -33.74 0.46, -40.73 0.25" stroke="#1971c2" stroke-width="1" fill="none"></path></g></g><mask></mask></g><g clip-path="url(#oAnhMWRMEVJXVyx0_2dbt)"><g stroke-linecap="round"><g transform="translate(425.4460858433454 340.30764783354243) rotate(0 0 38.68902179216775)"><path d="M-0.18 -1.13 C-0.43 11.62, -0.54 63.7, -0.57 76.71 M-1.74 0.89 C-2.28 13.77, -1.88 65.04, -1.82 77.89" stroke="#1971c2" stroke-width="1" fill="none"></path></g></g><mask></mask></g><g clip-path="url(#oAnhMWRMEVJXVyx0_2dbt)"><g stroke-linecap="round"><g transform="translate(439.9869406076141 299.8010013665521) rotate(0 0 22.330578011654325)"><path d="M-0.09 0.27 C-0.19 7.69, -0.6 37.37, -0.54 44.7 M-0.8 -0.07 C-0.74 7.43, 0.28 37.97, 0.42 45.42" stroke="#1971c2" stroke-width="1" fill="none"></path></g><g transform="translate(439.9869406076141 299.8010013665521) rotate(0 0 22.330578011654325)"><path d="M-7.78 24.65 C-4.77 30.01, -2.68 37.77, 0.42 45.42 M-7.78 24.65 C-6.41 29.42, -4.38 33.91, 0.42 45.42" stroke="#1971c2" stroke-width="1" fill="none"></path></g><g transform="translate(439.9869406076141 299.8010013665521) rotate(0 0 22.330578011654325)"><path d="M7.49 24.24 C5.85 29.71, 3.28 37.6, 0.42 45.42 M7.49 24.24 C5.42 29.13, 4.02 33.71, 0.42 45.42" stroke="#1971c2" stroke-width="1" fill="none"></path></g></g><mask></mask></g><g clip-path="url(#oAnhMWRMEVJXVyx0_2dbt)"><g stroke-linecap="round"><g transform="translate(440.50627213144253 452.4798159277757) rotate(0 0 -17.13741432232314)"><path d="M-0.02 0.36 C-0.12 -5.42, -0.43 -28.98, -0.39 -34.8 M-0.69 0.07 C-0.65 -5.65, 0.53 -28.67, 0.65 -34.37" stroke="#1971c2" stroke-width="1" fill="none"></path></g><g transform="translate(440.50627213144253 452.4798159277757) rotate(0 0 -17.13741432232314)"><path d="M5.9 -18.05 C4.67 -24.27, 1.49 -28.92, 0.65 -34.37 M5.9 -18.05 C4.33 -22.45, 2.88 -26.2, 0.65 -34.37" stroke="#1971c2" stroke-width="1" fill="none"></path></g><g transform="translate(440.50627213144253 452.4798159277757) rotate(0 0 -17.13741432232314)"><path d="M-5.81 -18.49 C-3.01 -24.56, -2.17 -29.05, 0.65 -34.37 M-5.81 -18.49 C-4.48 -22.76, -3.01 -26.41, 0.65 -34.37" stroke="#1971c2" stroke-width="1" fill="none"></path></g></g><mask></mask></g><g clip-path="url(#oAnhMWRMEVJXVyx0_2dbt)"><g transform="translate(463.12955110086205 304.5112785199003) rotate(0 6.609992980957031 12.5)"><text x="0" y="0" font-family="Virgil, Segoe UI Emoji" font-size="20px" fill="#1971c2" text-anchor="start" style="white-space: pre;" direction="ltr" dominant-baseline="text-before-edge">P</text></g></g><g clip-path="url(#oAnhMWRMEVJXVyx0_2dbt)"><g transform="translate(463.12955194680035 445.72871984415633) rotate(0 12.209983825683594 12.5)"><text x="0" y="0" font-family="Virgil, Segoe UI Emoji" font-size="20px" fill="#1971c2" text-anchor="start" style="white-space: pre;" direction="ltr" dominant-baseline="text-before-edge">Rs</text></g></g><g clip-path="url(#oAnhMWRMEVJXVyx0_2dbt)"><g transform="translate(430.07333317427674 363.570461603716) rotate(0 11.079986572265625 12.5)"><text x="0" y="0" font-family="Virgil, Segoe UI Emoji" font-size="20px" fill="#1971c2" text-anchor="start" style="white-space: pre;" direction="ltr" dominant-baseline="text-before-edge">st</text></g></g><g clip-path="url(#oAnhMWRMEVJXVyx0_2dbt)"><g transform="translate(376.0200411237263 361.95411545206525) rotate(0 21.29998016357422 12.5)"><text x="0" y="0" font-family="Virgil, Segoe UI Emoji" font-size="20px" fill="#1971c2" text-anchor="start" style="white-space: pre;" direction="ltr" dominant-baseline="text-before-edge">A,Es</text></g></g><g clip-path="url(#oAnhMWRMEVJXVyx0_2dbt)"><g stroke-linecap="round"><g transform="translate(478.93559244977905 339.7883252243587) rotate(0 39.987350628408876 0)"><path d="M1.19 -0.96 C14.74 -0.78, 67.24 0.21, 80.46 0.29 M0.35 1.15 C13.87 1.02, 66.49 -1.58, 79.76 -1.68" stroke="#1971c2" stroke-width="1" fill="none"></path></g></g><mask></mask></g><g clip-path="url(#oAnhMWRMEVJXVyx0_2dbt)"><g stroke-linecap="round"><g transform="translate(476.3495372586133 421.166587723244) rotate(0 39.987350628408876 0)"><path d="M-1.1 0.75 C12.34 0.63, 66.5 -0.69, 80.11 -1 M0.52 0.1 C13.86 0.12, 65.98 0.09, 79.23 0.02" stroke="#1971c2" stroke-width="1" fill="none"></path></g></g><mask></mask></g><g clip-path="url(#oAnhMWRMEVJXVyx0_2dbt)"><g stroke-linecap="round"><g transform="translate(498.1502883475341 369.90862648339817) rotate(0 0 -14.800493782249987)"><path d="M-0.28 -0.5 C-0.15 -5.5, 0.32 -25.01, 0.27 -29.92 M0.58 0.43 C0.7 -4.51, -0.01 -24.39, -0.02 -29.39" stroke="#1971c2" stroke-width="1" fill="none"></path></g><g transform="translate(498.1502883475341 369.90862648339817) rotate(0 0 -14.800493782249987)"><path d="M5.33 -15.59 C3.52 -18.15, 2.63 -22.16, -0.02 -29.39 M5.33 -15.59 C4.33 -19.06, 2.76 -21.83, -0.02 -29.39" stroke="#1971c2" stroke-width="1" fill="none"></path></g><g transform="translate(498.1502883475341 369.90862648339817) rotate(0 0 -14.800493782249987)"><path d="M-4.79 -15.38 C-4.47 -17.96, -3.22 -22.02, -0.02 -29.39 M-4.79 -15.38 C-3.4 -18.88, -2.57 -21.7, -0.02 -29.39" stroke="#1971c2" stroke-width="1" fill="none"></path></g></g><mask></mask></g><g clip-path="url(#oAnhMWRMEVJXVyx0_2dbt)"><g stroke-linecap="round"><g transform="translate(499.1890227123463 391.20058602061727) rotate(0 0.5192602066733798 14.54083693497978)"><path d="M0.24 0.1 C0.33 5.03, 0.55 24.45, 0.74 29.19 M-0.3 -0.32 C-0.05 4.47, 1.57 23.42, 1.81 28.29" stroke="#1971c2" stroke-width="1" fill="none"></path></g><g transform="translate(499.1890227123463 391.20058602061727) rotate(0 0.5192602066733798 14.54083693497978)"><path d="M-4.1 14.99 C-2.01 19.08, 0 24.36, 1.81 28.29 M-4.1 14.99 C-2.65 18.02, -1.85 20.32, 1.81 28.29" stroke="#1971c2" stroke-width="1" fill="none"></path></g><g transform="translate(499.1890227123463 391.20058602061727) rotate(0 0.5192602066733798 14.54083693497978)"><path d="M5.83 14.3 C4.56 18.64, 3.21 24.16, 1.81 28.29 M5.83 14.3 C5.26 17.44, 4.03 19.88, 1.81 28.29" stroke="#1971c2" stroke-width="1" fill="none"></path></g></g><mask></mask></g><g clip-path="url(#oAnhMWRMEVJXVyx0_2dbt)"><g transform="translate(505.8480981785981 372.61578237191816) rotate(0 17.79998016357422 12.5)"><text x="0" y="0" font-family="Virgil, Segoe UI Emoji" font-size="20px" fill="#1971c2" text-anchor="start" style="white-space: pre;" direction="ltr" dominant-baseline="text-before-edge">L/3</text></g></g></svg>