<svg version="1.1" xmlns="http://www.w3.org/2000/svg" viewBox="0 0 648.8315581920306 376.9513429814251" width="648.8315581920306" height="376.9513429814251">
  <!-- svg-source:excalidraw -->
  
  <defs>
    <style class="style-fonts">
      @font-face {
        font-family: "Virgil";
        src: url("https://excalidraw.com/Virgil.woff2");
      }
      @font-face {
        font-family: "Cascadia";
        src: url("https://excalidraw.com/Cascadia.woff2");
      }
      @font-face {
        font-family: "Assistant";
        src: url("https://excalidraw.com/Assistant-Regular.woff2");
      }
    </style>
    
  </defs>
  <rect x="0" y="0" width="648.8315581920306" height="376.9513429814251" fill="#FFF"></rect><g stroke-linecap="round"><g transform="translate(186.398733890303 51.50727553669276) rotate(0 -87.15315827605536 150.95369817422034)"><path d="M-0.86 -0.18 C-30.17 50.48, -145.98 252.43, -174.7 302.94 M0.9 -1.31 C-28.71 49.12, -146.82 250.97, -175.85 301.37" stroke="#1e1e1e" stroke-width="0.5" fill="none"></path></g></g><mask></mask><g stroke-linecap="round"><g transform="translate(10.93524823540838 350.47295241809115) rotate(0 199.56144896315413 0)"><path d="M0.34 1.17 C66.95 0.99, 332.9 -0.79, 399.39 -1.17 M-0.94 0.73 C65.56 0.67, 331.99 -0.05, 398.58 -0.24" stroke="#1e1e1e" stroke-width="0.5" fill="none"></path></g></g><mask></mask><g stroke-linecap="round"><g transform="translate(403.28063348094656 354.23826277588523) rotate(0 -109.9470796838475 -150.61242867533383)"><path d="M-0.36 -0.31 C-36.89 -50.52, -182.33 -250.8, -219.07 -300.84 M1.65 -1.52 C-34.97 -52.14, -182.91 -252.59, -219.58 -302.77" stroke="#1e1e1e" stroke-width="0.5" fill="none"></path></g></g><mask></mask><g stroke-linecap="round"><g transform="translate(135.94354062339926 136.60328387746085) rotate(0 51.20824384764751 -1.5061155250068623)"><path d="M1.08 0.33 C18.07 -0.22, 85.93 -2.19, 102.88 -2.68 M0.19 -0.54 C16.98 -1.52, 85.18 -3.93, 102.17 -4.63" stroke="#1e1e1e" stroke-width="0.5" fill="none"></path></g></g><mask></mask><g stroke-linecap="round"><g transform="translate(98.92103863380589 196.84824960218612) rotate(0 90.42870181031867 -5.27142588280185)"><path d="M-1.07 -0.95 C29.41 -2.59, 151.72 -8.96, 181.95 -10.55 M0.56 1.16 C31.07 -0.21, 151.79 -7.3, 181.58 -9.02" stroke="#1e1e1e" stroke-width="0.5" fill="none"></path></g></g><mask></mask><g stroke-linecap="round"><g transform="translate(64.28337469862072 261.9265839076561) rotate(0 130.6562291976452 -5.647951173174079)"><path d="M0.53 1.09 C44.17 -0.69, 217.62 -9.29, 261.06 -11.29 M-0.65 0.61 C42.87 -0.9, 216.48 -7.47, 259.98 -9.75" stroke="#1e1e1e" stroke-width="0.5" fill="none"></path></g></g><mask></mask><g stroke-linecap="round"><g transform="translate(29.00874944364159 318.0912603594188) rotate(0 168.6858867930091 -6.401016117437393)"><path d="M0.55 0.83 C56.69 -1.38, 280.91 -10.47, 337 -12.65 M-0.62 0.23 C55.31 -1.83, 279.73 -8.62, 335.86 -11.03" stroke="#1e1e1e" stroke-width="0.5" fill="none"></path></g></g><mask></mask><g transform="translate(196.59211837746034 10) rotate(0 84.27989959716797 12.5)"><text x="0" y="0" font-family="Virgil, Segoe UI Emoji" font-size="20px" fill="#e03131" text-anchor="start" style="white-space: pre;" direction="ltr" dominant-baseline="text-before-edge">Engineer in Chief </text></g><g transform="translate(265.0868519002979 98.14794549307226) rotate(0 110.17987060546875 12.5)"><text x="0" y="0" font-family="Virgil, Segoe UI Emoji" font-size="20px" fill="#1971c2" text-anchor="start" style="white-space: pre;" direction="ltr" dominant-baseline="text-before-edge">Chief Engineer - Zone </text></g><g transform="translate(294.31211799195444 167.15359343795717) rotate(0 159.26980590820312 12.5)"><text x="0" y="0" font-family="Virgil, Segoe UI Emoji" font-size="20px" fill="#6741d9" text-anchor="start" style="white-space: pre;" direction="ltr" dominant-baseline="text-before-edge">Superintendent Engineer - Circle </text></g><g transform="translate(365.15191735416465 223.727566804886) rotate(0 65.71990966796875 12.5)"><text x="0" y="0" font-family="Virgil, Segoe UI Emoji" font-size="20px" fill="#f08c00" text-anchor="start" style="white-space: pre;" direction="ltr" dominant-baseline="text-before-edge">EE - division </text></g><g transform="translate(388.7218637119595 280.3015402658348) rotate(0 107.869873046875 12.5)"><text x="0" y="0" font-family="Virgil, Segoe UI Emoji" font-size="20px" fill="#1971c2" text-anchor="start" style="white-space: pre;" direction="ltr" dominant-baseline="text-before-edge">AE/SDO - subdivision </text></g><g transform="translate(430.8718261363665 341.9513429814251) rotate(0 103.97986602783203 12.5)"><text x="0" y="0" font-family="Virgil, Segoe UI Emoji" font-size="20px" fill="#2f9e44" text-anchor="start" style="white-space: pre;" direction="ltr" dominant-baseline="text-before-edge">S/E  / JE - section </text></g></svg>
