<svg version="1.1" xmlns="http://www.w3.org/2000/svg" viewBox="0 0 667.1647667365364 259.7177299442592" width="2001.4943002096093" height="779.1531898327776">
  <!-- svg-source:excalidraw -->
  
  <defs>
    <style class="style-fonts">
      @font-face {
        font-family: "Virgil";
        src: url("https://excalidraw.com/Virgil.woff2");
      }
      @font-face {
        font-family: "Cascadia";
        src: url("https://excalidraw.com/Cascadia.woff2");
      }
      @font-face {
        font-family: "Assistant";
        src: url("https://excalidraw.com/Assistant-Regular.woff2");
      }
    </style>
    <clipPath id="X55gwBLouVp2Wn6qzPUh5">
            <rect transform="translate(0 0) rotate(0 333.5823833682682 129.8588649721296)" width="667.1647667365364" height="259.7177299442592">
          </rect>
        </clipPath>
  </defs>
  <rect x="0" y="0" width="667.1647667365364" height="259.7177299442592" fill="#ffffff"></rect><g clip-path="url(#X55gwBLouVp2Wn6qzPUh5)"><g stroke-linecap="round"><g transform="translate(33.15406362902877 92.85640383566624) rotate(0 78.75725123753614 64.34188273420887)"><path d="M0.67 -0.54 C16.08 4.51, 66.19 8.18, 92.5 29.61 C118.81 51.03, 147.62 111.62, 158.55 128.02 M-0.43 1.79 C15.33 7.12, 68.22 9.99, 94.68 31.19 C121.14 52.38, 147.68 112.73, 158.33 128.99" stroke="#1e1e1e" stroke-width="1" fill="none"></path></g></g><mask></mask></g><g clip-path="url(#X55gwBLouVp2Wn6qzPUh5)"><g stroke-linecap="round"><g transform="translate(324.1404896662448 91.89296831572938) rotate(0 -66.2169239619841 63.88327327064235)"><path d="M0.48 0.57 C-10.66 5.9, -45.45 11.19, -67.72 32.51 C-89.99 53.83, -122.37 112.56, -133.13 128.51 M-0.72 -0.18 C-11.87 4.8, -46.58 9.82, -68.22 30.94 C-89.87 52.07, -119.97 110.12, -130.61 126.55" stroke="#1e1e1e" stroke-width="1" fill="none"></path></g></g><mask></mask></g><g clip-path="url(#X55gwBLouVp2Wn6qzPUh5)"><g stroke-linecap="round"><g transform="translate(323.92704325365185 92.56988957309022) rotate(0 78.8827641596506 65.49659799799247)"><path d="M-0.81 0.21 C15.15 5.46, 68.33 10.27, 94.66 32.01 C120.99 53.75, 146.75 114.25, 157.17 130.63 M0.97 -0.73 C16.94 4.7, 68.33 11.55, 94.18 33.64 C120.03 55.72, 145.61 115.52, 156.09 131.76" stroke="#1e1e1e" stroke-width="1" fill="none"></path></g></g><mask></mask></g><g clip-path="url(#X55gwBLouVp2Wn6qzPUh5)"><g stroke-linecap="round"><g transform="translate(613.9093659139521 95.97429098771136) rotate(0 -65.58935935141153 62.85407006714695)"><path d="M0.89 0.17 C-10.3 4.97, -45.8 8.22, -67.92 29.03 C-90.03 49.85, -121.14 108.92, -131.8 125.05 M-0.11 -0.79 C-10.82 4.17, -43.39 9.25, -65.52 30.38 C-87.65 51.52, -121.81 109.93, -132.89 126.03" stroke="#1e1e1e" stroke-width="1" fill="none"></path></g></g><mask></mask></g><g clip-path="url(#X55gwBLouVp2Wn6qzPUh5)"><g stroke-linecap="round"><g transform="translate(36.04580597841823 90.15543605011135) rotate(0 290.37408679275904 2.215184758736541)"><path d="M-0.74 -0.88 C95.98 -0.14, 482.83 2.57, 579.92 3.49 M1.07 1.27 C98.2 2.22, 485.44 3.74, 582.2 4.54" stroke="#1e1e1e" stroke-width="1" fill="none"></path></g></g><mask></mask></g><g clip-path="url(#X55gwBLouVp2Wn6qzPUh5)"><g transform="translate(287.16686357974777 32.70295886133499) rotate(0 35.94995880126953 12.5)"><text x="0" y="0" font-family="Virgil, Segoe UI Emoji" font-size="20px" fill="#1e1e1e" text-anchor="start" style="white-space: pre;" direction="ltr" dominant-baseline="text-before-edge">L = 2a</text></g></g><g clip-path="url(#X55gwBLouVp2Wn6qzPUh5)"><g transform="translate(185.21765945099423 124.8551340779868) rotate(0 9.1099853515625 12.5)"><text x="0" y="0" font-family="Virgil, Segoe UI Emoji" font-size="20px" fill="#1e1e1e" text-anchor="start" style="white-space: pre;" direction="ltr" dominant-baseline="text-before-edge">- </text></g></g><g clip-path="url(#X55gwBLouVp2Wn6qzPUh5)"><g stroke-linecap="round" transform="translate(179.97565400528538 124.85513382224235) rotate(0 10.054951974357436 12.5)"><path d="M8.47 0.09 C10.6 -0.42, 13.72 0.64, 15.57 2.09 C17.43 3.54, 18.93 6.29, 19.59 8.8 C20.26 11.31, 20.36 14.71, 19.56 17.14 C18.77 19.56, 16.65 22.15, 14.82 23.35 C12.99 24.55, 10.63 24.81, 8.56 24.33 C6.49 23.85, 3.92 22.46, 2.41 20.47 C0.9 18.48, -0.55 15.06, -0.49 12.39 C-0.43 9.71, 1.31 6.45, 2.77 4.43 C4.24 2.42, 7.3 0.94, 8.28 0.29 C9.27 -0.37, 8.55 0.27, 8.68 0.48 M8.9 0.61 C10.82 0.1, 13.37 0.52, 15.13 1.77 C16.9 3.03, 18.88 5.55, 19.49 8.15 C20.1 10.74, 19.57 14.82, 18.8 17.35 C18.03 19.87, 16.73 22.03, 14.85 23.3 C12.98 24.57, 9.69 25.59, 7.54 24.96 C5.4 24.33, 3.21 21.58, 2 19.52 C0.78 17.45, 0.22 15.08, 0.24 12.56 C0.25 10.04, 0.74 6.55, 2.08 4.39 C3.42 2.24, 7.12 0.31, 8.3 -0.38 C9.48 -1.08, 9.03 -0.06, 9.16 0.23" stroke="#1e1e1e" stroke-width="1" fill="none"></path></g></g><g clip-path="url(#X55gwBLouVp2Wn6qzPUh5)"><g transform="translate(474.52703436423735 124.85513395453745) rotate(0 9.1099853515625 12.5)"><text x="0" y="0" font-family="Virgil, Segoe UI Emoji" font-size="20px" fill="#1e1e1e" text-anchor="start" style="white-space: pre;" direction="ltr" dominant-baseline="text-before-edge">- </text></g></g><g clip-path="url(#X55gwBLouVp2Wn6qzPUh5)"><g stroke-linecap="round" transform="translate(469.2850289185285 124.85513369879482) rotate(0 10.054951974357436 12.5)"><path d="M10.95 -0.26 C12.91 -0.33, 15.12 1.32, 16.73 3.25 C18.33 5.17, 20.36 8.49, 20.57 11.3 C20.78 14.11, 19.22 17.97, 17.97 20.12 C16.72 22.27, 15.12 23.6, 13.09 24.21 C11.07 24.82, 7.85 24.93, 5.84 23.78 C3.83 22.64, 1.95 19.79, 1.04 17.35 C0.13 14.91, -0.25 11.64, 0.37 9.14 C1 6.63, 2.99 3.88, 4.78 2.32 C6.57 0.76, 9.89 0.06, 11.1 -0.23 C12.31 -0.52, 11.97 0.22, 12.03 0.56 M12.46 0.23 C14.57 0.6, 16.54 2.94, 17.91 5.1 C19.28 7.26, 20.67 10.48, 20.69 13.21 C20.7 15.93, 19.44 19.52, 18.01 21.44 C16.57 23.36, 14.35 24.49, 12.07 24.73 C9.79 24.97, 6.17 24.31, 4.34 22.89 C2.5 21.47, 1.67 18.83, 1.04 16.21 C0.41 13.59, -0.16 9.69, 0.56 7.17 C1.27 4.65, 3.37 2.21, 5.31 1.1 C7.25 0, 11.16 0.7, 12.21 0.53 C13.27 0.36, 11.6 -0.09, 11.63 0.06" stroke="#1e1e1e" stroke-width="1" fill="none"></path></g></g><g clip-path="url(#X55gwBLouVp2Wn6qzPUh5)"><g transform="translate(292.4206859675555 180.13448824759598) rotate(0 39.18995666503906 12.5)"><text x="0" y="0" font-family="Virgil, Segoe UI Emoji" font-size="20px" fill="#1e1e1e" text-anchor="start" style="white-space: pre;" direction="ltr" dominant-baseline="text-before-edge">POC = 1</text></g></g><g clip-path="url(#X55gwBLouVp2Wn6qzPUh5)"><g stroke-linecap="round"><g transform="translate(325.48109478811966 169.65049390631248) rotate(0 1.191369336093203 -33.59651547622934)"><path d="M-0.1 -0.39 C0.36 -11.89, 2.05 -57.2, 2.56 -68.34 M-1.61 -1.64 C-1.28 -13.1, 1.03 -56.69, 1.7 -67.4" stroke="#1e1e1e" stroke-width="1" fill="none"></path></g><g transform="translate(325.48109478811966 169.65049390631248) rotate(0 1.191369336093203 -33.59651547622934)"><path d="M8.91 -43.46 C6.06 -50.01, 2.74 -56.25, 1.7 -67.4 M8.91 -43.46 C6.45 -51.28, 4.07 -58.32, 1.7 -67.4" stroke="#1e1e1e" stroke-width="1" fill="none"></path></g><g transform="translate(325.48109478811966 169.65049390631248) rotate(0 1.191369336093203 -33.59651547622934)"><path d="M-8.17 -44.43 C-6.13 -50.69, -4.58 -56.65, 1.7 -67.4 M-8.17 -44.43 C-5.56 -51.86, -2.85 -58.62, 1.7 -67.4" stroke="#1e1e1e" stroke-width="1" fill="none"></path></g></g><mask></mask></g><g clip-path="url(#X55gwBLouVp2Wn6qzPUh5)"><g stroke-linecap="round" transform="translate(15.726032698043582 9.530938327828153) rotate(0 314.7588607483301 120.56621523634612)"><path d="M32 0 C200.21 2.37, 369.95 1.73, 597.52 0 M32 0 C202.21 -1.71, 372.98 -1.96, 597.52 0 M597.52 0 C618.2 -0.14, 627.69 9.11, 629.52 32 M597.52 0 C619.27 -1.73, 630.05 10.72, 629.52 32 M629.52 32 C630.75 99.24, 628.18 164.41, 629.52 209.13 M629.52 32 C628.29 96.11, 628.27 159.05, 629.52 209.13 M629.52 209.13 C628.68 230.09, 618.67 241.21, 597.52 241.13 M629.52 209.13 C627.9 228.86, 617.13 240.41, 597.52 241.13 M597.52 241.13 C435.86 242.63, 273.69 242.59, 32 241.13 M597.52 241.13 C381.21 243.63, 165.76 243.73, 32 241.13 M32 241.13 C11.25 239.29, -0.7 230.01, 0 209.13 M32 241.13 C12.24 241.11, -1.67 229.96, 0 209.13 M0 209.13 C3.42 152.12, 1.07 93.89, 0 32 M0 209.13 C0.36 142.1, 0.92 74.45, 0 32 M0 32 C0.35 11.65, 9.17 0.83, 32 0 M0 32 C-1.73 8.76, 11.88 1.46, 32 0" stroke="#1e1e1e" stroke-width="1" fill="none"></path></g></g></svg>
