<svg version="1.1" xmlns="http://www.w3.org/2000/svg" viewBox="0 0 1047.3787738274696 495.7134828888695" width="3142.1363214824087" height="1487.1404486666086">
  <!-- svg-source:excalidraw -->
  
  <defs>
    <style class="style-fonts">
      @font-face {
        font-family: "Virgil";
        src: url("https://excalidraw.com/Virgil.woff2");
      }
      @font-face {
        font-family: "Cascadia";
        src: url("https://excalidraw.com/Cascadia.woff2");
      }
      @font-face {
        font-family: "Assistant";
        src: url("https://excalidraw.com/Assistant-Regular.woff2");
      }
    </style>
    <clipPath id="LW0Df71-gw9XkGrTlCCTl">
            <rect transform="translate(0 0) rotate(0 523.6893869137348 247.85674144443476)" width="1047.3787738274696" height="495.7134828888695">
          </rect>
        </clipPath>
  </defs>
  <rect x="0" y="0" width="1047.3787738274696" height="495.7134828888695" fill="#ffffff"></rect><g clip-path="url(#LW0Df71-gw9XkGrTlCCTl)"><g stroke-linecap="round"><g transform="translate(62.823091591171874 261.1085049672804) rotate(0 -0.9816239705395446 20.613816923388185)"><path d="M0.45 0.23 C0.17 7.07, -1.27 34.25, -1.76 41.09 M0.02 -0.12 C-0.31 6.79, -1.84 34.72, -2.09 41.72" stroke="#1971c2" stroke-width="1" fill="none"></path></g></g><mask></mask></g><g clip-path="url(#LW0Df71-gw9XkGrTlCCTl)"><g stroke-linecap="round"><g transform="translate(62.75592259117195 294.8658121525443) rotate(0 390.19029621941024 -1.4724106801086236)"><path d="M-0.24 0.4 C129.92 -0.08, 650.68 -3.35, 780.72 -3.76 M-1.82 -0.44 C128.23 -0.7, 649.81 -2.06, 779.96 -2.65" stroke="#1971c2" stroke-width="1" fill="none"></path></g></g><mask></mask></g><g clip-path="url(#LW0Df71-gw9XkGrTlCCTl)"><g stroke-linecap="round"><g transform="translate(59.878270230954854 265.03493344756976) rotate(0 393.1351681310291 -1.96321424014468)"><path d="M0.48 0.81 C131.5 0.23, 655.09 -3.93, 786.13 -4.58 M-0.73 0.2 C130.12 -0.14, 653.95 -2.53, 785.11 -3.39" stroke="#1971c2" stroke-width="1" fill="none"></path></g></g><mask></mask></g><g clip-path="url(#LW0Df71-gw9XkGrTlCCTl)"><g stroke-linecap="round"><g transform="translate(844.1853248509993 260.1268641462732) rotate(0 -0.9815734191378169 15.705781323026713)"><path d="M-0.51 0.03 C-0.86 5.35, -2.07 26.63, -2.32 31.79 M0.22 -0.43 C0.08 4.75, -0.83 25.72, -1.27 31.03" stroke="#1971c2" stroke-width="1" fill="none"></path></g></g><mask></mask></g><g clip-path="url(#LW0Df71-gw9XkGrTlCCTl)"><g stroke-linecap="round"><g transform="translate(154.1128907672454 132.51746672378454) rotate(0 -0.98160712007234 61.841501321566966)"><path d="M0.02 0.03 C-0.31 20.61, -0.97 101.83, -1.1 122.57 M-1.43 -0.99 C-1.92 19.77, -1.68 102.93, -1.59 123.53" stroke="#1971c2" stroke-width="1" fill="none"></path></g></g><mask></mask></g><g clip-path="url(#LW0Df71-gw9XkGrTlCCTl)"><g stroke-linecap="round"><g transform="translate(203.06632807342214 136.00888774610235) rotate(0 -0.98160712007234 61.841501321566966)"><path d="M-0.57 0.69 C-1.06 21.3, -1.72 103.62, -1.91 124.18 M1.33 0.01 C0.6 20.2, -2.21 102, -2.82 122.32" stroke="#1971c2" stroke-width="1" fill="none"></path></g></g><mask></mask></g><g clip-path="url(#LW0Df71-gw9XkGrTlCCTl)"><g stroke-linecap="round"><g transform="translate(125.64618318234386 126.6278071528834) rotate(0 60.859894201494626 0)"><path d="M0.24 -0.01 C20.64 -0.11, 101.24 -0.88, 121.57 -0.77 M-1.1 -1.06 C19.2 -1.01, 100.08 0.42, 120.54 0.37" stroke="#1971c2" stroke-width="1" fill="none"></path></g></g><mask></mask></g><g clip-path="url(#LW0Df71-gw9XkGrTlCCTl)"><g stroke-linecap="round"><g transform="translate(351.41666332234706 64.78633953225085) rotate(0 71.65758937275768 4.417240465559189)"><path d="M0.36 0.46 C24.2 2.01, 119.19 6.69, 142.85 8.09 M-0.9 -0.34 C22.75 1.44, 117.39 7.49, 141.66 9.23" stroke="#1971c2" stroke-width="1" fill="none"></path></g></g><mask></mask></g><g clip-path="url(#LW0Df71-gw9XkGrTlCCTl)"><g stroke-linecap="round"><g transform="translate(402.46043577171633 64.78633953225085) rotate(0 2.9448213602171336 97.17945874697511)"><path d="M0.59 -0.99 C1.64 31.21, 4.45 161.01, 5.27 193.69 M-0.56 1.1 C0.98 33.4, 6.81 162.88, 7.65 194.87" stroke="#1971c2" stroke-width="1" fill="none"></path></g></g><mask></mask></g><g clip-path="url(#LW0Df71-gw9XkGrTlCCTl)"><g stroke-linecap="round"><g transform="translate(445.6513512605069 68.71275116207312) rotate(0 1.4724275305757146 94.23464581199164)"><path d="M-0.15 0.31 C0.4 31.69, 2.09 158.26, 2.73 189.43 M-1.68 -0.57 C-1.26 31, 0.84 156.38, 1.66 187.8" stroke="#1971c2" stroke-width="1" fill="none"></path></g></g><mask></mask></g><g clip-path="url(#LW0Df71-gw9XkGrTlCCTl)"><g stroke-linecap="round"><g transform="translate(648.844800236977 122.7013618221265) rotate(0 64.29548542081318 2.9448382106843383)"><path d="M0.35 0.43 C22 1.47, 108.27 5.5, 129.62 6.27 M-0.92 -0.4 C20.68 0.28, 107.79 3.29, 129.22 4.34" stroke="#1971c2" stroke-width="1" fill="none"></path></g></g><mask></mask></g><g clip-path="url(#LW0Df71-gw9XkGrTlCCTl)"><g stroke-linecap="round"><g transform="translate(686.1460056034642 122.7013618221265) rotate(0 0 65.76792980185633)"><path d="M-0.62 0.11 C-0.61 22.08, 0.74 108.92, 0.79 130.85 M1.25 -0.88 C1.11 21.33, 0.67 109.7, 0.25 132.03" stroke="#1971c2" stroke-width="1" fill="none"></path></g></g><mask></mask></g><g clip-path="url(#LW0Df71-gw9XkGrTlCCTl)"><g stroke-linecap="round"><g transform="translate(723.0133370889718 131.61407250698971) rotate(0 0 65.76792980185633)"><path d="M0.2 0.9 C0.33 23.06, -0.47 110, -0.36 131.83 M-1.15 0.33 C-1.11 22.2, -1.78 107.69, -1.5 129.86" stroke="#1971c2" stroke-width="1" fill="none"></path></g></g><mask></mask></g><g clip-path="url(#LW0Df71-gw9XkGrTlCCTl)"><g stroke-linecap="round"><g transform="translate(425.03750063618406 249.32915212454304) rotate(0 -0.4907867095689653 -52.516183129477895)"><path d="M0.21 1.1 C-0.16 -16.28, -1.72 -87.53, -1.76 -105.08 M-1.13 0.64 C-1.16 -16.47, 0.41 -85.78, 0.54 -103.57" stroke="#1971c2" stroke-width="1" fill="none"></path></g><g transform="translate(425.03750063618406 249.32915212454304) rotate(0 -0.4907867095689653 -52.516183129477895)"><path d="M8.72 -79.95 C7.94 -89.25, 3.24 -94.41, 0.54 -103.57 M8.72 -79.95 C5.46 -88.86, 1.81 -98.39, 0.54 -103.57" stroke="#1971c2" stroke-width="1" fill="none"></path></g><g transform="translate(425.03750063618406 249.32915212454304) rotate(0 -0.4907867095689653 -52.516183129477895)"><path d="M-8.38 -80.22 C-3.35 -89.46, -2.24 -94.53, 0.54 -103.57 M-8.38 -80.22 C-5.34 -88.95, -2.69 -98.39, 0.54 -103.57" stroke="#1971c2" stroke-width="1" fill="none"></path></g></g><mask></mask></g><g clip-path="url(#LW0Df71-gw9XkGrTlCCTl)"><g stroke-linecap="round"><g transform="translate(702.8333603456286 254.23722142583915) rotate(0 2.9448213602171336 -30.920725385082505)"><path d="M-0.56 1.06 C0.35 -9.08, 4.43 -50.17, 5.48 -60.74 M1.35 0.57 C2.06 -9.88, 3.72 -51.97, 4.32 -62.29" stroke="#1971c2" stroke-width="1" fill="none"></path></g><g transform="translate(702.8333603456286 254.23722142583915) rotate(0 2.9448213602171336 -30.920725385082505)"><path d="M11.74 -38.42 C11.22 -46.42, 9.02 -53.26, 4.32 -62.29 M11.74 -38.42 C9.88 -45.04, 8.23 -49.76, 4.32 -62.29" stroke="#1971c2" stroke-width="1" fill="none"></path></g><g transform="translate(702.8333603456286 254.23722142583915) rotate(0 2.9448213602171336 -30.920725385082505)"><path d="M-5.34 -39.23 C-0.65 -46.9, 2.36 -53.5, 4.32 -62.29 M-5.34 -39.23 C-2.85 -45.55, -0.15 -50.07, 4.32 -62.29" stroke="#1971c2" stroke-width="1" fill="none"></path></g></g><mask></mask></g><g clip-path="url(#LW0Df71-gw9XkGrTlCCTl)"><g stroke-linecap="round"><g transform="translate(177.67156275178547 250.31075924461516) rotate(0 2.94482136021702 -26.503476494289544)"><path d="M0.81 0.09 C1.98 -8.69, 6.02 -44.37, 6.71 -53.27 M-0.23 -0.91 C0.89 -9.45, 4.93 -43.33, 6.19 -51.87" stroke="#1971c2" stroke-width="1" fill="none"></path></g><g transform="translate(177.67156275178547 250.31075924461516) rotate(0 2.94482136021702 -26.503476494289544)"><path d="M11.6 -27.47 C10.4 -32.71, 8.34 -42.29, 6.19 -51.87 M11.6 -27.47 C10.81 -34.46, 8.14 -41.61, 6.19 -51.87" stroke="#1971c2" stroke-width="1" fill="none"></path></g><g transform="translate(177.67156275178547 250.31075924461516) rotate(0 2.94482136021702 -26.503476494289544)"><path d="M-5.35 -29.7 C-1.95 -34.45, 0.61 -43.42, 6.19 -51.87 M-5.35 -29.7 C-1.5 -36.14, 0.48 -42.67, 6.19 -51.87" stroke="#1971c2" stroke-width="1" fill="none"></path></g></g><mask></mask></g><g clip-path="url(#LW0Df71-gw9XkGrTlCCTl)"><g stroke-linecap="round"><g transform="translate(168.8370649702 91.28981602654062) rotate(0 -17.178192003135223 17.668995563171393)"><path d="M-1.13 0.42 C-6.91 6.25, -30.02 28.86, -35.51 34.65 M0.48 -0.4 C-4.88 5.6, -27.54 29.69, -33.41 35.83" stroke="#1971c2" stroke-width="1" fill="none"></path></g></g><mask></mask></g><g clip-path="url(#LW0Df71-gw9XkGrTlCCTl)"><g stroke-linecap="round"><g transform="translate(211.26407618157816 87.07151342284328) rotate(0 -17.178192003135223 17.668995563171393)"><path d="M0.5 0.05 C-5.32 5.91, -28.92 28.43, -34.58 34.5 M-0.69 -0.97 C-6.73 5.07, -30.13 29.64, -35.65 35.6" stroke="#1971c2" stroke-width="1" fill="none"></path></g></g><mask></mask></g><g clip-path="url(#LW0Df71-gw9XkGrTlCCTl)"><g stroke-linecap="round"><g transform="translate(246.60206730792095 89.28013786823999) rotate(0 -17.178192003135223 17.668995563171393)"><path d="M0.87 1.18 C-4.87 7.02, -28.86 28.56, -34.66 34.19 M-0.13 0.75 C-6.04 6.77, -30.04 29.24, -35.77 35.13" stroke="#1971c2" stroke-width="1" fill="none"></path></g></g><mask></mask></g><g clip-path="url(#LW0Df71-gw9XkGrTlCCTl)"><g stroke-linecap="round"><g transform="translate(411.1445884899539 27.438653397140342) rotate(0 -17.178192003135223 17.668995563171393)"><path d="M0.42 -0.38 C-5.17 5.76, -28.21 29.85, -33.84 35.68 M-0.82 -1.62 C-6.5 4.24, -29.05 27.54, -34.51 33.73" stroke="#1971c2" stroke-width="1" fill="none"></path></g></g><mask></mask></g><g clip-path="url(#LW0Df71-gw9XkGrTlCCTl)"><g stroke-linecap="round"><g transform="translate(463.0472629567697 31.85590228793285) rotate(0 -17.178192003135223 17.668995563171393)"><path d="M1.02 -0.75 C-4.61 5, -27.15 28.91, -33.24 34.88 M0.09 1.46 C-5.64 7.36, -28.04 30.38, -33.6 36.18" stroke="#1971c2" stroke-width="1" fill="none"></path></g></g><mask></mask></g><g clip-path="url(#LW0Df71-gw9XkGrTlCCTl)"><g stroke-linecap="round"><g transform="translate(508.3240640873963 32.960214510631204) rotate(0 -17.178192003135223 17.668995563171393)"><path d="M-1.17 -0.27 C-7.08 5.64, -28.77 28.98, -34.32 34.95 M0.42 -1.45 C-5.74 4.66, -29.3 29.88, -35.25 36.28" stroke="#1971c2" stroke-width="1" fill="none"></path></g></g><mask></mask></g><g clip-path="url(#LW0Df71-gw9XkGrTlCCTl)"><g stroke-linecap="round"><g transform="translate(702.6830152822807 80.44564008665407) rotate(0 -17.178192003135223 17.668995563171393)"><path d="M-0.11 0.19 C-5.99 6.17, -29.5 29.53, -35.26 35.45 M-1.63 -0.75 C-7.14 5.47, -27.37 31.33, -33.02 37.04" stroke="#1971c2" stroke-width="1" fill="none"></path></g></g><mask></mask></g><g clip-path="url(#LW0Df71-gw9XkGrTlCCTl)"><g stroke-linecap="round"><g transform="translate(766.7331241987766 83.75857675474822) rotate(0 -17.178192003135223 17.668995563171393)"><path d="M-0.28 0.35 C-5.89 6.32, -28.68 30.24, -34.54 35.96 M1.77 -0.52 C-3.93 5.1, -29.77 28.14, -35.58 34.16" stroke="#1971c2" stroke-width="1" fill="none"></path></g></g><mask></mask></g><g clip-path="url(#LW0Df71-gw9XkGrTlCCTl)"><g stroke-linecap="round"><g transform="translate(803.1754275478173 88.17582564554164) rotate(0 -17.178192003135223 17.668995563171393)"><path d="M-1.09 -0.67 C-6.82 5.04, -28.95 29, -34.57 34.88 M0.54 1.6 C-5.35 7.42, -29.57 30.51, -35.63 36.18" stroke="#1971c2" stroke-width="1" fill="none"></path></g></g><mask></mask></g><g clip-path="url(#LW0Df71-gw9XkGrTlCCTl)"><g stroke-linecap="round"><g transform="translate(433.8720658196388 283.68553613081326) rotate(0 1.4723938296411916 54.479397369622575)"><path d="M-0.44 -0.68 C0.26 17.57, 3.59 90.87, 4.02 109.06 M1.52 1.57 C2.19 20.08, 3.12 92.67, 3.64 110.65" stroke="#1971c2" stroke-width="1" fill="none"></path></g><g transform="translate(433.8720658196388 283.68553613081326) rotate(0 1.4723938296411916 54.479397369622575)"><path d="M-5.38 87.33 C-4.05 95.75, -0.2 99.23, 3.64 110.65 M-5.38 87.33 C-3.73 93.02, -0.93 99.23, 3.64 110.65" stroke="#1971c2" stroke-width="1" fill="none"></path></g><g transform="translate(433.8720658196388 283.68553613081326) rotate(0 1.4723938296411916 54.479397369622575)"><path d="M11.72 86.99 C8.21 95.44, 7.24 99.01, 3.64 110.65 M11.72 86.99 C8.98 92.7, 7.4 99, 3.64 110.65" stroke="#1971c2" stroke-width="1" fill="none"></path></g></g><mask></mask></g><g clip-path="url(#LW0Df71-gw9XkGrTlCCTl)"><g transform="translate(464.06634368299535 154.73455869218492) rotate(0 13.879989624023438 12.5)"><text x="0" y="0" font-family="Virgil, Segoe UI Emoji" font-size="20px" fill="#1971c2" text-anchor="start" style="white-space: pre;" direction="ltr" dominant-baseline="text-before-edge">PB</text></g></g><g clip-path="url(#LW0Df71-gw9XkGrTlCCTl)"><g transform="translate(744.2891406668558 179.73455907083894) rotate(0 11.629989624023438 12.5)"><text x="0" y="0" font-family="Virgil, Segoe UI Emoji" font-size="20px" fill="#1971c2" text-anchor="start" style="white-space: pre;" direction="ltr" dominant-baseline="text-before-edge">Pc</text></g></g><g clip-path="url(#LW0Df71-gw9XkGrTlCCTl)"><g transform="translate(616.8241338574563 149.22719396163143) rotate(0 25.299972534179688 12.5)"><text x="0" y="0" font-family="Virgil, Segoe UI Emoji" font-size="20px" fill="#1971c2" text-anchor="start" style="white-space: pre;" direction="ltr" dominant-baseline="text-before-edge">Steel</text></g></g><g clip-path="url(#LW0Df71-gw9XkGrTlCCTl)"><g transform="translate(55.67422234034984 150.64049252480277) rotate(0 25.29997253417963 12.5)"><text x="0" y="0" font-family="Virgil, Segoe UI Emoji" font-size="20px" fill="#1971c2" text-anchor="start" style="white-space: pre;" direction="ltr" dominant-baseline="text-before-edge">Steel</text></g></g><g clip-path="url(#LW0Df71-gw9XkGrTlCCTl)"><g transform="translate(320.2919899420125 109.32039162972592) rotate(0 30.77996826171875 12.5)"><text x="0" y="0" font-family="Virgil, Segoe UI Emoji" font-size="20px" fill="#1971c2" text-anchor="start" style="white-space: pre;" direction="ltr" dominant-baseline="text-before-edge">bronze</text></g></g><g clip-path="url(#LW0Df71-gw9XkGrTlCCTl)"><g transform="translate(406.0055937096314 405.87205823790987) rotate(0 33.449981689453125 12.5)"><text x="0" y="0" font-family="Virgil, Segoe UI Emoji" font-size="20px" fill="#1971c2" text-anchor="start" style="white-space: pre;" direction="ltr" dominant-baseline="text-before-edge">200KN</text></g></g><g clip-path="url(#LW0Df71-gw9XkGrTlCCTl)"><g transform="translate(894.4515828167283 338.67003121220637) rotate(0 40.42994689941406 12.5)"><text x="0" y="0" font-family="Virgil, Segoe UI Emoji" font-size="20px" fill="#1971c2" text-anchor="start" style="white-space: pre;" direction="ltr" dominant-baseline="text-before-edge">rigid bar</text></g></g><g clip-path="url(#LW0Df71-gw9XkGrTlCCTl)"><g stroke-linecap="round"><g transform="translate(844.1853248509993 358.2879805647224) rotate(0 -54.47941422008978 -28.957511144937826)"><path d="M0.72 -0.45 C-6.99 -1.66, -27.79 3.67, -46.26 -6.06 C-64.72 -15.8, -99.82 -50.29, -110.07 -58.88 M-0.37 -1.74 C-8.16 -2.77, -28.85 1.63, -46.75 -7.76 C-64.65 -17.15, -97.12 -49.98, -107.77 -58.06" stroke="#1971c2" stroke-width="1" fill="none"></path></g><g transform="translate(844.1853248509993 358.2879805647224) rotate(0 -54.47941422008978 -28.957511144937826)"><path d="M-84.45 -49.05 C-92.29 -50.18, -97.19 -56.18, -107.77 -58.06 M-84.45 -49.05 C-90.41 -51.32, -94.43 -53.92, -107.77 -58.06" stroke="#1971c2" stroke-width="1" fill="none"></path></g><g transform="translate(844.1853248509993 358.2879805647224) rotate(0 -54.47941422008978 -28.957511144937826)"><path d="M-95.7 -36.17 C-100.29 -41.23, -101.81 -51.1, -107.77 -58.06 M-95.7 -36.17 C-99.31 -41.3, -100.86 -46.74, -107.77 -58.06" stroke="#1971c2" stroke-width="1" fill="none"></path></g></g><mask></mask></g><g clip-path="url(#LW0Df71-gw9XkGrTlCCTl)"><g transform="translate(111.42879576097528 225.43230813010973) rotate(0 6.55999755859375 12.5)"><text x="0" y="0" font-family="Virgil, Segoe UI Emoji" font-size="20px" fill="#1971c2" text-anchor="start" style="white-space: pre;" direction="ltr" dominant-baseline="text-before-edge">A</text></g></g><g clip-path="url(#LW0Df71-gw9XkGrTlCCTl)"><g transform="translate(362.09259140554025 212.93230728215553) rotate(0 7.269996643066406 12.5)"><text x="0" y="0" font-family="Virgil, Segoe UI Emoji" font-size="20px" fill="#1971c2" text-anchor="start" style="white-space: pre;" direction="ltr" dominant-baseline="text-before-edge">B</text></g></g><g clip-path="url(#LW0Df71-gw9XkGrTlCCTl)"><g transform="translate(638.6027537588647 212.93230725216858) rotate(0 6.439994812011719 12.5)"><text x="0" y="0" font-family="Virgil, Segoe UI Emoji" font-size="20px" fill="#1971c2" text-anchor="start" style="white-space: pre;" direction="ltr" dominant-baseline="text-before-edge">C</text></g></g></svg>