<svg version="1.1" xmlns="http://www.w3.org/2000/svg" viewBox="0 0 621.9862318106392 696.8631117765378" width="1243.9724636212784" height="1393.7262235530757">
  <!-- svg-source:excalidraw -->
  
  <defs>
    <style class="style-fonts">
      @font-face {
        font-family: "Virgil";
        src: url("https://unpkg.com/@excalidraw/excalidraw@undefined/dist/excalidraw-assets/Virgil.woff2");
      }
      @font-face {
        font-family: "Cascadia";
        src: url("https://unpkg.com/@excalidraw/excalidraw@undefined/dist/excalidraw-assets/Cascadia.woff2");
      }
    </style>
    
  </defs>
  <rect x="0" y="0" width="621.9862318106392" height="696.8631117765378" fill="#ffffff"></rect><g stroke-linecap="round"><g transform="translate(64.22137522449708 225.96588028004203) rotate(0 241.8203849539927 -0.000566349048142456)"><path d="M0.79 -0.1 C81.3 -0.17, 403.4 -0.41, 483.89 -0.23 M-0.25 -1.19 C80.09 -1.1, 402.72 1.14, 483.31 1.19" stroke="#1e1e1e" stroke-width="1" fill="none"></path></g></g><mask></mask><g transform="translate(150.88804189116377 249.02143583559769) rotate(0 14.516666412353516 12.5)"><text x="0" y="0" font-family="Virgil, Segoe UI Emoji" font-size="20px" fill="#1e1e1e" text-anchor="start" style="white-space: pre;" direction="ltr" dominant-baseline="text-before-edge">.74</text></g><g transform="translate(298.11026411338605 247.91032472448626) rotate(0 5.683333396911621 12.5)"><text x="0" y="0" font-family="Virgil, Segoe UI Emoji" font-size="20px" fill="#1e1e1e" text-anchor="start" style="white-space: pre;" direction="ltr" dominant-baseline="text-before-edge">d</text></g><g transform="translate(403.6658196689415 256.7992136133753) rotate(0 12.5 12.5)"><text x="0" y="0" font-family="Virgil, Segoe UI Emoji" font-size="20px" fill="#1e1e1e" text-anchor="start" style="white-space: pre;" direction="ltr" dominant-baseline="text-before-edge">3d</text></g><g transform="translate(54.23540643150892 245.96826158553085) rotate(0 22.41666603088379 25)"><text x="0" y="0" font-family="Virgil, Segoe UI Emoji" font-size="20px" fill="#1e1e1e" text-anchor="start" style="white-space: pre;" direction="ltr" dominant-baseline="text-before-edge">d/tw</text><text x="0" y="25" font-family="Virgil, Segoe UI Emoji" font-size="20px" fill="#1e1e1e" text-anchor="start" style="white-space: pre;" direction="ltr" dominant-baseline="text-before-edge">&lt;</text></g><g stroke-linecap="round"><g transform="translate(49.23452800985609 287.0325597410683) rotate(0 7.414502585783623 3.8292210928503323)"><path d="M-1.06 -0.83 C1.14 0.37, 10.98 5.84, 13.53 7.18 M0.59 1.36 C3.14 2.71, 13.73 7.32, 15.88 8.48" stroke="#1e1e1e" stroke-width="1" fill="none"></path></g></g><mask></mask><g transform="translate(68.60628917874277 269.3094590971932) rotate(0 35.483333587646484 12.5)"><text x="0" y="0" font-family="Virgil, Segoe UI Emoji" font-size="20px" fill="#1e1e1e" text-anchor="start" style="white-space: pre;" direction="ltr" dominant-baseline="text-before-edge">270 εw</text></g><g stroke-linecap="round"><g transform="translate(161.79365785847847 211.9302736526165) rotate(0 0.18006562395305536 11.125363160811077)"><path d="M0.36 0.5 C0.17 4.2, -0.95 17.78, -0.93 21.1 M-0.9 -0.29 C-0.74 3.7, 1.15 18.94, 1.29 22.54" stroke="#1e1e1e" stroke-width="1" fill="none"></path></g></g><mask></mask><g stroke-linecap="round"><g transform="translate(303.06393849329345 214.53834037202847) rotate(0 -0.22319000996463956 13.046718460240413)"><path d="M0.34 -0.46 C0.4 4.13, 0.63 23.36, 0.42 27.85 M-0.94 -1.75 C-1 2.49, -0.72 21.32, -0.31 26.2" stroke="#1e1e1e" stroke-width="1" fill="none"></path></g></g><mask></mask><g stroke-linecap="round"><g transform="translate(419.99226308026346 209.75688471977315) rotate(0 -0.43714062756862404 15.933969131884567)"><path d="M-0.94 -0.08 C-1.17 5.59, -0.6 27.6, -0.46 33.03 M0.77 -1.16 C0.26 4.22, -1.37 25.32, -1.65 31.13" stroke="#1e1e1e" stroke-width="1" fill="none"></path></g></g><mask></mask><g stroke-linecap="round"><g transform="translate(75.23048501551307 456.7740068272508) rotate(0 178.8100255906582 0.4684680618531729)"><path d="M-1.14 0.19 C58.64 0.2, 298.91 0.01, 358.76 0.1 M0.47 -0.75 C60.14 -0.54, 298.77 1.77, 358.2 1.69" stroke="#1e1e1e" stroke-width="1" fill="none"></path></g></g><mask></mask><g transform="translate(161.8971516821798 479.82956238280644) rotate(0 14.516666412353516 12.5)"><text x="0" y="0" font-family="Virgil, Segoe UI Emoji" font-size="20px" fill="#1e1e1e" text-anchor="start" style="white-space: pre;" direction="ltr" dominant-baseline="text-before-edge">.74</text></g><g transform="translate(309.119373904402 478.71845127169513) rotate(0 5.683333396911621 12.5)"><text x="0" y="0" font-family="Virgil, Segoe UI Emoji" font-size="20px" fill="#1e1e1e" text-anchor="start" style="white-space: pre;" direction="ltr" dominant-baseline="text-before-edge">d</text></g><g transform="translate(414.6749294599574 487.6073401605843) rotate(0 21.933332443237305 12.5)"><text x="0" y="0" font-family="Virgil, Segoe UI Emoji" font-size="20px" fill="#1e1e1e" text-anchor="start" style="white-space: pre;" direction="ltr" dominant-baseline="text-before-edge">2.4d</text></g><g stroke-linecap="round"><g transform="translate(172.8027676494944 442.7384001998255) rotate(0 0.043759921879399144 10.937414311279213)"><path d="M-0.61 -0.6 C-0.56 2.87, -0.09 17.49, -0.16 21.06 M1.27 1.7 C1.19 5.33, -1.2 19.11, -1.19 22.48" stroke="#1e1e1e" stroke-width="1" fill="none"></path></g></g><mask></mask><g stroke-linecap="round"><g transform="translate(314.0730482843094 445.3464669192374) rotate(0 -0.24551765031182526 13.172513182114812)"><path d="M-0.16 -0.24 C-0.22 4.28, -0.9 22.13, -0.99 26.47 M-1.7 -1.41 C-1.34 3.32, 0.62 23.1, 1.21 27.75" stroke="#1e1e1e" stroke-width="1" fill="none"></path></g></g><mask></mask><g stroke-linecap="round"><g transform="translate(431.0013728712795 440.5650112669821) rotate(0 0.34994802939496594 15.290395386875105)"><path d="M-0.99 -0.48 C-1.08 4.8, -0.8 25.84, -0.71 31.44 M0.69 -1.78 C1.01 3.62, 1.98 26.89, 1.63 32.36" stroke="#1e1e1e" stroke-width="1" fill="none"></path></g></g><mask></mask><g transform="translate(163.90527830779558 203.24685609477456) rotate(0 69.43108672544747 -34.44432818020249)" stroke="none"><path fill="#1e1e1e" d="M -1.99,0.66 Q -1.99,0.66 -2.67,-1.73 -3.35,-4.12 -3.18,-7.15 -3.01,-10.18 -2.58,-12.37 -2.14,-14.55 -1.28,-16.81 -0.42,-19.07 0.56,-20.76 1.55,-22.46 2.59,-23.85 3.63,-25.24 4.34,-26.18 5.04,-27.12 6.19,-28.37 7.35,-29.61 9.51,-30.52 11.67,-31.42 12.84,-31.56 14.01,-31.70 15.12,-31.77 16.24,-31.84 17.34,-31.88 18.44,-31.92 19.86,-32.01 21.28,-32.09 22.73,-32.18 24.17,-32.27 25.69,-32.31 27.21,-32.35 28.52,-32.97 29.82,-33.59 30.78,-34.41 31.73,-35.24 32.13,-37.03 32.52,-38.82 32.55,-40.56 32.58,-42.31 32.59,-44.26 32.61,-46.22 32.67,-48.67 32.74,-51.13 33.12,-52.70 33.50,-54.28 33.62,-55.53 33.73,-56.77 33.74,-57.92 33.76,-59.07 34.23,-60.26 34.70,-61.45 35.18,-62.97 35.66,-64.49 35.29,-66.10 34.91,-67.70 34.82,-69.17 34.73,-70.63 34.92,-72.09 35.12,-73.55 35.66,-75.40 36.19,-77.24 35.89,-77.63 35.60,-78.03 35.74,-78.41 35.89,-78.79 36.12,-79.12 36.35,-79.46 36.66,-79.73 36.96,-80.00 37.32,-80.19 37.69,-80.38 38.08,-80.48 38.48,-80.57 38.89,-80.57 39.29,-80.57 39.69,-80.47 40.08,-80.38 40.45,-80.19 40.81,-80.00 41.11,-79.73 41.42,-79.45 41.65,-79.12 41.88,-78.78 42.02,-78.40 42.17,-78.02 42.22,-77.62 42.27,-77.21 42.22,-76.81 42.17,-76.40 41.77,-74.54 41.37,-72.68 41.25,-71.29 41.13,-69.89 41.09,-68.66 41.04,-67.43 41.02,-66.31 40.99,-65.18 41.37,-62.79 41.75,-60.39 42.03,-59.05 42.30,-57.70 42.70,-56.57 43.11,-55.44 43.58,-53.93 44.06,-52.41 44.55,-51.24 45.04,-50.07 45.56,-48.96 46.08,-47.86 46.78,-46.97 47.48,-46.09 48.23,-44.89 48.98,-43.68 49.62,-42.54 50.26,-41.40 50.85,-40.29 51.43,-39.19 52.15,-38.31 52.87,-37.42 53.64,-36.22 54.40,-35.02 55.43,-33.42 56.45,-31.83 58.04,-30.70 59.64,-29.58 61.15,-28.60 62.67,-27.62 63.81,-27.05 64.95,-26.49 66.02,-25.98 67.10,-25.47 68.56,-24.99 70.02,-24.52 71.25,-23.96 72.47,-23.40 73.60,-22.85 74.72,-22.29 75.83,-22.33 76.94,-22.37 78.60,-22.14 80.26,-21.90 81.84,-21.86 83.41,-21.82 84.73,-21.37 86.05,-20.92 87.17,-20.87 88.28,-20.82 90.21,-20.38 92.13,-19.94 93.21,-19.43 94.30,-18.91 95.52,-18.38 96.74,-17.85 98.01,-17.26 99.27,-16.66 101.41,-16.03 103.56,-15.40 105.34,-14.84 107.12,-14.27 109.35,-13.73 111.59,-13.19 113.36,-12.58 115.14,-11.98 117.04,-10.96 118.95,-9.95 120.30,-9.27 121.65,-8.60 123.48,-8.30 125.31,-8.00 126.22,-7.40 127.13,-6.80 128.68,-5.91 130.24,-5.01 131.78,-4.03 133.32,-3.05 134.39,-2.20 135.46,-1.35 137.06,-0.69 138.65,-0.04 139.88,0.60 141.11,1.24 142.97,4.65 144.83,8.06 144.81,8.60 144.79,9.13 144.59,9.63 144.40,10.13 144.06,10.54 143.72,10.96 143.26,11.24 142.80,11.52 142.28,11.64 141.76,11.76 141.23,11.71 140.69,11.66 140.20,11.44 139.71,11.22 139.32,10.85 138.93,10.49 138.67,10.02 138.42,9.55 138.32,9.02 138.23,8.49 138.31,7.96 138.39,7.43 138.64,6.96 138.88,6.48 139.27,6.11 139.65,5.73 140.14,5.50 140.62,5.27 141.15,5.21 141.69,5.15 142.21,5.26 142.74,5.36 143.20,5.64 143.66,5.91 144.01,6.31 144.36,6.72 144.57,7.21 144.77,7.71 144.81,8.24 144.84,8.78 144.70,9.30 144.57,9.81 144.27,10.26 143.97,10.71 143.55,11.04 143.13,11.37 142.62,11.54 142.11,11.72 141.58,11.73 141.04,11.73 140.53,11.57 140.02,11.40 139.59,11.08 139.16,10.76 138.86,10.32 138.55,9.88 138.40,9.36 138.25,8.85 138.25,8.85 138.25,8.85 138.42,8.27 138.59,7.69 137.75,6.84 136.91,5.98 135.52,5.22 134.13,4.46 132.70,3.40 131.27,2.34 130.30,1.85 129.32,1.35 128.37,0.84 127.42,0.32 126.38,-0.82 125.33,-1.97 123.87,-2.69 122.41,-3.40 120.97,-3.80 119.52,-4.20 118.17,-4.85 116.81,-5.50 115.29,-6.13 113.77,-6.77 111.88,-7.11 109.99,-7.46 108.78,-7.75 107.56,-8.05 105.48,-8.61 103.40,-9.17 101.55,-9.74 99.69,-10.31 98.24,-10.62 96.79,-10.92 95.65,-11.37 94.51,-11.83 93.02,-12.30 91.53,-12.78 89.76,-13.37 87.98,-13.96 86.57,-14.09 85.16,-14.22 83.28,-14.62 81.40,-15.03 79.70,-15.09 78.00,-15.14 76.77,-15.39 75.54,-15.65 74.05,-15.86 72.57,-16.08 71.12,-16.68 69.68,-17.28 68.05,-18.32 66.42,-19.35 64.85,-19.96 63.28,-20.57 62.11,-21.20 60.93,-21.83 59.46,-22.71 57.98,-23.58 56.72,-24.45 55.47,-25.32 53.93,-26.63 52.38,-27.93 51.78,-29.17 51.19,-30.41 50.54,-31.30 49.89,-32.19 49.30,-33.16 48.71,-34.12 47.70,-35.41 46.69,-36.70 46.14,-37.77 45.60,-38.84 45.04,-39.88 44.48,-40.92 43.89,-41.91 43.29,-42.90 42.29,-44.25 41.28,-45.60 40.73,-46.80 40.17,-48.01 39.61,-49.34 39.04,-50.67 38.49,-52.11 37.95,-53.55 37.42,-54.97 36.88,-56.40 36.42,-58.12 35.96,-59.85 35.83,-61.00 35.70,-62.15 35.33,-63.65 34.96,-65.16 34.96,-66.35 34.95,-67.53 34.94,-68.81 34.94,-70.09 34.92,-71.67 34.90,-73.24 35.25,-75.63 35.60,-78.03 35.74,-78.41 35.89,-78.79 36.12,-79.12 36.35,-79.46 36.66,-79.73 36.96,-80.00 37.32,-80.19 37.68,-80.38 38.08,-80.48 38.48,-80.57 38.88,-80.57 39.29,-80.57 39.69,-80.47 40.08,-80.38 40.45,-80.19 40.81,-80.00 41.11,-79.73 41.42,-79.46 41.65,-79.12 41.88,-78.78 42.02,-78.40 42.17,-78.02 42.22,-77.62 42.27,-77.21 42.22,-76.81 42.17,-76.40 42.16,-77.01 42.15,-77.61 41.93,-75.29 41.71,-72.97 41.49,-71.32 41.27,-69.68 41.33,-68.47 41.38,-67.27 41.67,-65.88 41.97,-64.48 41.44,-62.79 40.91,-61.09 40.44,-59.33 39.97,-57.57 39.83,-56.14 39.69,-54.70 39.27,-52.89 38.85,-51.08 38.90,-49.71 38.95,-48.33 38.97,-46.24 38.99,-44.15 38.97,-42.43 38.96,-40.71 38.95,-39.62 38.94,-38.54 38.89,-37.43 38.85,-36.32 38.62,-35.02 38.39,-33.72 37.80,-32.70 37.20,-31.68 35.85,-30.47 34.49,-29.26 32.77,-28.21 31.05,-27.16 29.82,-26.70 28.59,-26.23 27.23,-26.25 25.87,-26.27 24.50,-26.31 23.14,-26.36 21.58,-26.45 20.03,-26.54 18.22,-26.59 16.40,-26.64 14.50,-26.62 12.59,-26.61 11.21,-26.27 9.83,-25.94 8.88,-25.26 7.92,-24.59 7.13,-23.82 6.33,-23.06 5.31,-21.90 4.29,-20.74 3.37,-19.37 2.45,-18.00 1.75,-15.99 1.05,-13.98 0.74,-11.99 0.44,-10.00 0.34,-7.61 0.24,-5.22 1.11,-2.94 1.99,-0.66 2.04,-0.41 2.09,-0.16 2.08,0.08 2.07,0.33 2.00,0.58 1.93,0.82 1.80,1.04 1.67,1.26 1.50,1.44 1.32,1.62 1.11,1.76 0.89,1.89 0.65,1.97 0.41,2.05 0.16,2.07 -0.08,2.09 -0.33,2.05 -0.58,2.01 -0.81,1.91 -1.05,1.81 -1.25,1.66 -1.45,1.51 -1.61,1.31 -1.77,1.12 -1.88,0.89 -1.99,0.66 -1.99,0.66 L -1.99,0.66 Z"></path></g><g transform="translate(158.48097465736998 77.55331548382924) rotate(0 69.78333282470703 12.5)"><text x="0" y="0" font-family="Virgil, Segoe UI Emoji" font-size="20px" fill="#1e1e1e" text-anchor="start" style="white-space: pre;" direction="ltr" dominant-baseline="text-before-edge">c/tw &lt;200 εw</text></g><g transform="translate(327.6761331524607 247.13551245517965) rotate(0 22.41666603088379 25)"><text x="0" y="0" font-family="Virgil, Segoe UI Emoji" font-size="20px" fill="#1e1e1e" text-anchor="start" style="white-space: pre;" direction="ltr" dominant-baseline="text-before-edge">d/tw</text><text x="0" y="25" font-family="Virgil, Segoe UI Emoji" font-size="20px" fill="#1e1e1e" text-anchor="start" style="white-space: pre;" direction="ltr" dominant-baseline="text-before-edge">&lt;</text></g><g stroke-linecap="round"><g transform="translate(322.67525473080775 288.1998106107171) rotate(0 7.638647648242284 3.5975608102385195)"><path d="M0.84 -1.03 C3.18 0.15, 11.13 5.75, 13.25 7.01 M-0.17 1.05 C2.59 2.38, 13.34 7.19, 15.45 8.22" stroke="#1e1e1e" stroke-width="1" fill="none"></path></g></g><mask></mask><g transform="translate(342.04701589969466 270.476709966842) rotate(0 36.983333587646484 12.5)"><text x="0" y="0" font-family="Virgil, Segoe UI Emoji" font-size="20px" fill="#1e1e1e" text-anchor="start" style="white-space: pre;" direction="ltr" dominant-baseline="text-before-edge">200 εw</text></g><g transform="translate(429.6961571786493 150.08868032060388) rotate(0 54.63333511352539 12.5)"><text x="0" y="0" font-family="Virgil, Segoe UI Emoji" font-size="20px" fill="#1e1e1e" text-anchor="start" style="white-space: pre;" direction="ltr" dominant-baseline="text-before-edge">unstiffened</text></g><g stroke-linecap="round" transform="translate(10.000000000000028 35.63117442692021) rotate(0 297.1830764634801 154.8261482274774)"><path d="M32 0 M32 0 C154.44 -1.83, 276.77 -1.32, 562.37 0 M32 0 C152.7 0.36, 273.15 0.57, 562.37 0 M562.37 0 C584.9 -1.9, 594.53 11.34, 594.37 32 M562.37 0 C585.71 0.33, 594.19 9.52, 594.37 32 M594.37 32 C594.83 124.98, 592.3 220.16, 594.37 277.65 M594.37 32 C592.94 87.83, 591.96 141.93, 594.37 277.65 M594.37 277.65 C594.21 299.83, 583.24 309.49, 562.37 309.65 M594.37 277.65 C596.22 296.81, 585.69 310.14, 562.37 309.65 M562.37 309.65 C405.78 310.61, 247.82 311.79, 32 309.65 M562.37 309.65 C372.75 310.22, 183.06 310.92, 32 309.65 M32 309.65 C11.74 311.02, -0.2 298.81, 0 277.65 M32 309.65 C12.1 310.44, -0.15 297.2, 0 277.65 M0 277.65 C-1.43 185.39, -1.43 94.96, 0 32 M0 277.65 C1.78 218.51, 1.2 157.62, 0 32 M0 32 C-0.22 12.56, 12.02 1.81, 32 0 M0 32 C1.84 12.02, 9.22 -0.92, 32 0" stroke="#1e1e1e" stroke-width="1" fill="none"></path></g><g transform="translate(86.89352328076063 10) rotate(0 169.3333282470703 12.5)"><text x="0" y="0" font-family="Virgil, Segoe UI Emoji" font-size="20px" fill="#1e1e1e" text-anchor="start" style="white-space: pre;" direction="ltr" dominant-baseline="text-before-edge">only transverse stifner is provided</text></g><g stroke-linecap="round" transform="translate(25.932892211328777 399.31675751159855) rotate(0 293.0266697996552 127.11677046864475)"><path d="M32 0 M32 0 C214.22 -0.14, 395.52 -0.59, 554.05 0 M32 0 C148.07 -0.46, 264.84 -0.74, 554.05 0 M554.05 0 C576.61 1.39, 585.45 9.76, 586.05 32 M554.05 0 C576.74 1.32, 584.46 12.9, 586.05 32 M586.05 32 C585.21 90.7, 587.22 147.31, 586.05 222.23 M586.05 32 C584.91 89.24, 584.61 148.4, 586.05 222.23 M586.05 222.23 C585.65 242.48, 574.42 255.51, 554.05 254.23 M586.05 222.23 C584.4 244.7, 576.55 252.13, 554.05 254.23 M554.05 254.23 C382.83 253.26, 211.47 253.39, 32 254.23 M554.05 254.23 C436.01 255.76, 318.39 255.36, 32 254.23 M32 254.23 C9.69 254.91, 0.94 241.88, 0 222.23 M32 254.23 C9.52 254.48, -0.18 242.67, 0 222.23 M0 222.23 C-0.66 159.57, 1.26 98.57, 0 32 M0 222.23 C-1.71 159.16, -1.56 97.17, 0 32 M0 32 C-0.63 10.08, 10.15 0.92, 32 0 M0 32 C-1.82 11.26, 10.17 -1.42, 32 0" stroke="#1e1e1e" stroke-width="1" fill="none"></path></g><g transform="translate(221.28400541109897 661.8631117765378) rotate(0 189.38333129882812 12.5)"><text x="0" y="0" font-family="Virgil, Segoe UI Emoji" font-size="20px" fill="#1e1e1e" text-anchor="start" style="white-space: pre;" direction="ltr" dominant-baseline="text-before-edge">one vertical and 1 horizontal provided </text></g><g transform="translate(63.18588344579496 478.9196585511919) rotate(0 22.41666603088379 25)"><text x="0" y="0" font-family="Virgil, Segoe UI Emoji" font-size="20px" fill="#1e1e1e" text-anchor="start" style="white-space: pre;" direction="ltr" dominant-baseline="text-before-edge">d/tw</text><text x="0" y="25" font-family="Virgil, Segoe UI Emoji" font-size="20px" fill="#1e1e1e" text-anchor="start" style="white-space: pre;" direction="ltr" dominant-baseline="text-before-edge">&lt;</text></g><g stroke-linecap="round"><g transform="translate(58.18500502414204 519.9839567067294) rotate(0 7.224674680486345 3.7978161155585326)"><path d="M0.42 -0.85 C2.79 0.37, 13.12 5.65, 15.27 7.16 M-0.82 1.32 C1.39 2.71, 12.12 7.64, 14.87 8.45" stroke="#1e1e1e" stroke-width="1" fill="none"></path></g></g><mask></mask><g transform="translate(77.5567661930287 502.26085606285426) rotate(0 36.20000076293945 12.5)"><text x="0" y="0" font-family="Virgil, Segoe UI Emoji" font-size="20px" fill="#1e1e1e" text-anchor="start" style="white-space: pre;" direction="ltr" dominant-baseline="text-before-edge">340 εw</text></g><g transform="translate(173.66817479345798 419.3752763782269) rotate(0 69.08333587646484 12.5)"><text x="0" y="0" font-family="Virgil, Segoe UI Emoji" font-size="20px" fill="#1e1e1e" text-anchor="start" style="white-space: pre;" direction="ltr" dominant-baseline="text-before-edge">c/tw &lt;250 εw</text></g><g transform="translate(329.05340867182383 469.91411077957105) rotate(0 22.41666603088379 25)"><text x="0" y="0" font-family="Virgil, Segoe UI Emoji" font-size="20px" fill="#1e1e1e" text-anchor="start" style="white-space: pre;" direction="ltr" dominant-baseline="text-before-edge">d/tw</text><text x="0" y="25" font-family="Virgil, Segoe UI Emoji" font-size="20px" fill="#1e1e1e" text-anchor="start" style="white-space: pre;" direction="ltr" dominant-baseline="text-before-edge">&lt;</text></g><g stroke-linecap="round"><g transform="translate(324.052530250171 510.9784089351085) rotate(0 6.284521588596533 4.148499908239046)"><path d="M-1.19 0.82 C1.31 2.26, 11.28 7.04, 13.75 8.09 M0.39 0.2 C2.79 1.32, 10.53 4.88, 12.56 6.22" stroke="#1e1e1e" stroke-width="1" fill="none"></path></g></g><mask></mask><g transform="translate(343.4242914190577 493.2553082912334) rotate(0 36.28333282470703 12.5)"><text x="0" y="0" font-family="Virgil, Segoe UI Emoji" font-size="20px" fill="#1e1e1e" text-anchor="start" style="white-space: pre;" direction="ltr" dominant-baseline="text-before-edge">250 εw</text></g></svg>
