<svg version="1.1" xmlns="http://www.w3.org/2000/svg" viewBox="0 0 404.03284661270663 348" width="1212.09853983812" height="1044">
  <!-- svg-source:excalidraw -->
  
  <defs>
    <style class="style-fonts">
      @font-face {
        font-family: "Virgil";
        src: url("https://excalidraw.com/Virgil.woff2");
      }
      @font-face {
        font-family: "Cascadia";
        src: url("https://excalidraw.com/Cascadia.woff2");
      }
      @font-face {
        font-family: "Assistant";
        src: url("https://excalidraw.com/Assistant-Regular.woff2");
      }
    </style>
    
  </defs>
  <rect x="0" y="0" width="404.03284661270663" height="348" fill="#ffffff"></rect><g stroke-linecap="round"><g transform="translate(48.78431643054023 73.33174381680874) rotate(0 90.25654048629985 0)"><path d="M-0.18 -0.01 C30.14 0.02, 151.6 0.37, 181.63 0.33 M-1.73 -1.06 C28.55 -1.41, 151.16 -1.95, 181.27 -1.61" stroke="#1971c2" stroke-width="1" fill="none"></path></g></g><mask></mask><g stroke-linecap="round"><g transform="translate(72.57292319302246 47.444220017765474) rotate(0 7.871208995081361 7.87120899508227)"><path d="M1.12 0.33 C3.69 2.92, 12.71 13.06, 15.24 15.49 M0.25 -0.54 C2.63 2.23, 11.44 14.18, 14.03 16.89" stroke="#1971c2" stroke-width="1" fill="none"></path></g></g><mask></mask><g stroke-linecap="round"><g transform="translate(94.27707850138245 53.18990415974258) rotate(0 7.871208995081361 7.87120899508227)"><path d="M-0.5 -0.26 C2.03 2.16, 13.43 12.2, 16.29 14.86 M1.44 -1.44 C3.76 1.08, 13.14 12.87, 15.63 15.93" stroke="#1971c2" stroke-width="1" fill="none"></path></g></g><mask></mask><g stroke-linecap="round"><g transform="translate(99.52455116477063 53.18990415974258) rotate(0 7.871208995081361 7.87120899508227)"><path d="M0.55 -0.88 C3.41 1.77, 13.99 12.88, 16.66 15.67 M-0.62 1.27 C2.2 4.14, 13.38 14.51, 16.2 17.17" stroke="#1971c2" stroke-width="1" fill="none"></path></g></g><mask></mask><g stroke-linecap="round"><g transform="translate(110.01949649155063 52.31532538250758) rotate(0 7.871208995081361 7.87120899508227)"><path d="M0.92 -0.07 C3.59 2.72, 14.14 13.29, 16.59 15.85 M-0.06 -1.16 C2.48 1.92, 13.61 14.53, 16.08 17.44" stroke="#1971c2" stroke-width="1" fill="none"></path></g></g><mask></mask><g stroke-linecap="round"><g transform="translate(120.51444181832699 49.69158905081713) rotate(0 7.871208995081361 7.87120899508227)"><path d="M0.84 0.11 C3.29 2.66, 13.16 12.54, 15.6 15.25 M-0.17 -0.88 C2.02 1.84, 12.12 14, 14.58 16.53" stroke="#1971c2" stroke-width="1" fill="none"></path></g></g><mask></mask><g stroke-linecap="round"><g transform="translate(130.13480836787198 50.56616782805213) rotate(0 7.871208995081361 7.87120899508227)"><path d="M-0.14 -0.49 C2.3 2.21, 12.8 13.71, 15.49 16.34 M-1.67 -1.8 C0.51 0.55, 11.57 11.51, 14.41 14.53" stroke="#1971c2" stroke-width="1" fill="none"></path></g></g><mask></mask><g stroke-linecap="round"><g transform="translate(140.62975369465198 52.31532538250758) rotate(0 7.871208995081361 7.87120899508227)"><path d="M-0.25 0.6 C2.43 3.22, 13.39 12.54, 15.98 15.25 M1.81 -0.14 C4.38 2.69, 13.08 13.98, 15.15 16.53" stroke="#1971c2" stroke-width="1" fill="none"></path></g></g><mask></mask><g stroke-linecap="round"><g transform="translate(158.9959080165106 54.939061714212585) rotate(0 7.871208995081361 7.87120899508227)"><path d="M0.24 -0.49 C2.83 2.22, 12.75 14.08, 15.29 16.89 M-1.1 -1.79 C1.31 0.56, 11.5 12.67, 14.1 15.36" stroke="#1971c2" stroke-width="1" fill="none"></path></g></g><mask></mask><g stroke-linecap="round"><g transform="translate(185.2332713334588 54.939061714212585) rotate(0 7.871208995081361 7.87120899508227)"><path d="M-0.46 1.14 C2.08 3.95, 12.76 13.8, 15.44 16.36 M1.5 0.7 C3.83 3.2, 12.12 12.26, 14.33 14.57" stroke="#1971c2" stroke-width="1" fill="none"></path></g></g><mask></mask><g stroke-linecap="round"><g transform="translate(75.37153261039816 72.63209147103044) rotate(0 0 108.09793553131021)"><path d="M-0.3 0.62 C-0.25 36.59, -0.07 180.91, -0.15 216.97 M1.74 -0.1 C1.66 36.05, -1.17 179.39, -1.17 215.25" stroke="#1971c2" stroke-width="1" fill="none"></path></g></g><mask></mask><g stroke-linecap="round"><g transform="translate(73.97222791884883 290.92694626100274) rotate(0 55.97304174281544 0)"><path d="M-0.15 0.77 C18.43 0.8, 92.49 1.03, 111.18 0.8 M-1.68 0.13 C17.31 -0.23, 94.67 -0.94, 113.48 -0.9" stroke="#1971c2" stroke-width="1" fill="none"></path></g></g><mask></mask><g stroke-linecap="round"><g transform="translate(183.53199266032675 76.32421219837852) rotate(0 0 106.69861749474876)"><path d="M-0.77 0.8 C-0.74 36.13, -0.22 177.32, 0.03 212.76 M1.03 0.17 C0.91 35.59, -0.8 178.19, -0.9 213.97" stroke="#1971c2" stroke-width="1" fill="none"></path></g></g><mask></mask><g stroke-linecap="round"><g transform="translate(260.08252735370365 68.4341105898784) rotate(0 42.67943380485758 0)"><path d="M0.03 -0.64 C14.51 -0.76, 72.04 -0.06, 86.12 0.06 M-1.41 1.64 C13.05 1.66, 70.84 1.66, 85.58 1.62" stroke="#1971c2" stroke-width="1" fill="none"></path></g></g><mask></mask><g stroke-linecap="round"><g transform="translate(289.92279934556313 68.67281389408163) rotate(0 0 109.67722425016345)"><path d="M0.76 0.06 C0.62 36.73, -0.69 182.79, -0.83 219.42 M-0.29 -0.96 C-0.06 35.98, 1.54 184.54, 1.45 220.99" stroke="#1971c2" stroke-width="1" fill="none"></path></g></g><mask></mask><g stroke-linecap="round"><g transform="translate(331.3241150546753 72.99908014000539) rotate(0 -19.97432967664571 108.2404331589309)"><path d="M-0.83 0.07 C-7.62 36.21, -33.62 180.93, -39.99 216.95 M0.94 -0.95 C-6.08 34.83, -34.25 178.69, -40.96 215.07" stroke="#1971c2" stroke-width="1" fill="none"></path></g></g><mask></mask><g stroke-linecap="round"><g transform="translate(197.35682842280653 288.31549718787574) rotate(0 12.943755227015572 0)"><path d="M-0.02 0.21 C4.43 0.18, 21.94 -0.03, 26.31 -0.14 M-0.69 -0.15 C3.75 -0.1, 21.65 0.47, 26.09 0.48" stroke="#1971c2" stroke-width="1" fill="none"></path></g></g><mask></mask><g stroke-linecap="round"><g transform="translate(73.27252219302204 176.8818790480218) rotate(0 55.27338939704077 0)"><path d="M0.62 -1.03 C18.73 -0.86, 91.2 0.62, 109.57 0.69 M-0.51 1.05 C17.89 0.9, 93.31 -0.95, 111.76 -1.07" stroke="#1971c2" stroke-width="1" fill="none"></path></g></g><mask></mask><g stroke-linecap="round"><g transform="translate(62.07787114041707 173.38356393909635) rotate(0 -25.53765759111775 2.798649418138666)"><path d="M0.29 -0.62 C-8.23 0.07, -43.49 3.72, -52.08 4.82 M-1.02 1.66 C-9.09 2.43, -41.38 5.59, -49.89 5.95" stroke="#1971c2" stroke-width="1" fill="none"></path></g></g><mask></mask><g transform="translate(38.23024759579016 235.65355673604063) rotate(0 5.6199951171875 12.5)"><text x="0" y="0" font-family="Virgil, Segoe UI Emoji" font-size="20px" fill="#1971c2" text-anchor="start" style="white-space: pre;" direction="ltr" dominant-baseline="text-before-edge">x</text></g><g stroke-linecap="round"><g transform="translate(32.540252646963154 291.80250665439235) rotate(0 12.943755227015572 0)"><path d="M0.49 0.09 C4.8 0.08, 21.18 -0.26, 25.38 -0.32 M0.07 -0.34 C4.59 -0.26, 22.16 0.13, 26.35 0.21" stroke="#1971c2" stroke-width="1" fill="none"></path></g></g><mask></mask><g stroke-linecap="round"><g transform="translate(43.186990904238655 234.99598891608832) rotate(0 -0.3424498154343496 -28.21100698677475)"><path d="M-1.09 -0.19 C-1.3 -9.45, -1.97 -46.95, -1.73 -56.22 M0.54 -1.33 C0.73 -10.92, 0.5 -48.82, 0.43 -58.24" stroke="#1971c2" stroke-width="1" fill="none"></path></g><g transform="translate(43.186990904238655 234.99598891608832) rotate(0 -0.3424498154343496 -28.21100698677475)"><path d="M9.13 -34.8 C6.67 -42.77, 5.03 -45.48, 0.43 -58.24 M9.13 -34.8 C6.05 -43.24, 3.86 -50.55, 0.43 -58.24" stroke="#1971c2" stroke-width="1" fill="none"></path></g><g transform="translate(43.186990904238655 234.99598891608832) rotate(0 -0.3424498154343496 -28.21100698677475)"><path d="M-7.97 -34.69 C-5.95 -42.53, -3.11 -45.27, 0.43 -58.24 M-7.97 -34.69 C-5.04 -43.19, -1.23 -50.54, 0.43 -58.24" stroke="#1971c2" stroke-width="1" fill="none"></path></g></g><mask></mask><g stroke-linecap="round"><g transform="translate(44.58629559578799 262.2407730438208) rotate(0 0 14.692926126492239)"><path d="M-0.48 0.09 C-0.32 5.05, 0.45 24.78, 0.46 29.67 M0.27 -0.34 C0.44 4.47, 0.19 23.78, 0.27 28.85" stroke="#1971c2" stroke-width="1" fill="none"></path></g><g transform="translate(44.58629559578799 262.2407730438208) rotate(0 0 14.692926126492239)"><path d="M-4.76 15.04 C-3.59 18.56, -2.29 20.3, 0.27 28.85 M-4.76 15.04 C-2.97 19.57, -1.92 23.86, 0.27 28.85" stroke="#1971c2" stroke-width="1" fill="none"></path></g><g transform="translate(44.58629559578799 262.2407730438208) rotate(0 0 14.692926126492239)"><path d="M5.3 15.04 C4.35 18.52, 3.56 20.26, 0.27 28.85 M5.3 15.04 C3.97 19.56, 1.91 23.85, 0.27 28.85" stroke="#1971c2" stroke-width="1" fill="none"></path></g></g><mask></mask><g transform="translate(301.83124377951344 293.090392826372) rotate(0 6.879997253417969 12.5)"><text x="0" y="0" font-family="Virgil, Segoe UI Emoji" font-size="20px" fill="#1971c2" text-anchor="start" style="white-space: pre;" direction="ltr" dominant-baseline="text-before-edge">0</text></g><g transform="translate(300.66300427320925 45.345222945397836) rotate(0 18.619979858398438 12.5)"><text x="0" y="0" font-family="Virgil, Segoe UI Emoji" font-size="20px" fill="#1971c2" text-anchor="start" style="white-space: pre;" direction="ltr" dominant-baseline="text-before-edge">max</text></g><g transform="translate(144.44033286323133 313) rotate(0 18.66998291015625 12.5)"><text x="0" y="0" font-family="Virgil, Segoe UI Emoji" font-size="20px" fill="#1e1e1e" text-anchor="start" style="white-space: pre;" direction="ltr" dominant-baseline="text-before-edge">x=0</text></g><g transform="translate(133.44033286323133 10) rotate(0 14.41998291015625 12.5)"><text x="0" y="0" font-family="Virgil, Segoe UI Emoji" font-size="20px" fill="#1e1e1e" text-anchor="start" style="white-space: pre;" direction="ltr" dominant-baseline="text-before-edge">x=l</text></g><g transform="translate(278.32924887885633 43.34244393697213) rotate(0 10.619987487792969 12.5)"><text x="0" y="0" font-family="Virgil, Segoe UI Emoji" font-size="20px" fill="#1e1e1e" text-anchor="start" style="white-space: pre;" direction="ltr" dominant-baseline="text-before-edge">σ=</text></g><g transform="translate(342.1070198749501 157.66665649414062) rotate(0 10.619987487792969 12.5)"><text x="0" y="0" font-family="Virgil, Segoe UI Emoji" font-size="20px" fill="#1e1e1e" text-anchor="start" style="white-space: pre;" direction="ltr" dominant-baseline="text-before-edge">σ=</text></g><g transform="translate(368.92061157248656 152.19294917412537) rotate(0 4.529998779296875 12.5)"><text x="0" y="0" font-family="Virgil, Segoe UI Emoji" font-size="20px" fill="#1e1e1e" text-anchor="start" style="white-space: pre;" direction="ltr" dominant-baseline="text-before-edge">γ</text></g><g transform="translate(380.35143304170424 160.51250880215156) rotate(0 2.6299972534179688 12.5)"><text x="0" y="0" font-family="Virgil, Segoe UI Emoji" font-size="20px" fill="#1e1e1e" text-anchor="start" style="white-space: pre;" direction="ltr" dominant-baseline="text-before-edge">l</text></g><g stroke-linecap="round"><g transform="translate(367.18451231020833 180.86450611842736) rotate(0 13.476316613925746 -0.8938365556337544)"><path d="M0.02 -0.55 C4.44 -0.79, 22.34 -1.42, 26.85 -1.7 M-0.64 0.36 C3.68 0.24, 21.79 -0.58, 26.36 -0.96" stroke="#1e1e1e" stroke-width="2" fill="none"></path></g></g><mask></mask><g transform="translate(371.8599621574307 187.4995308908634) rotate(0 7.1199951171875 12.5)"><text x="0" y="0" font-family="Virgil, Segoe UI Emoji" font-size="20px" fill="#1e1e1e" text-anchor="start" style="white-space: pre;" direction="ltr" dominant-baseline="text-before-edge">2</text></g><g transform="translate(95.06800494525635 235.03982370646156) rotate(0 31.539962768554688 12.5)"><text x="0" y="0" font-family="Virgil, Segoe UI Emoji" font-size="20px" fill="#1e1e1e" text-anchor="start" style="white-space: pre;" direction="ltr" dominant-baseline="text-before-edge">x= l/2</text></g><g stroke-linecap="round"><g transform="translate(89.58887843985349 245.14193748252603) rotate(0 -14.211482168965404 0.34244393697213127)"><path d="M-0.43 -0.06 C-5.19 -0.01, -23.55 0.02, -28.19 0.18 M0.36 -0.57 C-4.49 -0.46, -23.69 0.53, -28.5 0.61" stroke="#1e1e1e" stroke-width="2" fill="none"></path></g><g transform="translate(89.58887843985349 245.14193748252603) rotate(0 -14.211482168965404 0.34244393697213127)"><path d="M-15.33 -4.73 C-20.27 -2.51, -25.69 -0.6, -28.5 0.61 M-15.33 -4.73 C-19.9 -3.22, -23.93 -1.37, -28.5 0.61" stroke="#1e1e1e" stroke-width="2" fill="none"></path></g><g transform="translate(89.58887843985349 245.14193748252603) rotate(0 -14.211482168965404 0.34244393697213127)"><path d="M-14.97 4.99 C-20.03 3.63, -25.59 1.96, -28.5 0.61 M-14.97 4.99 C-19.7 3.21, -23.86 1.78, -28.5 0.61" stroke="#1e1e1e" stroke-width="2" fill="none"></path></g></g><mask></mask><g transform="translate(277.6727054917585 291.02885407732515) rotate(0 10.619987487792969 12.5)"><text x="0" y="0" font-family="Virgil, Segoe UI Emoji" font-size="20px" fill="#1e1e1e" text-anchor="start" style="white-space: pre;" direction="ltr" dominant-baseline="text-before-edge">σ=</text></g><g stroke-linecap="round"><g transform="translate(290.946677579552 175.9679957238693) rotate(0 10.615809073833589 0)"><path d="M0.28 0.29 C3.92 0.41, 18.1 0.35, 21.57 0.23 M-0.24 -0.03 C3.38 -0.04, 17.83 -0.61, 21.31 -0.61" stroke="#1e1e1e" stroke-width="2" fill="none"></path></g></g><mask></mask></svg>