<svg version="1.1" xmlns="http://www.w3.org/2000/svg" viewBox="0 0 886.2650128417755 605.3317657103989" width="886.2650128417755" height="605.3317657103989">
  <!-- svg-source:excalidraw -->
  
  <defs>
    <style class="style-fonts">
      @font-face {
        font-family: "Virgil";
        src: url("https://excalidraw.com/Virgil.woff2");
      }
      @font-face {
        font-family: "Cascadia";
        src: url("https://excalidraw.com/Cascadia.woff2");
      }
      @font-face {
        font-family: "Assistant";
        src: url("https://excalidraw.com/Assistant-Regular.woff2");
      }
    </style>
    <clipPath id="XKYbfuMb9KgJIemo38rOE">
            <rect transform="translate(0 0) rotate(0 443.13250642088775 302.66588285519947)" width="886.2650128417755" height="605.3317657103989">
          </rect>
        </clipPath>
  </defs>
  <rect x="0" y="0" width="886.2650128417755" height="605.3317657103989" fill="#ffffff"></rect><g clip-path="url(#XKYbfuMb9KgJIemo38rOE)"><g stroke-linecap="round"><g transform="translate(254.5196824848514 356.990661207431) rotate(0 0 -133.91989578473567)"><path d="M0.41 -0.48 C0.55 -45.11, 1.2 -222.5, 1.04 -266.95 M-0.83 -1.78 C-0.78 -46.81, 0.77 -224.04, 0.63 -268.61" stroke="#f08c00" stroke-width="2" fill="none"></path></g></g><mask></mask></g><g clip-path="url(#XKYbfuMb9KgJIemo38rOE)"><g stroke-linecap="round"><g transform="translate(250.41170421855634 358.6338250477752) rotate(0 239.9055942910113 0.8216334192479735)"><path d="M-0.56 -0.73 C79.41 -0.26, 399.88 2.02, 479.8 2.23 M1.35 1.5 C81.16 1.66, 398.84 0.46, 478.84 0.41" stroke="#f08c00" stroke-width="2" fill="none"></path></g></g><mask></mask></g><g clip-path="url(#XKYbfuMb9KgJIemo38rOE)"><g stroke-linecap="round"><g transform="translate(256.1628463251956 355.8437767927503) rotate(0 18.07507690552518 -52.582049709872535)"><path d="M0.11 0.2 C6.13 -17.32, 30.23 -87.76, 36.05 -105.16 M-1.29 -0.74 C4.56 -18.06, 28.61 -86.07, 35.04 -103.63" stroke="#f08c00" stroke-width="2" fill="none"></path></g></g><mask></mask></g><g clip-path="url(#XKYbfuMb9KgJIemo38rOE)"><g stroke-linecap="round"><g transform="translate(292.198741355931 250.96353832214663) rotate(0 5.228789090288046 -6.013112370088493)"><path d="M0.02 0.4 C0.52 -0.73, 1.69 -5.07, 3.44 -7.18 C5.19 -9.29, 9.38 -11.44, 10.5 -12.28 M-0.64 0.13 C-0.23 -0.9, 1.23 -4.69, 3.03 -6.68 C4.83 -8.66, 8.99 -10.95, 10.17 -11.81" stroke="#f08c00" stroke-width="2" fill="none"></path></g></g><mask></mask></g><g clip-path="url(#XKYbfuMb9KgJIemo38rOE)"><g stroke-linecap="round"><g transform="translate(302.2915953963876 238.3914235104471) rotate(0 180.8862181719544 -33.06180535646763)"><path d="M0.47 0.92 C19.88 1.49, 75.21 14.58, 116.31 3.14 C157.41 -8.29, 206.1 -64.41, 247.09 -67.69 C288.09 -70.96, 343.26 -25.17, 362.29 -16.52 M-0.74 0.35 C19.08 0.6, 77.54 12.98, 118.67 1.34 C159.8 -10.31, 205.35 -66.69, 246.04 -69.51 C286.73 -72.33, 343.28 -24.64, 362.81 -15.58" stroke="#f08c00" stroke-width="2" fill="none"></path></g></g><mask></mask></g><g clip-path="url(#XKYbfuMb9KgJIemo38rOE)"><g stroke-linecap="round"><g transform="translate(290.45906345362994 255.08612075577048) rotate(0 0 66.60355089681525)"><path d="M-1.15 -0.92 C-1.27 21.22, -0.81 111.53, -0.68 133.72 M0.44 1.22 C0.72 22.91, 1.98 109.9, 1.68 131.87" stroke="#f08c00" stroke-width="2" fill="none"></path></g></g><mask></mask></g><g clip-path="url(#XKYbfuMb9KgJIemo38rOE)"><g stroke-linecap="round"><g transform="translate(416.88938001151234 243.24549040151305) rotate(0 0 72.1949783827531)"><path d="M0.73 -0.08 C0.68 23.93, 0.46 120.37, 0.27 144.54 M-0.34 -1.16 C-0.59 23.01, -0.36 122.15, -0.53 146.16" stroke="#f08c00" stroke-width="2" fill="none"></path></g></g><mask></mask></g><g clip-path="url(#XKYbfuMb9KgJIemo38rOE)"><g stroke-linecap="round"><g transform="translate(553.1184578822796 176.4774887869453) rotate(0 2.3023375371620887 105.08559954815155)"><path d="M-0.56 0.59 C0.16 35.87, 3.37 175.95, 4.35 210.88 M1.34 -0.15 C1.88 34.87, 2.67 173.86, 3.26 209.13" stroke="#f08c00" stroke-width="2" fill="none"></path></g></g><mask></mask></g><g clip-path="url(#XKYbfuMb9KgJIemo38rOE)"><g stroke-linecap="round"><g transform="translate(665.2755241957483 223.18220046080796) rotate(0 0 81.0754408402106)"><path d="M0.35 0.47 C0.3 27.46, 0.02 135.89, -0.15 163.03 M-0.93 -0.33 C-1.16 26.85, -1.04 134.38, -1.17 161.37" stroke="#f08c00" stroke-width="2" fill="none"></path></g></g><mask></mask></g><g clip-path="url(#XKYbfuMb9KgJIemo38rOE)"><g stroke-linecap="round"><g transform="translate(256.7271303763265 166.64589457969714) rotate(0 148.67192536834648 0)"><path d="M-1.08 -0.86 C48.43 -0.91, 246.69 0.75, 296.49 0.7" stroke="#f08c00" stroke-width="2.5" fill="none" stroke-dasharray="8 10"></path></g></g><mask></mask></g><g clip-path="url(#XKYbfuMb9KgJIemo38rOE)"><g stroke-linecap="round"><g transform="translate(257.2098240322929 238.56833855636796) rotate(0 21.238863770679245 0)"><path d="M0.21 -0.35 C7.29 -0.38, 35.91 -0.57, 42.98 -0.53" stroke="#f08c00" stroke-width="2.5" fill="none" stroke-dasharray="8 10"></path></g></g><mask></mask></g><g clip-path="url(#XKYbfuMb9KgJIemo38rOE)"><g stroke-linecap="round"><g transform="translate(253.34823444242545 248.7050465291395) rotate(0 16.17047952769167 0)"><path d="M-0.17 -0.46 C5.15 -0.52, 26.98 -0.54, 32.34 -0.42" stroke="#f08c00" stroke-width="2.5" fill="none" stroke-dasharray="8 10"></path></g></g><mask></mask></g><g clip-path="url(#XKYbfuMb9KgJIemo38rOE)"><g stroke-linecap="round"><g transform="translate(259.915911634699 377.1259514348767) rotate(0 14.163410542215502 -0.0937959671837234)"><path d="M0.29 -0.42 C4.95 -0.4, 23.27 -0.07, 27.9 -0.03 M-0.22 0.55 C4.61 0.42, 24.28 -0.89, 28.92 -0.92" stroke="#f08c00" stroke-width="2" fill="none"></path></g><g transform="translate(259.915911634699 377.1259514348767) rotate(0 14.163410542215502 -0.0937959671837234)"><path d="M13.67 -5.08 C9.22 -4.23, 6.07 -2.65, 0.29 -0.42 M13.67 -5.08 C9.55 -3.57, 5.85 -2.12, 0.29 -0.42" stroke="#f08c00" stroke-width="2" fill="none"></path></g><g transform="translate(259.915911634699 377.1259514348767) rotate(0 14.163410542215502 -0.0937959671837234)"><path d="M13.53 4.61 C9.14 2.63, 6.03 1.4, 0.29 -0.42 M13.53 4.61 C9.43 3.24, 5.77 1.82, 0.29 -0.42" stroke="#f08c00" stroke-width="2" fill="none"></path></g><g transform="translate(259.915911634699 377.1259514348767) rotate(0 14.163410542215502 -0.0937959671837234)"><path d="M15.82 4.46 C19.09 2.32, 23.65 0.98, 28.92 -0.92 M15.82 4.46 C19.54 3, 23.7 1.46, 28.92 -0.92" stroke="#f08c00" stroke-width="2" fill="none"></path></g><g transform="translate(259.915911634699 377.1259514348767) rotate(0 14.163410542215502 -0.0937959671837234)"><path d="M15.42 -5.22 C18.79 -4.55, 23.47 -3.07, 28.92 -0.92 M15.42 -5.22 C19.28 -3.81, 23.56 -2.47, 28.92 -0.92" stroke="#f08c00" stroke-width="2" fill="none"></path></g></g><mask></mask></g><g clip-path="url(#XKYbfuMb9KgJIemo38rOE)"><g stroke-linecap="round"><g transform="translate(423.43066112335225 376.4932287675938) rotate(0 -5.86012426470063 0.050374893983871516)"><path d="M-0.36 0.06 C-2.21 0.08, -9.24 0.37, -11.18 0.46 M0.45 -0.39 C-1.42 -0.55, -9.17 -0.35, -11.33 -0.32" stroke="#f08c00" stroke-width="2" fill="none"></path></g><g transform="translate(423.43066112335225 376.4932287675938) rotate(0 -5.86012426470063 0.050374893983871516)"><path d="M-5.8 2.25 C-4.23 1.94, -2.54 0.87, -0.36 0.06 M-5.8 2.25 C-3.82 1.38, -1.71 0.48, -0.36 0.06" stroke="#f08c00" stroke-width="2" fill="none"></path></g><g transform="translate(423.43066112335225 376.4932287675938) rotate(0 -5.86012426470063 0.050374893983871516)"><path d="M-5.94 -1.75 C-4.32 -0.93, -2.58 -0.87, -0.36 0.06 M-5.94 -1.75 C-3.89 -1.08, -1.73 -0.43, -0.36 0.06" stroke="#f08c00" stroke-width="2" fill="none"></path></g><g transform="translate(423.43066112335225 376.4932287675938) rotate(0 -5.86012426470063 0.050374893983871516)"><path d="M-5.86 -2.43 C-7.37 -1.56, -8.76 -1.41, -11.33 -0.32 M-5.86 -2.43 C-8.09 -1.64, -10.2 -0.88, -11.33 -0.32" stroke="#f08c00" stroke-width="2" fill="none"></path></g><g transform="translate(423.43066112335225 376.4932287675938) rotate(0 -5.86012426470063 0.050374893983871516)"><path d="M-5.79 1.58 C-7.34 1.31, -8.75 0.33, -11.33 -0.32 M-5.79 1.58 C-8.06 0.82, -10.2 0.03, -11.33 -0.32" stroke="#f08c00" stroke-width="2" fill="none"></path></g></g><mask></mask></g><g clip-path="url(#XKYbfuMb9KgJIemo38rOE)"><g stroke-linecap="round"><g transform="translate(423.5200937379251 377.586520894758) rotate(0 64.62704251465027 -1.1570090382406306)"><path d="M1.16 -0.48 C22.79 -0.61, 108.86 -1.3, 130.28 -1.66 M0.31 -1.78 C21.82 -2.18, 108.4 -3.48, 129.86 -3.43" stroke="#f08c00" stroke-width="2" fill="none"></path></g><g transform="translate(423.5200937379251 377.586520894758) rotate(0 64.62704251465027 -1.1570090382406306)"><path d="M24.58 -9.23 C15.68 -4.3, 9.56 -2.36, 1.16 -0.48 M24.58 -9.23 C18.55 -7.84, 12.35 -4.52, 1.16 -0.48" stroke="#f08c00" stroke-width="2" fill="none"></path></g><g transform="translate(423.5200937379251 377.586520894758) rotate(0 64.62704251465027 -1.1570090382406306)"><path d="M24.72 7.88 C15.9 6.94, 9.73 3.02, 1.16 -0.48 M24.72 7.88 C18.7 4.58, 12.46 3.21, 1.16 -0.48" stroke="#f08c00" stroke-width="2" fill="none"></path></g><g transform="translate(423.5200937379251 377.586520894758) rotate(0 64.62704251465027 -1.1570090382406306)"><path d="M106.44 5.3 C113.73 3.78, 123.66 -0.27, 129.86 -3.43 M106.44 5.3 C113.28 2.08, 119.9 0.61, 129.86 -3.43" stroke="#f08c00" stroke-width="2" fill="none"></path></g><g transform="translate(423.5200937379251 377.586520894758) rotate(0 64.62704251465027 -1.1570090382406306)"><path d="M106.31 -11.8 C113.51 -7.46, 123.49 -5.64, 129.86 -3.43 M106.31 -11.8 C113.14 -10.34, 119.8 -7.13, 129.86 -3.43" stroke="#f08c00" stroke-width="2" fill="none"></path></g></g><mask></mask></g><g clip-path="url(#XKYbfuMb9KgJIemo38rOE)"><g stroke-linecap="round"><g transform="translate(560.3724847908094 374.61179255975776) rotate(0 50.71028542477654 0.16517756462985744)"><path d="M-0.73 0.86 C16.11 0.96, 84.34 0.5, 101.45 0.42 M1.09 0.27 C17.74 0.59, 83.79 1.76, 100.52 2" stroke="#f08c00" stroke-width="2" fill="none"></path></g><g transform="translate(560.3724847908094 374.61179255975776) rotate(0 50.71028542477654 0.16517756462985744)"><path d="M22.73 -7.78 C16.34 -4.99, 7.23 -1.27, -0.73 0.86 M22.73 -7.78 C15.19 -6.01, 8.89 -2.71, -0.73 0.86" stroke="#f08c00" stroke-width="2" fill="none"></path></g><g transform="translate(560.3724847908094 374.61179255975776) rotate(0 50.71028542477654 0.16517756462985744)"><path d="M22.8 9.32 C16.41 6.41, 7.28 4.44, -0.73 0.86 M22.8 9.32 C15.07 5.89, 8.75 3.99, -0.73 0.86" stroke="#f08c00" stroke-width="2" fill="none"></path></g><g transform="translate(560.3724847908094 374.61179255975776) rotate(0 50.71028542477654 0.16517756462985744)"><path d="M76.89 10.16 C86.21 7.64, 92.79 5.77, 100.52 2 M76.89 10.16 C83.51 6.59, 91.52 4.77, 100.52 2" stroke="#f08c00" stroke-width="2" fill="none"></path></g><g transform="translate(560.3724847908094 374.61179255975776) rotate(0 50.71028542477654 0.16517756462985744)"><path d="M77.17 -6.93 C86.37 -3.77, 92.86 0.06, 100.52 2 M77.17 -6.93 C83.87 -5.31, 91.79 -1.93, 100.52 2" stroke="#f08c00" stroke-width="2" fill="none"></path></g></g><mask></mask></g><g clip-path="url(#XKYbfuMb9KgJIemo38rOE)"><g stroke-linecap="round"><g transform="translate(416.18328686388975 241.08963156195614) rotate(0 123.86392793290474 -60.086320108925975)"><path d="M-0.1 0.54 C5.19 -1.97, 20.19 -6.16, 32.45 -15.95 C44.7 -25.73, 58.69 -46.66, 73.43 -58.17 C88.17 -69.68, 99.64 -77.67, 120.87 -85.01 C142.1 -92.35, 179.67 -96.52, 200.8 -102.21 C221.93 -107.9, 239.84 -116.17, 247.65 -119.16 M-1.61 -0.23 C3.5 -3.03, 19.36 -7.82, 31.74 -17.83 C44.12 -27.83, 58.29 -49.2, 72.67 -60.26 C87.05 -71.32, 96.83 -77.32, 118.04 -84.18 C139.24 -91.04, 178.06 -95.51, 199.89 -101.43 C221.72 -107.35, 240.95 -116.33, 249.02 -119.67" stroke="#f08c00" stroke-width="2" fill="none"></path></g></g><mask></mask></g><g clip-path="url(#XKYbfuMb9KgJIemo38rOE)"><g stroke-linecap="round"><g transform="translate(665.961804805227 126.65906967812452) rotate(0 0 50.447892994037375)"><path d="M0.82 0.73 C0.71 17.62, 0.08 83.89, -0.04 100.58" stroke="#f08c00" stroke-width="2.5" fill="none" stroke-dasharray="8 10"></path></g></g><mask></mask></g><g clip-path="url(#XKYbfuMb9KgJIemo38rOE)"><g stroke-linecap="round"><g transform="translate(594.1863355189456 146.34608031778453) rotate(0 -6.528207622247578 11.307187284091015)"><path d="M0.48 0.3 C-1.64 4.11, -10.8 18.82, -13.11 22.6 M0.06 -0.01 C-2.1 3.9, -11.25 19.6, -13.57 23.29" stroke="#f08c00" stroke-width="2" fill="none"></path></g></g><mask></mask></g><g clip-path="url(#XKYbfuMb9KgJIemo38rOE)"><g stroke-linecap="round"><g transform="translate(198.25472415575143 152.70428579701365) rotate(0 28.291684107743322 7.58073390918662)"><path d="M0.36 -1.06 C9.96 1.69, 47.44 13.39, 56.73 16.19 M-0.9 1.01 C8.61 3.46, 46.52 12.48, 55.86 14.61" stroke="#f08c00" stroke-width="2" fill="none"></path></g><g transform="translate(198.25472415575143 152.70428579701365) rotate(0 28.291684107743322 7.58073390918662)"><path d="M31.03 17.58 C35.02 17.06, 44.24 15.34, 55.86 14.61 M31.03 17.58 C40.72 16.12, 47.82 15.51, 55.86 14.61" stroke="#f08c00" stroke-width="2" fill="none"></path></g><g transform="translate(198.25472415575143 152.70428579701365) rotate(0 28.291684107743322 7.58073390918662)"><path d="M34.93 0.93 C37.98 4.27, 46.29 6.4, 55.86 14.61 M34.93 0.93 C43.23 5.33, 48.97 10.56, 55.86 14.61" stroke="#f08c00" stroke-width="2" fill="none"></path></g></g><mask></mask></g><g clip-path="url(#XKYbfuMb9KgJIemo38rOE)"><g transform="translate(149.13583817076176 126.6478947605865) rotate(0 45.26994323730469 25)"><text x="0" y="0" font-family="Virgil, Segoe UI Emoji" font-size="20px" fill="#f08c00" text-anchor="start" style="white-space: pre;" direction="ltr" dominant-baseline="text-before-edge">ultimate </text><text x="0" y="25" font-family="Virgil, Segoe UI Emoji" font-size="20px" fill="#f08c00" text-anchor="start" style="white-space: pre;" direction="ltr" dominant-baseline="text-before-edge">stress</text></g></g><g clip-path="url(#XKYbfuMb9KgJIemo38rOE)"><g stroke-linecap="round"><g transform="translate(209.0542553872384 213.90119821259987) rotate(0 21.958858299805115 14.399264660791005)"><path d="M0.94 -1.18 C8.35 3.69, 36.49 24.17, 43.66 29.25 M-0.02 0.82 C7.27 5.31, 35.37 22.96, 42.57 27.36" stroke="#f08c00" stroke-width="2" fill="none"></path></g><g transform="translate(209.0542553872384 213.90119821259987) rotate(0 21.958858299805115 14.399264660791005)"><path d="M18.1 22.24 C21.9 22.82, 30.37 24.53, 42.57 27.36 M18.1 22.24 C25.64 24.69, 34.18 26.17, 42.57 27.36" stroke="#f08c00" stroke-width="2" fill="none"></path></g><g transform="translate(209.0542553872384 213.90119821259987) rotate(0 21.958858299805115 14.399264660791005)"><path d="M27.12 7.71 C28.8 11.78, 35.15 16.91, 42.57 27.36 M27.12 7.71 C31.44 15.19, 36.89 21.64, 42.57 27.36" stroke="#f08c00" stroke-width="2" fill="none"></path></g></g><mask></mask></g><g clip-path="url(#XKYbfuMb9KgJIemo38rOE)"><g transform="translate(87.30167885995604 208.07289075390736) rotate(0 57.37992858886719 12.5)"><text x="0" y="0" font-family="Virgil, Segoe UI Emoji" font-size="20px" fill="#f08c00" text-anchor="start" style="white-space: pre;" direction="ltr" dominant-baseline="text-before-edge">yield stress</text></g></g><g clip-path="url(#XKYbfuMb9KgJIemo38rOE)"><g stroke-linecap="round"><g transform="translate(208.33424251266263 269.33839874671366) rotate(0 19.79900019075501 -9.35953556811478)"><path d="M0.35 0.46 C6.98 -2.98, 32.39 -16.37, 39.01 -19.72 M-0.92 -0.34 C6.17 -3.75, 34.67 -15.63, 41.41 -18.71" stroke="#f08c00" stroke-width="2" fill="none"></path></g><g transform="translate(208.33424251266263 269.33839874671366) rotate(0 19.79900019075501 -9.35953556811478)"><path d="M25.52 -3.64 C29.95 -8.27, 31.3 -10.12, 41.41 -18.71 M25.52 -3.64 C28.23 -7.5, 32.92 -9.65, 41.41 -18.71" stroke="#f08c00" stroke-width="2" fill="none"></path></g><g transform="translate(208.33424251266263 269.33839874671366) rotate(0 19.79900019075501 -9.35953556811478)"><path d="M19.55 -17.38 C25.51 -18.75, 28.28 -17.33, 41.41 -18.71 M19.55 -17.38 C23.6 -18.23, 29.62 -17.32, 41.41 -18.71" stroke="#f08c00" stroke-width="2" fill="none"></path></g></g><mask></mask></g><g clip-path="url(#XKYbfuMb9KgJIemo38rOE)"><g transform="translate(41.367312461632196 264.2164151329325) rotate(0 80.87989807128906 12.5)"><text x="0" y="0" font-family="Virgil, Segoe UI Emoji" font-size="20px" fill="#f08c00" text-anchor="start" style="white-space: pre;" direction="ltr" dominant-baseline="text-before-edge">proportional limit</text></g></g><g clip-path="url(#XKYbfuMb9KgJIemo38rOE)"><g transform="translate(236.14345575254913 349.28716846262796) rotate(0 5.5399932861328125 12.5)"><text x="0" y="0" font-family="Virgil, Segoe UI Emoji" font-size="20px" fill="#f08c00" text-anchor="start" style="white-space: pre;" direction="ltr" dominant-baseline="text-before-edge">o</text></g></g><g clip-path="url(#XKYbfuMb9KgJIemo38rOE)"><g transform="translate(295.2778623079329 205.89482699685777) rotate(0 7.269996643066406 12.5)"><text x="0" y="0" font-family="Virgil, Segoe UI Emoji" font-size="20px" fill="#f08c00" text-anchor="start" style="white-space: pre;" direction="ltr" dominant-baseline="text-before-edge">B</text></g></g><g clip-path="url(#XKYbfuMb9KgJIemo38rOE)"><g transform="translate(300.391548773655 250.89329900870143) rotate(0 6.55999755859375 12.5)"><text x="0" y="0" font-family="Virgil, Segoe UI Emoji" font-size="20px" fill="#f08c00" text-anchor="start" style="white-space: pre;" direction="ltr" dominant-baseline="text-before-edge">A</text></g></g><g clip-path="url(#XKYbfuMb9KgJIemo38rOE)"><g transform="translate(413.1998402336802 209.3662099666144) rotate(0 6.439994812011719 12.5)"><text x="0" y="0" font-family="Virgil, Segoe UI Emoji" font-size="20px" fill="#f08c00" text-anchor="start" style="white-space: pre;" direction="ltr" dominant-baseline="text-before-edge">C</text></g></g><g clip-path="url(#XKYbfuMb9KgJIemo38rOE)"><g transform="translate(562.0275960235737 147.80443994929783) rotate(0 7.799995422363281 12.5)"><text x="0" y="0" font-family="Virgil, Segoe UI Emoji" font-size="20px" fill="#f08c00" text-anchor="start" style="white-space: pre;" direction="ltr" dominant-baseline="text-before-edge">D</text></g></g><g clip-path="url(#XKYbfuMb9KgJIemo38rOE)"><g transform="translate(664.6130209953943 94.54436992472574) rotate(0 6.739990234375 12.5)"><text x="0" y="0" font-family="Virgil, Segoe UI Emoji" font-size="20px" fill="#f08c00" text-anchor="start" style="white-space: pre;" direction="ltr" dominant-baseline="text-before-edge">E</text></g></g><g clip-path="url(#XKYbfuMb9KgJIemo38rOE)"><g transform="translate(670.458146117351 192.2995046976248) rotate(0 6.739990234375 12.5)"><text x="0" y="0" font-family="Virgil, Segoe UI Emoji" font-size="20px" fill="#f08c00" text-anchor="start" style="white-space: pre;" direction="ltr" dominant-baseline="text-before-edge">E</text></g></g><g clip-path="url(#XKYbfuMb9KgJIemo38rOE)"><g stroke-linecap="round"><g transform="translate(252.87089022338603 408.7580024650738) rotate(0 10.270532855086458 -13.15914955940275)"><path d="M0.38 -0.03 C3.89 -4.7, 17.12 -22.64, 20.43 -27.05 M-0.88 -1.1 C2.51 -5.71, 16.06 -21.86, 19.42 -25.89" stroke="#f08c00" stroke-width="2" fill="none"></path></g><g transform="translate(252.87089022338603 408.7580024650738) rotate(0 10.270532855086458 -13.15914955940275)"><path d="M13.75 -10.19 C14.99 -14.29, 15.44 -18.53, 19.42 -25.89 M13.75 -10.19 C14.83 -15.48, 17.35 -19.01, 19.42 -25.89" stroke="#f08c00" stroke-width="2" fill="none"></path></g><g transform="translate(252.87089022338603 408.7580024650738) rotate(0 10.270532855086458 -13.15914955940275)"><path d="M4.99 -17.51 C8.48 -19.81, 11.11 -22.21, 19.42 -25.89 M4.99 -17.51 C8.59 -20.74, 13.62 -22.19, 19.42 -25.89" stroke="#f08c00" stroke-width="2" fill="none"></path></g></g><mask></mask></g><g clip-path="url(#XKYbfuMb9KgJIemo38rOE)"><g transform="translate(212.7976656072907 411.4893899012545) rotate(0 30.929962158203125 25)"><text x="0" y="0" font-family="Virgil, Segoe UI Emoji" font-size="20px" fill="#f08c00" text-anchor="start" style="white-space: pre;" direction="ltr" dominant-baseline="text-before-edge">linear </text><text x="0" y="25" font-family="Virgil, Segoe UI Emoji" font-size="20px" fill="#f08c00" text-anchor="start" style="white-space: pre;" direction="ltr" dominant-baseline="text-before-edge">region</text></g></g><g clip-path="url(#XKYbfuMb9KgJIemo38rOE)"><g transform="translate(312.6585164559234 379.2261801316231) rotate(0 47.37994384765625 37.5)"><text x="0" y="0" font-family="Virgil, Segoe UI Emoji" font-size="20px" fill="#f08c00" text-anchor="start" style="white-space: pre;" direction="ltr" dominant-baseline="text-before-edge">perfect</text><text x="0" y="25" font-family="Virgil, Segoe UI Emoji" font-size="20px" fill="#f08c00" text-anchor="start" style="white-space: pre;" direction="ltr" dominant-baseline="text-before-edge">plasticity</text><text x="0" y="50" font-family="Virgil, Segoe UI Emoji" font-size="20px" fill="#f08c00" text-anchor="start" style="white-space: pre;" direction="ltr" dominant-baseline="text-before-edge">or yielding</text></g></g><g clip-path="url(#XKYbfuMb9KgJIemo38rOE)"><g transform="translate(450.8355082424199 379.91893848338805) rotate(0 43.609954833984375 25)"><text x="0" y="0" font-family="Virgil, Segoe UI Emoji" font-size="20px" fill="#f08c00" text-anchor="start" style="white-space: pre;" direction="ltr" dominant-baseline="text-before-edge">strain </text><text x="0" y="25" font-family="Virgil, Segoe UI Emoji" font-size="20px" fill="#f08c00" text-anchor="start" style="white-space: pre;" direction="ltr" dominant-baseline="text-before-edge">hardening</text></g></g><g clip-path="url(#XKYbfuMb9KgJIemo38rOE)"><g transform="translate(574.0992844988085 378.39042267921377) rotate(0 36.89996337890625 12.5)"><text x="0" y="0" font-family="Virgil, Segoe UI Emoji" font-size="20px" fill="#f08c00" text-anchor="start" style="white-space: pre;" direction="ltr" dominant-baseline="text-before-edge">necking </text></g></g><g clip-path="url(#XKYbfuMb9KgJIemo38rOE)"><g transform="translate(576.7069593384455 412.4484844132717) rotate(0 43.489952087402344 25)"><text x="0" y="0" font-family="Virgil, Segoe UI Emoji" font-size="20px" fill="#f08c00" text-anchor="start" style="white-space: pre;" direction="ltr" dominant-baseline="text-before-edge">strain </text><text x="0" y="25" font-family="Virgil, Segoe UI Emoji" font-size="20px" fill="#f08c00" text-anchor="start" style="white-space: pre;" direction="ltr" dominant-baseline="text-before-edge">softening</text></g></g><g clip-path="url(#XKYbfuMb9KgJIemo38rOE)"><g transform="translate(724.9252579704852 367.1971650762043) rotate(0 5.019996643066406 12.5)"><text x="0" y="0" font-family="Virgil, Segoe UI Emoji" font-size="20px" fill="#f08c00" text-anchor="start" style="white-space: pre;" direction="ltr" dominant-baseline="text-before-edge">ε</text></g></g><g clip-path="url(#XKYbfuMb9KgJIemo38rOE)"><g transform="translate(223.46936610276805 79.33431247040926) rotate(0 6.6199951171875 12.5)"><text x="0" y="0" font-family="Virgil, Segoe UI Emoji" font-size="20px" fill="#f08c00" text-anchor="start" style="white-space: pre;" direction="ltr" dominant-baseline="text-before-edge">𝛔</text></g></g><g clip-path="url(#XKYbfuMb9KgJIemo38rOE)"><g stroke-linecap="round"><g transform="translate(680.3934879092718 124.59111232393434) rotate(0 14.565070455497107 40.334027575895334)"><path d="M0.37 -0.61 C3.24 -1.1, 14.13 -6.97, 16.37 -2.8 C18.61 1.38, 13.19 18.51, 13.81 24.44 C14.44 30.37, 17.7 33.22, 20.13 32.76 C22.55 32.3, 28.15 24.95, 28.38 21.66 C28.62 18.38, 23.46 11.18, 21.53 13.06 C19.6 14.93, 16.56 24.98, 16.81 32.9 C17.07 40.83, 23.28 52.99, 23.06 60.61 C22.84 68.23, 18.95 74.64, 15.51 78.63 C12.08 82.61, 4.51 83.85, 2.44 84.54 M-0.89 1.68 C1.91 1.38, 13.23 -5.27, 15.55 -1.32 C17.86 2.64, 12.28 20.11, 13 25.41 C13.73 30.71, 17.02 31.54, 19.88 30.46 C22.74 29.39, 29.75 21.48, 30.18 18.94 C30.61 16.4, 24.58 13.12, 22.48 15.24 C20.38 17.36, 17.67 24.1, 17.58 31.66 C17.48 39.21, 22.42 52.41, 21.9 60.56 C21.38 68.71, 17.59 76.51, 14.46 80.54 C11.32 84.56, 4.88 84.23, 3.08 84.7" stroke="#f08c00" stroke-width="2" fill="none"></path></g></g><mask></mask></g><g clip-path="url(#XKYbfuMb9KgJIemo38rOE)"><g transform="translate(637.69250084407 64.37620376619725) rotate(0 56.269935607910156 12.5)"><text x="0" y="0" font-family="Virgil, Segoe UI Emoji" font-size="20px" fill="#f08c00" text-anchor="start" style="white-space: pre;" direction="ltr" dominant-baseline="text-before-edge">Compression</text></g></g><g clip-path="url(#XKYbfuMb9KgJIemo38rOE)"><g transform="translate(679.3732136540731 235.73540370454566) rotate(0 36.00996398925781 12.5)"><text x="0" y="0" font-family="Virgil, Segoe UI Emoji" font-size="20px" fill="#f08c00" text-anchor="start" style="white-space: pre;" direction="ltr" dominant-baseline="text-before-edge">Tension</text></g></g><g clip-path="url(#XKYbfuMb9KgJIemo38rOE)"><g transform="translate(719.3224940854028 120.50969693562229) rotate(0 61.649932861328125 25)"><text x="0" y="0" font-family="Virgil, Segoe UI Emoji" font-size="20px" fill="#f08c00" text-anchor="start" style="white-space: pre;" direction="ltr" dominant-baseline="text-before-edge">Bauschinger </text><text x="0" y="25" font-family="Virgil, Segoe UI Emoji" font-size="20px" fill="#f08c00" text-anchor="start" style="white-space: pre;" direction="ltr" dominant-baseline="text-before-edge">effect</text></g></g><g clip-path="url(#XKYbfuMb9KgJIemo38rOE)"><g stroke-linecap="round"><g transform="translate(625.5498507782062 136.90186190255372) rotate(0 -12.885452014588623 19.510101242646442)"><path d="M-0.87 -0.26 C-4.91 6.37, -21.08 32.05, -25.06 38.61 M0.87 -1.44 C-3.19 5.46, -21.32 32.95, -25.63 39.93" stroke="#f08c00" stroke-width="2" fill="none"></path></g></g><mask></mask></g><g clip-path="url(#XKYbfuMb9KgJIemo38rOE)"><g stroke-linecap="round"><g transform="translate(649.9442079038416 132.01260073961066) rotate(0 -16.576774007892027 28.94345015259455)"><path d="M-0.42 -0.58 C-6.07 9.39, -28.53 49.24, -33.86 58.96 M1.56 1.73 C-3.7 11.46, -25.8 47.86, -31.51 57.4" stroke="#f08c00" stroke-width="2" fill="none"></path></g></g><mask></mask></g><g clip-path="url(#XKYbfuMb9KgJIemo38rOE)"><g stroke-linecap="round"><g transform="translate(663.120312693873 154.64648250504615) rotate(0 -13.320335583368319 23.07149800426191)"><path d="M0.1 -0.26 C-4.55 7.27, -23.13 37.77, -27.77 45.7 M-1.3 -1.44 C-5.62 6.21, -21.62 39.16, -25.66 47" stroke="#f08c00" stroke-width="2" fill="none"></path></g></g><mask></mask></g><g clip-path="url(#XKYbfuMb9KgJIemo38rOE)"><g stroke-linecap="round"><g transform="translate(664.6111515755252 187.49635440567545) rotate(0 -6.528207622247578 11.307187284091015)"><path d="M0.15 -0.19 C-1.96 3.56, -10.93 19.09, -13.14 22.85 M-0.44 -0.76 C-2.58 2.79, -11.44 18.07, -13.61 22.01" stroke="#f08c00" stroke-width="2" fill="none"></path></g></g><mask></mask></g></svg>