<svg version="1.1" xmlns="http://www.w3.org/2000/svg" viewBox="0 0 704.4554725060098 614.5728008563701" width="704.4554725060098" height="614.5728008563701">
  <!-- svg-source:excalidraw -->
  
  <defs>
    <style class="style-fonts">
      @font-face {
        font-family: "Virgil";
        src: url("https://excalidraw.com/Virgil.woff2");
      }
      @font-face {
        font-family: "Cascadia";
        src: url("https://excalidraw.com/Cascadia.woff2");
      }
      @font-face {
        font-family: "Assistant";
        src: url("https://excalidraw.com/Assistant-Regular.woff2");
      }
    </style>
    <clipPath id="iHoeDR1_Ucjwb0JFJbjyY">
            <rect transform="translate(0 0) rotate(0 352.2277362530049 307.28640042818506)" width="704.4554725060098" height="614.5728008563701">
          </rect>
        </clipPath>
  </defs>
  <rect x="0" y="0" width="704.4554725060098" height="614.5728008563701" fill="#ffffff"></rect><g clip-path="url(#iHoeDR1_Ucjwb0JFJbjyY)"><g stroke-linecap="round"><g transform="translate(170.54330679086524 132.57695124699518) rotate(0 0 167.96823354867786)"><path d="M0.49 -0.53 C0.43 55.56, -0.6 280.41, -0.77 336.35 M-0.71 1.81 C-0.34 57.55, 1.68 278.74, 1.54 334.45" stroke="#1e1e1e" stroke-width="2" fill="none"></path></g></g><mask></mask></g><g clip-path="url(#iHoeDR1_Ucjwb0JFJbjyY)"><g stroke-linecap="round"><g transform="translate(119.98450646033689 432.5603309044471) rotate(0 265.1538555438701 0)"><path d="M0.82 -0.85 C88.96 -1, 441.49 -0.97, 529.56 -0.67 M-0.21 1.31 C88.25 1.29, 443.25 0.89, 531.88 0.51" stroke="#1e1e1e" stroke-width="2" fill="none"></path></g></g><mask></mask></g><g clip-path="url(#iHoeDR1_Ucjwb0JFJbjyY)"><g stroke-linecap="round"><g transform="translate(122.2314453125 347.1718186598558) rotate(0 0 -84.26499586838943)"><path d="M-0.25 -1.15 C0.06 -29.21, 1.05 -141.25, 1.08 -169.06 M1.83 0.86 C2.13 -26.98, 1.14 -139.31, 0.69 -167.8" stroke="#1e1e1e" stroke-width="2" fill="none"></path></g><g transform="translate(122.2314453125 347.1718186598558) rotate(0 0 -84.26499586838943)"><path d="M9.51 -144.41 C5.63 -148.21, 4.56 -155.71, 0.69 -167.8 M9.51 -144.41 C6.18 -151.82, 3.72 -160.28, 0.69 -167.8" stroke="#1e1e1e" stroke-width="2" fill="none"></path></g><g transform="translate(122.2314453125 347.1718186598558) rotate(0 0 -84.26499586838943)"><path d="M-7.59 -144.21 C-7.39 -148.03, -4.39 -155.57, 0.69 -167.8 M-7.59 -144.21 C-5.04 -151.85, -1.62 -160.37, 0.69 -167.8" stroke="#1e1e1e" stroke-width="2" fill="none"></path></g></g><mask></mask></g><g clip-path="url(#iHoeDR1_Ucjwb0JFJbjyY)"><g stroke-linecap="round"><g transform="translate(205.37287785456738 471.8840613731971) rotate(0 88.7591552734375 0)"><path d="M0.86 0.1 C30.44 0.12, 147.44 1.17, 176.99 1.15 M-0.14 -0.89 C29.27 -0.66, 146.12 -0.74, 175.76 -0.37" stroke="#1e1e1e" stroke-width="2" fill="none"></path></g><g transform="translate(205.37287785456738 471.8840613731971) rotate(0 88.7591552734375 0)"><path d="M152.23 8.06 C158.49 4.8, 166.4 4.56, 175.76 -0.37 M152.23 8.06 C159.06 6.35, 166.46 1.98, 175.76 -0.37" stroke="#1e1e1e" stroke-width="2" fill="none"></path></g><g transform="translate(205.37287785456738 471.8840613731971) rotate(0 88.7591552734375 0)"><path d="M152.32 -9.04 C158.71 -7.82, 166.6 -3.58, 175.76 -0.37 M152.32 -9.04 C159.15 -5.62, 166.52 -4.86, 175.76 -0.37" stroke="#1e1e1e" stroke-width="2" fill="none"></path></g></g><mask></mask></g><g clip-path="url(#iHoeDR1_Ucjwb0JFJbjyY)"><g stroke-linecap="round"><g transform="translate(173.91404371995168 431.4368145282452) rotate(0 131.45334097055297 -139.44567292812928)"><path d="M0.88 0.64 C18.66 -45.6, 71.49 -239.75, 107.65 -277.91 C143.81 -316.08, 191.92 -237.54, 217.83 -228.35 C243.74 -219.16, 255.65 -223.56, 263.13 -222.76 M-0.12 -0.07 C17.38 -46.59, 70.28 -241.69, 106.49 -279.52 C142.71 -317.36, 191 -236.71, 217.17 -227.09 C243.33 -217.48, 256.17 -222.37, 263.49 -221.81" stroke="#1e1e1e" stroke-width="2" fill="none"></path></g></g><mask></mask></g><g clip-path="url(#iHoeDR1_Ucjwb0JFJbjyY)"><g stroke-linecap="round"><g transform="translate(173.3417547090403 430.8762794428776) rotate(0 55.339245091393195 -112.9267155633207)"><path d="M0.29 0.89 C13.73 -31.24, 65.24 -154.67, 81.64 -192.56 C98.04 -230.45, 94.06 -221.67, 98.71 -226.45 C103.35 -231.23, 107.69 -222.06, 109.5 -221.22 M-1.01 0.32 C12.2 -32.2, 64.19 -156.79, 80.78 -194.42 C97.38 -232.05, 93.81 -220.64, 98.53 -225.45 C103.26 -230.25, 107.02 -224.03, 109.12 -223.23" stroke="#1e1e1e" stroke-width="2" fill="none"></path></g></g><mask></mask></g><g clip-path="url(#iHoeDR1_Ucjwb0JFJbjyY)"><g stroke-linecap="round"><g transform="translate(177.28449894831738 426.2810407363) rotate(0 130.44621375780798 -101.81458167727726)"><path d="M-0.69 -0.1 C19.09 -33.73, 87.54 -174.57, 118.66 -202.92 C149.78 -231.26, 162.37 -176.29, 186.04 -170.16 C209.71 -164.03, 248.11 -166.94, 260.71 -166.11 M1.14 -1.2 C21.31 -35.08, 90.34 -176.68, 120.99 -204.66 C151.64 -232.65, 161.72 -175.63, 185.03 -169.11 C208.34 -162.58, 248.28 -166.23, 260.85 -165.51" stroke="#1e1e1e" stroke-width="2" fill="none"></path></g></g><mask></mask></g><g clip-path="url(#iHoeDR1_Ucjwb0JFJbjyY)"><g stroke-linecap="round"><g transform="translate(171.66691706730762 431.4368145282452) rotate(0 164.03587928185107 -32.020686222956726)"><path d="M0.02 -0.15 C8.28 -6.07, 28.08 -28.38, 49.4 -35.07 C70.73 -41.76, 100.2 -40.59, 127.97 -40.27 C155.75 -39.96, 193.48 -33.97, 216.07 -33.16 C238.65 -32.36, 244.79 -30.34, 263.51 -35.44 C282.23 -40.54, 317.57 -59.15, 328.39 -63.76 M-1.43 -1.27 C6.68 -7.05, 26.91 -27.29, 48.44 -33.66 C69.96 -40.02, 99.83 -39.16, 127.74 -39.45 C155.65 -39.75, 193.47 -36.12, 215.91 -35.44 C238.34 -34.75, 243.95 -30.49, 262.35 -35.36 C280.75 -40.23, 315.16 -59.89, 326.31 -64.65" stroke="#1e1e1e" stroke-width="2" fill="none"></path></g></g><mask></mask></g><g clip-path="url(#iHoeDR1_Ucjwb0JFJbjyY)"><g stroke-linecap="round"><g transform="translate(438.4090545701297 259.522972688506) rotate(0 103.69450178644956 -44.363319554064795)"><path d="M0.97 0.35 C5.04 -4.72, 10.03 -17.06, 24.02 -30 C38 -42.93, 54.18 -67.39, 84.88 -77.27 C115.57 -87.15, 187.71 -87.24, 208.19 -89.26 M0.02 -0.51 C3.95 -6, 8.84 -19.31, 22.95 -31.96 C37.06 -44.61, 53.7 -67.02, 84.68 -76.43 C115.66 -85.84, 188.56 -86.28, 208.85 -88.44" stroke="#1e1e1e" stroke-width="2" fill="none"></path></g></g><mask></mask></g><g clip-path="url(#iHoeDR1_Ucjwb0JFJbjyY)"><g stroke-linecap="round"><g transform="translate(439.067758413461 206.73025277944703) rotate(0 0 112.91510948768025)"><path d="M-0.49 0.74 C-0.83 38.03, -0.87 187.08, -0.93 224.76" stroke="#1e1e1e" stroke-width="2.5" fill="none" stroke-dasharray="1.5 8"></path></g></g><mask></mask></g><g clip-path="url(#iHoeDR1_Ucjwb0JFJbjyY)"><g stroke-linecap="round"><g transform="translate(169.41988431490336 142.68878643329322) rotate(0 69.09729003906273 0)"><path d="M-1.13 0.12 C22.02 0.09, 114.43 0.79, 137.71 0.83" stroke="#1e1e1e" stroke-width="2.5" fill="none" stroke-dasharray="1.5 8"></path></g></g><mask></mask></g><g clip-path="url(#iHoeDR1_Ucjwb0JFJbjyY)"><g stroke-linecap="round"><g transform="translate(173.61519434291586 213.4713040865384) rotate(0 45.290011760281004 0.14932454848182886)"><path d="M-0.74 0.28 C14.63 0.5, 76.39 1.53, 91.66 1.45" stroke="#1e1e1e" stroke-width="2.5" fill="none" stroke-dasharray="1.5 8"></path></g></g><mask></mask></g><g clip-path="url(#iHoeDR1_Ucjwb0JFJbjyY)"><g stroke-linecap="round"><g transform="translate(647.1765535493887 172.41315141440577) rotate(0 -1.6853215144230944 127.52110407902646)"><path d="M-0.4 0.78 C-0.97 43.46, -1.95 213.53, -2.46 255.79" stroke="#1e1e1e" stroke-width="2.5" fill="none" stroke-dasharray="1.5 8"></path></g></g><mask></mask></g><g clip-path="url(#iHoeDR1_Ucjwb0JFJbjyY)"><g transform="translate(386.2618314302881 103.36505596454327) rotate(0 52.13043975830078 26.544165978064882)"><text x="0" y="0" font-family="Virgil, Segoe UI Emoji" font-size="42.47066556490382px" fill="#1e1e1e" text-anchor="start" style="white-space: pre;" direction="ltr" dominant-baseline="text-before-edge">HYSD</text></g></g><g clip-path="url(#iHoeDR1_Ucjwb0JFJbjyY)"><g transform="translate(476.76613202340104 291.88277024489184) rotate(0 63.51206970214844 26.544165978064882)"><text x="0" y="0" font-family="Virgil, Segoe UI Emoji" font-size="42.47066556490382px" fill="#1e1e1e" text-anchor="start" style="white-space: pre;" direction="ltr" dominant-baseline="text-before-edge">rubber</text></g></g><g clip-path="url(#iHoeDR1_Ucjwb0JFJbjyY)"><g transform="translate(269.98230915681324 157.80515230618988) rotate(0 25.247695922851562 26.544165978064886)"><text x="0" y="0" font-family="Virgil, Segoe UI Emoji" font-size="42.47066556490382px" fill="#1e1e1e" text-anchor="start" style="white-space: pre;" direction="ltr" dominant-baseline="text-before-edge">CI</text></g></g><g clip-path="url(#iHoeDR1_Ucjwb0JFJbjyY)"><g transform="translate(358.000638483737 213.8227961613581) rotate(0 29.176063537597656 26.544165978064886)"><text x="0" y="0" font-family="Virgil, Segoe UI Emoji" font-size="42.47066556490382px" fill="#1e1e1e" text-anchor="start" style="white-space: pre;" direction="ltr" dominant-baseline="text-before-edge">MS</text></g></g><g clip-path="url(#iHoeDR1_Ucjwb0JFJbjyY)"><g transform="translate(34.93201622596143 224.51622596153845) rotate(0 19.540621243990245 36.89697065118859)"><text x="0" y="0" font-family="Virgil, Segoe UI Emoji" font-size="59.03515304190176px" fill="#1e1e1e" text-anchor="start" style="white-space: pre;" direction="ltr" dominant-baseline="text-before-edge">𝛔</text></g></g><g clip-path="url(#iHoeDR1_Ucjwb0JFJbjyY)"><g transform="translate(316.44080528846143 460.80871582031244) rotate(0 23.5583455012395 58.6612581050679)"><text x="0" y="0" font-family="Virgil, Segoe UI Emoji" font-size="93.85801296810867px" fill="#1e1e1e" text-anchor="start" style="white-space: pre;" direction="ltr" dominant-baseline="text-before-edge">ε</text></g></g></svg>
