<svg version="1.1" xmlns="http://www.w3.org/2000/svg" viewBox="0 0 874.3145473264269 537.0851849756723" width="2622.943641979281" height="1611.2555549270169">
  <!-- svg-source:excalidraw -->
  
  <defs>
    <style class="style-fonts">
      @font-face {
        font-family: "Virgil";
        src: url("https://excalidraw.com/Virgil.woff2");
      }
      @font-face {
        font-family: "Cascadia";
        src: url("https://excalidraw.com/Cascadia.woff2");
      }
      @font-face {
        font-family: "Assistant";
        src: url("https://excalidraw.com/Assistant-Regular.woff2");
      }
    </style>
    
  </defs>
  <rect x="0" y="0" width="874.3145473264269" height="537.0851849756723" fill="#ffffff"></rect><g stroke-linecap="round" transform="translate(10 10) rotate(0 427.157273616727 258.54259233840435)"><path d="M32 0 C260.12 -3.81, 487.64 -4.98, 822.31 0 C844.41 -0.07, 852.64 10.83, 854.31 32 C851.5 158.35, 851.61 287.08, 854.31 485.09 C850.76 508.33, 846.16 517.75, 822.31 517.09 C551.69 515.63, 284.52 515.73, 32 517.09 C10.35 516.3, -3.4 503.14, 0 485.09 C0.14 362, -1.59 235.85, 0 32 C1.63 14.01, 9.38 -0.36, 32 0" stroke="none" stroke-width="0" fill="#ffffff"></path><path d="M32 0 C298.62 2.13, 564.13 2.88, 822.31 0 M32 0 C271.55 0.3, 511.42 -0.07, 822.31 0 M822.31 0 C843.52 -0.13, 855.66 9.9, 854.31 32 M822.31 0 C845.36 -1.86, 854.74 12.86, 854.31 32 M854.31 32 C855.59 152.05, 855.36 270.08, 854.31 485.09 M854.31 32 C853.48 163.5, 853.42 294.62, 854.31 485.09 M854.31 485.09 C854.61 507.11, 844.37 515.85, 822.31 517.09 M854.31 485.09 C856.04 507.67, 842.81 516.48, 822.31 517.09 M822.31 517.09 C534.25 519.87, 245.94 519.19, 32 517.09 M822.31 517.09 C579.85 517.88, 337.05 517.64, 32 517.09 M32 517.09 C9.94 516.76, -0.01 504.69, 0 485.09 M32 517.09 C11.55 516.48, 2.24 507.81, 0 485.09 M0 485.09 C-0.4 352.28, -1.02 219.47, 0 32 M0 485.09 C-0.5 350.84, -0.3 216.6, 0 32 M0 32 C-1.38 10.66, 9.8 0.03, 32 0 M0 32 C-0.2 9.03, 10.5 -1.69, 32 0" stroke="#1e1e1e" stroke-width="1" fill="none"></path></g><g transform="translate(145.4538657199189 44.28497707048291) rotate(0 19.34808349609375 17.5)"><text x="0" y="0" font-family="Virgil, Segoe UI Emoji" font-size="28px" fill="#1e1e1e" text-anchor="start" style="white-space: pre;" direction="ltr" dominant-baseline="text-before-edge">lot</text></g><g transform="translate(392.89567909621996 44.284977080894805) rotate(0 101.50042724609375 17.5)"><text x="0" y="0" font-family="Virgil, Segoe UI Emoji" font-size="28px" fill="#1e1e1e" text-anchor="start" style="white-space: pre;" direction="ltr" dominant-baseline="text-before-edge">no of samples </text></g><g transform="translate(688.3931497164483 44.284976573606855) rotate(0 63.070274353027344 35)"><text x="0" y="0" font-family="Virgil, Segoe UI Emoji" font-size="28px" fill="#1e1e1e" text-anchor="start" style="white-space: pre;" direction="ltr" dominant-baseline="text-before-edge">defective</text><text x="0" y="35" font-family="Virgil, Segoe UI Emoji" font-size="28px" fill="#1e1e1e" text-anchor="start" style="white-space: pre;" direction="ltr" dominant-baseline="text-before-edge"></text></g><g transform="translate(120.36576107747874 180.58184581822707) rotate(0 63.784271240234375 17.5)"><text x="0" y="0" font-family="Virgil, Segoe UI Emoji" font-size="28px" fill="#1e1e1e" text-anchor="start" style="white-space: pre;" direction="ltr" dominant-baseline="text-before-edge">2k -10 k </text></g><g transform="translate(75.92955809830266 295.4444328182267) rotate(0 86.00237274169928 17.5)"><text x="0" y="0" font-family="Virgil, Segoe UI Emoji" font-size="28px" fill="#1e1e1e" text-anchor="start" style="white-space: pre;" direction="ltr" dominant-baseline="text-before-edge">10 k - 35 k </text></g><g transform="translate(93.289634963151 443.7614161917518) rotate(0 90.86039733886719 17.5)"><text x="0" y="0" font-family="Virgil, Segoe UI Emoji" font-size="28px" fill="#1e1e1e" text-anchor="start" style="white-space: pre;" direction="ltr" dominant-baseline="text-before-edge">35 k - 50 k </text></g><g transform="translate(442.84939920846546 180.581845680299) rotate(0 19.600082397460938 17.5)"><text x="0" y="0" font-family="Virgil, Segoe UI Emoji" font-size="28px" fill="#1e1e1e" text-anchor="start" style="white-space: pre;" direction="ltr" dominant-baseline="text-before-edge">20</text></g><g transform="translate(442.84939920291254 312.94443257013563) rotate(0 19.50208282470703 17.5)"><text x="0" y="0" font-family="Virgil, Segoe UI Emoji" font-size="28px" fill="#1e1e1e" text-anchor="start" style="white-space: pre;" direction="ltr" dominant-baseline="text-before-edge">32</text></g><g transform="translate(442.8493992140186 443.7614155631941) rotate(0 18.284080505371094 17.5)"><text x="0" y="0" font-family="Virgil, Segoe UI Emoji" font-size="28px" fill="#1e1e1e" text-anchor="start" style="white-space: pre;" direction="ltr" dominant-baseline="text-before-edge">50</text></g><g transform="translate(720.7110309673158 180.5818458119802) rotate(0 3.7940139770507812 17.5)"><text x="0" y="0" font-family="Virgil, Segoe UI Emoji" font-size="28px" fill="#1e1e1e" text-anchor="start" style="white-space: pre;" direction="ltr" dominant-baseline="text-before-edge">1</text></g><g transform="translate(714.537005228595 295.44443256874774) rotate(0 9.968040466308594 17.5)"><text x="0" y="0" font-family="Virgil, Segoe UI Emoji" font-size="28px" fill="#1e1e1e" text-anchor="start" style="white-space: pre;" direction="ltr" dominant-baseline="text-before-edge">2</text></g><g transform="translate(701.6429465910142 443.76141643776054) rotate(0 9.534042358398438 17.5)"><text x="0" y="0" font-family="Virgil, Segoe UI Emoji" font-size="28px" fill="#1e1e1e" text-anchor="start" style="white-space: pre;" direction="ltr" dominant-baseline="text-before-edge">3</text></g><g stroke-linecap="round" transform="translate(10.00000032642697 114.28497697567263) rotate(0 427.1572735 67.01191984579032)"><path d="M7.86 8.16 C7.86 8.16, 7.86 8.16, 7.86 8.16 M7.86 8.16 C7.86 8.16, 7.86 8.16, 7.86 8.16 M2.35 20.59 C8.09 15.49, 10.87 10.71, 18.1 2.48 M2.35 20.59 C7.91 14.71, 12.86 7.39, 18.1 2.48 M1.43 27.75 C6.7 21.16, 14.15 12.82, 24.4 1.33 M1.43 27.75 C8.64 20.16, 14.31 12.47, 24.4 1.33 M0.52 34.9 C10.98 23.58, 21.46 9.99, 30.7 0.18 M0.52 34.9 C10.88 24.06, 19.71 13.19, 30.7 0.18 M0.26 41.3 C11.95 27.89, 24.19 13.41, 36.34 -0.21 M0.26 41.3 C9.83 30.01, 18.53 19.22, 36.34 -0.21 M-0.01 47.7 C12.96 29.28, 30.92 12.42, 41.33 0.15 M-0.01 47.7 C11.2 34.48, 23.28 19.93, 41.33 0.15 M0.39 53.34 C11.4 41.51, 20.26 31.04, 46.97 -0.25 M0.39 53.34 C15.6 35.44, 31.67 17.82, 46.97 -0.25 M0.13 59.74 C16.21 41.6, 34.92 21.36, 51.96 0.11 M0.13 59.74 C12.54 44.03, 26.08 31, 51.96 0.11 M0.52 65.38 C18.13 46.02, 33.4 24.93, 56.94 0.47 M0.52 65.38 C20.51 43.79, 39.37 21.66, 56.94 0.47 M0.26 71.78 C18.03 51.46, 38.62 31.02, 62.59 0.08 M0.26 71.78 C21.53 47.4, 42.85 21.92, 62.59 0.08 M0 78.17 C18.65 53.4, 39.82 30.56, 67.57 0.44 M0 78.17 C26.03 49.41, 49.75 20, 67.57 0.44 M0.39 83.82 C16.07 66.36, 32.6 47.91, 73.22 0.04 M0.39 83.82 C18.84 62.83, 38.56 39.61, 73.22 0.04 M0.13 90.22 C28.5 57.21, 61.56 21.29, 78.2 0.41 M0.13 90.22 C29.05 58.73, 56.37 25.44, 78.2 0.41 M0.53 95.86 C32.29 61.08, 60.91 29.15, 83.85 0.01 M0.53 95.86 C21.26 71.49, 42.54 48.68, 83.85 0.01 M0.26 102.26 C20.73 76.69, 43.02 51.76, 88.83 0.37 M0.26 102.26 C27.98 68.06, 58.68 35.67, 88.83 0.37 M1.32 107.14 C25.14 77.09, 50.86 48.1, 94.48 -0.02 M1.32 107.14 C30.6 73.62, 61.12 38.75, 94.48 -0.02 M1.71 112.79 C28.79 84.55, 54.36 53.51, 99.46 0.34 M1.71 112.79 C31.51 77.75, 61.98 42.1, 99.46 0.34 M2.76 117.68 C25.98 90.54, 47.01 68.28, 105.11 -0.06 M2.76 117.68 C25.79 92.05, 47.48 68.15, 105.11 -0.06 M4.47 121.81 C35.95 85.11, 71.37 46.49, 110.09 0.3 M4.47 121.81 C28.89 94.72, 52 68.86, 110.09 0.3 M7.49 124.43 C46.19 80.66, 81.2 41.44, 115.74 -0.09 M7.49 124.43 C34.91 93.94, 60.88 62.77, 115.74 -0.09 M10.51 127.06 C47.47 86.18, 85.92 40.63, 120.72 0.27 M10.51 127.06 C32.53 101.33, 55.92 73.35, 120.72 0.27 M12.87 130.44 C47.39 91.53, 76.34 55.34, 126.37 -0.13 M12.87 130.44 C44.54 95.3, 74.58 60.12, 126.37 -0.13 M17.2 131.55 C48.54 93.6, 79.15 58.65, 131.35 0.23 M17.2 131.55 C50.36 92.54, 84.87 53.12, 131.35 0.23 M21.53 132.67 C47.74 102.97, 72.15 73.66, 137 -0.16 M21.53 132.67 C56.8 91.57, 91.65 50.84, 137 -0.16 M25.86 133.78 C53.65 100.46, 80.72 72.08, 141.98 0.2 M25.86 133.78 C65.27 89.47, 105.21 42.38, 141.98 0.2 M31.5 133.39 C71.54 87.74, 111.44 41.83, 147.63 -0.2 M31.5 133.39 C68.43 92.17, 104.7 51.27, 147.63 -0.2 M36.49 133.75 C73.61 92.21, 107.82 49.42, 152.61 0.16 M36.49 133.75 C65.67 97.5, 95.17 64.45, 152.61 0.16 M42.13 133.35 C71.11 102.84, 96.75 70.17, 157.6 0.52 M42.13 133.35 C65.61 105.41, 90.88 78.41, 157.6 0.52 M47.12 133.71 C74.95 101.55, 100.73 70.1, 163.24 0.13 M47.12 133.71 C73.49 104.58, 100.01 73.17, 163.24 0.13 M52.76 133.32 C89.49 91.77, 123.73 53.41, 168.23 0.49 M52.76 133.32 C84.01 97.45, 115.31 60.39, 168.23 0.49 M57.75 133.68 C95.27 94.02, 129.56 53.27, 173.87 0.09 M57.75 133.68 C88.03 99.14, 119.65 64.11, 173.87 0.09 M62.74 134.04 C98.17 97.64, 128.56 58.16, 178.86 0.45 M62.74 134.04 C99.73 90.02, 138.35 45.98, 178.86 0.45 M68.38 133.64 C97.17 101.49, 125.37 70.98, 184.5 0.06 M68.38 133.64 C97.85 100.27, 127.29 66.17, 184.5 0.06 M73.37 134 C97.5 102.56, 124.17 72.99, 189.49 0.42 M73.37 134 C112.83 87.04, 154.54 39.28, 189.49 0.42 M79.01 133.61 C116.9 90.92, 156.19 44.65, 195.13 0.03 M79.01 133.61 C114.59 90.67, 151.56 49.03, 195.13 0.03 M84 133.97 C112.14 103.86, 137.67 74.07, 200.12 0.39 M84 133.97 C116.5 97.52, 147.73 60.08, 200.12 0.39 M89.64 133.57 C121.06 96.65, 156.34 57.63, 205.76 -0.01 M89.64 133.57 C119.3 102.45, 147.22 69.1, 205.76 -0.01 M94.63 133.93 C133.56 92.81, 168.86 51.46, 210.75 0.35 M94.63 133.93 C138.79 81.96, 184.41 31.7, 210.75 0.35 M100.27 133.54 C145.86 84.09, 189.11 30.63, 216.39 -0.04 M100.27 133.54 C130.62 97.29, 162.28 62.85, 216.39 -0.04 M105.26 133.9 C132.38 103.78, 155.46 72.85, 221.38 0.32 M105.26 133.9 C143.29 91.91, 178.53 49.9, 221.38 0.32 M110.9 133.51 C148.54 93, 182.75 49.26, 227.02 -0.08 M110.9 133.51 C143.97 97.25, 176.19 60.46, 227.02 -0.08 M115.89 133.87 C157.2 88.66, 200.06 40.34, 232.01 0.28 M115.89 133.87 C147.16 100.55, 176.84 65.21, 232.01 0.28 M121.53 133.47 C144.78 105.98, 168.02 78.96, 237.65 -0.11 M121.53 133.47 C148.59 105.72, 173.43 75.35, 237.65 -0.11 M126.52 133.83 C154.07 104.7, 179.88 72.04, 242.64 0.25 M126.52 133.83 C168.82 85.29, 210.87 35.64, 242.64 0.25 M132.16 133.44 C165.44 94.79, 203.75 54.01, 248.28 -0.15 M132.16 133.44 C164.11 95.38, 195.26 59.4, 248.28 -0.15 M137.15 133.8 C167.54 98.25, 196.76 65.35, 253.27 0.21 M137.15 133.8 C174.78 89.44, 211.39 45.77, 253.27 0.21 M142.79 133.4 C178.2 91.42, 213.35 51.76, 258.26 0.57 M142.79 133.4 C178.72 90.52, 215.98 47.69, 258.26 0.57 M147.78 133.76 C184.78 90.54, 222.75 45.75, 263.9 0.18 M147.78 133.76 C193.14 80.99, 237.96 30.02, 263.9 0.18 M153.42 133.37 C188.44 96.34, 218.63 58.29, 268.89 0.54 M153.42 133.37 C179.77 102.66, 206.95 69.64, 268.89 0.54 M158.41 133.73 C188.65 98.54, 219.6 62.24, 274.53 0.14 M158.41 133.73 C200.79 84.25, 244.06 35.79, 274.53 0.14 M163.4 134.09 C203.1 91.14, 240.14 43.73, 279.52 0.5 M163.4 134.09 C208.29 83.01, 252.15 31.58, 279.52 0.5 M169.04 133.69 C212.73 84.49, 255.5 36.75, 285.16 0.11 M169.04 133.69 C193.72 104.29, 219.04 77.8, 285.16 0.11 M174.03 134.05 C210.19 93.48, 249.58 51.82, 290.15 0.47 M174.03 134.05 C217.48 83.47, 261.93 33.4, 290.15 0.47 M179.67 133.66 C206 103.19, 230.35 71.64, 295.79 0.08 M179.67 133.66 C205.64 102.25, 231.95 70.65, 295.79 0.08 M184.66 134.02 C218.19 91.16, 252.54 51.47, 300.78 0.44 M184.66 134.02 C215.93 98.61, 246.05 63.64, 300.78 0.44 M190.3 133.62 C229.24 86.96, 266.04 45.02, 306.42 0.04 M190.3 133.62 C223.67 96.21, 256.43 56.61, 306.42 0.04 M195.29 133.98 C238.71 83.32, 279.21 37.59, 311.41 0.4 M195.29 133.98 C239.8 85.04, 282.08 36.24, 311.41 0.4 M200.93 133.59 C235.4 95.36, 265.74 56.88, 317.05 0.01 M200.93 133.59 C226.86 106.13, 249.54 77.04, 317.05 0.01 M205.92 133.95 C249.44 87.05, 288.24 40.16, 322.04 0.37 M205.92 133.95 C234.88 100.52, 265.49 67.11, 322.04 0.37 M211.56 133.56 C252.7 84.23, 298.81 32.36, 327.68 -0.03 M211.56 133.56 C251.82 86.92, 293.15 41.42, 327.68 -0.03 M216.55 133.92 C255.32 87.3, 298.39 40.72, 332.67 0.33 M216.55 133.92 C258.35 87.3, 299.23 39.64, 332.67 0.33 M222.19 133.52 C265.28 87.19, 306.11 35.65, 338.31 -0.06 M222.19 133.52 C249.5 102.58, 276.13 72.41, 338.31 -0.06 M227.18 133.88 C273.26 79.22, 318.06 25.44, 343.3 0.3 M227.18 133.88 C263.69 91.42, 300.77 49.8, 343.3 0.3 M232.82 133.49 C272.55 85.52, 316.02 37.16, 348.29 0.66 M232.82 133.49 C272 86.64, 311.96 42.14, 348.29 0.66 M237.81 133.85 C280.93 86.23, 322.81 37.89, 353.93 0.26 M237.81 133.85 C271.33 94.21, 304.19 55.29, 353.93 0.26 M243.45 133.45 C281.03 90.34, 322.75 44.13, 358.92 0.62 M243.45 133.45 C278.41 95.46, 312.47 54.9, 358.92 0.62 M248.44 133.81 C280.56 96.26, 313.6 57.84, 364.56 0.23 M248.44 133.81 C278.33 98.62, 308.15 66.11, 364.56 0.23 M253.42 134.17 C294.97 84.91, 334.97 41.57, 369.55 0.59 M253.42 134.17 C288.24 96.24, 322.55 57.6, 369.55 0.59 M259.07 133.78 C286.37 103.83, 313.04 74.08, 375.19 0.19 M259.07 133.78 C286.26 102.97, 312.94 71.47, 375.19 0.19 M264.05 134.14 C310.6 82.35, 354.98 28.6, 380.18 0.55 M264.05 134.14 C293.97 101.08, 322.17 66.29, 380.18 0.55 M269.7 133.74 C296.58 105.66, 321.36 76.01, 385.82 0.16 M269.7 133.74 C307.19 91.22, 344.58 48.16, 385.82 0.16 M274.68 134.1 C313.2 88.45, 348.81 44.02, 390.81 0.52 M274.68 134.1 C307.17 98.48, 337.68 63.38, 390.81 0.52 M280.33 133.71 C314.7 92.02, 349.76 53, 396.45 0.12 M280.33 133.71 C308.61 101.38, 335.18 68.36, 396.45 0.12 M285.31 134.07 C323.98 92.09, 362.65 48.3, 401.44 0.48 M285.31 134.07 C329.75 84.96, 373.15 34.75, 401.44 0.48 M290.96 133.67 C330.4 86.47, 373.94 40.85, 407.08 0.09 M290.96 133.67 C314.96 105.71, 339.45 78.93, 407.08 0.09 M295.94 134.03 C324.65 101.63, 350 71.94, 412.07 0.45 M295.94 134.03 C338.99 83.55, 382.35 34.79, 412.07 0.45 M301.59 133.64 C344.5 88.06, 385.68 38.54, 417.71 0.06 M301.59 133.64 C331.96 100.49, 361.32 65.42, 417.71 0.06 M306.57 134 C332.4 103.78, 360.32 74.06, 422.7 0.42 M306.57 134 C333.26 105.45, 356.93 76.6, 422.7 0.42 M312.22 133.61 C356.53 82.44, 401.05 30.07, 428.34 0.02 M312.22 133.61 C345.96 95.36, 377.28 57.33, 428.34 0.02 M317.2 133.97 C358.8 83.31, 399.47 35.66, 433.33 0.38 M317.2 133.97 C362.52 81.49, 409.36 30.02, 433.33 0.38 M322.85 133.57 C348.09 102.47, 376.66 71.79, 438.97 -0.01 M322.85 133.57 C351.83 99.6, 381.51 67.72, 438.97 -0.01 M327.83 133.93 C373.25 81.75, 413.95 33.01, 443.96 0.35 M327.83 133.93 C369.84 84.66, 412.63 35.88, 443.96 0.35 M333.48 133.54 C374.22 83.09, 417.59 36.66, 448.94 0.71 M333.48 133.54 C374.6 88.04, 414.53 40.63, 448.94 0.71 M338.46 133.9 C380.65 88.03, 418.2 40.07, 454.59 0.31 M338.46 133.9 C377.77 88.88, 415.69 44.36, 454.59 0.31 M344.11 133.5 C388.42 81.81, 428.84 32.71, 459.57 0.67 M344.11 133.5 C372.91 100.43, 400.71 68.22, 459.57 0.67 M349.09 133.86 C396.81 83.03, 442.86 27.85, 465.22 0.28 M349.09 133.86 C380.18 100.27, 409.13 65.81, 465.22 0.28 M354.08 134.22 C389.53 95.2, 424.4 52.48, 470.2 0.64 M354.08 134.22 C382.19 99.95, 411.33 66.66, 470.2 0.64 M359.72 133.83 C402.04 83.17, 445.87 33.36, 475.85 0.24 M359.72 133.83 C388.08 98.15, 419.46 64.32, 475.85 0.24 M364.71 134.19 C407.72 86.04, 449.91 39.07, 480.83 0.6 M364.71 134.19 C401.19 88.98, 439.64 44.74, 480.83 0.6 M370.35 133.79 C399.63 103.17, 425.35 73.01, 486.48 0.21 M370.35 133.79 C413.7 80.94, 459.99 28.33, 486.48 0.21 M375.34 134.15 C416.14 88.48, 457.93 41.89, 491.46 0.57 M375.34 134.15 C411.05 94.7, 445.67 54.17, 491.46 0.57 M380.98 133.76 C402.95 104.46, 426.03 80.22, 497.11 0.17 M380.98 133.76 C414.06 96.7, 447.9 58.65, 497.11 0.17 M385.97 134.12 C420.92 93.72, 454.63 51.45, 502.09 0.53 M385.97 134.12 C411.82 104.04, 438.57 73.78, 502.09 0.53 M391.61 133.72 C415.26 106.55, 441.3 77, 507.74 0.14 M391.61 133.72 C427.67 93.79, 462.32 52.76, 507.74 0.14 M396.6 134.08 C418.82 105.49, 446.42 77.16, 512.72 0.5 M396.6 134.08 C426.07 102.53, 455.18 68.92, 512.72 0.5 M402.25 133.69 C436.06 92.68, 474.05 50.18, 518.37 0.11 M402.25 133.69 C446.44 83.51, 488.9 31.78, 518.37 0.11 M407.23 134.05 C439.18 95.41, 473.18 56.02, 523.35 0.47 M407.23 134.05 C444.98 92.08, 482.9 47.93, 523.35 0.47 M412.88 133.65 C437.33 105.22, 458.45 80.15, 529 0.07 M412.88 133.65 C456.89 80.68, 501.46 29.59, 529 0.07 M417.86 134.01 C459.5 90.05, 498.13 43.86, 533.98 0.43 M417.86 134.01 C449.67 95.29, 485.03 56.47, 533.98 0.43 M423.51 133.62 C463.7 89.73, 500.23 47.46, 539.63 0.04 M423.51 133.62 C466 84.21, 509.02 36.75, 539.63 0.04 M428.49 133.98 C469.88 84.51, 509.93 40.72, 544.61 0.4 M428.49 133.98 C456.37 103.72, 484.35 72.32, 544.61 0.4 M434.14 133.59 C457.09 105.27, 483.42 76.91, 549.6 0.76 M434.14 133.59 C468.42 97.09, 501.7 57.35, 549.6 0.76 M439.12 133.95 C476.4 88.1, 514.87 47.26, 555.24 0.36 M439.12 133.95 C473.79 95.21, 507.29 57.47, 555.24 0.36 M444.77 133.55 C475.66 97.92, 506.81 66.11, 560.23 0.72 M444.77 133.55 C479.87 95.46, 513.97 56.54, 560.23 0.72 M449.75 133.91 C479.76 98.38, 511.54 62.83, 565.87 0.33 M449.75 133.91 C479.39 98.37, 507.75 66.01, 565.87 0.33 M454.74 134.27 C480.18 108.22, 503.99 83.22, 570.86 0.69 M454.74 134.27 C487.03 96.85, 519.29 59.23, 570.86 0.69 M460.38 133.88 C502.6 88.38, 541.24 41.93, 576.5 0.29 M460.38 133.88 C499.57 87.33, 540.22 40.03, 576.5 0.29 M465.37 134.24 C494.22 102, 522.61 69.83, 581.49 0.65 M465.37 134.24 C499.28 96.09, 532.16 56.66, 581.49 0.65 M471.01 133.84 C510.39 87.81, 551.38 39.62, 587.14 0.26 M471.01 133.84 C504.92 95.07, 538.84 54.48, 587.14 0.26 M476 134.2 C508.48 96.11, 544.76 56.45, 592.12 0.62 M476 134.2 C513.85 90.13, 553.09 46.79, 592.12 0.62 M481.64 133.81 C514.51 96.57, 548.1 60.82, 597.77 0.22 M481.64 133.81 C507 103.73, 532.33 74.01, 597.77 0.22 M486.63 134.17 C527.74 84.96, 571.71 36.37, 602.75 0.58 M486.63 134.17 C525 88.89, 562.97 46, 602.75 0.58 M492.27 133.77 C526.87 95.7, 562.91 55.31, 608.4 0.19 M492.27 133.77 C532.51 87.14, 571.78 42.8, 608.4 0.19 M497.26 134.13 C536.46 85.62, 578.42 37.37, 613.38 0.55 M497.26 134.13 C521.56 108.12, 544.81 81.8, 613.38 0.55 M502.9 133.74 C549.5 80.22, 595.9 27.95, 619.03 0.16 M502.9 133.74 C539.71 93.23, 575.25 51.21, 619.03 0.16 M507.89 134.1 C539.4 97.26, 569.43 62.33, 624.01 0.52 M507.89 134.1 C532.69 106.01, 556 77.94, 624.01 0.52 M513.53 133.7 C549.17 89.38, 590.28 45.03, 629.66 0.12 M513.53 133.7 C542.45 104.49, 568.07 72.65, 629.66 0.12 M518.52 134.06 C541.59 107.05, 566.75 79.22, 634.64 0.48 M518.52 134.06 C561.6 86.59, 602.24 39.99, 634.64 0.48 M524.16 133.67 C556.28 96.47, 588.79 60, 639.63 0.84 M524.16 133.67 C555.59 99.27, 585.55 64.44, 639.63 0.84 M529.15 134.03 C568.3 88.21, 609.93 39.12, 645.27 0.45 M529.15 134.03 C553.58 106.87, 576.49 79.22, 645.27 0.45 M534.79 133.64 C561.2 104.04, 585.18 76.08, 650.26 0.81 M534.79 133.64 C561.94 102.71, 588.23 71.46, 650.26 0.81 M539.78 134 C584.76 82.13, 630.03 30.47, 655.9 0.41 M539.78 134 C573.28 98.76, 604.71 61.45, 655.9 0.41 M544.77 134.36 C580.38 97.13, 615.58 55.27, 660.89 0.77 M544.77 134.36 C589.52 82.05, 635.03 29.62, 660.89 0.77 M550.41 133.96 C590.37 87.21, 628.75 45.09, 666.53 0.38 M550.41 133.96 C578.38 103.55, 604.55 74.03, 666.53 0.38 M555.4 134.32 C586.97 94.73, 623.88 57.5, 671.52 0.74 M555.4 134.32 C587.7 96.74, 618.27 62.08, 671.52 0.74 M561.04 133.93 C590.09 102.5, 618.6 68.48, 677.16 0.34 M561.04 133.93 C597.45 93.58, 631.78 52.45, 677.16 0.34 M566.03 134.29 C605.64 86.37, 649.99 37.81, 682.15 0.7 M566.03 134.29 C595.74 101.42, 622.67 67.72, 682.15 0.7 M571.67 133.89 C610.53 92.48, 647.01 48.65, 687.79 0.31 M571.67 133.89 C600.49 101.06, 630.73 66.8, 687.79 0.31 M576.66 134.25 C603.13 101.67, 630.92 71.3, 692.78 0.67 M576.66 134.25 C618.12 89.24, 656.74 43.44, 692.78 0.67 M582.3 133.86 C610.2 104.08, 636.86 73.27, 698.42 0.27 M582.3 133.86 C609.23 104.35, 635.44 73.1, 698.42 0.27 M587.29 134.22 C623.84 95, 656.65 56.13, 703.41 0.63 M587.29 134.22 C613.39 102.76, 639.77 72.89, 703.41 0.63 M592.93 133.82 C633.56 88.48, 675.93 39.17, 709.05 0.24 M592.93 133.82 C627.26 94.29, 661.38 55.14, 709.05 0.24 M597.92 134.18 C629.15 98.45, 662.1 58.72, 714.04 0.6 M597.92 134.18 C626.3 100.7, 656.11 67.63, 714.04 0.6 M603.56 133.79 C645.79 86.46, 685.03 36.66, 719.68 0.2 M603.56 133.79 C637.53 95.25, 669.71 56.22, 719.68 0.2 M608.55 134.15 C645.54 92.84, 683.4 47.24, 724.67 0.56 M608.55 134.15 C653.65 82.22, 698.85 29, 724.67 0.56 M614.19 133.75 C638.22 104.04, 663.64 75.71, 730.31 0.17 M614.19 133.75 C640.12 106.4, 663.49 79, 730.31 0.17 M619.18 134.11 C661.62 83.69, 709.19 31.63, 735.3 0.53 M619.18 134.11 C655.64 94.53, 689.24 55.74, 735.3 0.53 M624.82 133.72 C672.63 82.52, 717.11 29.43, 740.29 0.89 M624.82 133.72 C671.18 82.33, 715.63 31.62, 740.29 0.89 M629.81 134.08 C676.62 81, 724.39 28.79, 745.93 0.5 M629.81 134.08 C656.64 100.36, 685.51 67.83, 745.93 0.5 M635.45 133.68 C664.61 103.54, 691.36 67.66, 750.92 0.86 M635.45 133.68 C674.04 89.67, 709.65 47.54, 750.92 0.86 M640.44 134.05 C675.12 94.03, 708.89 57.26, 756.56 0.46 M640.44 134.05 C685.02 81.45, 731.83 28.9, 756.56 0.46 M645.42 134.41 C673.92 99.64, 700.98 67.64, 761.55 0.82 M645.42 134.41 C674.12 100.91, 704.96 67.2, 761.55 0.82 M651.07 134.01 C675.57 103.89, 697.33 75.16, 767.19 0.43 M651.07 134.01 C691.93 88.69, 730.7 43.81, 767.19 0.43 M656.06 134.37 C694.27 89.17, 734.11 41.56, 772.18 0.79 M656.06 134.37 C701.16 80.79, 746.57 28.87, 772.18 0.79 M661.7 133.98 C693.75 98.54, 727.32 61.85, 777.82 0.39 M661.7 133.98 C701.42 89.48, 738.29 45.62, 777.82 0.39 M666.69 134.34 C710.84 83.41, 756.81 29.87, 782.81 0.75 M666.69 134.34 C698.38 96.55, 731.48 58.04, 782.81 0.75 M672.33 133.94 C697.66 102.99, 723.83 73.61, 788.45 0.36 M672.33 133.94 C705.58 98.6, 737.59 60.15, 788.45 0.36 M677.32 134.3 C718.91 87.79, 758.31 44.42, 793.44 0.72 M677.32 134.3 C706.94 102.27, 734.86 69.68, 793.44 0.72 M682.96 133.91 C723.6 84.94, 767.52 35.66, 799.08 0.32 M682.96 133.91 C721.58 89.45, 759.01 45.04, 799.08 0.32 M687.95 134.27 C714.02 101.41, 745.36 67.77, 804.07 0.68 M687.95 134.27 C726.66 92.58, 762.85 49.29, 804.07 0.68 M693.59 133.87 C719 103.86, 746.84 70.29, 809.71 0.29 M693.59 133.87 C727.98 91.17, 763.11 50.98, 809.71 0.29 M698.58 134.23 C726.67 104.4, 752.89 72.6, 814.7 0.65 M698.58 134.23 C736.71 89.33, 775.28 45.57, 814.7 0.65 M704.22 133.84 C742.05 88.89, 782.81 42.29, 820.34 0.25 M704.22 133.84 C734.43 96.18, 765.92 61.11, 820.34 0.25 M709.21 134.2 C751.04 85.68, 793.57 36.13, 825.33 0.61 M709.21 134.2 C738.06 101.82, 768.59 69.21, 825.33 0.61 M714.85 133.8 C736.01 106.1, 762.89 81.52, 830.31 0.97 M714.85 133.8 C752.17 88.78, 792.02 42.65, 830.31 0.97 M719.84 134.16 C762.69 86.47, 803.77 38.93, 834.65 2.09 M719.84 134.16 C762.84 83.03, 807.85 32.98, 834.65 2.09 M725.48 133.77 C761.28 89.95, 797.1 47.48, 838.98 3.2 M725.48 133.77 C756.03 96.52, 788.42 61.23, 838.98 3.2 M730.47 134.13 C758.69 100.85, 790.49 67.99, 842 5.83 M730.47 134.13 C753.85 107.69, 778.52 80.37, 842 5.83 M736.11 133.73 C760.56 105.21, 784.46 76.58, 845.67 7.7 M736.11 133.73 C771.91 91.84, 806.33 50.38, 845.67 7.7 M741.1 134.09 C764.53 109.41, 786.69 81.57, 848.69 10.32 M741.1 134.09 C781.67 88.89, 820.54 42.67, 848.69 10.32 M746.08 134.45 C766.51 107.7, 787.51 84.97, 851.05 13.7 M746.08 134.45 C780.39 92.46, 817.51 50.98, 851.05 13.7 M751.73 134.06 C775.73 110.99, 795.63 81.98, 852.1 18.59 M751.73 134.06 C771.59 110.46, 791.98 87.47, 852.1 18.59 M756.71 134.42 C790.23 96.14, 826.29 56.73, 853.81 22.72 M756.71 134.42 C782.36 105.01, 807.36 74.5, 853.81 22.72 M762.36 134.03 C780.84 111.38, 801.75 87.78, 854.2 28.37 M762.36 134.03 C787.69 104.56, 813.75 73.9, 854.2 28.37 M767.34 134.39 C802.05 97.03, 834.69 54.96, 854.6 34.01 M767.34 134.39 C791.23 107.17, 817.27 78.04, 854.6 34.01 M772.99 133.99 C791.1 113.57, 811.88 89.61, 854.34 40.41 M772.99 133.99 C795.11 108.73, 816.22 83.33, 854.34 40.41 M777.97 134.35 C807.73 100.92, 838.32 64.18, 854.73 46.05 M777.97 134.35 C794.65 115.71, 811.96 95.73, 854.73 46.05 M783.62 133.96 C812.31 102.71, 839.94 70.69, 854.47 52.45 M783.62 133.96 C797.01 117.25, 812.77 101.23, 854.47 52.45 M788.6 134.32 C805.65 114.7, 824.03 95.26, 854.21 58.85 M788.6 134.32 C813.72 105.65, 838.91 77.28, 854.21 58.85 M794.25 133.92 C810.65 114.26, 830.48 95.79, 854.6 64.49 M794.25 133.92 C811.54 113.76, 829.97 95.07, 854.6 64.49 M799.23 134.28 C816.66 115.87, 830.04 96.72, 854.34 70.89 M799.23 134.28 C814.66 115.8, 832.47 96.36, 854.34 70.89 M804.88 133.89 C817.22 119.33, 829.79 104.75, 854.74 76.53 M804.88 133.89 C817.64 119.76, 829.94 104.04, 854.74 76.53 M809.86 134.25 C825.14 114.48, 845.23 95.15, 854.48 82.93 M809.86 134.25 C826.21 115.62, 841.42 96.87, 854.48 82.93 M815.51 133.85 C826.18 120.05, 835.99 107.51, 854.21 89.33 M815.51 133.85 C823.58 124.81, 831.59 116.19, 854.21 89.33 M820.49 134.21 C834.32 119.26, 844.2 104.21, 854.61 94.97 M820.49 134.21 C828.87 125.36, 835.32 116.8, 854.61 94.97 M826.14 133.82 C835.99 126.36, 842.68 115.09, 854.35 101.37 M826.14 133.82 C837.6 120.62, 847.42 108.04, 854.35 101.37 M831.78 133.42 C841.27 122.87, 850.74 112.74, 854.74 107.01 M831.78 133.42 C836.55 127.25, 840.18 122.51, 854.74 107.01 M838.73 131.52 C840.46 127.31, 844.43 123.36, 851.2 117.18 M838.73 131.52 C842 128.64, 843.95 126, 851.2 117.18" stroke="#a5d8ff" stroke-width="0.5" fill="none"></path><path d="M32 0 C204.61 -0.36, 377.65 0.21, 822.31 0 M32 0 C212.37 -2.89, 393.52 -3.43, 822.31 0 M822.31 0 C842.59 -1.76, 854.67 9.8, 854.31 32 M822.31 0 C841.6 2.13, 853.55 12.41, 854.31 32 M854.31 32 C855.1 58.26, 854.01 84.64, 854.31 102.02 M854.31 32 C853.82 48.02, 854.16 63.15, 854.31 102.02 M854.31 102.02 C856.3 122.01, 843.62 135.02, 822.31 134.02 M854.31 102.02 C853.66 125.13, 843.68 136.02, 822.31 134.02 M822.31 134.02 C539.77 133.54, 259.17 133.49, 32 134.02 M822.31 134.02 C643.01 132.49, 464.32 132.44, 32 134.02 M32 134.02 C9.92 132.07, -0.71 124.43, 0 102.02 M32 134.02 C12.53 133.97, 1.87 125.19, 0 102.02 M0 102.02 C-0.15 86.17, 0.41 67.76, 0 32 M0 102.02 C-0.51 80.27, 0.47 57.19, 0 32 M0 32 C1.62 12.54, 11.63 -1.26, 32 0 M0 32 C-1.37 11.54, 12.02 -0.65, 32 0" stroke="#1e1e1e" stroke-width="1" fill="none"></path></g><g stroke-linecap="round" transform="translate(10.00000032642697 415.7994330915981) rotate(0 427.1572735 55.64287594203711)"><path d="M6.75 7.19 C6.75 7.19, 6.75 7.19, 6.75 7.19 M6.75 7.19 C6.75 7.19, 6.75 7.19, 6.75 7.19 M1.24 19.63 C4.35 16.02, 11.71 9.67, 16.33 2.27 M1.24 19.63 C4.61 15.65, 7.62 12.9, 16.33 2.27 M0.32 26.78 C9.61 16.65, 15.66 10.73, 22.63 1.12 M0.32 26.78 C6.26 20.03, 10.85 13.45, 22.63 1.12 M0.72 32.42 C8.84 23.44, 18.84 10.62, 28.27 0.73 M0.72 32.42 C5.57 26.3, 11.39 18.53, 28.27 0.73 M0.46 38.82 C12.03 26.24, 17.87 16.64, 33.91 0.33 M0.46 38.82 C10.33 28.32, 18.43 18.37, 33.91 0.33 M0.19 45.22 C10.45 32.01, 20.09 21.18, 38.9 0.69 M0.19 45.22 C11.21 31.62, 23.27 18.02, 38.9 0.69 M0.59 50.86 C11.6 39.28, 20.86 27.4, 44.54 0.3 M0.59 50.86 C14.3 35.64, 27.23 20.13, 44.54 0.3 M0.33 57.26 C12.12 42.18, 23.87 31.4, 49.53 0.66 M0.33 57.26 C17.33 38.98, 34.45 18.14, 49.53 0.66 M0.72 62.9 C19.27 42.23, 37.76 20.95, 55.17 0.26 M0.72 62.9 C18.22 43.55, 35.21 24.81, 55.17 0.26 M0.46 69.3 C19.64 48.44, 36.29 25.84, 60.16 0.62 M0.46 69.3 C15.41 50.2, 30.19 34.09, 60.16 0.62 M0.2 75.7 C17.38 58.87, 31.43 39.54, 65.8 0.23 M0.2 75.7 C13.2 59.39, 27.95 44.49, 65.8 0.23 M0.59 81.34 C17.77 61.24, 32.71 42.27, 70.79 0.59 M0.59 81.34 C16.85 64.1, 32.89 44.72, 70.79 0.59 M0.33 87.74 C24.86 59.76, 47.19 35.11, 76.43 0.19 M0.33 87.74 C20.89 64.37, 41.4 39.73, 76.43 0.19 M1.38 92.63 C27.31 65.61, 50.33 37.82, 81.42 0.55 M1.38 92.63 C22.02 68.81, 44.05 44.81, 81.42 0.55 M3.09 96.76 C28.94 71.15, 49.84 42.57, 86.41 0.91 M3.09 96.76 C29.4 65.12, 57.26 33.45, 86.41 0.91 M4.8 100.89 C26.73 76.67, 47.88 54.27, 92.05 0.52 M4.8 100.89 C27.01 75.85, 49.18 50.12, 92.05 0.52 M7.81 103.52 C26 79.1, 46.73 56.35, 97.04 0.88 M7.81 103.52 C38.08 67.44, 70.36 30.52, 97.04 0.88 M10.18 106.9 C40.38 73.11, 71.77 35.92, 102.68 0.48 M10.18 106.9 C38.49 72.69, 68 39.63, 102.68 0.48 M13.85 108.77 C36.97 84.19, 57.56 60.08, 107.67 0.84 M13.85 108.77 C40.18 79.5, 65.31 49.08, 107.67 0.84 M18.18 109.88 C43.56 79.55, 72.95 47.32, 113.31 0.45 M18.18 109.88 C42.64 84.49, 65.51 56.96, 113.31 0.45 M22.51 111 C54.86 77.09, 83.75 43.12, 118.3 0.81 M22.51 111 C58.88 68.08, 96.73 26.75, 118.3 0.81 M28.16 110.6 C66 70.11, 101.53 25.54, 123.94 0.41 M28.16 110.6 C53.08 80.6, 79.37 52.33, 123.94 0.41 M33.14 110.96 C55.68 86.13, 74.26 60.37, 128.93 0.78 M33.14 110.96 C64.56 76.49, 93.43 41.82, 128.93 0.78 M38.79 110.57 C70.08 77.49, 97.71 41.32, 134.57 0.38 M38.79 110.57 C66.09 80.78, 92.73 50.41, 134.57 0.38 M43.77 110.93 C77.85 73.93, 113.52 33.88, 139.56 0.74 M43.77 110.93 C69.72 83.56, 94.11 54.3, 139.56 0.74 M49.42 110.53 C68.35 87.6, 87.49 65.29, 145.2 0.35 M49.42 110.53 C71.9 87.82, 92.39 62.46, 145.2 0.35 M54.4 110.89 C77.32 87.12, 98.53 59.76, 150.19 0.71 M54.4 110.89 C89.29 70.96, 123.93 29.83, 150.19 0.71 M59.39 111.25 C86.77 79.46, 119.17 45.48, 155.83 0.31 M59.39 111.25 C86.05 79.57, 111.7 49.92, 155.83 0.31 M65.03 110.86 C90.4 81.25, 114.56 54.18, 160.82 0.67 M65.03 110.86 C96.1 74.25, 126.1 38.19, 160.82 0.67 M70.02 111.22 C99.5 75.83, 128.91 42.78, 166.46 0.28 M70.02 111.22 C99.91 75.41, 131.09 39.58, 166.46 0.28 M75.66 110.82 C105.91 75.35, 137.19 38.24, 171.45 0.64 M75.66 110.82 C113.08 67.18, 149.92 25.39, 171.45 0.64 M80.65 111.18 C110.09 80.48, 134.8 48.73, 177.09 0.24 M80.65 111.18 C102.53 85.65, 125.22 57.81, 177.09 0.24 M86.29 110.79 C111.03 81.77, 136.53 51.75, 182.08 0.6 M86.29 110.79 C121.23 69.83, 156.99 30, 182.08 0.6 M91.28 111.15 C124.09 76.04, 154.33 36.46, 187.07 0.96 M91.28 111.15 C128.39 69.07, 164.44 26.65, 187.07 0.96 M96.92 110.76 C133.25 70.17, 168.53 31.05, 192.71 0.57 M96.92 110.76 C117.34 86.35, 138.33 64.82, 192.71 0.57 M101.91 111.12 C131.51 77.91, 164.49 43.62, 197.7 0.93 M101.91 111.12 C137.67 69.43, 174.55 28.07, 197.7 0.93 M107.55 110.72 C129.39 85.5, 149.14 59.23, 203.34 0.53 M107.55 110.72 C128.92 84.92, 150.52 58.75, 203.34 0.53 M112.54 111.08 C140.02 75.45, 168.25 42.8, 208.33 0.89 M112.54 111.08 C138.36 81.9, 163.16 53.05, 208.33 0.89 M118.19 110.69 C150.41 71.99, 180.4 37.89, 213.97 0.5 M118.19 110.69 C145.79 79.89, 172.63 47.09, 213.97 0.5 M123.17 111.05 C159.17 68.98, 192.36 31.66, 218.96 0.86 M123.17 111.05 C160.06 70.77, 194.88 30.55, 218.96 0.86 M128.82 110.65 C157.51 79.21, 182.01 47.44, 224.6 0.46 M128.82 110.65 C150.37 88.14, 168.87 63.87, 224.6 0.46 M133.8 111.01 C170.03 72.21, 201.61 33.62, 229.59 0.82 M133.8 111.01 C157.61 83.49, 183.04 56.04, 229.59 0.82 M139.45 110.62 C173.05 70.07, 211.65 26.84, 235.23 0.43 M139.45 110.62 C172.57 72.13, 206.89 34.7, 235.23 0.43 M144.43 110.98 C176.3 72.36, 212.28 33.94, 240.22 0.79 M144.43 110.98 C178.99 72.66, 212.8 33.13, 240.22 0.79 M150.08 110.58 C185.73 72.7, 219.1 29.74, 245.86 0.4 M150.08 110.58 C172.68 84.89, 194.62 60.12, 245.86 0.4 M155.06 110.94 C193.17 65.72, 229.87 21.27, 250.85 0.76 M155.06 110.94 C185.04 75.93, 215.66 41.73, 250.85 0.76 M160.05 111.3 C192.91 71.26, 229.5 30.81, 256.49 0.36 M160.05 111.3 C192.77 72.05, 226.28 34.96, 256.49 0.36 M165.69 110.91 C201.54 71.9, 236.1 31.99, 261.48 0.72 M165.69 110.91 C193.41 78.29, 220.31 46.23, 261.48 0.72 M170.68 111.27 C201.82 75.51, 237.24 36.55, 267.12 0.33 M170.68 111.27 C199.95 79.68, 228.33 45.66, 267.12 0.33 M176.32 110.87 C202.76 79.83, 230 48.08, 272.11 0.69 M176.32 110.87 C200.87 81.7, 225.53 55.11, 272.11 0.69 M181.31 111.23 C216.01 70.01, 249.09 34.63, 277.75 0.29 M181.31 111.23 C210.21 79.76, 238.81 47.68, 277.75 0.29 M186.95 110.84 C209.64 85.95, 231.8 61.4, 282.74 0.65 M186.95 110.84 C209.5 85.36, 231.46 59.29, 282.74 0.65 M191.94 111.2 C230.39 68.5, 266.75 23.99, 287.72 1.01 M191.94 111.2 C216.73 84.03, 239.86 55.07, 287.72 1.01 M197.58 110.81 C219.89 87.82, 240.27 63.25, 293.37 0.62 M197.58 110.81 C228.46 75.72, 259.42 40.05, 293.37 0.62 M202.57 111.17 C234.56 73.38, 263.47 36.66, 298.35 0.98 M202.57 111.17 C229.5 81.64, 254.64 52.71, 298.35 0.98 M208.21 110.77 C236.47 76.25, 265.18 44.53, 304 0.58 M208.21 110.77 C231.67 84.24, 253.3 56.91, 304 0.58 M213.2 111.13 C245.17 76.76, 277.28 40.53, 308.98 0.94 M213.2 111.13 C249.93 70.74, 285.71 29.3, 308.98 0.94 M218.84 110.74 C251.09 71.63, 287.58 34.12, 314.63 0.55 M218.84 110.74 C238.51 87.53, 258.77 65.62, 314.63 0.55 M223.83 111.1 C247.73 84.13, 268.27 59.97, 319.61 0.91 M223.83 111.1 C259.27 69.32, 294.98 29.37, 319.61 0.91 M229.47 110.7 C264.89 73.38, 298.8 32.22, 325.26 0.51 M229.47 110.7 C254.44 83.52, 278.61 54.43, 325.26 0.51 M234.46 111.06 C255.45 86.22, 278.68 61.89, 330.24 0.87 M234.46 111.06 C256.56 87.58, 275.85 63.79, 330.24 0.87 M240.1 110.67 C276.68 68.49, 313.53 24.95, 335.89 0.48 M240.1 110.67 C268.07 79.15, 293.61 47.77, 335.89 0.48 M245.09 111.03 C279.55 69.01, 312.87 29.83, 340.87 0.84 M245.09 111.03 C282.3 67.67, 321.13 25.42, 340.87 0.84 M250.73 110.63 C271.39 84.97, 295.15 59.82, 346.52 0.45 M250.73 110.63 C274.52 82.55, 299.19 56.44, 346.52 0.45 M255.72 110.99 C293.52 67.75, 326.41 27.99, 351.5 0.81 M255.72 110.99 C290.24 70.26, 325.63 29.99, 351.5 0.81 M260.71 111.35 C294.5 68.89, 330.99 30.38, 357.15 0.41 M260.71 111.35 C295.12 73.47, 328.44 33.65, 357.15 0.41 M266.35 110.96 C301.32 73.23, 331.83 33.38, 362.13 0.77 M266.35 110.96 C298.95 73.87, 330.11 37.13, 362.13 0.77 M271.34 111.32 C308.57 68.05, 341.83 27.19, 367.78 0.38 M271.34 111.32 C295.42 83.53, 318.56 56.68, 367.78 0.38 M276.98 110.92 C316.49 69.25, 354.48 23.36, 372.76 0.74 M276.98 110.92 C302.67 83.2, 326.35 54.8, 372.76 0.74 M281.97 111.28 C311.07 79.29, 339.8 43.64, 377.75 1.1 M281.97 111.28 C305.11 82.84, 329.14 55.42, 377.75 1.1 M287.61 110.89 C322.42 69.25, 358.52 28.33, 383.4 0.7 M287.61 110.89 C310.82 81.41, 336.98 53.59, 383.4 0.7 M292.6 111.25 C328.26 71.54, 363.21 32.88, 388.38 1.06 M292.6 111.25 C322.57 73.87, 354.31 37.35, 388.38 1.06 M298.24 110.86 C322.64 85.61, 343.57 60.96, 394.03 0.67 M298.24 110.86 C333.82 67.35, 372.12 23.93, 394.03 0.67 M303.23 111.22 C337.01 73.72, 371.65 35.36, 399.01 1.03 M303.23 111.22 C332.68 78.66, 361.22 45.12, 399.01 1.03 M308.87 110.82 C326.81 86.4, 345.77 66.9, 404.66 0.63 M308.87 110.82 C336.18 80.38, 364.22 49, 404.66 0.63 M313.86 111.18 C342.91 78.01, 370.48 42.79, 409.64 0.99 M313.86 111.18 C335.14 86.4, 357.22 61.5, 409.64 0.99 M319.5 110.79 C338.82 88.63, 360.48 64.13, 415.29 0.6 M319.5 110.79 C349.26 77.9, 377.69 44.04, 415.29 0.6 M324.49 111.15 C342.58 87.61, 365.85 64.26, 420.27 0.96 M324.49 111.15 C348.76 85.24, 372.89 57.35, 420.27 0.96 M330.13 110.75 C357.93 76.95, 389.71 41.59, 425.92 0.56 M330.13 110.75 C366.74 69.5, 401.44 26.69, 425.92 0.56 M335.12 111.11 C361.12 79.23, 389.19 46.66, 430.9 0.92 M335.12 111.11 C366.24 76.59, 397.62 39.97, 430.9 0.92 M340.76 110.72 C361.23 87.18, 378.26 66.82, 436.55 0.53 M340.76 110.72 C377.07 66.86, 413.7 24.9, 436.55 0.53 M345.75 111.08 C380.36 74.89, 412.09 36.63, 441.53 0.89 M345.75 111.08 C371.85 78.99, 401.29 46.98, 441.53 0.89 M351.39 110.68 C384.84 74.28, 414.71 39.68, 447.18 0.49 M351.39 110.68 C386.32 69.89, 421.95 30.93, 447.18 0.49 M356.38 111.04 C390.59 69.96, 423.44 34.43, 452.16 0.86 M356.38 111.04 C379.31 86.2, 402.49 60.32, 452.16 0.86 M361.36 111.4 C380.35 87.6, 402.74 63.79, 457.81 0.46 M361.36 111.4 C390.06 81.07, 417.89 47.59, 457.81 0.46 M367.01 111.01 C397.56 72.87, 429.29 39.79, 462.79 0.82 M367.01 111.01 C395.62 78.98, 423.16 48.09, 462.79 0.82 M372 111.37 C397.73 81.45, 423.92 55.35, 468.44 0.43 M372 111.37 C401.46 79.57, 429.93 47.13, 468.44 0.43 M377.64 110.97 C402.12 81.7, 428.49 52.36, 473.42 0.79 M377.64 110.97 C402.15 81.49, 425.42 55, 473.42 0.79 M382.63 111.33 C403.79 89.81, 423.51 69.52, 478.41 1.15 M382.63 111.33 C409.34 80.56, 435.82 49.58, 478.41 1.15 M388.27 110.94 C423.34 73.56, 454.97 35.18, 484.05 0.75 M388.27 110.94 C420.48 72.68, 453.97 33.61, 484.05 0.75 M393.26 111.3 C417.02 84.71, 440.46 58.23, 489.04 1.11 M393.26 111.3 C421.34 79.96, 448.22 47.44, 489.04 1.11 M398.9 110.9 C431.26 73.01, 465.02 33.13, 494.68 0.72 M398.9 110.9 C427.04 79.06, 454.98 45.35, 494.68 0.72 M403.89 111.26 C430.56 79.94, 460.82 47.21, 499.67 1.08 M403.89 111.26 C434.94 74.73, 467.55 39.02, 499.67 1.08 M409.53 110.87 C436.75 80, 464.62 50.81, 505.31 0.68 M409.53 110.87 C430.42 86.05, 451.21 61.56, 505.31 0.68 M414.52 111.23 C448.12 70.64, 484.63 30.64, 510.3 1.04 M414.52 111.23 C446.02 73.71, 477.33 38.48, 510.3 1.04 M420.16 110.84 C448.52 79.63, 478.45 46.26, 515.94 0.65 M420.16 110.84 C453.33 72.26, 485.6 35.96, 515.94 0.65 M425.15 111.2 C457.16 71.02, 491.84 31.15, 520.93 1.01 M425.15 111.2 C445.27 89.75, 464.41 68.17, 520.93 1.01 M430.79 110.8 C469.41 66.4, 507.84 23.29, 526.57 0.61 M430.79 110.8 C461.09 77.54, 490.32 42.78, 526.57 0.61 M435.78 111.16 C461.73 80.85, 486.24 52.26, 531.56 0.97 M435.78 111.16 C456.32 88.15, 475.38 64.95, 531.56 0.97 M441.42 110.77 C470.56 74.1, 504.99 37.42, 537.2 0.58 M441.42 110.77 C465.44 86.82, 486.38 60.36, 537.2 0.58 M446.41 111.13 C465.22 88.91, 486.27 65.81, 542.19 0.94 M446.41 111.13 C482.04 71.94, 515.46 33.64, 542.19 0.94 M452.05 110.73 C478.74 79.81, 505.72 49.71, 547.83 0.54 M452.05 110.73 C478.19 82.19, 502.92 53.37, 547.83 0.54 M457.04 111.09 C489 73.56, 523.59 32.57, 552.82 0.9 M457.04 111.09 C477.2 88.82, 495.94 65.96, 552.82 0.9 M462.02 111.45 C484.09 86.6, 503.94 63.4, 558.46 0.51 M462.02 111.45 C484.64 85.57, 506.55 59.37, 558.46 0.51 M467.67 111.06 C504.7 68.29, 541.96 25.85, 563.45 0.87 M467.67 111.06 C495.38 82.17, 521.24 51.27, 563.45 0.87 M472.65 111.42 C502.38 80.84, 531.65 45.8, 569.09 0.48 M472.65 111.42 C509.7 67.96, 547.47 24.43, 569.09 0.48 M478.3 111.02 C511.29 72.2, 542.9 37.87, 574.08 0.84 M478.3 111.02 C501.54 85.85, 522.99 61.76, 574.08 0.84 M483.28 111.38 C509.09 78.68, 540.01 48.34, 579.07 1.2 M483.28 111.38 C510.08 80.22, 535.08 51.96, 579.07 1.2 M488.93 110.99 C512.87 85.25, 536.33 57.03, 584.71 0.8 M488.93 110.99 C519.13 77.83, 547.35 43.74, 584.71 0.8 M493.91 111.35 C526.33 71.85, 563.45 31.59, 589.7 1.16 M493.91 111.35 C518.58 84.24, 540.49 56.31, 589.7 1.16 M499.56 110.95 C531.92 77.11, 561.87 40.8, 595.34 0.77 M499.56 110.95 C523.29 83.97, 548.32 55.69, 595.34 0.77 M504.54 111.31 C526.11 84.25, 549.05 59.45, 600.33 1.13 M504.54 111.31 C538.91 74.25, 570.64 36.36, 600.33 1.13 M510.19 110.92 C533.19 86.54, 555.17 61.12, 605.97 0.73 M510.19 110.92 C532.49 86.69, 554.1 60.72, 605.97 0.73 M515.17 111.28 C545.61 78.87, 572.41 46.91, 610.96 1.09 M515.17 111.28 C536.61 85.35, 558.32 60.84, 610.96 1.09 M520.82 110.89 C554.27 73.62, 589.5 32.51, 616.6 0.7 M520.82 110.89 C549.2 78.25, 577.37 45.95, 616.6 0.7 M525.8 111.25 C551.62 82.1, 578.96 48.82, 621.59 1.06 M525.8 111.25 C549.19 83.58, 573.85 56.42, 621.59 1.06 M531.45 110.85 C566.48 71.97, 598.49 30.49, 627.23 0.66 M531.45 110.85 C559.59 79.21, 585.84 47, 627.23 0.66 M536.43 111.21 C566.92 77.33, 598.17 39.32, 632.22 1.02 M536.43 111.21 C573.73 68.44, 610.9 24.46, 632.22 1.02 M542.08 110.82 C561.84 86.23, 582.94 62.87, 637.86 0.63 M542.08 110.82 C563.54 88.22, 582.66 65.7, 637.86 0.63 M547.06 111.18 C581.8 69.7, 621.55 26.64, 642.85 0.99 M547.06 111.18 C577.31 78.46, 604.9 46.58, 642.85 0.99 M552.71 110.78 C592.66 68.4, 629.49 24.11, 648.49 0.59 M552.71 110.78 C591.31 68.18, 628.13 26.24, 648.49 0.59 M557.69 111.14 C596.26 67.36, 635.97 24.4, 653.48 0.95 M557.69 111.14 C579.72 83.27, 603.57 56.51, 653.48 0.95 M562.68 111.5 C587.15 86.58, 609.21 56.1, 659.12 0.56 M562.68 111.5 C595.06 74.61, 624.58 39.48, 659.12 0.56 M568.32 111.11 C596.93 77.8, 624.73 47.91, 664.11 0.92 M568.32 111.11 C604.95 67.57, 643.74 24.26, 664.11 0.92 M573.31 111.47 C597.16 82.34, 619.37 55.91, 669.75 0.53 M573.31 111.47 C597.1 83.59, 622.92 55.65, 669.75 0.53 M578.95 111.07 C599.31 86.03, 616.77 62.25, 674.74 0.89 M578.95 111.07 C612.76 73.57, 644.65 36.6, 674.74 0.89 M583.94 111.43 C615.2 74.33, 648.06 34.75, 679.73 1.25 M583.94 111.43 C621.2 67.17, 658.64 24.43, 679.73 1.25 M589.58 111.04 C616.18 81.96, 644.05 51.82, 685.37 0.85 M589.58 111.04 C622.5 74.31, 652.67 38.15, 685.37 0.85 M594.57 111.4 C630.91 69.54, 668.91 25.17, 690.36 1.21 M594.57 111.4 C620.66 80.4, 647.96 48.57, 690.36 1.21 M600.21 111 C621.07 85.36, 642.67 61.24, 696 0.82 M600.21 111 C627.7 82.03, 654.14 49.97, 696 0.82 M605.2 111.36 C639.84 72.89, 672.28 37.53, 700.99 1.18 M605.2 111.36 C629.77 85.1, 652.78 58.16, 700.99 1.18 M610.84 110.97 C644.06 70.82, 680.44 30.21, 706.63 0.78 M610.84 110.97 C642.71 74.23, 673.46 37.5, 706.63 0.78 M615.83 111.33 C637.05 84.27, 663.47 56.29, 711.62 1.14 M615.83 111.33 C647.84 76.99, 677.52 41.19, 711.62 1.14 M621.47 110.94 C642.1 86.53, 665.1 58.52, 717.26 0.75 M621.47 110.94 C649.88 75.55, 678.8 42.5, 717.26 0.75 M626.46 111.3 C649.76 86.83, 671.21 60.52, 722.25 1.11 M626.46 111.3 C657.86 74.16, 689.65 38.21, 722.25 1.11 M632.1 110.9 C662.98 73.82, 696.74 35.27, 727.89 0.71 M632.1 110.9 C657.01 79.69, 683.03 50.92, 727.89 0.71 M637.09 111.26 C671.58 71.33, 706.77 30.23, 732.88 1.07 M637.09 111.26 C660.77 84.61, 686.24 57.82, 732.88 1.07 M642.73 110.87 C660 87.58, 682.87 67.63, 738.52 0.68 M642.73 110.87 C673.6 73.56, 706.8 35.09, 738.52 0.68 M647.72 111.23 C683.77 71.55, 718 31.88, 743.51 1.04 M647.72 111.23 C683.62 68.6, 721.31 26.98, 743.51 1.04 M653.36 110.83 C683.52 73.8, 713.53 38.01, 749.15 0.64 M653.36 110.83 C679.09 79.3, 706.49 49.74, 749.15 0.64 M658.35 111.19 C682.52 82.68, 710.15 54.62, 754.14 1 M658.35 111.19 C678.29 88.5, 699.59 65.06, 754.14 1 M663.34 111.55 C684.87 86.3, 705.82 61.07, 759.78 0.61 M663.34 111.55 C694.92 74.67, 725.09 38.1, 759.78 0.61 M668.98 111.16 C689.94 89.32, 709.64 64.31, 764.77 0.97 M668.98 111.16 C705.18 70.97, 739.77 29.66, 764.77 0.97 M673.97 111.52 C692.64 86.81, 711.94 66.05, 770.41 0.57 M673.97 111.52 C705.44 72.93, 739.64 34.82, 770.41 0.57 M679.61 111.12 C702.58 89.2, 721.48 61.34, 775.4 0.94 M679.61 111.12 C698.56 88.57, 718.01 66.68, 775.4 0.94 M684.6 111.48 C717.66 73.73, 753.26 34.86, 780.38 1.3 M684.6 111.48 C709.9 82.47, 734.55 52.36, 780.38 1.3 M690.24 111.09 C709.57 87.48, 731.34 62.88, 786.03 0.9 M690.24 111.09 C716.69 80.35, 743.85 48.42, 786.03 0.9 M695.23 111.45 C733.25 70.31, 769.21 24.42, 791.01 1.26 M695.23 111.45 C721.53 81.5, 749.97 49.6, 791.01 1.26 M700.87 111.05 C722.39 86.7, 746.58 58.8, 796.66 0.87 M700.87 111.05 C726.98 81.24, 751.93 51.44, 796.66 0.87 M705.86 111.41 C743.11 69.25, 781.23 23.84, 801.64 1.23 M705.86 111.41 C726.89 88.08, 748.43 63.24, 801.64 1.23 M711.5 111.02 C749.69 68.51, 786.96 25.41, 807.29 0.83 M711.5 111.02 C729.78 88.39, 750.6 66.54, 807.29 0.83 M716.49 111.38 C741.6 82.42, 768.12 53.62, 812.27 1.19 M716.49 111.38 C752.94 69.31, 789.53 27.83, 812.27 1.19 M722.13 110.98 C749.01 79.99, 778.96 49.87, 817.92 0.8 M722.13 110.98 C749.81 79.2, 778.3 48.93, 817.92 0.8 M727.12 111.34 C756.48 79.06, 782.07 45.86, 822.9 1.16 M727.12 111.34 C754.53 79.23, 784.18 46.16, 822.9 1.16 M732.76 110.95 C756.5 83.62, 780.41 56, 828.55 0.76 M732.76 110.95 C756.88 83.2, 780.72 54.2, 828.55 0.76 M737.75 111.31 C772.66 69.74, 811.81 28.47, 833.53 1.12 M737.75 111.31 C772.8 71.26, 806.34 31.42, 833.53 1.12 M743.39 110.92 C770.2 79.45, 795.63 48.96, 837.86 2.24 M743.39 110.92 C762.3 88.32, 781.6 66.7, 837.86 2.24 M748.38 111.28 C784.98 71.14, 817 30.62, 842.2 3.35 M748.38 111.28 C769.94 86.4, 790 62.17, 842.2 3.35 M754.02 110.88 C782.3 82.75, 807.34 50.37, 845.21 5.98 M754.02 110.88 C789.95 69.4, 824.23 28.68, 845.21 5.98 M759.01 111.24 C793.64 72.69, 827.93 34.01, 848.23 8.6 M759.01 111.24 C776.57 90.1, 793.62 69.92, 848.23 8.6 M764 111.6 C787.33 82.28, 812.62 53.84, 851.25 11.23 M764 111.6 C782.53 90.22, 800.31 69.35, 851.25 11.23 M769.64 111.21 C791.03 86.86, 815.86 61.22, 852.96 15.36 M769.64 111.21 C790.3 89.77, 810.09 65.74, 852.96 15.36 M774.63 111.57 C802.35 80.54, 831.34 45.48, 853.35 21 M774.63 111.57 C792.1 91.26, 810.01 69.83, 853.35 21 M780.27 111.17 C803.63 87.09, 824.76 60.3, 854.4 25.89 M780.27 111.17 C805.25 81.63, 831.18 52.63, 854.4 25.89 M785.26 111.53 C806.72 87, 829.38 62.03, 854.8 31.53 M785.26 111.53 C809.94 82.96, 834.27 54.64, 854.8 31.53 M790.9 111.14 C814.94 84.21, 838.89 58.62, 854.54 37.93 M790.9 111.14 C813.4 83.9, 838.08 57.46, 854.54 37.93 M795.89 111.5 C809.23 93.6, 824.1 77.02, 854.93 43.57 M795.89 111.5 C809.88 94.26, 823.87 77.54, 854.93 43.57 M801.53 111.1 C818.04 88.85, 838.48 68.26, 854.67 49.97 M801.53 111.1 C815.38 95.54, 828.28 80.87, 854.67 49.97 M806.52 111.46 C820.5 94.68, 838.21 74.65, 854.41 56.37 M806.52 111.46 C821.11 94.28, 837.04 76.7, 854.41 56.37 M812.16 111.07 C824.44 100.38, 833.84 84.4, 854.8 62.01 M812.16 111.07 C827.09 94.02, 840.2 79.01, 854.8 62.01 M817.15 111.43 C827.74 99.93, 838.05 87.46, 854.54 68.41 M817.15 111.43 C829.9 97.54, 842.24 82.8, 854.54 68.41 M822.79 111.03 C829.06 104.14, 833.75 97.56, 854.28 74.81 M822.79 111.03 C830.87 101.4, 838.01 93.16, 854.28 74.81 M827.78 111.39 C836.31 103.29, 840.15 96.33, 854.68 80.45 M827.78 111.39 C834.66 104.19, 840.55 95.73, 854.68 80.45 M833.42 111 C837.72 105.9, 841.61 99.28, 854.41 86.85 M833.42 111 C840.14 104.73, 844.58 97.47, 854.41 86.85 M841.03 108.34 C845.94 102.21, 850.17 100.02, 852.18 95.51 M841.03 108.34 C843.92 105.01, 847.68 100.36, 852.18 95.51" stroke="#ffec99" stroke-width="0.5" fill="none"></path><path d="M27.82 0 C286.55 -0.96, 545.82 -1.41, 826.49 0 M27.82 0 C275.45 -0.76, 522.78 -0.75, 826.49 0 M826.49 0 C845.59 -0.9, 856.14 10.11, 854.31 27.82 M826.49 0 C843.62 1.9, 853.72 8.54, 854.31 27.82 M854.31 27.82 C854.19 41, 855.64 49.56, 854.31 83.46 M854.31 27.82 C855.04 49.14, 854.1 68.45, 854.31 83.46 M854.31 83.46 C856.17 100.16, 846.19 111.26, 826.49 111.29 M854.31 83.46 C853.24 102.75, 843.82 111.18, 826.49 111.29 M826.49 111.29 C630.17 114.59, 434.86 113.56, 27.82 111.29 M826.49 111.29 C558.96 114.38, 291.21 113.75, 27.82 111.29 M27.82 111.29 C8.38 112.86, 1.7 101.36, 0 83.46 M27.82 111.29 C9.04 112.29, -1.36 100.86, 0 83.46 M0 83.46 C1.45 66.4, 0.18 52.73, 0 27.82 M0 83.46 C-0.75 65.12, 0.7 45.63, 0 27.82 M0 27.82 C1.94 8.14, 9.55 1, 27.82 0 M0 27.82 C0.59 8.5, 10.48 -1.26, 27.82 0" stroke="#1e1e1e" stroke-width="1" fill="none"></path></g></svg>