<svg version="1.1" xmlns="http://www.w3.org/2000/svg" viewBox="0 0 603.446665112359 422.74436362033015" width="1810.3399953370772" height="1268.2330908609904">
  <!-- svg-source:excalidraw -->
  
  <defs>
    <style class="style-fonts">
      @font-face {
        font-family: "Virgil";
        src: url("https://excalidraw.com/Virgil.woff2");
      }
      @font-face {
        font-family: "Cascadia";
        src: url("https://excalidraw.com/Cascadia.woff2");
      }
      @font-face {
        font-family: "Assistant";
        src: url("https://excalidraw.com/Assistant-Regular.woff2");
      }
    </style>
    
  </defs>
  <rect x="0" y="0" width="603.446665112359" height="422.74436362033015" fill="#ffffff"></rect><g stroke-linecap="round"><g transform="translate(12.385418747363076 54.9260779926521) rotate(0 0 178.90914281383903)"><path d="M0 0 C2 84.85, 1.69 171.52, 0 357.82 M0 0 C0.15 91.88, 0.74 183.82, 0 357.82" stroke="#1e1e1e" stroke-width="1" fill="none"></path></g></g><mask></mask><g stroke-linecap="round"><g transform="translate(10 114.56246120554573) rotate(0 146.7054915109776 0)"><path d="M0 0 C83.59 0.55, 167.91 0.24, 293.41 0 M0 0 C87.95 1.45, 175.52 2.14, 293.41 0" stroke="#1e1e1e" stroke-width="1" fill="none"></path></g></g><mask></mask><g stroke-linecap="round"><g transform="translate(301.0255096758568 283.92981300761994) rotate(0 -143.1273087911977 0)"><path d="M-0.44 -0.36 C-48.14 -0.36, -237.76 -0.7, -285.34 -0.75 M1.54 -1.6 C-46.32 -1.39, -237.81 0.08, -285.81 0.4" stroke="#1e1e1e" stroke-width="1" fill="none"></path></g></g><mask></mask><g stroke-linecap="round"><g transform="translate(303.41103762069054 46.179415188605105) rotate(0 0 171.3552030331573)"><path d="M0 0 C0.96 127.06, 0.48 255.11, 0 342.71 M0 0 C-0.82 120.97, -0.3 242.26, 0 342.71" stroke="#1e1e1e" stroke-width="1" fill="none"></path></g></g><mask></mask><g transform="translate(20.53569956520164 10) rotate(0 128.7298583984375 12.5)"><text x="0" y="0" font-family="Virgil, Segoe UI Emoji" font-size="20px" fill="#1e1e1e" text-anchor="start" style="white-space: pre;" direction="ltr" dominant-baseline="text-before-edge">2. temperature decreases</text></g><g stroke-linecap="round"><g transform="translate(216.7393671668899 116.15275857003292) rotate(0 0 83.88849991942581)"><path d="M0.57 -0.86 C0.68 27.35, 0.8 140.71, 0.84 168.77" stroke="#1e1e1e" stroke-width="1.5" fill="none" stroke-dasharray="8 9"></path></g></g><mask></mask><g stroke-linecap="round"><g transform="translate(226.2812605512836 192.48733235846095) rotate(0 139.94668676285568 0)"><path d="M-0.92 1.13 C45.98 1.34, 233.64 0.66, 280.48 0.37 M0.8 0.68 C47.67 0.6, 233.39 -1.5, 279.84 -1.57" stroke="#1e1e1e" stroke-width="1" fill="none"></path></g><g transform="translate(226.2812605512836 192.48733235846095) rotate(0 139.94668676285568 0)"><path d="M256.41 7.15 C263.66 6.34, 267.68 3.78, 279.84 -1.57 M256.41 7.15 C261.44 4.96, 267.46 2.69, 279.84 -1.57" stroke="#1e1e1e" stroke-width="1" fill="none"></path></g><g transform="translate(226.2812605512836 192.48733235846095) rotate(0 139.94668676285568 0)"><path d="M256.29 -9.95 C263.44 -6.9, 267.49 -5.58, 279.84 -1.57 M256.29 -9.95 C261.51 -7.96, 267.57 -6.03, 279.84 -1.57" stroke="#1e1e1e" stroke-width="1" fill="none"></path></g></g><mask></mask><g transform="translate(530.4267371338433 179.56610484842548) rotate(0 31.50996398925787 12.5)"><text x="0" y="0" font-family="Virgil, Segoe UI Emoji" font-size="20px" fill="#1e1e1e" text-anchor="start" style="white-space: pre;" direction="ltr" dominant-baseline="text-before-edge">tensile</text></g><g stroke-linecap="round"><g transform="translate(298.6400909284936 343.56629176830035) rotate(0 -55.66062615199189 0)"><path d="M0.48 0.95 C-18.14 0.64, -92.66 -1.03, -111.18 -1.12 M-0.73 0.4 C-19.55 0.14, -93.66 0.19, -112.05 -0.17" stroke="#1e1e1e" stroke-width="1" fill="none"></path></g><g transform="translate(298.6400909284936 343.56629176830035) rotate(0 -55.66062615199189 0)"><path d="M-88.49 -8.53 C-94.99 -5.32, -106.56 -1.56, -112.05 -0.17 M-88.49 -8.53 C-96.09 -6.01, -105.1 -3.5, -112.05 -0.17" stroke="#1e1e1e" stroke-width="1" fill="none"></path></g><g transform="translate(298.6400909284936 343.56629176830035) rotate(0 -55.66062615199189 0)"><path d="M-88.63 8.57 C-95.18 5.88, -106.71 3.75, -112.05 -0.17 M-88.63 8.57 C-96.1 5.42, -105.06 2.27, -112.05 -0.17" stroke="#1e1e1e" stroke-width="1" fill="none"></path></g></g><mask></mask></svg>