<svg version="1.1" xmlns="http://www.w3.org/2000/svg" viewBox="0 0 698.3188985771995 423.5395259522575" width="2094.9566957315988" height="1270.6185778567726">
  <!-- svg-source:excalidraw -->
  
  <defs>
    <style class="style-fonts">
      @font-face {
        font-family: "Virgil";
        src: url("https://excalidraw.com/Virgil.woff2");
      }
      @font-face {
        font-family: "Cascadia";
        src: url("https://excalidraw.com/Cascadia.woff2");
      }
      @font-face {
        font-family: "Assistant";
        src: url("https://excalidraw.com/Assistant-Regular.woff2");
      }
    </style>
    
  </defs>
  <rect x="0" y="0" width="698.3188985771995" height="423.5395259522575" fill="#ffffff"></rect><g stroke-linecap="round"><g transform="translate(12.385418747363076 55.72124032457947) rotate(0 0 178.90914281383903)"><path d="M0 0 C2 84.85, 1.69 171.52, 0 357.82 M0 0 C0.15 91.88, 0.74 183.82, 0 357.82" stroke="#1e1e1e" stroke-width="1" fill="none"></path></g></g><mask></mask><g stroke-linecap="round"><g transform="translate(10 115.3576235374731) rotate(0 146.7054915109776 0)"><path d="M0 0 C83.59 0.55, 167.91 0.24, 293.41 0 M0 0 C87.95 1.45, 175.52 2.14, 293.41 0" stroke="#1e1e1e" stroke-width="1" fill="none"></path></g></g><mask></mask><g stroke-linecap="round"><g transform="translate(301.0255096758568 284.7249753395473) rotate(0 -143.1273087911977 0)"><path d="M-0.44 -0.36 C-48.14 -0.36, -237.76 -0.7, -285.34 -0.75 M1.54 -1.6 C-46.32 -1.39, -237.81 0.08, -285.81 0.4" stroke="#1e1e1e" stroke-width="1" fill="none"></path></g></g><mask></mask><g stroke-linecap="round"><g transform="translate(303.41103762069054 46.97457752053248) rotate(0 0 171.3552030331573)"><path d="M0 0 C0.96 127.06, 0.48 255.11, 0 342.71 M0 0 C-0.82 120.97, -0.3 242.26, 0 342.71" stroke="#1e1e1e" stroke-width="1" fill="none"></path></g></g><mask></mask><g stroke-linecap="round"><g transform="translate(305.0012803864423 113.76729887361824) rotate(0 48.10667272162641 -1.192723023365346)"><path d="M-0.49 -0.59 C15.27 -0.92, 79.55 -2.65, 95.61 -2.92" stroke="#1e1e1e" stroke-width="1.5" fill="none" stroke-dasharray="8 9"></path></g></g><mask></mask><g stroke-linecap="round"><g transform="translate(403.6000991757936 112.17702880849885) rotate(0 0 84.2860742605476)"><path d="M-0.61 0.52 C-0.55 28.57, 0.62 141.14, 0.81 169.18" stroke="#1e1e1e" stroke-width="1.5" fill="none" stroke-dasharray="8 9"></path></g></g><mask></mask><g stroke-linecap="round"><g transform="translate(403.6000991757936 284.7249480401796) rotate(0 -50.09455807691921 0)"><path d="M0.51 0.44 C-16.32 0.49, -83.47 -0.55, -100.14 -0.44" stroke="#1e1e1e" stroke-width="1.5" fill="none" stroke-dasharray="8 9"></path></g></g><mask></mask><g stroke-linecap="round"><g transform="translate(541.9564612747944 184.5358318863412) rotate(0 -61.62425491850257 0)"><path d="M0.29 -1.19 C-19.98 -1.4, -102.16 -0.31, -122.79 -0.22 M-1.02 0.79 C-21.3 1.29, -102.94 1.29, -123.49 1.2" stroke="#1e1e1e" stroke-width="1" fill="none"></path></g><g transform="translate(541.9564612747944 184.5358318863412) rotate(0 -61.62425491850257 0)"><path d="M-99.99 -7.32 C-106.61 -4.78, -109.7 -4.18, -123.49 1.2 M-99.99 -7.32 C-106.54 -5.56, -111.76 -2.7, -123.49 1.2" stroke="#1e1e1e" stroke-width="1" fill="none"></path></g><g transform="translate(541.9564612747944 184.5358318863412) rotate(0 -61.62425491850257 0)"><path d="M-100.01 9.78 C-106.78 8.89, -109.86 6.07, -123.49 1.2 M-100.01 9.78 C-106.47 7.38, -111.68 6.08, -123.49 1.2" stroke="#1e1e1e" stroke-width="1" fill="none"></path></g></g><mask></mask><g transform="translate(577.6390279717308 168.732173341068) rotate(0 55.339935302734375 12.5)"><text x="0" y="0" font-family="Virgil, Segoe UI Emoji" font-size="20px" fill="#1e1e1e" text-anchor="start" style="white-space: pre;" direction="ltr" dominant-baseline="text-before-edge">compressive</text></g><g transform="translate(20.53569956520164 10) rotate(0 120.01985931396484 12.5)"><text x="0" y="0" font-family="Virgil, Segoe UI Emoji" font-size="20px" fill="#1e1e1e" text-anchor="start" style="white-space: pre;" direction="ltr" dominant-baseline="text-before-edge">1. temperature increases</text></g></svg>