<svg version="1.1" xmlns="http://www.w3.org/2000/svg" viewBox="0 0 981.1225415297108 615.9297090592886" width="2943.3676245891324" height="1847.7891271778658">
  <!-- svg-source:excalidraw -->
  
  <defs>
    <style class="style-fonts">
      @font-face {
        font-family: "Virgil";
        src: url("https://excalidraw.com/Virgil.woff2");
      }
      @font-face {
        font-family: "Cascadia";
        src: url("https://excalidraw.com/Cascadia.woff2");
      }
      @font-face {
        font-family: "Assistant";
        src: url("https://excalidraw.com/Assistant-Regular.woff2");
      }
    </style>
    
  </defs>
  <rect x="0" y="0" width="981.1225415297108" height="615.9297090592886" fill="#ffffff"></rect><g stroke-linecap="round"><g transform="translate(142.3970867675671 91.87595893674097) rotate(0 247.3015672751012 0.5620565596814231)"><path d="M1.07 0.25 C83.83 0.45, 413.05 1.41, 495.44 1.55 M0.17 -0.67 C82.94 -0.86, 412.45 -0.85, 494.93 -0.35" stroke="#1e1e1e" stroke-width="1" fill="none"></path></g></g><mask></mask><g stroke-linecap="round"><g transform="translate(637.5058601493411 89.60059129086085) rotate(0 0 231.00215860141384)"><path d="M-0.73 -0.25 C-0.85 76.74, -0.94 384.64, -0.82 461.75 M1.09 -1.42 C1.36 75.77, 1.77 386.21, 1.46 463.15" stroke="#1e1e1e" stroke-width="1" fill="none"></path></g></g><mask></mask><g stroke-linecap="round"><g transform="translate(636.3817277335552 545.9844007861425) rotate(0 -241.98255563550754 0.26890565106555187)"><path d="M-0.15 0.5 C-80.74 0.75, -402.82 1.56, -483.36 1.72 M-1.69 -0.29 C-82.39 -0.35, -403.63 0.23, -483.99 0.22" stroke="#1e1e1e" stroke-width="1" fill="none"></path></g></g><mask></mask><g stroke-linecap="round"><g transform="translate(638.7703385651268 545.6427859101686) rotate(0 165.80451425845297 0)"><path d="M1.15 0.01 C56.53 0.01, 276.71 0.35, 331.72 0.41 M0.3 -1.03 C55.57 -1.43, 275.84 -1.37, 330.83 -1.5" stroke="#1e1e1e" stroke-width="1" fill="none"></path></g></g><mask></mask><g stroke-linecap="round"><g transform="translate(970.493084082033 549.374981861853) rotate(0 -165.80451425845285 -229.32515802223747)"><path d="M0.63 0.54 C-54.4 -75.97, -276.03 -382.68, -331.22 -459.2 M-0.5 -0.22 C-55.56 -76.57, -276.92 -381.78, -331.96 -457.95" stroke="#1e1e1e" stroke-width="1" fill="none"></path></g></g><mask></mask><g stroke-linecap="round"><g transform="translate(98.56642106279742 53.62947317824319) rotate(0 -1.1240938229399262 50.584414996529404)"><path d="M0.47 0.04 C-0.04 16.72, -2.01 83.38, -2.48 100.18 M-0.74 -0.99 C-1.48 15.81, -3.14 84.03, -3.54 101.21" stroke="#1e1e1e" stroke-width="1" fill="none"></path></g></g><mask></mask><g stroke-linecap="round"><g transform="translate(100.8146858943694 54.75354770476042) rotate(0 21.357859821551756 19.109681823883193)"><path d="M-0.75 -0.7 C6.48 5.51, 35.55 30.77, 42.82 37.45 M1.06 1.55 C8.18 7.88, 35.07 32.57, 41.92 38.58" stroke="#1e1e1e" stroke-width="1" fill="none"></path></g></g><mask></mask><g stroke-linecap="round"><g transform="translate(92.94599054094351 150.30188928669622) rotate(0 25.854235113311688 -28.664488967084708)"><path d="M0.22 -0.47 C8.83 -10.08, 43.5 -48.72, 52.25 -58.15 M-1.12 -1.77 C7.33 -11.2, 42.65 -48.07, 51.59 -57.04" stroke="#1e1e1e" stroke-width="1" fill="none"></path></g></g><mask></mask><g stroke-linecap="round"><g transform="translate(108.01948470280513 504.29415455246954) rotate(0 -1.1240938229399262 50.584414996529404)"><path d="M-0.95 0.21 C-1.12 17.26, -1.61 84.94, -1.75 101.64 M0.75 -0.73 C0.53 16.02, -1.93 82.76, -2.44 99.76" stroke="#1e1e1e" stroke-width="1" fill="none"></path></g></g><mask></mask><g stroke-linecap="round"><g transform="translate(110.26774953437734 505.4182290789863) rotate(0 21.357859821551756 19.109681823883193)"><path d="M0.5 0.47 C7.85 6.67, 36.24 30.93, 43.17 37.42 M-0.7 -0.33 C6.62 5.98, 35.51 32.2, 42.47 38.53" stroke="#1e1e1e" stroke-width="1" fill="none"></path></g></g><mask></mask><g stroke-linecap="round"><g transform="translate(102.39905418095168 600.9665706609226) rotate(0 25.854235113311688 -28.664488967084708)"><path d="M0.46 -0.8 C8.89 -10.24, 42.72 -46.93, 51.1 -56.17 M-0.76 1.39 C8.03 -8.39, 44.51 -47.78, 53.49 -57.68" stroke="#1e1e1e" stroke-width="1" fill="none"></path></g></g><mask></mask><g stroke-linecap="round"><g transform="translate(41.06209002893502 110.83751743213224) rotate(89.74420820560155 58.453110349955296 0)"><path d="M-0.41 1.13 C18.71 1.21, 96.35 0.39, 115.83 0.3 M1.58 0.68 C20.95 0.4, 99 -1.3, 117.98 -1.66" stroke="#1e1e1e" stroke-width="1" fill="none"></path></g></g><mask></mask><g stroke-linecap="round"><g transform="translate(95.3128571284451 11.504169341467787) rotate(89.74420820560155 -28.945522071031178 28.945522071031064)"><path d="M-1.08 0.3 C-10.73 9.86, -48.92 48.8, -58.34 58.47 M0.56 -0.58 C-9.26 9.13, -49.73 47.18, -59.52 56.65" stroke="#1e1e1e" stroke-width="1" fill="none"></path></g></g><mask></mask><g stroke-linecap="round"><g transform="translate(90.99005041258829 55.20088388706699) rotate(89.74420820560155 -40.18651818969988 40.18651818969988)"><path d="M-0.45 0.58 C-13.61 14, -66.89 67.59, -80.06 80.81 M1.52 -0.17 C-11.68 12.86, -67.3 65.39, -80.85 78.92" stroke="#1e1e1e" stroke-width="1" fill="none"></path></g></g><mask></mask><g stroke-linecap="round"><g transform="translate(99.72661308141255 29.568519346539688) rotate(89.74420820560155 -37.93833054382003 37.93833054382003)"><path d="M0.91 -0.46 C-11.85 12.09, -63.54 63.07, -76.23 75.7 M-0.07 -1.74 C-13.05 10.95, -64.77 64.13, -77.36 77.15" stroke="#1e1e1e" stroke-width="1" fill="none"></path></g></g><mask></mask><g stroke-linecap="round"><g transform="translate(104.9903581727433 489.1022705594273) rotate(0 -1.1240938229399262 50.584414996529404)"><path d="M0.41 -0.37 C-0.2 16.52, -2.76 84.04, -3.01 100.79 M-0.84 -1.61 C-1.11 15.51, -0.63 85.04, -0.69 102.12" stroke="#1e1e1e" stroke-width="1" fill="none"></path></g></g><mask></mask><g stroke-linecap="round"><g transform="translate(47.4860271388809 546.3103148133164) rotate(89.74420820560155 58.453110349955296 0)"><path d="M-0.76 -0.38 C18.85 -0.49, 98.28 -1.12, 118.08 -1.04 M1.04 -1.63 C20.56 -1.59, 98.27 -0.56, 117.74 -0.05" stroke="#1e1e1e" stroke-width="1" fill="none"></path></g></g><mask></mask><g stroke-linecap="round"><g transform="translate(101.73679423839098 446.97696672265147) rotate(89.74420820560155 -28.945522071031178 28.945522071031064)"><path d="M1.17 -1.04 C-8.16 8.69, -46.99 47.97, -56.75 57.99 M0.33 1.03 C-9 11.01, -47.4 50.19, -57.09 59.57" stroke="#1e1e1e" stroke-width="1" fill="none"></path></g></g><mask></mask><g stroke-linecap="round"><g transform="translate(108.58677652253436 507.51947126825144) rotate(89.74420820560155 -40.18651818969988 40.18651818969988)"><path d="M1.15 0.1 C-12.36 13.86, -66.43 68.01, -79.85 81.55 M0.29 -0.9 C-13.43 12.65, -67.21 66.65, -80.52 80.05" stroke="#1e1e1e" stroke-width="1" fill="none"></path></g></g><mask></mask><g stroke-linecap="round"><g transform="translate(106.15055019135866 465.04131672772337) rotate(89.74420820560155 -37.93833054382003 37.93833054382003)"><path d="M1.02 0.97 C-11.55 13.23, -61.91 62.29, -74.89 74.76 M0.09 0.43 C-12.59 13.3, -62.89 62.94, -75.32 75.71" stroke="#1e1e1e" stroke-width="1" fill="none"></path></g></g><mask></mask><g stroke-linecap="round"><g transform="translate(373.3015978189526 93.03149063990077) rotate(0 0 227.7669547509729)"><path d="M0.99 -1.1 C1 75.09, -0.84 380.3, -1.03 456.6 M0.06 0.93 C0.52 76.87, 1.32 379.36, 1.14 455.04" stroke="#1e1e1e" stroke-width="1" fill="none"></path></g></g><mask></mask><g stroke-linecap="round"><g transform="translate(370.22364279290696 549.59133818502) rotate(0 -114.90942862770919 -230.84486574685434)"><path d="M0.95 -0.48 C-37.65 -77.08, -192.26 -383.89, -230.58 -460.72 M0 -1.78 C-38.31 -78.6, -190.05 -385.96, -228.27 -462.34" stroke="#1e1e1e" stroke-width="1" fill="none"></path></g></g><mask></mask><g stroke-linecap="round"><g transform="translate(151.6905267019722 541.3835520465818) rotate(0 110.29256653690322 -223.66303526365527)"><path d="M0.07 -0.61 C36.68 -75.14, 183.89 -372.08, 220.67 -446.7 M-1.35 1.68 C35.02 -73.23, 182.86 -373.62, 219.77 -448.49" stroke="#1e1e1e" stroke-width="1" fill="none"></path></g></g><mask></mask><g stroke-linecap="round"><g transform="translate(374.32753586212607 94.05748151927128) rotate(0 131.32510657697912 227.25395931128764)"><path d="M-1.18 0.62 C42.83 76.23, 219.63 378.17, 263.41 453.72 M0.4 -0.1 C44.38 75.63, 218.97 379.01, 262.87 454.84" stroke="#1e1e1e" stroke-width="1" fill="none"></path></g></g><mask></mask><g stroke-linecap="round"><g transform="translate(373.3015978189526 548.5654001418466) rotate(0 130.2991333096743 -227.7669547509729)"><path d="M-0.2 0.64 C43.32 -74.93, 217.51 -378.62, 261.15 -454.46 M-1.76 -0.06 C41.65 -75.87, 216.63 -380, 260.5 -456.01" stroke="#1e1e1e" stroke-width="1" fill="none"></path></g></g><mask></mask></svg>