<svg version="1.1" xmlns="http://www.w3.org/2000/svg" viewBox="0 0 672.0737474260663 329.4479550478154" width="2016.221242278199" height="988.3438651434462">
  <!-- svg-source:excalidraw -->
  
  <defs>
    <style class="style-fonts">
      @font-face {
        font-family: "Virgil";
        src: url("https://excalidraw.com/Virgil.woff2");
      }
      @font-face {
        font-family: "Cascadia";
        src: url("https://excalidraw.com/Cascadia.woff2");
      }
      @font-face {
        font-family: "Assistant";
        src: url("https://excalidraw.com/Assistant-Regular.woff2");
      }
    </style>
    <clipPath id="q0RvE7jrhm_m5XmvDZlVR">
            <rect transform="translate(0 0) rotate(0 336.0368737130332 164.7239775239077)" width="672.0737474260661" height="329.44795504781547">
          </rect>
        </clipPath>
  </defs>
  <rect x="0" y="0" width="672.0737474260663" height="329.4479550478154" fill="#ffffff"></rect><g clip-path="url(#q0RvE7jrhm_m5XmvDZlVR)"><g stroke-linecap="round" transform="translate(73.57671777231371 67.53684871696714) rotate(0 112.56135012015011 107.34511636343268)"><path d="M121.74 1.14 C134.72 0.36, 150.25 5.25, 162.39 10.82 C174.54 16.39, 185.46 25.01, 194.61 34.57 C203.76 44.13, 212.13 56.31, 217.28 68.16 C222.44 80.02, 225.4 92.78, 225.54 105.69 C225.68 118.6, 223.12 133.24, 218.15 145.63 C213.18 158.03, 204.82 170.53, 195.73 180.04 C186.64 189.55, 175.65 196.99, 163.62 202.69 C151.59 208.38, 137.14 212.99, 123.53 214.2 C109.92 215.41, 94.96 213.52, 81.97 209.93 C68.98 206.33, 56.34 200.3, 45.56 192.61 C34.79 184.93, 24.58 174.57, 17.32 163.81 C10.06 153.06, 4.45 140.73, 1.99 128.06 C-0.46 115.38, 0.23 100.6, 2.59 87.77 C4.94 74.93, 9.11 61.94, 16.13 51.06 C23.15 40.19, 33.77 30.21, 44.69 22.52 C55.61 14.84, 67.96 8.56, 81.67 4.97 C95.38 1.39, 118.47 1.3, 126.93 1 C135.39 0.71, 132.49 1.45, 132.45 3.19 M90.34 1.29 C102.35 -2.53, 116.98 -0.64, 130.54 1.74 C144.09 4.13, 159.71 9.21, 171.68 15.6 C183.65 21.99, 194.48 29.79, 202.35 40.08 C210.21 50.38, 215.32 64.78, 218.88 77.35 C222.43 89.92, 224.69 102.85, 223.67 115.51 C222.65 128.17, 218.6 141.82, 212.73 153.3 C206.86 164.77, 197.97 175.41, 188.45 184.36 C178.92 193.3, 167.73 202, 155.58 206.97 C143.44 211.95, 129.16 213.82, 115.58 214.21 C101.99 214.6, 87.02 213.94, 74.06 209.31 C61.11 204.69, 47.97 195.07, 37.87 186.45 C27.76 177.82, 19.6 169.04, 13.45 157.58 C7.3 146.11, 2.37 130.57, 0.97 117.67 C-0.44 104.77, 1.33 92.31, 5.01 80.18 C8.7 68.04, 15.45 55.2, 23.11 44.87 C30.76 34.54, 39.88 25.31, 50.94 18.18 C61.99 11.06, 82.65 4.24, 89.41 2.12 C96.17 0.01, 90.86 3.49, 91.5 5.48" stroke="none" stroke-width="0" fill="#ffffff"></path><path d="M149.49 6.31 C162.34 8.93, 175.97 17.68, 186.49 25.99 C197.02 34.29, 206.19 44.89, 212.63 56.12 C219.07 67.35, 223.51 80.64, 225.13 93.36 C226.75 106.07, 225.7 119.94, 222.36 132.43 C219.02 144.92, 213.07 157.48, 205.1 168.3 C197.13 179.13, 185.89 190.17, 174.54 197.39 C163.18 204.62, 150.17 208.96, 136.96 211.65 C123.75 214.34, 108.55 215.52, 95.27 213.55 C82 211.58, 69 206.43, 57.31 199.84 C45.62 193.26, 33.79 184.08, 25.13 174.05 C16.46 164.02, 9.43 151.98, 5.32 139.68 C1.21 127.37, -0.28 113.17, 0.48 100.23 C1.24 87.29, 4.38 73.74, 9.86 62.04 C15.33 50.34, 23.54 38.96, 33.32 30.04 C43.11 21.12, 55.86 13.35, 68.56 8.5 C81.26 3.66, 95.6 1.39, 109.53 0.95 C123.45 0.52, 145 4.48, 152.13 5.89 C159.27 7.3, 153.09 7.5, 152.33 9.43 M64.21 11.11 C75.59 4.47, 93.02 1.66, 106.89 0.69 C120.76 -0.28, 134.56 1.25, 147.44 5.3 C160.31 9.35, 173.76 16.96, 184.15 25 C194.55 33.04, 203 42.34, 209.79 53.55 C216.57 64.77, 222.76 79.59, 224.85 92.28 C226.95 104.96, 225.37 117.1, 222.35 129.65 C219.32 142.2, 214.1 156.66, 206.7 167.55 C199.3 178.44, 188.87 187.69, 177.94 195 C167.01 202.31, 154.28 208.05, 141.12 211.39 C127.96 214.73, 112.84 216.6, 98.99 215.04 C85.13 213.48, 70.03 208.15, 57.99 202.03 C45.94 195.91, 35.23 188.15, 26.73 178.32 C18.23 168.49, 11.23 155.58, 6.99 143.05 C2.75 130.52, 0.74 116.12, 1.27 103.15 C1.8 90.19, 5.15 77.11, 10.19 65.27 C15.23 53.42, 22.03 41.42, 31.52 32.07 C41 22.72, 61.48 12.33, 67.09 9.14 C72.7 5.95, 64.48 11.16, 65.2 12.9" stroke="#1e1e1e" stroke-width="1" fill="none"></path></g></g><g clip-path="url(#q0RvE7jrhm_m5XmvDZlVR)"><g stroke-linecap="round"><g transform="translate(92.24541684146743 113.11044156432581) rotate(0 93.89264141150375 0)"><path d="M0.37 0.4 C31.49 0.29, 155.41 -0.61, 186.7 -0.68 M-0.89 -0.43 C30.58 -0.4, 157.44 0.22, 188.84 0.5" stroke="#1e1e1e" stroke-width="1" fill="none"></path></g></g><mask></mask></g><g clip-path="url(#q0RvE7jrhm_m5XmvDZlVR)"><g stroke-linecap="round"><g transform="translate(93.30011020157781 239.48904295962893) rotate(0 93.89264141150375 0)"><path d="M-0.28 -0.36 C31.01 -0.33, 155.35 0.09, 186.62 -0.03 M1.77 -1.59 C33.52 -1.35, 157.96 1.29, 188.71 1.49" stroke="#1e1e1e" stroke-width="1" fill="none"></path></g></g><mask></mask></g><g clip-path="url(#q0RvE7jrhm_m5XmvDZlVR)"><g stroke-linecap="round"><g transform="translate(362.94175791267844 104.32516055171436) rotate(0 114.20860217220729 0)"><path d="M0.44 -0.99 C38.42 -1.12, 190.69 -0.73, 228.63 -0.52 M-0.79 1.1 C36.99 1.11, 189.81 0.64, 227.8 0.74" stroke="#1e1e1e" stroke-width="1" fill="none"></path></g></g><mask></mask></g><g clip-path="url(#q0RvE7jrhm_m5XmvDZlVR)"><g stroke-linecap="round"><g transform="translate(363.1588217265239 237.90028966981026) rotate(0 114.20860217220729 0)"><path d="M0.52 0.64 C38.54 0.73, 189.99 0.64, 227.81 0.42 M-0.66 -0.07 C37.78 -0.34, 191.78 -1.54, 230.2 -1.48" stroke="#1e1e1e" stroke-width="1" fill="none"></path></g></g><mask></mask></g><g clip-path="url(#q0RvE7jrhm_m5XmvDZlVR)"><g stroke-linecap="round"><g transform="translate(590.260844492148 102.6779273508173) rotate(0 21.405802695393277 69.18405835391513)"><path d="M0.35 0.15 C4.46 4.96, 16.9 17.24, 23.88 28.78 C30.86 40.33, 41.47 55.42, 42.22 69.44 C42.96 83.47, 34.77 101.26, 28.36 112.93 C21.95 124.61, 7.71 135.38, 3.75 139.5 M-0.93 -0.81 C3.12 3.62, 16.06 14.83, 23.07 26.78 C30.08 38.73, 40.28 56.88, 41.14 70.9 C42 84.91, 34.13 99.87, 28.21 110.86 C22.29 121.85, 9.28 131.99, 5.6 136.83" stroke="#1e1e1e" stroke-width="1" fill="none"></path></g></g><mask></mask></g><g clip-path="url(#q0RvE7jrhm_m5XmvDZlVR)"><g stroke-linecap="round"><g transform="translate(362.1549767717124 109.60136431563751) rotate(0 -19.313676736286652 64.06950061727275)"><path d="M-0.65 -0.47 C-4.16 3.73, -14.66 15.04, -21.03 25.6 C-27.4 36.17, -38.01 50.44, -38.88 62.92 C-39.75 75.4, -32.56 89.64, -26.26 100.48 C-19.96 111.31, -5.44 123.13, -1.07 127.91 M1.21 -1.76 C-2.44 2.59, -15 16.62, -21.83 27.06 C-28.67 37.49, -39.08 48.48, -39.78 60.84 C-40.48 73.21, -32.24 90.05, -26.02 101.27 C-19.8 112.49, -6.51 123.61, -2.46 128.19" stroke="#1e1e1e" stroke-width="1" fill="none"></path></g></g><mask></mask></g><g clip-path="url(#q0RvE7jrhm_m5XmvDZlVR)"><g transform="translate(173.37196821269345 87.43008822960292) rotate(0 29.719985961914062 12.5)"><text x="0" y="0" font-family="Virgil, Segoe UI Emoji" font-size="20px" fill="#1e1e1e" text-anchor="start" style="white-space: pre;" direction="ltr" dominant-baseline="text-before-edge">0.011D</text></g></g><g clip-path="url(#q0RvE7jrhm_m5XmvDZlVR)"><g transform="translate(166.30146189479456 248.24426155749825) rotate(0 29.719985961914062 12.5)"><text x="0" y="0" font-family="Virgil, Segoe UI Emoji" font-size="20px" fill="#1e1e1e" text-anchor="start" style="white-space: pre;" direction="ltr" dominant-baseline="text-before-edge">0.011D</text></g></g><g clip-path="url(#q0RvE7jrhm_m5XmvDZlVR)"><g transform="translate(466.7178834264123 76.86844181808192) rotate(0 24.72998046875 12.5)"><text x="0" y="0" font-family="Virgil, Segoe UI Emoji" font-size="20px" fill="#1e1e1e" text-anchor="end" style="white-space: pre;" direction="rtl" dominant-baseline="text-before-edge">0.7٪ </text></g></g><g clip-path="url(#q0RvE7jrhm_m5XmvDZlVR)"><g stroke-linecap="round"><g transform="translate(527.6657189418211 91.1472478166379) rotate(0 0 -17.021466296082508)"><path d="M-0.48 -0.47 C-0.57 -6.15, -0.43 -28.72, -0.29 -34.35 M0.28 0.47 C0.34 -5.11, 0.81 -28.11, 0.79 -33.81" stroke="#1e1e1e" stroke-width="1" fill="none"></path></g><g transform="translate(527.6657189418211 91.1472478166379) rotate(0 0 -17.021466296082508)"><path d="M6.45 -17.76 C3.77 -23.87, 2.04 -28.53, 0.79 -33.81 M6.45 -17.76 C5.32 -21.67, 3.46 -26, 0.79 -33.81" stroke="#1e1e1e" stroke-width="1" fill="none"></path></g><g transform="translate(527.6657189418211 91.1472478166379) rotate(0 0 -17.021466296082508)"><path d="M-5.19 -17.88 C-3.79 -23.9, -1.43 -28.51, 0.79 -33.81 M-5.19 -17.88 C-3.26 -21.79, -2.07 -26.09, 0.79 -33.81" stroke="#1e1e1e" stroke-width="1" fill="none"></path></g></g><mask></mask></g></svg>